<?xml version="1.0" standalone="no"?>
<!DOCTYPE svg PUBLIC "-//W3C//DTD SVG 20010904//EN"
 "http://www.w3.org/TR/2001/REC-SVG-20010904/DTD/svg10.dtd">
<svg version="1.0" xmlns="http://www.w3.org/2000/svg"
 width="110.000000pt" height="110.000000pt" viewBox="0 0 110.000000 110.000000"
 preserveAspectRatio="xMidYMid meet">
<metadata>
Created by potrace 1.14, written by Peter Selinger 2001-2017
</metadata>
<g transform="translate(0.000000,110.000000) scale(0.100000,-0.100000)"
fill="#000000" stroke="none">
<path d="M518 1086 c-107 -38 -113 -172 -11 -221 l42 -20 1 -61 0 -61 -47 -19
c-27 -11 -51 -20 -54 -22 -3 -1 -25 15 -49 37 l-43 39 16 35 c21 44 21 70 1
113 -43 89 -176 89 -218 -1 -26 -53 -16 -102 29 -142 38 -36 90 -44 140 -21
23 11 29 8 69 -32 l43 -44 -18 -30 c-11 -17 -19 -41 -19 -53 0 -21 -4 -23 -64
-23 l-64 0 -12 35 c-17 52 -62 85 -117 85 -39 0 -50 -5 -84 -39 -32 -32 -39
-46 -39 -77 0 -66 43 -119 100 -124 74 -6 121 21 142 82 9 27 13 28 74 28 54
0 64 -3 64 -17 0 -10 9 -32 20 -50 l19 -32 -46 -45 c-45 -44 -47 -45 -74 -30
-15 7 -41 14 -57 14 -35 0 -92 -37 -109 -70 -40 -78 25 -180 114 -180 41 0 92
35 109 75 18 44 18 69 -2 107 l-16 31 44 44 45 45 34 -21 c19 -12 42 -21 52
-21 14 0 17 -10 17 -63 l0 -63 -39 -17 c-131 -58 -83 -248 59 -234 35 4 51 12
78 42 31 34 34 41 30 86 -6 57 -33 93 -84 109 -34 12 -34 12 -34 76 0 55 3 64
18 64 10 0 34 8 54 19 l37 18 42 -43 c39 -40 42 -45 31 -69 -23 -50 -15 -102
21 -140 39 -44 89 -55 139 -31 89 42 92 178 4 220 -43 20 -69 20 -113 0 l-34
-17 -40 42 c-22 23 -39 45 -37 49 2 4 11 28 22 55 l19 47 62 0 c58 0 63 -2 69
-23 22 -90 141 -121 204 -54 72 76 31 193 -72 204 -68 8 -136 -43 -136 -102 0
-12 -15 -15 -65 -15 -43 0 -65 4 -65 12 0 6 -10 31 -21 56 l-22 44 43 43 c42
43 44 43 71 29 15 -7 47 -14 70 -14 33 0 47 6 75 34 30 30 34 40 34 84 0 40
-6 57 -26 81 -50 59 -139 59 -189 -1 -23 -27 -26 -39 -23 -82 3 -28 8 -58 12
-67 5 -11 -6 -28 -35 -57 -23 -23 -42 -42 -43 -42 -1 0 -19 9 -41 20 -22 11
-45 20 -52 20 -9 0 -13 19 -13 65 0 53 3 65 16 65 26 0 70 31 88 60 58 98 -38
213 -146 176z"/>
</g>
</svg>
