<svg width="100" height="100" viewBox="0 0 100 100" fill="none" xmlns="http://www.w3.org/2000/svg">
<path d="M7.36187 81.2521L93.6444 81.2521L93.6444 21.5161L7.36187 21.5161L7.36187 81.2521Z" fill="white"/>
<path d="M93.6444 81.8004H7.35557C7.28387 81.8012 7.21271 81.7878 7.14622 81.761C7.07973 81.7341 7.01923 81.6943 6.96823 81.6439C6.91722 81.5935 6.87674 81.5335 6.8491 81.4673C6.82147 81.4011 6.80725 81.3301 6.80725 81.2584V21.5224C6.80725 21.377 6.86502 21.2375 6.96785 21.1347C7.07068 21.0318 7.21015 20.9741 7.35557 20.9741H93.6444C93.7898 20.9741 93.9293 21.0318 94.0322 21.1347C94.135 21.2375 94.1928 21.377 94.1928 21.5224V81.2584C94.1928 81.3301 94.1785 81.4011 94.1509 81.4673C94.1233 81.5335 94.0828 81.5935 94.0318 81.6439C93.9808 81.6943 93.9203 81.7341 93.8538 81.761C93.7873 81.7878 93.7161 81.8012 93.6444 81.8004ZM7.92911 80.7038H93.0961V22.0896H7.9039L7.92911 80.7038Z" fill="black"/>
<path d="M7.36187 26.8544L93.6444 26.8544V18.9698L7.36187 18.9698V26.8544Z" fill="#F35A05"/>
<path d="M93.6444 27.4027H7.35557C7.21015 27.4027 7.07068 27.3449 6.96785 27.2421C6.86502 27.1393 6.80725 26.9998 6.80725 26.8544V18.9761C6.80725 18.8307 6.86502 18.6912 6.96785 18.5884C7.07068 18.4856 7.21015 18.4278 7.35557 18.4278H93.6444C93.7899 18.4278 93.9293 18.4856 94.0321 18.5884C94.135 18.6912 94.1928 18.8307 94.1928 18.9761V26.8544C94.1928 26.9998 94.135 27.1393 94.0321 27.2421C93.9293 27.3449 93.7899 27.4027 93.6444 27.4027V27.4027ZM7.92911 26.306H93.0961V19.5244H7.9039L7.92911 26.306Z" fill="black"/>
<path d="M82.0036 42.1381C81.8581 42.1381 81.7187 42.0804 81.6158 41.9775C81.513 41.8747 81.4552 41.7353 81.4552 41.5898C81.4544 41.5181 81.4678 41.447 81.4947 41.3805C81.5215 41.314 81.5613 41.2535 81.6117 41.2025C81.6622 41.1515 81.7222 41.111 81.7884 41.0834C81.8545 41.0557 81.9255 41.0415 81.9973 41.0415H87.2788C87.4243 41.0415 87.5637 41.0993 87.6666 41.2021C87.7694 41.3049 87.8272 41.4444 87.8272 41.5898C87.8272 41.7353 87.7694 41.8747 87.6666 41.9775C87.5637 42.0804 87.4243 42.1381 87.2788 42.1381H81.9973H82.0036Z" fill="black"/>
<path d="M21.4418 42.2075C19.2107 42.2075 16.9355 42.2075 14.6413 42.1634C14.4959 42.1634 14.3564 42.1056 14.2536 42.0028C14.1508 41.8999 14.093 41.7605 14.093 41.6151C14.093 41.4696 14.1508 41.3301 14.2536 41.2273C14.3564 41.1245 14.4959 41.0667 14.6413 41.0667C18.3851 41.1108 22.0784 41.1234 25.6142 41.0667C25.7591 41.0683 25.8976 41.1266 26.0001 41.2291C26.1026 41.3316 26.1609 41.4701 26.1625 41.6151C26.1633 41.6873 26.1497 41.759 26.1225 41.8259C26.0952 41.8928 26.0549 41.9536 26.0038 42.0047C25.9527 42.0557 25.8919 42.0961 25.825 42.1234C25.7581 42.1506 25.6864 42.1642 25.6142 42.1634C24.2528 42.1928 22.862 42.2075 21.4418 42.2075Z" fill="black"/>
<path d="M75.8144 54.8252C75.669 54.8252 75.5295 54.7674 75.4267 54.6646C75.3239 54.5618 75.2661 54.4223 75.2661 54.2769C75.2661 54.1315 75.3239 53.992 75.4267 53.8892C75.5295 53.7863 75.669 53.7286 75.8144 53.7286H87.3167C87.4621 53.7286 87.6016 53.7863 87.7044 53.8892C87.8072 53.992 87.865 54.1315 87.865 54.2769C87.865 54.4223 87.8072 54.5618 87.7044 54.6646C87.6016 54.7674 87.4621 54.8252 87.3167 54.8252H75.8144Z" fill="black"/>
<path d="M54.0011 67.544C53.8557 67.544 53.7162 67.4862 53.6134 67.3834C53.5105 67.2805 53.4528 67.1411 53.4528 66.9956C53.4528 66.8502 53.5105 66.7108 53.6134 66.6079C53.7162 66.5051 53.8557 66.4473 54.0011 66.4473H86.6864C86.8318 66.4473 86.9713 66.5051 87.0741 66.6079C87.1769 66.7108 87.2347 66.8502 87.2347 66.9956C87.2347 67.1411 87.1769 67.2805 87.0741 67.3834C86.9713 67.4862 86.8318 67.544 86.6864 67.544H54.0011Z" fill="black"/>
<path d="M25.8348 54.8442C22.1667 54.8442 18.4229 54.8442 14.6477 54.8127C14.5023 54.8127 14.3628 54.755 14.26 54.6521C14.1571 54.5493 14.0994 54.4098 14.0994 54.2644C14.0994 54.119 14.1571 53.9795 14.26 53.8767C14.3628 53.7738 14.5023 53.7161 14.6477 53.7161C21.2087 53.7539 27.6563 53.7539 33.8139 53.7161C33.9577 53.7177 34.0953 53.7751 34.1976 53.8762C34.2999 53.9774 34.359 54.1143 34.3622 54.2581C34.3606 54.4036 34.3025 54.5428 34.2002 54.6463C34.0979 54.7498 33.9594 54.8094 33.8139 54.8127L25.8348 54.8442Z" fill="black"/>
<g opacity="0.13">
<path d="M93.6381 27.472H7.35559V30.0309H93.6381V27.472Z" fill="black"/>
</g>
<path d="M53.9948 56.7728C67.0827 56.7728 77.6925 46.1629 77.6925 33.075C77.6925 19.9871 67.0827 9.37726 53.9948 9.37726C40.9069 9.37726 30.297 19.9871 30.297 33.075C30.297 46.1629 40.9069 56.7728 53.9948 56.7728Z" fill="white"/>
<path d="M53.9948 57.3274C49.1979 57.3287 44.5083 55.9074 40.5192 53.2432C36.53 50.5791 33.4206 46.7918 31.584 42.3604C29.7474 37.929 29.2663 33.0524 30.2013 28.3475C31.1364 23.6426 33.4457 19.3206 36.8372 15.9282C40.2287 12.5358 44.5501 10.2254 49.2548 9.28911C53.9594 8.35281 58.8361 8.83272 63.268 10.6681C67.6999 12.5036 71.488 15.6121 74.1532 19.6005C76.8183 23.5889 78.2409 28.2781 78.2409 33.075C78.2342 39.504 75.6778 45.6679 71.1324 50.2145C66.587 54.761 60.4238 57.3191 53.9948 57.3274V57.3274ZM53.9948 9.9256C49.4145 9.92435 44.9367 11.2815 41.1278 13.8254C37.3189 16.3693 34.35 19.9857 32.5966 24.2171C30.8432 28.4485 30.3841 33.1049 31.2774 37.5973C32.1706 42.0896 34.3761 46.2161 37.6149 49.4549C40.8537 52.6937 44.9802 54.8992 49.4726 55.7925C53.9649 56.6857 58.6213 56.2266 62.8527 54.4732C67.0841 52.7199 70.7005 49.7509 73.2444 45.942C75.7883 42.1331 77.1455 37.6553 77.1442 33.075C77.1359 26.938 74.6943 21.0547 70.3547 16.7151C66.0151 12.3756 60.1318 9.93393 53.9948 9.9256V9.9256Z" fill="black"/>
<path d="M64.1911 42.9058C69.8226 37.2743 69.8226 28.1439 64.1911 22.5124C58.5596 16.8809 49.4292 16.8809 43.7977 22.5124C38.1662 28.1439 38.1662 37.2743 43.7977 42.9058C49.4292 48.5373 58.5596 48.5373 64.1911 42.9058Z" fill="white"/>
<path d="M53.9949 47.6781C51.0355 47.6781 48.1424 46.8009 45.6814 45.1572C43.2203 43.5135 41.3018 41.1772 40.1681 38.4435C39.0344 35.7098 38.7365 32.7014 39.312 29.7985C39.8876 26.8955 41.3107 24.2283 43.4016 22.1339C45.4925 20.0395 48.1573 18.6119 51.0592 18.0315C53.9612 17.4511 56.9701 17.7439 59.7057 18.873C62.4413 20.0021 64.7808 21.9167 66.4286 24.375C68.0764 26.8332 68.9586 29.7248 68.9636 32.6842C68.9652 36.657 67.3895 40.4679 64.5827 43.2795C61.7759 46.091 57.9677 47.6731 53.9949 47.6781V47.6781ZM53.9949 18.8374C51.2525 18.8374 48.5717 19.6507 46.2915 21.1742C44.0113 22.6978 42.2341 24.8633 41.1846 27.397C40.1352 29.9306 39.8606 32.7185 40.3956 35.4082C40.9306 38.0979 42.2512 40.5685 44.1904 42.5077C46.1295 44.4468 48.6001 45.7674 51.2898 46.3024C53.9795 46.8374 56.7675 46.5629 59.3011 45.5134C61.8347 44.4639 64.0002 42.6867 65.5238 40.4065C67.0474 38.1263 67.8606 35.4455 67.8606 32.7032C67.8631 30.8807 67.5063 29.0756 66.8106 27.3912C66.1149 25.7067 65.0939 24.1759 63.8061 22.8864C62.5183 21.5968 60.9889 20.5738 59.3054 19.8758C57.6219 19.1778 55.8174 18.8185 53.9949 18.8185V18.8374Z" fill="black"/>
<path d="M57.5375 36.2521C59.4942 34.2954 59.4942 31.1229 57.5375 29.1661C55.5807 27.2094 52.4082 27.2094 50.4515 29.1661C48.4947 31.1228 48.4947 34.2954 50.4515 36.2521C52.4082 38.2089 55.5807 38.2088 57.5375 36.2521Z" fill="white"/>
<path d="M53.9948 38.2683C52.8964 38.2683 51.8226 37.9429 50.909 37.3332C49.9954 36.7235 49.2829 35.8568 48.8615 34.8425C48.44 33.8283 48.3284 32.7118 48.5409 31.6342C48.7534 30.5566 49.2803 29.5661 50.0552 28.7876C50.8301 28.0092 51.8182 27.4778 52.8949 27.2605C53.9716 27.0432 55.0885 27.1496 56.1046 27.5665C57.1208 27.9834 57.9907 28.692 58.6046 29.6028C59.2184 30.5136 59.5487 31.5859 59.5536 32.6843C59.5561 33.4161 59.4142 34.1413 59.1361 34.8183C58.8579 35.4953 58.4489 36.1107 57.9326 36.6294C57.4162 37.1481 56.8026 37.5599 56.1269 37.8411C55.4512 38.1224 54.7267 38.2675 53.9948 38.2683V38.2683ZM53.9948 28.2472C53.1122 28.2472 52.2495 28.5089 51.5157 28.9993C50.7819 29.4896 50.2099 30.1865 49.8722 31.0018C49.5344 31.8172 49.4461 32.7144 49.6183 33.58C49.7904 34.4456 50.2154 35.2407 50.8395 35.8648C51.4635 36.4888 52.2586 36.9138 53.1242 37.086C53.9898 37.2581 54.887 37.1698 55.7024 36.832C56.5177 36.4943 57.2146 35.9224 57.705 35.1886C58.1953 34.4547 58.457 33.592 58.457 32.7095C58.4487 31.5309 57.9751 30.4033 57.1393 29.5723C56.3036 28.7413 55.1734 28.2741 53.9948 28.2724V28.2472Z" fill="black"/>
<path d="M53.9948 33.2578C53.9234 33.2585 53.8527 33.2449 53.7867 33.2178C53.7206 33.1907 53.6607 33.1508 53.6103 33.1002C53.5091 32.9966 53.4524 32.8575 53.4524 32.7126C53.4524 32.5678 53.5091 32.4286 53.6103 32.325L82.4132 3.28894C82.4632 3.2357 82.5234 3.19298 82.5902 3.16332C82.6569 3.13365 82.729 3.11763 82.802 3.11619C82.8751 3.11476 82.9477 3.12795 83.0156 3.15497C83.0835 3.18199 83.1453 3.22231 83.1973 3.27356C83.2494 3.3248 83.2908 3.38594 83.3189 3.45338C83.347 3.52082 83.3614 3.59319 83.3611 3.66626C83.3609 3.73933 83.346 3.81161 83.3174 3.87886C83.2889 3.94611 83.2471 4.00697 83.1947 4.05786L54.3855 33.1002C54.2811 33.2021 54.1407 33.2587 53.9948 33.2578V33.2578Z" fill="black"/>
<path d="M72.4174 14.1735L80.075 6.50958L86.0184 8.14826L78.3544 15.8059L72.4174 14.1735Z" fill="white"/>
<path d="M78.3354 16.3542C78.2873 16.3603 78.2386 16.3603 78.1905 16.3542L72.2534 14.7218C72.1613 14.695 72.0775 14.645 72.0102 14.5766C71.9429 14.5082 71.8943 14.4237 71.869 14.3311C71.8419 14.2326 71.8429 14.1284 71.8718 14.0304C71.9008 13.9324 71.9566 13.8445 72.0328 13.7765L79.6968 6.11881C79.7638 6.04914 79.8483 5.99889 79.9415 5.97337C80.0347 5.94785 80.1331 5.94801 80.2262 5.97384L86.1696 7.61252C86.2618 7.63706 86.346 7.68554 86.4135 7.75305C86.481 7.82056 86.5295 7.90471 86.554 7.99698C86.5785 8.09018 86.578 8.18819 86.5526 8.28113C86.5271 8.37407 86.4776 8.45867 86.4091 8.52639L78.7514 16.1904C78.6968 16.2444 78.6317 16.2868 78.5602 16.315C78.4887 16.3432 78.4123 16.3565 78.3354 16.3542V16.3542ZM73.4509 13.8899L78.1716 15.1945L84.9405 8.42555L80.2262 7.12092L73.4509 13.8899Z" fill="black"/>
<path d="M78.3985 0.528381L70.7345 8.18604L72.3732 14.1294L80.0308 6.46543L78.3985 0.528381Z" fill="white"/>
<path d="M72.3731 14.6778C72.3271 14.6839 72.2805 14.6839 72.2344 14.6778C72.1413 14.6536 72.0562 14.6054 71.9876 14.5379C71.919 14.4704 71.8693 14.386 71.8437 14.2933L70.2113 8.35625C70.1842 8.26273 70.1827 8.16364 70.2071 8.06937C70.2315 7.9751 70.2809 7.88914 70.35 7.82054L78.0076 0.156576C78.0767 0.090178 78.1616 0.0425755 78.2543 0.0183031C78.3469 -0.00596924 78.4443 -0.00610322 78.537 0.0179184C78.6302 0.0420805 78.7153 0.0903324 78.7839 0.157817C78.8525 0.225301 78.9021 0.309642 78.9278 0.402377L80.5602 6.33942C80.5873 6.43294 80.5888 6.53205 80.5644 6.62632C80.54 6.72059 80.4906 6.80654 80.4215 6.87515L72.7575 14.5328C72.7066 14.5817 72.6462 14.6197 72.5802 14.6446C72.5141 14.6695 72.4436 14.6808 72.3731 14.6778V14.6778ZM71.3521 8.37516L72.6504 13.1021L79.4194 6.33312L78.1211 1.60618L71.3521 8.37516Z" fill="black"/>
<path d="M41.2888 32.8922C41.2402 32.8909 41.1935 32.8731 41.1564 32.8418C41.1221 32.8075 41.1029 32.7611 41.1029 32.7126C41.1029 32.6642 41.1221 32.6177 41.1564 32.5834L53.8183 20.0791C53.8351 20.0614 53.8553 20.0473 53.8776 20.0376C53.9 20.0278 53.9241 20.0226 53.9484 20.0224C53.9728 20.0221 53.997 20.0266 54.0196 20.0358C54.0422 20.045 54.0627 20.0586 54.0799 20.0759C54.0971 20.0931 54.1108 20.1136 54.12 20.1362C54.1291 20.1588 54.1337 20.183 54.1334 20.2073C54.1331 20.2317 54.128 20.2558 54.1182 20.2781C54.1085 20.3005 54.0944 20.3207 54.0767 20.3375L41.4148 32.8481C41.3796 32.8777 41.3347 32.8934 41.2888 32.8922V32.8922Z" fill="black"/>
<path d="M41.9947 28.4112C41.9459 28.4109 41.8989 28.393 41.8623 28.3608C41.8295 28.3258 41.8113 28.2796 41.8113 28.2316C41.8113 28.1836 41.8295 28.1374 41.8623 28.1024L49.6145 20.3439C49.6495 20.3111 49.6957 20.2928 49.7437 20.2928C49.7917 20.2928 49.8379 20.3111 49.8729 20.3439C49.8907 20.3604 49.9048 20.3804 49.9145 20.4026C49.9242 20.4248 49.9292 20.4488 49.9292 20.4731C49.9292 20.4973 49.9242 20.5213 49.9145 20.5435C49.9048 20.5658 49.8907 20.5858 49.8729 20.6023L42.1207 28.3608C42.0858 28.3917 42.0412 28.4095 41.9947 28.4112Z" fill="black"/>
<path d="M41.9947 36.3649C41.9459 36.3647 41.8989 36.3468 41.8623 36.3145C41.8295 36.2795 41.8113 36.2333 41.8113 36.1853C41.8113 36.1373 41.8295 36.0912 41.8623 36.0561L57.1776 20.5391C57.2122 20.5062 57.2582 20.4881 57.3059 20.4887C57.3536 20.4893 57.3992 20.5085 57.4329 20.5422C57.4666 20.576 57.4859 20.6216 57.4864 20.6693C57.487 20.717 57.4689 20.763 57.436 20.7975L42.1207 36.3082C42.1046 36.3257 42.0851 36.3397 42.0635 36.3494C42.0418 36.3592 42.0184 36.3645 41.9947 36.3649Z" fill="black"/>
<path d="M55.8792 26.6401C55.8559 26.6404 55.8328 26.6361 55.8112 26.6275C55.7895 26.6188 55.7698 26.606 55.7532 26.5897C55.7189 26.5554 55.6997 26.5089 55.6997 26.4604C55.6997 26.412 55.7189 26.3655 55.7532 26.3312L60.3667 21.5854C60.4017 21.5526 60.4479 21.5344 60.4959 21.5344C60.5439 21.5344 60.5901 21.5526 60.6251 21.5854C60.6594 21.6197 60.6786 21.6661 60.6786 21.7146C60.6786 21.7631 60.6594 21.8095 60.6251 21.8438L56.0116 26.5834C55.9767 26.619 55.9291 26.6394 55.8792 26.6401V26.6401Z" fill="black"/>
<path d="M43.2489 39.1444C43.2242 39.1444 43.1997 39.1394 43.1769 39.1297C43.1542 39.1199 43.1337 39.1056 43.1166 39.0877C43.0838 39.0527 43.0656 39.0065 43.0656 38.9585C43.0656 38.9105 43.0838 38.8643 43.1166 38.8293L47.4906 34.5625C47.5256 34.5297 47.5718 34.5114 47.6198 34.5114C47.6678 34.5114 47.714 34.5297 47.749 34.5625C47.7832 34.5967 47.8025 34.6432 47.8025 34.6917C47.8025 34.7401 47.7832 34.7866 47.749 34.8209L43.3813 39.094C43.3447 39.1263 43.2977 39.1442 43.2489 39.1444Z" fill="black"/>
<path d="M50.4654 44.9744C50.4435 44.9754 50.4216 44.9721 50.401 44.9645C50.3804 44.9569 50.3616 44.9453 50.3456 44.9303C50.3114 44.896 50.2921 44.8496 50.2921 44.8011C50.2921 44.7526 50.3114 44.7062 50.3456 44.6719L55.7532 38.8357C55.7883 38.8029 55.8345 38.7847 55.8824 38.7847C55.9304 38.7847 55.9766 38.8029 56.0116 38.8357C56.0459 38.87 56.0651 38.9164 56.0651 38.9649C56.0651 39.0133 56.0459 39.0598 56.0116 39.0941L50.604 44.9177C50.5868 44.9371 50.5653 44.9523 50.5413 44.9621C50.5172 44.972 50.4913 44.9762 50.4654 44.9744V44.9744Z" fill="black"/>
<path d="M45.2278 41.7222C45.2031 41.7222 45.1786 41.7172 45.1558 41.7074C45.1331 41.6977 45.1125 41.6834 45.0955 41.6655C45.0627 41.6304 45.0444 41.5842 45.0444 41.5363C45.0444 41.4883 45.0627 41.4421 45.0955 41.407L48.877 37.6255C48.9121 37.5927 48.9582 37.5745 49.0062 37.5745C49.0542 37.5745 49.1004 37.5927 49.1354 37.6255C49.1697 37.6598 49.1889 37.7062 49.1889 37.7547C49.1889 37.8032 49.1697 37.8496 49.1354 37.8839L45.3539 41.697C45.3168 41.7215 45.2715 41.7306 45.2278 41.7222V41.7222Z" fill="black"/>
<path d="M47.6166 43.5626C47.5919 43.5626 47.5674 43.5575 47.5446 43.5478C47.5219 43.538 47.5013 43.5238 47.4843 43.5058C47.4515 43.4708 47.4332 43.4246 47.4332 43.3766C47.4332 43.3286 47.4515 43.2825 47.4843 43.2474L51.7511 38.9869C51.7676 38.9691 51.7876 38.955 51.8099 38.9453C51.8321 38.9356 51.8561 38.9306 51.8803 38.9306C51.9046 38.9306 51.9286 38.9356 51.9508 38.9453C51.973 38.955 51.993 38.9691 52.0095 38.9869C52.0423 39.0219 52.0606 39.0681 52.0606 39.1161C52.0606 39.164 52.0423 39.2102 52.0095 39.2453L47.7427 43.5058C47.7266 43.5233 47.7071 43.5373 47.6854 43.547C47.6638 43.5568 47.6404 43.5621 47.6166 43.5626Z" fill="black"/>
<path d="M60.102 30.2893C60.0569 30.289 60.0139 30.2709 59.9822 30.2389C59.948 30.2046 59.9287 30.1582 59.9287 30.1097C59.9287 30.0612 59.948 30.0148 59.9822 29.9805C61.3814 28.4931 62.8373 27.0246 64.3058 25.6128C64.3409 25.5794 64.3878 25.5613 64.4363 25.5624C64.4848 25.5636 64.5308 25.584 64.5642 25.6191C64.5976 25.6542 64.6157 25.7011 64.6146 25.7496C64.6134 25.7981 64.593 25.8441 64.5579 25.8775C63.0957 27.283 61.6461 28.7515 60.2532 30.2326C60.2335 30.2523 60.2098 30.2675 60.1837 30.2773C60.1576 30.2871 60.1298 30.2912 60.102 30.2893V30.2893Z" fill="black"/>
<path d="M60.7197 33.9007C60.6731 33.899 60.6286 33.8811 60.5937 33.8503C60.5594 33.816 60.5402 33.7695 60.5402 33.7211C60.5402 33.6726 60.5594 33.6261 60.5937 33.5919L65.6357 28.4237C65.67 28.3895 65.7165 28.3702 65.7649 28.3702C65.8134 28.3702 65.8599 28.3895 65.8941 28.4237C65.9269 28.4588 65.9452 28.505 65.9452 28.5529C65.9452 28.6009 65.9269 28.6471 65.8941 28.6821L60.8521 33.8503C60.8345 33.8671 60.8137 33.8802 60.791 33.8888C60.7682 33.8975 60.744 33.9015 60.7197 33.9007V33.9007Z" fill="black"/>
<path d="M53.4968 45.6298C53.4502 45.628 53.4057 45.6102 53.3708 45.5794C53.3365 45.5451 53.3173 45.4986 53.3173 45.4502C53.3173 45.4017 53.3365 45.3552 53.3708 45.3209C57.8456 40.5499 61.9612 36.2767 66.3163 31.8775C66.3508 31.8446 66.3969 31.8265 66.4446 31.8271C66.4923 31.8277 66.5379 31.8469 66.5716 31.8806C66.6053 31.9144 66.6245 31.9599 66.6251 32.0076C66.6257 32.0553 66.6076 32.1014 66.5747 32.1359C62.2196 36.5477 58.1103 40.802 53.6355 45.5668C53.6185 45.5869 53.5973 45.6031 53.5733 45.614C53.5493 45.6249 53.5232 45.6303 53.4968 45.6298Z" fill="black"/>
<path d="M57.8961 44.9744C57.8473 44.9741 57.8003 44.9562 57.7637 44.9239C57.7295 44.8897 57.7102 44.8432 57.7102 44.7947C57.7102 44.7463 57.7295 44.6998 57.7637 44.6655C58.394 44.0353 60.0768 42.2768 61.6965 40.5751C63.3163 38.8734 64.9991 37.115 65.6419 36.4848C65.6762 36.4505 65.7227 36.4313 65.7712 36.4313C65.8196 36.4313 65.8661 36.4505 65.9004 36.4848C65.9331 36.5198 65.9514 36.566 65.9514 36.614C65.9514 36.6619 65.9331 36.7081 65.9004 36.7432C65.2701 37.3734 63.581 39.1319 61.9612 40.8273C60.3415 42.5227 58.665 44.2937 58.0158 44.9239C57.9841 44.9559 57.9411 44.9741 57.8961 44.9744V44.9744Z" fill="black"/>
<g opacity="0.13">
<path d="M73.8795 45.7055C73.3879 45.8315 73.1925 46.2727 73.0097 46.7013C72.7947 47.1692 72.5238 47.6094 72.203 48.0122C71.2261 49.1026 69.0517 52.3421 66.4865 53.6846C64.7557 54.7998 62.9007 55.7093 60.9592 56.3947C59.571 56.9505 58.0929 57.2474 56.5978 57.2707C55.2112 57.3212 53.8183 57.3401 52.4317 57.2707C52.4279 57.0982 52.3809 56.9293 52.295 56.7796C52.2091 56.6299 52.0871 56.5041 51.9401 56.4136C50.4779 56.0039 49.3057 56.0985 48.1271 55.7833C46.9485 55.4682 45.9401 55.2476 44.8497 54.9892C44.7161 54.9513 44.5761 54.9413 44.4384 54.9597C44.3007 54.9782 44.1683 55.0246 44.0493 55.0963V55.0963C43.5766 54.7938 43.0913 54.4661 42.5997 54.1384C40.3245 52.4871 39.0639 51.8316 37.2299 49.8463C36.8171 49.3336 36.4541 48.7828 36.1458 48.2013C35.6263 47.7564 35.1318 47.2829 34.6647 46.7832C34.2424 46.3294 33.8517 45.8504 33.4735 45.3588C33.3988 45.4157 33.3311 45.4813 33.2719 45.5542C33.4215 46.1007 33.6046 46.6374 33.8202 47.1614C34.4166 48.5934 35.1668 49.9565 36.0576 51.2266C37.1355 52.7324 38.3738 54.1166 39.7509 55.3548L39.9148 55.4556C41.1678 56.3155 42.4823 57.0822 43.8476 57.7497C44.4211 58.0334 45.001 58.3044 45.5934 58.5628C47.8615 59.3846 50.2078 59.9717 52.5956 60.3149C53.3204 60.4157 54.0389 60.4851 54.7574 60.5418C56.9239 60.2422 59.0645 59.7787 61.1608 59.1552C63.7169 58.4825 66.0872 57.2391 68.0937 55.5186C70.0655 53.6702 71.7124 51.5034 72.9656 49.1089C73.5644 48.0122 74.1064 46.8904 74.6232 45.7622C74.3904 45.6537 74.1261 45.6336 73.8795 45.7055V45.7055Z" fill="black"/>
</g>
<g opacity="0.13">
<path d="M79.5959 6.89405C78.0581 8.19238 76.6526 9.63568 75.1841 10.9907C74.7807 11.35 74.3584 11.6903 73.9236 12.0433C73.6967 12.2576 73.3878 12.4277 73.2933 12.7429C73.1994 12.9772 73.1887 13.2366 73.263 13.4779C73.3373 13.7191 73.4921 13.9276 73.7015 14.0685C73.911 14.2094 74.1625 14.2741 74.4139 14.2519C74.6654 14.2298 74.9017 14.122 75.0832 13.9467C76.5707 12.6861 77.9383 11.3185 79.3375 9.96972C79.848 9.48442 80.3585 8.99911 80.8879 8.53902C81.0896 8.34995 81.3543 8.19868 81.4363 7.90876C81.5203 7.67089 81.5171 7.41091 81.4274 7.17513C81.3377 6.93936 81.1671 6.74309 80.9462 6.62128C80.7253 6.49947 80.4683 6.46003 80.221 6.50998C79.9737 6.55993 79.7522 6.69603 79.5959 6.89405Z" fill="black"/>
</g>
<path d="M41.5913 73.4621H14.6792C14.5338 73.4621 14.3943 73.4043 14.2915 73.3015C14.1886 73.1986 14.1309 73.0592 14.1309 72.9137V63.567C14.1309 63.4216 14.1886 63.2821 14.2915 63.1793C14.3943 63.0764 14.5338 63.0187 14.6792 63.0187H41.5913C41.7367 63.0187 41.8762 63.0764 41.979 63.1793C42.0818 63.2821 42.1396 63.4216 42.1396 63.567V72.9326C42.1347 73.0748 42.0748 73.2094 41.9725 73.3082C41.8702 73.407 41.7335 73.4622 41.5913 73.4621V73.4621ZM15.196 72.3906H41.0366V64.0964H15.196V72.3906Z" fill="black"/>
</svg>
