<svg xmlns="http://www.w3.org/2000/svg" width="100" height="100" fill="none"><path fill="#fff" d="M7.362 81.252h86.282V21.516H7.362v59.736Z"/><path fill="#000" d="M93.644 81.8H7.356a.544.544 0 0 1-.549-.542V21.522a.548.548 0 0 1 .549-.548h86.288a.548.548 0 0 1 .549.548v59.736a.543.543 0 0 1-.549.542ZM7.93 80.704h85.167V22.09H7.904l.025 58.614Z"/><path fill="#F35A05" d="M7.362 26.854h86.282V18.97H7.362v7.884Z"/><path fill="#000" d="M93.644 27.403H7.356a.548.548 0 0 1-.549-.549v-7.878a.548.548 0 0 1 .549-.548h86.288a.548.548 0 0 1 .549.548v7.878a.548.548 0 0 1-.549.549ZM7.93 26.306h85.167v-6.782H7.904l.025 6.782ZM82.004 42.138a.548.548 0 0 1-.51-.758.541.541 0 0 1 .503-.339h5.282a.549.549 0 0 1 0 1.097h-5.282.007ZM21.442 42.208c-2.231 0-4.506 0-6.8-.045a.548.548 0 0 1 0-1.096c3.743.044 7.436.056 10.972 0a.554.554 0 0 1 .508.759.543.543 0 0 1-.508.337c-1.361.03-2.752.045-4.172.045ZM75.814 54.825a.548.548 0 0 1 0-1.096h11.503a.548.548 0 1 1 0 1.096H75.814ZM54.001 67.544a.548.548 0 0 1 0-1.097h32.685a.548.548 0 0 1 0 1.097H54.001ZM25.835 54.844c-3.668 0-7.412 0-11.187-.031a.548.548 0 1 1 0-1.097c6.56.038 13.008.038 19.166 0a.555.555 0 0 1 .548.542.561.561 0 0 1-.548.555l-7.98.031Z"/><path fill="#000" d="M93.638 27.472H7.356v2.559h86.282v-2.559Z" opacity=".13"/><path fill="#fff" d="M53.995 56.773c13.088 0 23.697-10.61 23.697-23.698 0-13.088-10.61-23.698-23.697-23.698-13.088 0-23.698 10.61-23.698 23.698 0 13.088 10.61 23.698 23.698 23.698Z"/><path fill="#000" d="M53.995 57.327A24.251 24.251 0 1 1 78.24 33.075a24.278 24.278 0 0 1-24.246 24.252Zm0-47.401a23.156 23.156 0 1 0 23.15 23.149 23.18 23.18 0 0 0-23.15-23.15Z"/><path fill="#fff" d="M64.191 42.906c5.632-5.632 5.632-14.762 0-20.394-5.631-5.631-14.762-5.631-20.393 0-5.632 5.632-5.632 14.762 0 20.394 5.631 5.631 14.762 5.631 20.393 0Z"/><path fill="#000" d="M53.995 47.678a14.968 14.968 0 1 1 14.969-14.994 14.988 14.988 0 0 1-14.97 14.994Zm0-28.84A13.866 13.866 0 1 0 67.86 32.702a13.865 13.865 0 0 0-13.866-13.885v.02Z"/><path fill="#fff" d="M57.538 36.252a5.01 5.01 0 1 0-7.087-7.086 5.01 5.01 0 0 0 7.087 7.086Z"/><path fill="#000" d="M53.995 38.268a5.56 5.56 0 1 1 5.141-3.45 5.566 5.566 0 0 1-5.141 3.45Zm0-10.02a4.462 4.462 0 1 0 4.462 4.461 4.468 4.468 0 0 0-4.462-4.437v-.025Z"/><path fill="#000" d="M53.995 33.258a.534.534 0 0 1-.385-.158.555.555 0 0 1 0-.775L82.413 3.289a.548.548 0 1 1 .782.769L54.385 33.1a.554.554 0 0 1-.39.158Z"/><path fill="#fff" d="m72.417 14.174 7.658-7.664 5.943 1.638-7.664 7.658-5.937-1.632Z"/><path fill="#000" d="M78.335 16.354a.576.576 0 0 1-.144 0l-5.938-1.632a.561.561 0 0 1-.381-.692.55.55 0 0 1 .16-.253l7.665-7.658a.536.536 0 0 1 .53-.145l5.943 1.639a.542.542 0 0 1 .24.913L78.75 16.19a.569.569 0 0 1-.416.164Zm-4.884-2.464 4.72 1.304 6.77-6.768-4.715-1.305-6.775 6.769Z"/><path fill="#fff" d="m78.398.528-7.663 7.658 1.638 5.943 7.658-7.664L78.398.528Z"/><path fill="#000" d="M72.373 14.678a.528.528 0 0 1-.139 0 .549.549 0 0 1-.39-.385L70.21 8.356a.542.542 0 0 1 .139-.535L78.008.157a.561.561 0 0 1 .776 0 .548.548 0 0 1 .144.245L80.56 6.34a.542.542 0 0 1-.139.536l-7.664 7.658a.522.522 0 0 1-.384.145Zm-1.02-6.303 1.297 4.727 6.77-6.769-1.299-4.727-6.769 6.77ZM41.289 32.892a.214.214 0 0 1-.133-.05.183.183 0 0 1 0-.259L53.818 20.08a.182.182 0 0 1 .262-.003.183.183 0 0 1-.003.261L41.415 32.849a.188.188 0 0 1-.126.044ZM41.995 28.411a.202.202 0 0 1-.133-.05.189.189 0 0 1 0-.259l7.752-7.758a.189.189 0 0 1 .3.059.176.176 0 0 1-.041.2L42.12 28.36a.201.201 0 0 1-.126.05ZM41.995 36.365a.201.201 0 0 1-.133-.05.189.189 0 0 1 0-.259L57.178 20.54a.183.183 0 0 1 .258.258L42.121 36.308a.175.175 0 0 1-.126.057ZM55.88 26.64a.178.178 0 0 1-.18-.18c0-.048.019-.095.053-.129l4.614-4.746a.189.189 0 0 1 .258 0 .183.183 0 0 1 0 .259l-4.613 4.74a.19.19 0 0 1-.133.056ZM43.249 39.144a.184.184 0 0 1-.183-.185c0-.049.018-.095.05-.13l4.375-4.267a.189.189 0 0 1 .258 0 .183.183 0 0 1 0 .259l-4.368 4.273a.201.201 0 0 1-.132.05ZM50.465 44.974a.164.164 0 0 1-.12-.044.183.183 0 0 1 0-.258l5.408-5.836a.19.19 0 0 1 .259 0 .183.183 0 0 1 0 .258l-5.408 5.824a.17.17 0 0 1-.139.056ZM45.228 41.722a.182.182 0 0 1-.133-.056.19.19 0 0 1 0-.259l3.782-3.781a.19.19 0 0 1 .258 0 .183.183 0 0 1 0 .258l-3.781 3.813a.17.17 0 0 1-.126.025ZM47.617 43.563a.184.184 0 0 1-.184-.186.19.19 0 0 1 .051-.13l4.267-4.26a.175.175 0 0 1 .2-.042.189.189 0 0 1 .059.3l-4.267 4.26a.175.175 0 0 1-.126.058ZM60.102 30.29a.17.17 0 0 1-.12-.051.183.183 0 0 1 0-.259c1.4-1.487 2.855-2.955 4.324-4.367a.183.183 0 0 1 .252.265 122.043 122.043 0 0 0-4.305 4.355.195.195 0 0 1-.151.056ZM60.72 33.9a.202.202 0 0 1-.126-.05.183.183 0 0 1 0-.258l5.042-5.168a.183.183 0 0 1 .258 0 .19.19 0 0 1 0 .258l-5.042 5.168a.182.182 0 0 1-.132.05ZM53.497 45.63a.202.202 0 0 1-.126-.05.183.183 0 0 1 0-.26 676.202 676.202 0 0 1 12.945-13.442.183.183 0 0 1 .259.258 730.403 730.403 0 0 0-12.94 13.43.178.178 0 0 1-.138.064ZM57.896 44.974a.202.202 0 0 1-.132-.05.183.183 0 0 1 0-.258c.63-.63 2.313-2.39 3.932-4.09 1.62-1.703 3.303-3.461 3.946-4.091a.183.183 0 0 1 .258 0 .19.19 0 0 1 0 .258c-.63.63-2.319 2.389-3.939 4.084-1.62 1.696-3.296 3.467-3.945 4.097a.17.17 0 0 1-.12.05Z"/><path fill="#000" d="M73.88 45.706c-.492.125-.688.567-.87.995a6.38 6.38 0 0 1-.807 1.311c-.977 1.09-3.151 4.33-5.716 5.673a26.48 26.48 0 0 1-5.528 2.71 12.247 12.247 0 0 1-4.361.876c-1.387.05-2.78.07-4.166 0a1.033 1.033 0 0 0-.492-.857c-1.462-.41-2.634-.316-3.813-.63-1.178-.316-2.187-.536-3.277-.795a1.015 1.015 0 0 0-.8.107c-.473-.302-.959-.63-1.45-.958-2.276-1.65-3.536-2.306-5.37-4.292a10.364 10.364 0 0 1-1.084-1.645 18.5 18.5 0 0 1-1.481-1.418 19.8 19.8 0 0 1-1.191-1.424 1.184 1.184 0 0 0-.202.195c.15.547.333 1.083.548 1.607a21.425 21.425 0 0 0 2.238 4.066 25.554 25.554 0 0 0 3.693 4.128l.164.1a31.06 31.06 0 0 0 3.933 2.295c.573.283 1.153.554 1.745.813a35.295 35.295 0 0 0 7.003 1.752c.724.1 1.443.17 2.161.227 2.167-.3 4.308-.763 6.404-1.387a17.489 17.489 0 0 0 6.933-3.636 24.108 24.108 0 0 0 4.872-6.41 53.175 53.175 0 0 0 1.657-3.347 1.059 1.059 0 0 0-.744-.056ZM79.596 6.894c-1.538 1.298-2.943 2.742-4.412 4.097-.403.359-.826.7-1.26 1.052-.227.215-.536.385-.63.7a1.103 1.103 0 0 0 1.79 1.204c1.487-1.26 2.854-2.628 4.254-3.977.51-.486 1.02-.97 1.55-1.431.202-.189.466-.34.548-.63a1.065 1.065 0 0 0-1.84-1.015Z" opacity=".13"/><path fill="#000" d="M41.591 73.462H14.68a.548.548 0 0 1-.548-.548v-9.347a.548.548 0 0 1 .548-.548h26.912a.548.548 0 0 1 .549.548v9.366a.548.548 0 0 1-.549.53Zm-26.395-1.071h25.84v-8.295h-25.84v8.295Z"/></svg>