<svg xmlns="http://www.w3.org/2000/svg" width="100" height="100" fill="none"><path fill="#fff" d="M2.61 84.018h94.788V18.393H2.609v65.625Z"/><path fill="#000" d="M97.398 84.62H2.602A.595.595 0 0 1 2 84.024V18.4a.602.602 0 0 1 .602-.603h94.796A.602.602 0 0 1 98 18.4v65.624a.595.595 0 0 1-.602.596ZM3.232 83.415h93.591V19.023H3.205l.027 64.392Z"/><path fill="#F35A05" d="M2.61 24.257h94.788v-8.662H2.609v8.662Z"/><path fill="#000" d="M97.398 24.86H2.602A.602.602 0 0 1 2 24.257v-8.655A.602.602 0 0 1 2.602 15h94.796a.603.603 0 0 1 .602.602v8.655a.602.602 0 0 1-.602.603ZM3.232 23.655h93.591v-7.45H3.205l.027 7.45Z"/><path fill="#000" d="M71.163 20.532h-5a.602.602 0 1 1 0-1.204h5a.602.602 0 1 1 0 1.204ZM81.306 20.532h-4.992a.602.602 0 1 1 0-1.204h5a.602.602 0 1 1 0 1.204h-.008ZM91.443 20.532h-4.999a.602.602 0 1 1 0-1.204h5a.602.602 0 1 1 0 1.204ZM18.437 70.96l-4.466-.153a.596.596 0 0 1-.581-.554 33.905 33.905 0 0 1-.097-2.507 36.74 36.74 0 0 1 12.705-27.758.598.598 0 0 1 .436-.145.568.568 0 0 1 .416.208l2.77 3.192c.325.374.65.747.969 1.128l.588.693a.602.602 0 0 1-.062.844A28.913 28.913 0 0 0 21.11 67.753c0 .783.041 1.62.118 2.486a.617.617 0 0 1-.153.457.63.63 0 0 1-.443.2c-.63 0-1.308 0-2.14.07l-.055-.007Zm-3.905-1.337 3.898.131 1.517-.055c-.049-.692-.07-1.33-.07-1.953a30.106 30.106 0 0 1 9.971-22.357l-.2-.235-.963-1.122-2.368-2.735a35.507 35.507 0 0 0-11.84 26.45c0 .574.014 1.19.055 1.876ZM65.728 43.395a.581.581 0 0 1-.319-.09 28.796 28.796 0 0 0-29.835-.602.596.596 0 0 1-.782-.167 96.383 96.383 0 0 1-3.774-5.483.56.56 0 0 1-.076-.457.596.596 0 0 1 .277-.381 36.58 36.58 0 0 1 39.625 1.308.594.594 0 0 1 .077.921c-1.67 1.648-3.33 3.33-4.764 4.77a.589.589 0 0 1-.43.18Zm-15.724-5.768a29.891 29.891 0 0 1 15.64 4.404 415.702 415.702 0 0 1 3.92-3.926 35.38 35.38 0 0 0-37.189-1.17 107.085 107.085 0 0 0 3.074 4.452 30.043 30.043 0 0 1 14.555-3.76Z"/><path fill="#F35A05" d="M75.622 42.322a149.976 149.976 0 0 0-5.013 4.362 29.399 29.399 0 0 1 8.897 21.062c0 .81-.041 1.628-.118 2.472 1.316 0 2.632.042 3.947.076.886 0 1.78.042 2.673.083.069-.886.104-1.758.104-2.63a36.004 36.004 0 0 0-10.49-25.425Z"/><path fill="#000" d="M86.576 71.008h-.582c-.61 0-1.219-.042-1.828-.056h-.83c-1.24-.034-2.528-.062-3.94-.076h-.651l.062-.644c.076-.852.11-1.64.11-2.423a28.69 28.69 0 0 0-8.71-20.633l-.456-.444.47-.429a167.557 167.557 0 0 1 5.027-4.376l.422-.36.388.395A36.475 36.475 0 0 1 86.7 67.746c0 .859 0 1.731-.104 2.68l-.02.582Zm-6.523-1.385c1.17 0 2.257.041 3.317.069H85.46c.041-.692.062-1.385.062-2.008a35.312 35.312 0 0 0-9.901-24.559 190.562 190.562 0 0 0-4.092 3.559 29.87 29.87 0 0 1 8.62 21.042c-.028.637-.048 1.253-.097 1.897ZM48.979 67.58a2.704 2.704 0 0 1-.693-.076 2.909 2.909 0 0 1-1.862-1.537c-1.177-2.126.311-3.92 1.26-4.563l.097-.055c.145-.063 14.81-6.488 18.694-8.247a.596.596 0 0 1 .734.194.602.602 0 0 1-.041.762l-.056.055-.069.07-16.036 12.746h-.041c-.594.387-1.28.611-1.987.651Zm-.623-5.151c-.312.228-1.718 1.384-.845 2.956a1.763 1.763 0 0 0 1.087.949 2.576 2.576 0 0 0 1.738-.367L62.743 56.1c-5.546 2.458-13.626 5.99-14.387 6.329ZM48.93 36.97a.194.194 0 0 1-.16-.084c-.864-1.149-1.716-2.326-2.54-3.462a.2.2 0 0 1 .048-.276.208.208 0 0 1 .284.048 133.707 133.707 0 0 0 2.528 3.462.194.194 0 0 1-.16.311ZM51.984 37.073a.208.208 0 0 1-.166-.083l-2.666-3.884a.202.202 0 0 1 .332-.229l2.666 3.885a.2.2 0 0 1-.056.277.166.166 0 0 1-.11.034ZM55.543 37.586a.194.194 0 0 1-.16-.083 139.134 139.134 0 0 0-3.31-4.238.202.202 0 0 1 .312-.256 139.917 139.917 0 0 1 3.317 4.251.2.2 0 0 1-.042.284.187.187 0 0 1-.117.042ZM59.85 38.714a.208.208 0 0 1-.16-.076l-3.739-4.847a.2.2 0 0 1 .01-.308.201.201 0 0 1 .302.066l3.745 4.847a.214.214 0 0 1 0 .284.221.221 0 0 1-.159.034ZM63.907 40.224a.214.214 0 0 1-.16-.076l-4.05-5.332a.194.194 0 0 1 0-.277.2.2 0 0 1 .284 0l4.071 5.332a.201.201 0 0 1-.16.318l.015.035ZM66.71 39.905a.208.208 0 0 1-.165-.083l-2.347-3.268a.208.208 0 0 1 .048-.284.201.201 0 0 1 .277.049l2.347 3.268a.201.201 0 0 1-.041.284.18.18 0 0 1-.118.034ZM45.641 37.371a.208.208 0 0 1-.159-.076 48.344 48.344 0 0 1-2.472-3.31.201.201 0 0 1 .049-.277.202.202 0 0 1 .284.056 51.152 51.152 0 0 0 2.45 3.282.2.2 0 0 1 0 .277.187.187 0 0 1-.152.048ZM42.519 37.863a.2.2 0 0 1-.153-.076l-2.554-3.02a.201.201 0 1 1 .304-.262l2.555 3.026a.2.2 0 0 1 0 .283.235.235 0 0 1-.152.049ZM39.528 38.97a.188.188 0 0 1-.139-.055 57.544 57.544 0 0 1-2.97-2.984.203.203 0 0 1 .298-.277 54.293 54.293 0 0 0 2.949 2.97.2.2 0 0 1 0 .284.186.186 0 0 1-.138.063ZM36.8 39.995a.187.187 0 0 1-.118-.041 60.468 60.468 0 0 1-2.576-2.036.2.2 0 0 1 0-.284.208.208 0 0 1 .284 0 52.126 52.126 0 0 0 2.555 2.029.208.208 0 0 1 .035.284.193.193 0 0 1-.18.048Z"/><path fill="#000" d="M97.39 24.915H2.603v2.811h94.789v-2.811Z" opacity=".13"/></svg>