<svg width="100" height="100" viewBox="0 0 100 100" fill="none" xmlns="http://www.w3.org/2000/svg">
<path d="M70.2086 7.62048L72.1858 14.016H78.5813L73.4063 17.9633L75.3835 24.3588L70.2086 20.4044L65.0407 24.3588L67.018 17.9633L61.843 14.016H68.2385L70.2086 7.62048Z" fill="white"/>
<path d="M75.3835 25.0083C75.2466 25.0094 75.1132 24.9641 75.0052 24.8798L70.2086 21.2181L65.4191 24.8798C65.3145 24.9532 65.1899 24.9926 65.0622 24.9926C64.9344 24.9926 64.8098 24.9532 64.7053 24.8798C64.5915 24.8046 64.5064 24.6933 64.4637 24.5638C64.4209 24.4343 64.4231 24.2942 64.4697 24.166L66.3113 18.1916L61.4861 14.5013C61.3832 14.4223 61.3076 14.3131 61.27 14.1889C61.2324 14.0647 61.2346 13.9319 61.2764 13.8091C61.3181 13.6862 61.3972 13.5795 61.5027 13.504C61.6082 13.4285 61.7347 13.3878 61.8644 13.3878H67.796L69.6375 7.43487C69.6771 7.30877 69.756 7.19859 69.8625 7.12038C69.9691 7.04217 70.0979 7 70.23 7C70.3622 7 70.4909 7.04217 70.5975 7.12038C70.704 7.19859 70.7828 7.30877 70.8224 7.43487L72.664 13.3878H78.6027C78.7319 13.3893 78.8573 13.431 78.9616 13.5071C79.066 13.5832 79.1439 13.6899 79.1848 13.8124C79.2256 13.9349 79.2273 14.0671 79.1895 14.1906C79.1517 14.3141 79.0763 14.4227 78.9739 14.5013L74.1487 18.1916L75.9974 24.166C76.0415 24.2944 76.0424 24.4337 75.9998 24.5626C75.9573 24.6915 75.8738 24.8029 75.7619 24.8798C75.6539 24.9641 75.5205 25.0094 75.3835 25.0083V25.0083ZM63.6774 14.6655L67.3891 17.5207C67.4896 17.5986 67.5644 17.7048 67.6039 17.8257C67.6433 17.9466 67.6456 18.0766 67.6104 18.1988L66.1828 22.7384L69.8088 19.9618C69.9173 19.8785 70.0503 19.8333 70.1872 19.8333C70.324 19.8333 70.457 19.8785 70.5655 19.9618L74.1915 22.7384L72.7639 18.1988C72.7259 18.0774 72.7261 17.9473 72.7644 17.826C72.8027 17.7048 72.8773 17.5982 72.9781 17.5207L76.6897 14.6655H72.1358C72.0035 14.6655 71.8747 14.6232 71.7682 14.5449C71.6616 14.4666 71.5829 14.3563 71.5434 14.2301L70.1586 9.75467L68.781 14.2301C68.7405 14.3557 68.6615 14.4654 68.5552 14.5436C68.4488 14.6217 68.3205 14.6644 68.1885 14.6655H63.6774Z" fill="black"/>
<path d="M87.4323 17.9918L88.6528 21.9462H92.6072L89.4095 24.3945L90.63 28.3489L87.4323 25.9006L84.2274 28.3489L85.4551 24.3945L82.2502 21.9462H86.2116L87.4323 17.9918Z" fill="white"/>
<path d="M90.6299 28.9698C90.4933 28.9687 90.3606 28.9237 90.2516 28.8413L87.4322 26.6999L84.577 28.8413C84.4729 28.9157 84.3481 28.9557 84.2201 28.9557C84.0921 28.9557 83.9674 28.9157 83.8632 28.8413C83.7501 28.7654 83.665 28.6544 83.6212 28.5254C83.5773 28.3965 83.577 28.2566 83.6205 28.1275L84.7197 24.5586L81.8646 22.3744C81.7556 22.2954 81.6755 22.1827 81.6368 22.0537C81.5981 21.9247 81.603 21.7866 81.6505 21.6606C81.6921 21.5382 81.7708 21.4319 81.8757 21.3564C81.9807 21.2809 82.1065 21.24 82.2358 21.2395H85.7334L86.8255 17.7205C86.8651 17.5944 86.9439 17.4842 87.0504 17.406C87.157 17.3278 87.2857 17.2856 87.4179 17.2856C87.5501 17.2856 87.6788 17.3278 87.7853 17.406C87.8919 17.4842 87.9707 17.5944 88.0103 17.7205L89.0953 21.2395H92.5928C92.7233 21.2385 92.8508 21.2787 92.9571 21.3543C93.0635 21.4299 93.1433 21.5371 93.1852 21.6606C93.2328 21.7866 93.2376 21.9247 93.1989 22.0537C93.1602 22.1827 93.0802 22.2954 92.9712 22.3744L90.116 24.5586L91.208 28.1275C91.2547 28.2556 91.2569 28.3958 91.2141 28.5253C91.1714 28.6548 91.0863 28.7661 90.9725 28.8413C90.8747 28.9192 90.7548 28.9642 90.6299 28.9698V28.9698ZM87.4322 25.2795C87.569 25.2795 87.7019 25.3247 87.8104 25.408L89.4664 26.6785L88.8169 24.5729C88.7788 24.4515 88.779 24.3214 88.8173 24.2001C88.8556 24.0789 88.9302 23.9723 89.031 23.8948L90.7726 22.5671H88.6313C88.499 22.5671 88.3703 22.5248 88.2638 22.4465C88.1572 22.3682 88.0784 22.2579 88.0389 22.1317L87.4107 20.0903L86.7826 22.1317C86.7431 22.2579 86.6643 22.3682 86.5577 22.4465C86.4511 22.5248 86.3224 22.5671 86.1902 22.5671H84.0488L85.7904 23.8948C85.8913 23.9723 85.9659 24.0789 86.0042 24.2001C86.0425 24.3214 86.0426 24.4515 86.0046 24.5729L85.355 26.6785L87.011 25.408C87.1309 25.3152 87.2808 25.2695 87.4322 25.2795V25.2795Z" fill="black"/>
<path d="M22.5563 69.7341C21.418 68.1276 20.6073 66.3126 20.1706 64.3927C19.7339 62.4729 19.6797 60.4858 20.0111 58.5449C20.3426 56.6041 21.0531 54.7476 22.1022 53.0815C23.1513 51.4153 24.5183 49.9722 26.1252 48.8345L58.6596 25.7863L50.4368 14.1873L16.9388 37.9207C10.6287 42.3999 6.35389 49.2001 5.05309 56.8283C3.75228 64.4565 5.53173 72.2891 10.0008 78.6065V78.6065C14.4789 84.9178 21.2786 89.1939 28.9069 90.4961C36.5351 91.7982 44.3684 90.0199 50.6866 85.5516L84.1774 61.8182L75.9546 50.2192L43.4274 73.2674C40.1893 75.5609 36.1739 76.4769 32.2615 75.8146C28.3492 75.1522 24.859 72.9656 22.5563 69.7341V69.7341Z" fill="white"/>
<path d="M33.8911 91.5831C32.1881 91.5816 30.4882 91.4384 28.809 91.1549C22.9941 90.1621 17.6041 87.4674 13.3205 83.4116C9.0369 79.3557 6.05203 74.1209 4.74333 68.3688C3.43462 62.6168 3.86081 56.6058 5.96801 51.096C8.07521 45.5861 11.7688 40.8247 16.5818 37.4139L50.0726 13.6805C50.2071 13.5861 50.3736 13.5489 50.5354 13.577C50.6973 13.6051 50.8415 13.6962 50.9363 13.8304L59.1591 25.4294C59.2518 25.565 59.2877 25.7316 59.2591 25.8934C59.247 25.9735 59.2186 26.0504 59.1756 26.1191C59.1327 26.1879 59.076 26.2471 59.0093 26.2931L26.482 49.3412C24.9415 50.432 23.631 51.8156 22.6254 53.413C21.6198 55.0104 20.9388 56.7902 20.6213 58.6509C20.3038 60.5115 20.356 62.4165 20.7749 64.257C21.1939 66.0975 21.9714 67.8373 23.0629 69.3772C25.2652 72.4878 28.611 74.5983 32.3669 75.2459C36.1227 75.8935 39.9821 75.0254 43.0989 72.832L75.6262 49.7767C75.7608 49.6815 75.9275 49.643 76.0902 49.6696C76.1707 49.6833 76.2475 49.7131 76.3162 49.7573C76.3849 49.8015 76.4439 49.859 76.4898 49.9266L84.7127 61.5256C84.8054 61.6612 84.8413 61.8278 84.8126 61.9895C84.7994 62.0693 84.7704 62.1457 84.7276 62.2143C84.6847 62.2829 84.6287 62.3424 84.5628 62.3893L51.0719 86.1227C46.052 89.6849 40.0465 91.5936 33.8911 91.5831V91.5831ZM50.3082 15.0509L17.3027 38.4274C11.117 42.8099 6.9257 49.4701 5.65068 56.9429C4.37565 64.4157 6.12141 72.0889 10.5039 78.2746C14.8864 84.4602 21.5466 88.6516 29.0194 89.9266C36.4922 91.2016 44.1654 89.4559 50.351 85.0734L83.3351 61.6969L75.8404 51.1114L43.8127 73.8027C40.4333 76.1929 36.2436 77.1446 32.1633 76.4487C28.083 75.7528 24.4455 73.4662 22.0494 70.091C19.6573 66.7123 18.7045 62.522 19.4005 58.4411C20.0965 54.3602 22.3843 50.7226 25.7611 48.3277L57.7815 25.6364L50.3082 15.0509Z" fill="black"/>
<path d="M50.4439 14.2175L40.5721 21.2122L48.7884 32.8079L58.6602 25.8131L50.4439 14.2175Z" fill="#F35A05"/>
<path d="M48.7807 33.4024C48.6813 33.4022 48.5833 33.3781 48.4951 33.3321C48.4069 33.2861 48.3311 33.2197 48.2739 33.1383L40.0582 21.5393C39.9631 21.4056 39.9248 21.2398 39.9516 21.078C39.9783 20.9162 40.0679 20.7715 40.201 20.6756L50.0727 13.6805C50.2072 13.5861 50.3736 13.5489 50.5355 13.577C50.6973 13.6051 50.8415 13.6962 50.9363 13.8304L59.1591 25.4294C59.2518 25.565 59.2877 25.7316 59.2591 25.8934C59.247 25.9735 59.2186 26.0504 59.1757 26.1191C59.1327 26.1879 59.0761 26.2471 59.0093 26.2931L49.1304 33.2882C49.0285 33.3615 48.9063 33.4015 48.7807 33.4024V33.4024ZM41.4287 21.3323L48.9306 31.9177L57.7815 25.6364L50.2868 15.0509L41.4287 21.3323Z" fill="black"/>
<path d="M75.9961 50.2805L66.1244 57.2753L74.3407 68.8709L84.2124 61.8762L75.9961 50.2805Z" fill="#F35A05"/>
<path d="M74.3343 69.463H74.2272C74.0654 69.433 73.9219 69.3407 73.8274 69.206L65.6118 57.607C65.5167 57.4734 65.4783 57.3076 65.5051 57.1457C65.5318 56.9839 65.6215 56.8393 65.7545 56.7433L75.6262 49.7482C75.7608 49.653 75.9274 49.6146 76.0902 49.6412C76.1706 49.6549 76.2475 49.6847 76.3162 49.7289C76.3849 49.773 76.4439 49.8306 76.4898 49.8981L84.7127 61.4971C84.8052 61.6322 84.8413 61.7981 84.8133 61.9595C84.7853 62.1208 84.6954 62.2648 84.5628 62.3608L74.6912 69.3559C74.5854 69.4261 74.4612 69.4634 74.3343 69.463V69.463ZM66.9751 57.3929L74.477 67.9783L83.328 61.697L75.8332 51.1116L66.9751 57.3929Z" fill="black"/>
<path d="M84.9268 49.9909C84.8677 50.0011 84.8074 50.0011 84.7483 49.9909C84.6701 49.9679 84.5971 49.9298 84.5336 49.8786C84.47 49.8274 84.4171 49.7643 84.378 49.6927C84.3389 49.6211 84.3144 49.5425 84.3056 49.4614C84.2969 49.3803 84.3042 49.2982 84.3272 49.22L87.3322 38.97C87.3609 38.8687 87.4155 38.7766 87.4906 38.7027C87.5657 38.6289 87.6587 38.5758 87.7605 38.5489C87.8605 38.5207 87.966 38.5184 88.0671 38.5421C88.1682 38.5658 88.2617 38.6148 88.3387 38.6845L91.5864 41.5896L94.7984 32.5174C94.856 32.3657 94.9707 32.2426 95.1179 32.1744C95.265 32.1062 95.4331 32.0983 95.586 32.1524C95.739 32.2064 95.8647 32.3182 95.9363 32.4638C96.0079 32.6094 96.0196 32.7772 95.969 32.9314L92.45 42.853C92.4143 42.9486 92.3562 43.0342 92.2804 43.1025C92.2046 43.1709 92.1134 43.2199 92.0146 43.2456C91.9167 43.2706 91.8142 43.2713 91.716 43.2476C91.6177 43.224 91.5267 43.1767 91.4508 43.1099L88.2459 40.2548L85.5192 49.534C85.4835 49.6642 85.4064 49.7792 85.2995 49.8617C85.1926 49.9441 85.0618 49.9895 84.9268 49.9909V49.9909Z" fill="black"/>
<path d="M10.436 79.8628C10.3038 79.8639 10.1747 79.8228 10.0674 79.7454C9.96022 79.668 9.88052 79.5584 9.8399 79.4326C9.79928 79.3067 9.79989 79.1712 9.84164 79.0457C9.88339 78.9203 9.9641 78.8114 10.072 78.735L22.6132 69.7984C22.7478 69.7154 22.9091 69.6868 23.064 69.7186C23.2189 69.7504 23.3559 69.8401 23.447 69.9694C23.538 70.0987 23.5763 70.2579 23.554 70.4145C23.5317 70.571 23.4505 70.7132 23.327 70.812L10.7858 79.7414C10.6845 79.8169 10.5623 79.8593 10.436 79.8628Z" fill="black"/>
<path d="M7.11694 67.2217H7.03843C6.98704 67.201 6.94565 67.1611 6.92303 67.1105C6.9004 67.0599 6.89826 67.0026 6.91706 66.9504L17.1813 40.0692C17.2029 40.0205 17.2423 39.982 17.2916 39.9617C17.3408 39.9413 17.396 39.9408 17.4456 39.9601C17.4953 39.9794 17.5356 40.0171 17.5581 40.0653C17.5807 40.1136 17.5838 40.1687 17.5668 40.2191L7.30963 67.1217C7.28933 67.1541 7.26078 67.1804 7.2269 67.1979C7.19302 67.2155 7.15505 67.2237 7.11694 67.2217V67.2217Z" fill="black"/>
<path d="M8.34467 71.59H8.27331C8.22192 71.5693 8.18058 71.5294 8.15795 71.4788C8.13532 71.4283 8.13318 71.3709 8.15198 71.3188L21.1429 37.2854C21.1636 37.234 21.2035 37.1927 21.254 37.17C21.3046 37.1474 21.362 37.1453 21.4141 37.1641C21.4395 37.1743 21.4626 37.1894 21.4822 37.2086C21.5017 37.2278 21.5172 37.2506 21.5278 37.2759C21.5384 37.3011 21.544 37.3282 21.5441 37.3555C21.5441 37.3829 21.5388 37.41 21.5283 37.4353L8.53741 71.4686C8.52146 71.5061 8.49448 71.5378 8.46004 71.5595C8.4256 71.5811 8.38533 71.5918 8.34467 71.59Z" fill="black"/>
<path d="M10.2076 74.9734H10.1362C10.0848 74.9526 10.0435 74.9128 10.0209 74.8622C9.99824 74.8116 9.9961 74.7542 10.0149 74.7021L25.4041 34.3803C25.4249 34.3289 25.4647 34.2876 25.5153 34.2649C25.5659 34.2423 25.6232 34.2402 25.6754 34.259C25.7008 34.2692 25.7239 34.2843 25.7434 34.3035C25.7629 34.3227 25.7785 34.3455 25.7891 34.3708C25.7997 34.396 25.8052 34.4231 25.8053 34.4504C25.8054 34.4778 25.8 34.5049 25.7896 34.5302L10.4003 74.852C10.3836 74.8889 10.3564 74.92 10.3222 74.9416C10.2879 74.9631 10.2481 74.9742 10.2076 74.9734V74.9734Z" fill="black"/>
<path d="M13.3339 74.9733H13.2626C13.2112 74.9526 13.1698 74.9128 13.1472 74.8622C13.1246 74.8116 13.1224 74.7542 13.1412 74.7021L17.7094 62.9531C17.7302 62.9018 17.77 62.8604 17.8206 62.8378C17.8712 62.8151 17.9286 62.813 17.9807 62.8318C18.0061 62.842 18.0292 62.8571 18.0487 62.8763C18.0683 62.8955 18.0838 62.9184 18.0944 62.9436C18.105 62.9688 18.1105 62.9959 18.1106 63.0233C18.1107 63.0506 18.1054 63.0777 18.0949 63.103L13.5267 74.852C13.5107 74.8894 13.4837 74.9211 13.4493 74.9428C13.4149 74.9645 13.3746 74.9751 13.3339 74.9733Z" fill="black"/>
<path d="M17.367 72.1182C17.3412 72.1248 17.3142 72.1248 17.2885 72.1182C17.2633 72.1088 17.2404 72.0943 17.2209 72.0758C17.2014 72.0573 17.1859 72.0351 17.1752 72.0104C17.1646 71.9858 17.159 71.9592 17.1588 71.9323C17.1586 71.9055 17.1639 71.8789 17.1742 71.8541L18.7089 67.8997C18.7296 67.8483 18.7695 67.807 18.82 67.7844C18.8706 67.7617 18.928 67.7596 18.9801 67.7784C19.0055 67.7886 19.0287 67.8037 19.0482 67.8229C19.0677 67.8421 19.0832 67.8649 19.0938 67.8902C19.1045 67.9154 19.11 67.9425 19.1101 67.9698C19.1101 67.9972 19.1048 68.0243 19.0943 68.0496L17.5597 72.004C17.5419 72.0395 17.5143 72.0692 17.4801 72.0894C17.4459 72.1097 17.4067 72.1197 17.367 72.1182Z" fill="black"/>
<path d="M7.017 59.6341H6.93849C6.8884 59.612 6.84864 59.5716 6.8274 59.5212C6.80616 59.4707 6.80503 59.4141 6.82426 59.3628L12.0563 45.651C12.0658 45.625 12.0804 45.6011 12.0993 45.5808C12.1182 45.5606 12.141 45.5443 12.1663 45.533C12.1916 45.5216 12.2189 45.5155 12.2466 45.5149C12.2743 45.5144 12.3018 45.5194 12.3276 45.5297C12.3771 45.5503 12.4167 45.5893 12.4381 45.6386C12.4594 45.6879 12.4607 45.7435 12.4418 45.7938L7.20973 59.5127C7.19378 59.5502 7.16675 59.5819 7.13231 59.6035C7.09788 59.6252 7.05765 59.6359 7.017 59.6341V59.6341Z" fill="black"/>
<path d="M23.9552 48.0921H23.891C23.8654 48.0841 23.8417 48.071 23.8213 48.0536C23.8009 48.0362 23.7842 48.0149 23.7722 47.9909C23.7603 47.9669 23.7532 47.9408 23.7516 47.914C23.7499 47.8873 23.7536 47.8605 23.7625 47.8352C25.5969 42.1749 27.6169 36.4931 29.744 30.9327C29.763 30.8806 29.8018 30.8382 29.852 30.8148C29.9022 30.7914 29.9596 30.7889 30.0117 30.8078C30.0638 30.8267 30.1062 30.8656 30.1296 30.9158C30.153 30.966 30.1555 31.0234 30.1366 31.0755C27.9952 36.6359 25.9895 42.3105 24.1551 47.9637C24.139 48.003 24.1111 48.0364 24.0754 48.0594C24.0396 48.0824 23.9977 48.0938 23.9552 48.0921V48.0921Z" fill="black"/>
<path d="M28.1737 45.1799H28.1094C28.0838 45.1718 28.0602 45.1587 28.0398 45.1413C28.0194 45.1239 28.0027 45.1026 27.9907 45.0786C27.9787 45.0547 27.9717 45.0285 27.97 45.0018C27.9683 44.975 27.972 44.9482 27.9809 44.9229L33.4628 28.4487C33.4808 28.3964 33.5183 28.353 33.5675 28.3277C33.6168 28.3024 33.6739 28.2972 33.7269 28.3131C33.7527 28.3219 33.7766 28.3358 33.797 28.3539C33.8175 28.3719 33.8342 28.3939 33.8461 28.4184C33.858 28.443 33.865 28.4696 33.8666 28.4969C33.8682 28.5241 33.8644 28.5514 33.8554 28.5772L28.3735 45.0514C28.3566 45.0901 28.3286 45.123 28.293 45.1459C28.2575 45.1688 28.2159 45.1806 28.1737 45.1799V45.1799Z" fill="black"/>
<path d="M32.1638 42.339H32.0995C32.0737 42.3302 32.0499 42.3163 32.0294 42.2983C32.0089 42.2802 31.9923 42.2582 31.9803 42.2337C31.9684 42.2091 31.9614 42.1825 31.9598 42.1552C31.9582 42.128 31.9621 42.1007 31.9711 42.0749L37.6028 25.4009C37.6109 25.3753 37.624 25.3516 37.6414 25.3312C37.6588 25.3108 37.6801 25.2941 37.7041 25.2821C37.728 25.2702 37.7542 25.2631 37.7809 25.2614C37.8077 25.2598 37.8345 25.2635 37.8598 25.2724C37.8863 25.2805 37.9108 25.2938 37.9321 25.3116C37.9533 25.3293 37.9708 25.3511 37.9834 25.3758C37.996 25.4004 38.0036 25.4273 38.0057 25.4549C38.0078 25.4825 38.0043 25.5103 37.9954 25.5365L32.3636 42.2105C32.3467 42.2493 32.3187 42.2822 32.2832 42.305C32.2476 42.3279 32.206 42.3397 32.1638 42.339V42.339Z" fill="black"/>
<path d="M36.4036 39.3483H36.3465C36.3202 39.3409 36.2956 39.3284 36.2741 39.3114C36.2527 39.2945 36.2348 39.2734 36.2215 39.2495C36.2083 39.2257 36.1999 39.1994 36.1968 39.1722C36.1937 39.1451 36.1961 39.1176 36.2037 39.0913C37.6313 34.5731 39.1588 30.0477 40.8433 25.6222C40.8535 25.5968 40.8686 25.5736 40.8878 25.5541C40.907 25.5346 40.9299 25.5191 40.9551 25.5085C40.9803 25.4978 41.0074 25.4923 41.0348 25.4922C41.0622 25.4922 41.0893 25.4975 41.1146 25.508C41.1397 25.5174 41.1627 25.5318 41.1821 25.5503C41.2016 25.5689 41.2171 25.5911 41.2278 25.6158C41.2384 25.6404 41.244 25.667 41.2442 25.6938C41.2444 25.7207 41.2391 25.7473 41.2288 25.7721C39.5514 30.1833 37.9953 34.7087 36.6034 39.2127C36.5876 39.2528 36.5601 39.2871 36.5245 39.3113C36.4888 39.3355 36.4467 39.3484 36.4036 39.3483V39.3483Z" fill="black"/>
<path d="M40.7006 36.5716H40.6435C40.5917 36.5552 40.5484 36.519 40.523 36.4709C40.4976 36.4228 40.4922 36.3667 40.5079 36.3146C41.2645 33.8164 42.0925 31.3181 42.9704 28.8341C42.9894 28.7821 43.0282 28.7397 43.0784 28.7162C43.1286 28.6928 43.186 28.6903 43.2381 28.7092C43.2902 28.7282 43.3326 28.767 43.356 28.8172C43.3794 28.8674 43.3819 28.9248 43.363 28.9769C42.4851 31.4323 41.6571 33.9377 40.9004 36.436C40.8855 36.4767 40.8582 36.5116 40.8224 36.536C40.7865 36.5603 40.7439 36.5728 40.7006 36.5716Z" fill="black"/>
<path d="M44.2125 34.0163H44.134C44.0826 33.9956 44.0412 33.9558 44.0186 33.9052C43.996 33.8546 43.9938 33.7972 44.0126 33.7451L44.7978 31.6537C44.8209 31.6087 44.8597 31.5737 44.9069 31.5553C44.9541 31.537 45.0064 31.5366 45.0538 31.5541C45.1013 31.5717 45.1407 31.6061 45.1645 31.6507C45.1884 31.6954 45.195 31.7472 45.1832 31.7965L44.3981 33.895C44.3826 33.9313 44.3567 33.9622 44.3237 33.9838C44.2906 34.0053 44.2519 34.0167 44.2125 34.0163V34.0163Z" fill="black"/>
<g opacity="0.13">
<path d="M82.9067 63.1459C83.1936 63.064 83.4538 62.908 83.6612 62.6936C83.8686 62.4792 84.0159 62.2139 84.0882 61.9245C84.1606 61.6351 84.1554 61.3318 84.0733 61.045C83.9913 60.7582 83.835 60.4981 83.6205 60.2908C83.4224 60.1038 83.1834 59.9657 82.9224 59.8874C82.6615 59.8092 82.3859 59.793 82.1176 59.8402C81.8493 59.8873 81.5957 59.9965 81.377 60.159C81.1584 60.3215 80.9807 60.5328 80.8582 60.7762C80.2586 61.2544 80.1444 61.49 79.8447 61.6541C78.1316 62.8818 76.3257 63.9668 74.5769 65.1374C69.8374 68.2638 65.1049 71.6614 62.2426 73.8599C57.9599 77.0719 54.0056 80.234 48.645 83.2961C44.9904 85.4375 39.2159 87.4575 35.9753 87.8144C35.4674 87.8924 34.9545 87.9329 34.4407 87.9358C33.0131 88.0071 31.5855 87.8929 30.1579 87.8216C28.9374 87.7573 27.7239 87.6502 26.5034 87.6502C26.0967 87.6029 25.6846 87.6468 25.2971 87.7787C24.992 87.9152 24.7426 88.1514 24.5898 88.4486C24.4371 88.7457 24.39 89.0861 24.4565 89.4135C24.523 89.741 24.699 90.036 24.9556 90.2501C25.2122 90.4641 25.534 90.5844 25.8681 90.591C29.2514 90.5554 32.6062 91.1264 35.9825 91.1549C38.5574 90.9565 41.0871 90.3668 43.4844 89.4062C50.4937 86.9864 56.461 82.4753 62.2355 77.9499C65.2405 75.5801 72.8781 70.3052 75.9331 67.9569C77.9411 66.3624 80.0305 64.8734 82.1929 63.4957C82.3286 63.4243 82.4571 63.3458 82.5927 63.2816C82.7283 63.2173 82.6641 63.2816 82.6284 63.2816H82.5927C82.6784 63.2459 82.7925 63.203 82.9067 63.1459Z" fill="black"/>
</g>
</svg>
