<svg xmlns="http://www.w3.org/2000/svg" width="100" height="100" fill="none"><path fill="#fff" d="M1 79h86V19H1v60Z"/><path fill="#000" d="M87.448 80H.552a.549.549 0 0 1-.39-.164.562.562 0 0 1-.162-.395V18.56c0-.148.058-.29.162-.395A.549.549 0 0 1 .552 18h86.896c.146 0 .287.059.39.164a.562.562 0 0 1 .162.395V79.44c0 .148-.058.29-.162.395a.549.549 0 0 1-.39.164ZM1.13 78.882H86.92V19.143H1.104l.026 59.74Z"/><path fill="#F35A05" d="M1 24h86v-8H1v8Z"/><path fill="#000" d="M87.448 25H.552A.554.554 0 0 1 0 24.45v-7.9A.548.548 0 0 1 .552 16h86.896a.554.554 0 0 1 .552.55v7.9a.548.548 0 0 1-.552.55ZM1.13 23.901H86.92V17.1H1.104L1.13 23.9Z"/><path fill="#fff" d="M21 33H10v7h11v-7Z"/><path fill="#000" d="M20.454 40H9.545a.559.559 0 0 1-.385-.153.51.51 0 0 1-.16-.369v-6.956a.502.502 0 0 1 .16-.37.548.548 0 0 1 .385-.152h10.91a.567.567 0 0 1 .385.153.522.522 0 0 1 .16.369v6.956a.51.51 0 0 1-.16.37.559.559 0 0 1-.386.152Zm-10.388-1.044h9.818v-5.913h-9.818v5.913Z"/><path fill="#fff" d="M40 33H29v7h11v-7Z"/><path fill="#000" d="M40.41 40H28.59a.633.633 0 0 1-.417-.153.493.493 0 0 1-.173-.369v-6.956c0-.069.015-.137.045-.2a.524.524 0 0 1 .128-.17.603.603 0 0 1 .192-.112.66.66 0 0 1 .226-.04h11.818a.66.66 0 0 1 .226.04.602.602 0 0 1 .192.113.523.523 0 0 1 .128.17c.03.062.045.13.045.199v6.956a.493.493 0 0 1-.173.37.633.633 0 0 1-.418.152Zm-11.228-1.044h10.636v-5.913H29.182v5.913Z"/><path fill="#fff" d="M59 33H48v7h11v-7Z"/><path fill="#000" d="M59.41 40H47.59a.653.653 0 0 1-.226-.038.593.593 0 0 1-.193-.113.514.514 0 0 1-.128-.17.463.463 0 0 1-.043-.2v-6.957c0-.069.014-.137.043-.2a.514.514 0 0 1 .128-.17.593.593 0 0 1 .193-.114.653.653 0 0 1 .227-.038h11.818a.66.66 0 0 1 .226.04.605.605 0 0 1 .192.113.524.524 0 0 1 .128.17.47.47 0 0 1 .045.199v6.956a.493.493 0 0 1-.173.37.633.633 0 0 1-.418.152Zm-11.228-1.044h10.636v-5.913H48.182v5.913Z"/><path fill="#fff" d="M78 33H67v7h11v-7Z"/><path fill="#000" d="M78.454 40H67.546a.562.562 0 0 1-.388-.151.514.514 0 0 1-.158-.37v-6.957a.497.497 0 0 1 .158-.37.54.54 0 0 1 .388-.152h10.908a.567.567 0 0 1 .386.153.522.522 0 0 1 .16.369v6.956a.51.51 0 0 1-.16.37.559.559 0 0 1-.386.152Zm-10.363-1.044h9.85v-5.913h-9.819l-.031 5.913Z"/><path fill="#fff" d="M21 49H10v7h11v-7Z"/><path fill="#000" d="M20.454 57H9.545a.559.559 0 0 1-.385-.153.51.51 0 0 1-.16-.369v-6.956a.51.51 0 0 1 .16-.37.559.559 0 0 1 .385-.152h10.91c.144 0 .283.055.385.153a.51.51 0 0 1 .16.369v6.956a.51.51 0 0 1-.16.37.559.559 0 0 1-.386.152Zm-10.388-1.044h9.818v-5.913h-9.818v5.913Z"/><path fill="#fff" d="M40 49H29v7h11v-7Z"/><path fill="#000" d="M40.41 57H28.59a.633.633 0 0 1-.417-.153.493.493 0 0 1-.173-.369v-6.956c0-.139.062-.271.173-.37a.633.633 0 0 1 .418-.152h11.818c.157 0 .307.055.418.153.11.098.173.23.173.369v6.956a.493.493 0 0 1-.173.37.633.633 0 0 1-.418.152Zm-11.228-1.044h10.636v-5.913H29.182v5.913Z"/><path fill="#fff" d="M59 49H48v7h11v-7Z"/><path fill="#000" d="M59.41 57H47.59a.653.653 0 0 1-.226-.038.594.594 0 0 1-.193-.113.514.514 0 0 1-.128-.17.463.463 0 0 1-.043-.2v-6.957c0-.069.014-.137.043-.2a.514.514 0 0 1 .128-.17.593.593 0 0 1 .193-.114.653.653 0 0 1 .227-.038h11.818c.157 0 .307.055.418.153.11.098.173.23.173.369v6.956a.493.493 0 0 1-.173.37.633.633 0 0 1-.418.152Zm-11.228-1.044h10.636v-5.913H48.182v5.913Z"/><path fill="#fff" d="M78 49H67v7h11v-7Z"/><path fill="#000" d="M78.454 57H67.546a.562.562 0 0 1-.388-.151.514.514 0 0 1-.158-.37v-6.957a.497.497 0 0 1 .158-.37.54.54 0 0 1 .388-.152h10.908c.145 0 .284.055.386.153a.51.51 0 0 1 .16.369v6.956a.51.51 0 0 1-.16.37.558.558 0 0 1-.386.152Zm-10.363-1.044h9.85v-5.913h-9.819l-.031 5.913Z"/><path fill="#fff" d="M21 64H10v7h11v-7Z"/><path fill="#000" d="M20.454 72H9.545a.527.527 0 0 1-.385-.172.61.61 0 0 1-.16-.415v-7.826a.61.61 0 0 1 .16-.415.527.527 0 0 1 .385-.172h10.91c.144 0 .283.062.385.172.103.11.16.26.16.415v7.826a.61.61 0 0 1-.16.415.527.527 0 0 1-.386.172Zm-10.388-1.174h9.818v-6.652h-9.818v6.652Z"/><path fill="#fff" d="M40 64H29v7h11v-7Z"/><path fill="#000" d="M40.41 72H28.59a.585.585 0 0 1-.59-.587v-7.826a.585.585 0 0 1 .59-.587h11.82a.593.593 0 0 1 .59.587v7.826a.585.585 0 0 1-.59.587Zm-11.228-1.174h10.636v-6.652H29.182v6.652Z"/><path fill="#fff" d="M59 64H48v7h11v-7Z"/><path fill="#000" d="M59.41 72H47.59a.587.587 0 0 1-.547-.361.577.577 0 0 1-.043-.226v-7.826a.577.577 0 0 1 .364-.544.587.587 0 0 1 .227-.043h11.818a.593.593 0 0 1 .591.587v7.826a.593.593 0 0 1-.59.587Zm-11.228-1.174h10.636v-6.652H48.182v6.652Z"/><path fill="#fff" d="M78 64H67v7h11v-7Z"/><path fill="#000" d="M78.454 72H67.546a.506.506 0 0 1-.21-.043.54.54 0 0 1-.178-.127.62.62 0 0 1-.158-.417v-7.826a.62.62 0 0 1 .158-.417.54.54 0 0 1 .178-.127.506.506 0 0 1 .21-.043h10.908c.145 0 .284.062.386.172.103.11.16.26.16.415v7.826a.61.61 0 0 1-.16.415.527.527 0 0 1-.386.172Zm-10.363-1.174h9.85v-6.652h-9.819l-.031 6.652ZM60.5 21a.485.485 0 0 1-.354-.156.548.548 0 0 1-.146-.375V13.53c0-.14.053-.276.146-.375.094-.1.221-.156.354-.156.132 0 .26.056.353.156.094.1.147.234.147.375v6.925a.556.556 0 0 1-.14.386.47.47 0 0 1-.36.158ZM27.5 21a.485.485 0 0 1-.354-.156.549.549 0 0 1-.146-.375V13.53a.55.55 0 0 1 .146-.375c.094-.1.221-.156.354-.156.132 0 .26.056.353.156.094.1.147.234.147.375v6.925a.556.556 0 0 1-.14.386.494.494 0 0 1-.36.158ZM30.175 35a.194.194 0 0 1-.123-.05.183.183 0 0 1 0-.256 29.447 29.447 0 0 1 1.644-1.646.188.188 0 0 1 .252 0 .182.182 0 0 1 0 .256 30.924 30.924 0 0 0-1.626 1.621.184.184 0 0 1-.147.075ZM37.236 39a.226.226 0 0 1-.17-.065.243.243 0 0 1 0-.332l1.53-1.538a.243.243 0 0 1 .385.076.225.225 0 0 1-.053.256l-1.53 1.538a.211.211 0 0 1-.162.065ZM11.137 51a.18.18 0 0 1-.096-.034.137.137 0 0 1 0-.195c.227-.251.482-.475.718-.731a.142.142 0 0 1 .241.101.138.138 0 0 1-.043.098c-.246.228-.482.475-.709.713a.126.126 0 0 1-.11.047ZM11.197 54a.207.207 0 0 1-.107-.029.186.186 0 0 1-.072-.077.169.169 0 0 1-.016-.102.176.176 0 0 1 .046-.093c1.155-1.252 2.371-2.503 3.621-3.649a.204.204 0 0 1 .137-.05c.052 0 .1.02.137.053a.175.175 0 0 1 .057.126.175.175 0 0 1-.054.128 75.707 75.707 0 0 0-3.6 3.63.174.174 0 0 1-.067.048.188.188 0 0 1-.082.015ZM13.176 54.998a.237.237 0 0 1-.121-.035.165.165 0 0 1-.055-.121c0-.045.02-.088.055-.121a86.592 86.592 0 0 1 4.613-4.67.21.21 0 0 1 .139-.051c.052 0 .102.018.138.05a.165.165 0 0 1 .055.121c0 .045-.02.088-.055.12a85.922 85.922 0 0 0-4.593 4.654.209.209 0 0 1-.08.045.232.232 0 0 1-.096.008ZM16.18 54.998a.198.198 0 0 1-.126-.04.161.161 0 0 1-.054-.118c0-.045.02-.087.054-.119a520.708 520.708 0 0 1 3.605-3.663.192.192 0 0 1 .06-.04.22.22 0 0 1 .214.023c.019.014.035.032.046.051a.147.147 0 0 1 .01.128.164.164 0 0 1-.036.057 342.282 342.282 0 0 0-3.598 3.663.188.188 0 0 1-.078.05.214.214 0 0 1-.096.008ZM18.316 54.995a.852.852 0 0 1-.175 0c-.07-.02-.119-.05-.135-.085-.016-.035 0-.07.047-.1.437-.264.918-.527 1.41-.772a.607.607 0 0 1 .224-.038c.084 0 .165.014.224.038.057.026.089.059.089.094 0 .034-.032.067-.088.093-.481.24-.951.494-1.378.752a.683.683 0 0 1-.218.019ZM30.179 38a.16.16 0 0 1-.13-.063.194.194 0 0 1 0-.257 58.49 58.49 0 0 0 3.654-3.624.173.173 0 0 1 .12-.056.164.164 0 0 1 .123.05.188.188 0 0 1 .006.257c-1.188 1.254-2.377 2.508-3.678 3.65a.151.151 0 0 1-.095.043ZM32.191 39a.207.207 0 0 1-.107-.03.177.177 0 0 1-.07-.078.157.157 0 0 1-.01-.101.168.168 0 0 1 .055-.088 138.932 138.932 0 0 1 5.612-4.653.202.202 0 0 1 .135-.05.202.202 0 0 1 .179.106.152.152 0 0 1 0 .133.168.168 0 0 1-.044.055 137.83 137.83 0 0 0-5.598 4.64.196.196 0 0 1-.068.049.216.216 0 0 1-.084.017ZM35.172 39a.172.172 0 0 1-.124-.058.2.2 0 0 1-.048-.13.2.2 0 0 1 .048-.131 120.045 120.045 0 0 1 3.661-3.627.166.166 0 0 1 .122-.054c.045 0 .089.02.121.054a.2.2 0 0 1 .048.131.2.2 0 0 1-.048.13 126.578 126.578 0 0 0-3.65 3.62.156.156 0 0 1-.057.05.144.144 0 0 1-.073.015ZM49.2 67a.255.255 0 0 1-.136-.039.172.172 0 0 1-.064-.13c0-.05.023-.097.064-.132l1.565-1.627a.213.213 0 0 1 .065-.048.248.248 0 0 1 .168-.017.235.235 0 0 1 .077.033c.04.036.061.083.061.132a.177.177 0 0 1-.061.13l-1.565 1.634a.222.222 0 0 1-.078.049.254.254 0 0 1-.096.015ZM49.178 69.993a.205.205 0 0 1-.104 0 .187.187 0 0 1-.042-.255 51.798 51.798 0 0 1 3.66-4.679.177.177 0 0 1 .19-.048.177.177 0 0 1 .101.092.182.182 0 0 1-.029.199 49.195 49.195 0 0 0-3.66 4.648.18.18 0 0 1-.116.043ZM52.158 69.998a.177.177 0 0 1-.11-.04.214.214 0 0 1-.048-.136c0-.05.017-.099.047-.136l2.663-3.632a.165.165 0 0 1 .12-.054c.045 0 .088.02.12.054.032.036.05.085.05.136 0 .05-.018.1-.05.136l-2.663 3.632a.16.16 0 0 1-.06.035.146.146 0 0 1-.069.005ZM55.186 70a.204.204 0 0 1-.11-.03.165.165 0 0 1-.05-.043.127.127 0 0 1-.024-.054.117.117 0 0 1 .004-.058.136.136 0 0 1 .032-.052l.645-.721a.223.223 0 0 1 .241-.013c.036.021.06.052.071.086.01.034.005.07-.015.102l-.645.721a.166.166 0 0 1-.065.046.212.212 0 0 1-.084.016Z"/><path fill="#000" d="M87.441 24.47H.552v2.577h86.89V24.47Z" opacity=".13"/><path fill="#fff" d="M76.7 91.867c12.577 0 22.773-10.196 22.773-22.773S89.277 46.322 76.7 46.322 53.928 56.517 53.928 69.094c0 12.577 10.195 22.773 22.772 22.773Z"/><path fill="#000" d="M76.7 92.394a23.306 23.306 0 1 1 23.3-23.3 23.33 23.33 0 0 1-23.3 23.3Zm0-45.552a22.253 22.253 0 1 0 22.222 22.252A22.276 22.276 0 0 0 76.7 46.842Z"/><path fill="#000" d="M76.7 53.25a.527.527 0 0 1-.526-.527v-3.088a.527.527 0 1 1 1.053 0v3.088a.527.527 0 0 1-.526.527ZM76.7 89.081a.527.527 0 0 1-.526-.527V85.46a.527.527 0 1 1 1.053 0v3.095a.527.527 0 0 1-.526.527ZM96.16 69.621h-3.089a.527.527 0 0 1 0-1.054h3.09a.527.527 0 0 1 0 1.054ZM63.364 71h-3.728a.734.734 0 0 1-.45-.146A.453.453 0 0 1 59 70.5c0-.133.067-.26.186-.354a.734.734 0 0 1 .45-.146h3.728c.169 0 .33.053.45.146.119.094.186.221.186.354 0 .133-.067.26-.186.354a.733.733 0 0 1-.45.146ZM77.227 69.094a.533.533 0 0 1-.37-.902l8.444-8.467a.527.527 0 0 1 .745.745l-8.443 8.443a.538.538 0 0 1-.376.181Z"/><path fill="#fff" d="M76.7 71.553a2.459 2.459 0 1 0 0-4.918 2.459 2.459 0 0 0 0 4.918Z"/><path fill="#000" d="M76.7 72.08a2.986 2.986 0 1 1 2.986-2.986A2.992 2.992 0 0 1 76.7 72.08Zm0-4.918a1.932 1.932 0 1 0 0 3.864 1.932 1.932 0 0 0 0-3.864Z"/><path fill="#000" d="M54.624 65.472c.03-.193.06-.387.097-.605a20.787 20.787 0 0 1 1.956-5.796 1.162 1.162 0 0 0-.37-.34 17.836 17.836 0 0 0-3.155 4.749 22.926 22.926 0 0 0-1.508 4.3c-.072.319-.139.64-.2.963-.248 1.72-.181 3.137.382 5.917.14.804.391 1.585.745 2.32a1.356 1.356 0 0 0 .939 1 1.308 1.308 0 0 0 1.423-1.975l.036.048a.984.984 0 0 1-.054-.115 16.882 16.882 0 0 0-.236-.787 12.247 12.247 0 0 1-.697-5.584c.053-1.385.269-2.76.642-4.094Z" opacity=".13"/></svg>