<svg xmlns="http://www.w3.org/2000/svg" width="100" height="100" fill="none"><path fill="#F35A05" d="M48.614 8.37H20.239a8.82 8.82 0 0 0-8.82 8.82v62.4a8.82 8.82 0 0 0 8.82 8.82h28.375a8.82 8.82 0 0 0 8.82-8.82v-62.4a8.82 8.82 0 0 0-8.82-8.82Z"/><path fill="#000" d="M48.694 88.946H20.159a9.289 9.289 0 0 1-9.276-9.275V17.116a9.294 9.294 0 0 1 9.276-9.282h28.535a9.294 9.294 0 0 1 9.276 9.282V79.67a9.288 9.288 0 0 1-9.276 9.275ZM20.159 8.93a8.217 8.217 0 0 0-8.174 8.187V79.67a8.217 8.217 0 0 0 8.204 8.204h28.536a8.217 8.217 0 0 0 8.192-8.204V17.116a8.218 8.218 0 0 0-8.205-8.211l-28.553.024Z"/><path fill="#fff" d="M57.434 16.882H11.418v60.357h46.016V16.882Z"/><path fill="#000" d="M57.434 77.78H11.418a.535.535 0 0 1-.535-.535V16.882a.535.535 0 0 1 .535-.536h46.016a.536.536 0 0 1 .536.536v60.363a.535.535 0 0 1-.536.536Zm-45.45-1.07h44.933V17.417H11.985V76.71ZM39.067 82.114h-8.315a.536.536 0 0 1 0-1.07h8.315a.536.536 0 0 1 0 1.07Z"/><path fill="#000" d="M53.286 16.15c-1.57-.044-3.14-.118-4.709-.1a651.97 651.97 0 0 0-12.68 0c-3.323 0-6.653.167-9.971-.06-4.075-.124-8.156-.364-12.23-.204h-1.718a1.773 1.773 0 0 0-1.027.105 1.557 1.557 0 0 0 .615 2.991c1.988.142 3.982 0 5.977.03 2.376 0 4.745.192 7.115.241 8.864.05 17.733.086 26.596-.068 1.176 0 2.358 0 3.534-.03.972.11 1.963-.351 1.975-1.447-.129-1.896-2.166-1.391-3.477-1.459Z" opacity=".13"/><path fill="#fff" d="M59.38 62.184 70.6 73.22a73.235 73.235 0 0 0 6.106 5.57c1.157.911 2.462 1.773 3.866 1.773a2.924 2.924 0 0 0 2.899-2.788c0-1.231-.868-2.24-1.675-3.078a263.376 263.376 0 0 0-18.637-17.85c-1.207 1.736-2.395 3.472-3.78 5.337Z"/><path fill="#000" d="M80.547 81.099c-1.576 0-2.948-.905-4.198-1.884a73.995 73.995 0 0 1-6.155-5.613l-11.22-11.037a.542.542 0 0 1-.05-.707c1.403-1.847 2.597-3.607 3.76-5.306a.543.543 0 0 1 .376-.228.505.505 0 0 1 .419.123 268.44 268.44 0 0 1 18.674 17.85c.88.923 1.81 2.025 1.847 3.46a3.172 3.172 0 0 1-.954 2.258 3.595 3.595 0 0 1-2.5 1.084Zm-20.478-18.99L70.95 72.82a74.604 74.604 0 0 0 6.057 5.54c1.102.862 2.29 1.656 3.539 1.656a2.517 2.517 0 0 0 1.723-.75c.395-.398.617-.936.616-1.496 0-1.04-.757-1.92-1.527-2.733a263.985 263.985 0 0 0-18.145-17.4 84.046 84.046 0 0 1-3.145 4.474Z"/><path fill="#fff" d="M44.767 21.486a23.322 23.322 0 1 0-.012 46.644 23.322 23.322 0 0 0 .012-46.644Zm0 41.03a17.714 17.714 0 1 1 17.69-17.69 17.709 17.709 0 0 1-17.69 17.709v-.019Zm0 0a17.714 17.714 0 1 1 17.69-17.69 17.709 17.709 0 0 1-17.69 17.709v-.019Z"/><path fill="#000" d="M44.767 68.677a23.857 23.857 0 1 1 23.845-23.85 23.882 23.882 0 0 1-23.845 23.85Zm0-46.637a22.774 22.774 0 1 0 22.774 22.774A22.81 22.81 0 0 0 44.767 22.04Zm0 41.03a18.25 18.25 0 1 1 18.244-18.244A18.263 18.263 0 0 1 44.767 63.07ZM27.594 44.826a17.173 17.173 0 1 0 17.173-17.185 17.191 17.191 0 0 0-17.173 17.185Z"/><path fill="#000" d="M62.365 62.849h-.05a.178.178 0 0 1-.123-.222l.413-1.434a.18.18 0 0 1 .221-.123.179.179 0 0 1 .117.221l-.406 1.434a.179.179 0 0 1-.172.123ZM64.303 65.366a.182.182 0 0 1-.12-.07.179.179 0 0 1-.033-.133c.221-1.674.486-3.373.787-5.035a.18.18 0 0 1 .136-.155.179.179 0 0 1 .215.217 106.461 106.461 0 0 0-.787 5.022.179.179 0 0 1-.198.154ZM66.87 67.803a.178.178 0 0 1-.178-.178c0-.837.129-2.24.246-3.484.068-.757.13-1.416.148-1.847a.178.178 0 1 1 .357 0c0 .42-.08 1.078-.148 1.847-.117 1.231-.246 2.634-.246 3.453a.172.172 0 0 1-.179.21ZM69.48 70.21a.178.178 0 0 1-.178-.172l-.136-5.959a.19.19 0 0 1 .179-.184.185.185 0 0 1 .178.178l.136 5.952a.18.18 0 0 1-.173.185h-.006ZM71.96 72.844a.178.178 0 0 1-.178-.172l-.234-6.254a.18.18 0 0 1 .242-.175.172.172 0 0 1 .115.163l.234 6.235a.18.18 0 0 1-.172.185l-.007.018ZM74.49 75.066a.178.178 0 0 1-.178-.172l-.314-5.823a.178.178 0 0 1 .154-.19.165.165 0 0 1 .172.102c.01.022.013.046.012.07l.32 5.823a.185.185 0 0 1-.172.19h.006ZM76.99 77.116a.179.179 0 0 1-.18-.166l-.436-5.669a.18.18 0 0 1 .357-.03l.437 5.674a.179.179 0 0 1-.166.191h-.013ZM79.353 78.963a.173.173 0 0 1-.172-.16l-.511-4.98a.172.172 0 0 1 .16-.19.179.179 0 0 1 .19.16l.511 4.973a.173.173 0 0 1-.154.19l-.024.007ZM81.673 78.729a.172.172 0 0 1-.172-.154l-.363-2.222a.178.178 0 0 1 .148-.203.171.171 0 0 1 .18.081c.012.02.02.043.023.067l.363 2.222a.179.179 0 0 1-.148.203l-.03.006Z"/><path fill="#000" d="M61.263 50.464c-.585.493-.856 1.293-1.354 1.878-.61.759-1.266 1.48-1.964 2.16-.584.523-1.145.979-1.717 1.416a.96.96 0 0 0-.302.117c-2.911 2.11-5.102 2.88-8.79 3.557a14.157 14.157 0 0 1-6.524-.08c-1.926-.449-2.862-.978-4.875-2.333a25.465 25.465 0 0 1-4.062-3.853 15.389 15.389 0 0 1-2.16-4.308c-.29-.782-.511-1.582-.74-2.382a6.677 6.677 0 0 1-.442-2.42c-.21-.615-.406-1.193-.585-1.803a1.108 1.108 0 0 0-.548-.104 28.11 28.11 0 0 0 .037 7.226c.523 2.074 1.17 4.309 3.158 6.555a20.928 20.928 0 0 0 3.391 2.948 19.185 19.185 0 0 0 5.207 2.832c1.044.27 2.109.456 3.183.554 1.16.198 2.345.227 3.514.086.91-.112 1.81-.308 2.684-.585a22.928 22.928 0 0 0 5.355-1.902c.425-.252.836-.527 1.231-.825a26.132 26.132 0 0 0 5.281-4.308c.283-.616.56-1.176.813-1.773.326-.892.615-1.785.966-2.677a.915.915 0 0 0-.757.024Z" opacity=".13"/><path fill="#000" d="M65.067 58.072c-.887-.252-1.484.363-1.92 1.04l-.062.074c-.776.905-.991.825-2.272 1.982a2.117 2.117 0 0 0-.714.579 1.434 1.434 0 0 0-.221 1.52 1.127 1.127 0 0 0-.843.4c-.243.26-.516.489-.813.683a27.452 27.452 0 0 1-4.21 2.272c-3.545 1.366-6.02 2.043-9.43 1.846-5.46-.141-10.033-2.222-14.07-5.066a10.46 10.46 0 0 1-1.97-1.846l.166.215c-.572-.683-1.015-1.575-1.846-2.006a1.077 1.077 0 0 0-1.176 1.748c.726.615 1.231 1.668 2.382 2.696a18.658 18.658 0 0 0 3.693 2.566 24.473 24.473 0 0 0 3.385 1.847 24.995 24.995 0 0 0 4.309 1.52c2.663.607 5.401.815 8.125.616a25.776 25.776 0 0 0 9.005-2.985 18.211 18.211 0 0 0 4.044-2.69 1.064 1.064 0 0 0 .295-.868 1.457 1.457 0 0 0 1.231-.148 8.284 8.284 0 0 0 2.592-2.277c.46-.485.871-1.013 1.23-1.576a1.47 1.47 0 0 0-.91-2.142Z" opacity=".13"/><path fill="#000" d="M14.342 58.146a.158.158 0 0 1-.117-.043.185.185 0 0 1 0-.253 39.895 39.895 0 0 1 4.53-4.542.178.178 0 0 1 .304.123.173.173 0 0 1-.051.123 38.715 38.715 0 0 0-4.537 4.506.172.172 0 0 1-.129.086ZM13.708 63.34a.167.167 0 0 1-.123-.055.178.178 0 0 1 0-.252 271.952 271.952 0 0 1 7.75-7.565.18.18 0 0 1 .207-.054.178.178 0 0 1 .085.258.178.178 0 0 1-.053.055 288.907 288.907 0 0 0-7.73 7.559.179.179 0 0 1-.136.055ZM13.111 69.496a.159.159 0 0 1-.117-.043.179.179 0 0 1 0-.252c2.85-3.281 5.884-6.476 9.005-9.498a.178.178 0 0 1 .252 0 .185.185 0 0 1 0 .252 148.323 148.323 0 0 0-8.986 9.48.173.173 0 0 1-.154.061ZM19.334 67.803a.172.172 0 0 1-.117-.043.185.185 0 0 1 0-.252 49.322 49.322 0 0 1 5.3-5.46.179.179 0 0 1 .252 0 .185.185 0 0 1 0 .253 49.15 49.15 0 0 0-5.257 5.422.178.178 0 0 1-.178.08ZM25.224 66.96a.197.197 0 0 1-.129-.05.185.185 0 0 1 0-.251l2.573-2.653a.185.185 0 0 1 .252 0 .179.179 0 0 1 0 .252l-2.579 2.647a.166.166 0 0 1-.117.055Z"/><path fill="#F35A05" d="M44.028 54 35.8 42.018a4.599 4.599 0 0 1-.748-3.283 4.512 4.512 0 0 1 1.679-2.894 4.07 4.07 0 0 1 1.484-.72 4 4 0 0 1 1.64-.066 4.047 4.047 0 0 1 1.534.599c.467.303.87.7 1.187 1.168l1.42 2.076 1.428-2.076c.316-.468.72-.865 1.188-1.169.467-.303.989-.506 1.534-.598a4 4 0 0 1 1.639.066 4.07 4.07 0 0 1 1.484.72 4.512 4.512 0 0 1 1.68 2.894 4.599 4.599 0 0 1-.749 3.283L44.028 54Z"/><path fill="#07040C" d="M44.522 55a.555.555 0 0 1-.439-.236l-8.21-11.917a5.173 5.173 0 0 1-.812-3.67 5.07 5.07 0 0 1 1.874-3.228 4.538 4.538 0 0 1 1.661-.812 4.557 4.557 0 0 1 3.577.595c.53.343.99.792 1.348 1.322l.976 1.43.983-1.43a4.72 4.72 0 0 1 1.348-1.322 4.558 4.558 0 0 1 3.576-.595c.601.153 1.166.429 1.661.812a5.071 5.071 0 0 1 1.877 3.244 5.172 5.172 0 0 1-.833 3.68l-8.167 11.916a.535.535 0 0 1-.42.211Zm-4.794-18.917a3.465 3.465 0 0 0-2.12.735 3.954 3.954 0 0 0-1.457 2.526 4.031 4.031 0 0 0 .649 2.864l7.722 11.272 7.729-11.272a4.032 4.032 0 0 0 .648-2.864 3.954 3.954 0 0 0-1.458-2.526 3.492 3.492 0 0 0-1.273-.627c-.46-.118-.94-.14-1.408-.063a3.513 3.513 0 0 0-1.345.52c-.41.266-.764.615-1.04 1.026l-1.42 2.062a.517.517 0 0 1-.685.172.556.556 0 0 1-.193-.172l-1.408-2.062a3.638 3.638 0 0 0-1.037-1.024 3.512 3.512 0 0 0-1.342-.522 4.19 4.19 0 0 0-.593-.045h.03Z"/></svg>