<svg width="100" height="100" viewBox="0 0 100 100" fill="none" xmlns="http://www.w3.org/2000/svg">
<path d="M48.6139 8.36914H20.2386C15.3673 8.36914 11.4183 12.3181 11.4183 17.1895V79.5906C11.4183 84.4619 15.3673 88.4109 20.2386 88.4109H48.6139C53.4853 88.4109 57.4343 84.4619 57.4343 79.5906V17.1895C57.4343 12.3181 53.4853 8.36914 48.6139 8.36914Z" fill="#F35A05"/>
<path d="M48.694 88.9464H20.1587C17.6995 88.9431 15.3421 87.9648 13.6032 86.226C11.8644 84.4871 10.8861 82.1297 10.8828 79.6705V17.1156C10.8861 14.6559 11.8642 12.2978 13.6029 10.558C15.3415 8.81818 17.699 7.8385 20.1587 7.83362H48.694C51.1537 7.8385 53.5111 8.81818 55.2498 10.558C56.9885 12.2978 57.9666 14.6559 57.9698 17.1156V79.6705C57.9666 82.1297 56.9883 84.4871 55.2494 86.226C53.5106 87.9648 51.1531 88.9431 48.694 88.9464V88.9464ZM20.1587 8.92924C17.9921 8.94058 15.9177 9.8071 14.3869 11.3402C12.8561 12.8734 11.9927 14.9491 11.9846 17.1156V79.6705C11.9878 81.8456 12.8533 83.9306 14.3913 85.4686C15.9293 87.0066 18.0144 87.8721 20.1894 87.8754H48.7248C50.8977 87.8689 52.9796 87.002 54.5149 85.4643C56.0502 83.9267 56.914 81.8435 56.9173 79.6705V17.1156C56.9156 14.9395 56.0509 12.8529 54.5127 11.3135C52.9746 9.7742 50.8886 8.90787 48.7124 8.90461L20.1587 8.92924Z" fill="black"/>
<path d="M57.4343 16.8817H11.4183V77.2393H57.4343V16.8817Z" fill="white"/>
<path d="M57.4343 77.7808H11.4183C11.348 77.7808 11.2783 77.767 11.2134 77.7401C11.1484 77.7132 11.0894 77.6737 11.0397 77.624C10.9899 77.5743 10.9505 77.5152 10.9236 77.4503C10.8967 77.3853 10.8828 77.3157 10.8828 77.2453V16.8816C10.8828 16.7396 10.9392 16.6034 11.0397 16.503C11.1401 16.4026 11.2763 16.3461 11.4183 16.3461H57.4343C57.5764 16.3461 57.7126 16.4026 57.813 16.503C57.9134 16.6034 57.9698 16.7396 57.9698 16.8816V77.2453C57.9698 77.3874 57.9134 77.5236 57.813 77.624C57.7126 77.7244 57.5764 77.7808 57.4343 77.7808ZM11.9846 76.7098H56.9173V17.4171H11.9846V76.7098Z" fill="black"/>
<path d="M39.0673 82.1141H30.7517C30.6097 82.1141 30.4735 82.0577 30.373 81.9573C30.2726 81.8569 30.2162 81.7207 30.2162 81.5786C30.2162 81.4366 30.2726 81.3004 30.373 81.2C30.4735 81.0996 30.6097 81.0432 30.7517 81.0432H39.0673C39.2093 81.0432 39.3455 81.0996 39.446 81.2C39.5464 81.3004 39.6028 81.4366 39.6028 81.5786C39.6028 81.7207 39.5464 81.8569 39.446 81.9573C39.3455 82.0577 39.2093 82.1141 39.0673 82.1141Z" fill="black"/>
<g opacity="0.13">
<path d="M53.2857 16.1493C51.7161 16.1062 50.1466 16.0323 48.577 16.0508C44.3464 16.0097 40.1198 16.0097 35.8974 16.0508C32.5736 16.0508 29.2437 16.217 25.926 15.9892C21.8513 15.8661 17.7704 15.6261 13.6957 15.7861C13.1233 15.7861 12.5508 15.7861 11.9784 15.7861C11.633 15.7181 11.2751 15.7546 10.9505 15.8907C10.6189 16.031 10.3462 16.2818 10.1787 16.6005C10.0113 16.9192 9.9594 17.2861 10.032 17.6388C10.1045 17.9914 10.297 18.308 10.5767 18.5347C10.8564 18.7614 11.206 18.8842 11.566 18.8821C13.5541 19.0237 15.5484 18.8821 17.5427 18.9129C19.9186 18.9129 22.2883 19.1037 24.6581 19.153C33.5215 19.2022 42.3911 19.2391 51.2545 19.0853C52.4301 19.0853 53.6119 19.0853 54.7876 19.0545C55.7601 19.1653 56.7511 18.7036 56.7634 17.608C56.6341 15.7122 54.5968 16.217 53.2857 16.1493Z" fill="black"/>
</g>
<path d="M59.3793 62.1837L70.6002 73.22C72.529 75.1903 74.5676 77.05 76.7061 78.7904C77.8633 79.7014 79.1682 80.5631 80.5716 80.5631C81.3198 80.5576 82.0375 80.2654 82.5768 79.7467C83.1161 79.228 83.436 78.5223 83.4707 77.7748C83.4707 76.5438 82.6028 75.5343 81.7964 74.6972C75.8464 68.4148 69.6338 62.4648 63.1586 56.8472C61.9522 58.583 60.7642 60.3187 59.3793 62.1837Z" fill="white"/>
<path d="M80.5469 81.0986C78.9712 81.0986 77.5986 80.1938 76.3491 79.2151C74.1936 77.461 72.1386 75.5869 70.1939 73.6016L58.9731 62.5653C58.8811 62.473 58.8255 62.3506 58.8164 62.2206C58.8074 62.0906 58.8455 61.9617 58.9238 61.8575C60.3272 60.011 61.5213 58.2506 62.6846 56.5518C62.7279 56.4897 62.7836 56.4373 62.8482 56.3981C62.9129 56.3589 62.9851 56.3337 63.0601 56.324C63.1346 56.3119 63.2109 56.3167 63.2834 56.338C63.3558 56.3593 63.4225 56.3966 63.4786 56.4471C69.9293 62.036 76.2137 68.0496 82.1534 74.2971C83.0336 75.2204 83.963 76.3222 84 77.7563C83.9989 78.1773 83.914 78.5939 83.7502 78.9818C83.5864 79.3696 83.347 79.7209 83.0459 80.0152C82.3873 80.6902 81.4898 81.0792 80.5469 81.0986V81.0986ZM60.0687 62.1099L70.951 72.8199C72.8667 74.7762 74.8887 76.6255 77.0077 78.3595C78.1095 79.2212 79.2974 80.0152 80.5469 80.0152C81.1968 79.9969 81.8144 79.7278 82.2704 79.2643C82.6654 78.8668 82.8867 78.329 82.8859 77.7686C82.8859 76.7284 82.1288 75.8482 81.3594 75.0357C75.5797 68.9421 69.4799 63.0886 63.214 57.6351C62.2538 59.0938 61.2259 60.5772 60.0687 62.1099Z" fill="black"/>
<path d="M44.767 21.4858C40.1541 21.4846 35.6444 22.8513 31.8083 25.4132C27.9723 27.9751 24.9821 31.6171 23.2159 35.8785C21.4498 40.1399 20.9871 44.8294 21.8863 49.3538C22.7855 53.8782 25.0062 58.0344 28.2675 61.2966C31.5289 64.5589 35.6845 66.7807 40.2087 67.681C44.7329 68.5814 49.4224 68.1199 53.6843 66.3549C57.9462 64.5899 61.5889 61.6007 64.1519 57.7653C66.7148 53.9299 68.0828 49.4206 68.0828 44.8077C68.0836 41.7453 67.4811 38.7128 66.3097 35.8832C65.1383 33.0537 63.4211 30.4827 61.2559 28.317C59.0908 26.1513 56.5202 24.4333 53.691 23.2612C50.8618 22.0891 47.8294 21.4858 44.767 21.4858V21.4858ZM44.767 62.5161C41.2613 62.521 37.833 61.4856 34.9161 59.5409C31.9991 57.5963 29.7248 54.8299 28.381 51.592C27.0371 48.3541 26.6843 44.7902 27.367 41.3516C28.0497 37.9131 29.7374 34.7544 32.2163 32.2755C34.6952 29.7966 37.8539 28.1089 41.2925 27.4262C44.731 26.7434 48.2949 27.0963 51.5328 28.4402C54.7707 29.784 57.5371 32.0583 59.4818 34.9752C61.4264 37.8921 62.4618 41.3205 62.4569 44.8262C62.4569 49.5195 60.5937 54.0209 57.2768 57.3414C53.9598 60.6618 49.4603 62.5297 44.767 62.5346V62.5161ZM44.767 62.5161C41.2613 62.521 37.833 61.4856 34.9161 59.5409C31.9991 57.5963 29.7248 54.8299 28.381 51.592C27.0371 48.3541 26.6843 44.7902 27.367 41.3516C28.0497 37.9131 29.7374 34.7544 32.2163 32.2755C34.6952 29.7966 37.8539 28.1089 41.2925 27.4262C44.731 26.7434 48.2949 27.0963 51.5328 28.4402C54.7707 29.784 57.5371 32.0583 59.4818 34.9752C61.4264 37.8921 62.4618 41.3205 62.4569 44.8262C62.4569 49.5195 60.5937 54.0209 57.2768 57.3414C53.9598 60.6618 49.4603 62.5297 44.767 62.5346V62.5161Z" fill="white"/>
<path d="M44.767 68.6774C40.0477 68.6799 35.4336 67.2826 31.5085 64.6623C27.5834 62.042 24.5237 58.3165 22.7163 53.957C20.9089 49.5974 20.435 44.7998 21.3547 40.1709C22.2743 35.5421 24.5461 31.29 27.8828 27.9524C31.2194 24.6149 35.471 22.342 40.0996 21.4212C44.7282 20.5003 49.526 20.9729 53.886 22.7792C58.2459 24.5855 61.9723 27.6443 64.5936 31.5687C67.2148 35.4931 68.6133 40.1068 68.6121 44.8262C68.604 51.1484 66.0893 57.2094 61.6194 61.6804C57.1496 66.1514 51.0892 68.6677 44.767 68.6774V68.6774ZM44.767 22.0397C40.2627 22.0397 35.8596 23.3754 32.1144 25.8779C28.3692 28.3803 25.4502 31.9372 23.7265 36.0986C22.0028 40.26 21.5517 44.8391 22.4305 49.2569C23.3092 53.6746 25.4783 57.7326 28.6633 60.9176C31.8483 64.1026 35.9063 66.2716 40.324 67.1504C44.7418 68.0291 49.3209 67.5781 53.4823 65.8544C57.6437 64.1307 61.2005 61.2116 63.703 57.4665C66.2054 53.7213 67.5411 49.3181 67.5411 44.8139C67.5314 38.7768 65.1288 32.9898 60.8599 28.7209C56.5911 24.4521 50.8041 22.0495 44.767 22.0397ZM44.767 63.0701C41.157 63.0713 37.6276 62.0018 34.6255 59.9969C31.6233 57.9921 29.2832 55.1419 27.9012 51.8068C26.5191 48.4718 26.1572 44.8018 26.8612 41.2611C27.5652 37.7204 29.3034 34.4679 31.8561 31.9153C34.4088 29.3626 37.6612 27.6243 41.2019 26.9203C44.7427 26.2163 48.4127 26.5783 51.7477 27.9603C55.0827 29.3424 57.9329 31.6825 59.9378 34.6847C61.9426 37.6868 63.0121 41.2161 63.0109 44.8262C63.006 49.6633 61.0823 54.3008 57.662 57.7212C54.2417 61.1415 49.6041 63.0652 44.767 63.0701V63.0701ZM27.5941 44.8262C27.5965 48.2221 28.6058 51.5411 30.4942 54.3636C32.3827 57.186 35.0656 59.3852 38.2037 60.6831C41.3419 61.981 44.7944 62.3193 48.1248 61.6553C51.4552 60.9913 54.514 59.3548 56.9144 56.9526C59.3149 54.5504 60.9492 51.4905 61.6108 48.1596C62.2725 44.8287 61.9316 41.3764 60.6315 38.2392C59.3314 35.102 57.1303 32.4207 54.3065 30.5343C51.4827 28.6478 48.163 27.6409 44.767 27.6409C40.2118 27.6458 35.8448 29.4584 32.625 32.6805C29.4051 35.9027 27.5957 40.271 27.5941 44.8262Z" fill="black"/>
<path d="M62.3646 62.8485H62.3154C62.2927 62.8421 62.2714 62.8313 62.253 62.8167C62.2345 62.8021 62.2191 62.7839 62.2076 62.7633C62.1962 62.7427 62.1889 62.7201 62.1863 62.6967C62.1837 62.6732 62.1857 62.6495 62.1922 62.6269L62.6046 61.1928C62.611 61.1701 62.6218 61.1489 62.6364 61.1304C62.6511 61.1119 62.6692 61.0965 62.6898 61.085C62.7104 61.0736 62.7331 61.0663 62.7565 61.0637C62.7799 61.061 62.8036 61.0631 62.8262 61.0696C62.8709 61.0838 62.9082 61.115 62.9301 61.1565C62.952 61.1979 62.9567 61.2463 62.9432 61.2912L62.5369 62.7254C62.5251 62.7616 62.502 62.7931 62.471 62.8153C62.44 62.8374 62.4027 62.8491 62.3646 62.8485V62.8485Z" fill="black"/>
<path d="M64.3035 65.366C64.28 65.3629 64.2573 65.3552 64.2367 65.3434C64.2162 65.3315 64.1982 65.3156 64.1839 65.2967C64.1696 65.2778 64.1592 65.2562 64.1533 65.2332C64.1474 65.2102 64.1462 65.1863 64.1496 65.1628C64.3712 63.4886 64.6359 61.7898 64.9375 60.1279C64.9401 60.1036 64.9477 60.0801 64.9597 60.0588C64.9718 60.0376 64.9881 60.019 65.0076 60.0043C65.0272 59.9896 65.0495 59.9791 65.0733 59.9734C65.097 59.9677 65.1217 59.9669 65.1458 59.9711C65.1699 59.9754 65.1928 59.9845 65.2132 59.9979C65.2337 60.0114 65.2511 60.0289 65.2645 60.0494C65.2778 60.0698 65.2868 60.0928 65.2909 60.1169C65.295 60.141 65.2941 60.1657 65.2883 60.1895C64.9867 61.8514 64.7221 63.5379 64.5005 65.2121C64.4943 65.2584 64.4702 65.3005 64.4334 65.3292C64.3966 65.358 64.3499 65.3712 64.3035 65.366V65.366Z" fill="black"/>
<path d="M66.8702 67.8034C66.8229 67.8034 66.7775 67.7846 66.744 67.7511C66.7105 67.7176 66.6917 67.6722 66.6917 67.6249C66.6917 66.7878 66.821 65.3844 66.9379 64.1411C67.0056 63.384 67.0672 62.7254 67.0857 62.2945C67.0857 62.2472 67.1044 62.2018 67.1379 62.1683C67.1714 62.1348 67.2168 62.116 67.2641 62.116C67.3115 62.116 67.3569 62.1348 67.3904 62.1683C67.4238 62.2018 67.4426 62.2472 67.4426 62.2945C67.4426 62.7131 67.3626 63.3717 67.2949 64.1411C67.178 65.3721 67.0487 66.7755 67.0487 67.5941C67.0545 67.6202 67.0541 67.6472 67.0477 67.673C67.0412 67.6989 67.0289 67.7229 67.0116 67.7432C66.9943 67.7635 66.9725 67.7795 66.948 67.7899C66.9234 67.8004 66.8968 67.805 66.8702 67.8034V67.8034Z" fill="black"/>
<path d="M69.48 70.21C69.4337 70.2101 69.3892 70.1921 69.3559 70.1599C69.3226 70.1278 69.3031 70.084 69.3015 70.0377L69.1661 64.0795C69.1675 64.032 69.1866 63.9868 69.2196 63.9526C69.2526 63.9185 69.2972 63.8979 69.3446 63.8948C69.3914 63.8964 69.4359 63.9157 69.4691 63.9488C69.5022 63.982 69.5215 64.0265 69.523 64.0733L69.6585 70.0254C69.6593 70.0488 69.6555 70.0722 69.6473 70.0942C69.6391 70.1162 69.6266 70.1363 69.6106 70.1534C69.5946 70.1706 69.5754 70.1844 69.554 70.1941C69.5327 70.2038 69.5096 70.2092 69.4861 70.21H69.48Z" fill="black"/>
<path d="M71.9605 72.8444C71.9142 72.8444 71.8697 72.8265 71.8364 72.7943C71.8031 72.7622 71.7836 72.7183 71.782 72.6721L71.5481 66.4184C71.5473 66.395 71.5511 66.3716 71.5593 66.3496C71.5675 66.3277 71.58 66.3075 71.596 66.2904C71.612 66.2732 71.6312 66.2594 71.6526 66.2497C71.6739 66.24 71.697 66.2346 71.7204 66.2338C71.7441 66.2321 71.7678 66.2353 71.7902 66.2432C71.8125 66.2511 71.833 66.2635 71.8503 66.2797C71.8677 66.2959 71.8815 66.3154 71.8909 66.3372C71.9003 66.3589 71.9051 66.3824 71.9051 66.4061L72.139 72.6413C72.1398 72.6647 72.136 72.6881 72.1278 72.7101C72.1195 72.7321 72.1071 72.7522 72.0911 72.7693C72.075 72.7865 72.0558 72.8003 72.0345 72.81C72.0131 72.8198 71.9901 72.8252 71.9666 72.826L71.9605 72.8444Z" fill="black"/>
<path d="M74.4903 75.0664C74.444 75.0665 74.3995 75.0485 74.3662 75.0164C74.3329 74.9842 74.3134 74.9404 74.3118 74.8941L73.9979 69.0713C73.9943 69.0259 74.0082 68.9808 74.0369 68.9453C74.0655 68.9098 74.1066 68.8866 74.1517 68.8805C74.1756 68.8778 74.1997 68.8803 74.2225 68.8879C74.2453 68.8954 74.2662 68.9078 74.2838 68.9242C74.3013 68.9405 74.3151 68.9605 74.3242 68.9827C74.3333 69.0049 74.3374 69.0289 74.3364 69.0528L74.6565 74.8756C74.6582 74.9236 74.6411 74.9703 74.6089 75.006C74.5768 75.0416 74.532 75.0633 74.4841 75.0664H74.4903Z" fill="black"/>
<path d="M76.9893 77.1161C76.944 77.1162 76.9003 77.0991 76.8672 77.0683C76.8341 77.0374 76.8139 76.9951 76.8108 76.9499L76.3737 71.281C76.3721 71.2576 76.375 71.234 76.3825 71.2117C76.39 71.1894 76.4018 71.1688 76.4172 71.1511C76.4327 71.1334 76.4514 71.1188 76.4725 71.1084C76.4936 71.0979 76.5165 71.0918 76.5399 71.0902C76.5863 71.0868 76.6322 71.1016 76.6679 71.1315C76.7035 71.1614 76.7261 71.204 76.7308 71.2503L77.1678 76.9253C77.1695 76.9488 77.1664 76.9723 77.159 76.9946C77.1515 77.0169 77.1398 77.0375 77.1243 77.0552C77.1089 77.073 77.0901 77.0875 77.069 77.0979C77.048 77.1084 77.025 77.1146 77.0016 77.1161H76.9893Z" fill="black"/>
<path d="M79.3528 78.9627C79.3092 78.9628 79.2671 78.9463 79.2351 78.9166C79.2031 78.8869 79.1836 78.8462 79.1805 78.8027L78.6696 73.8231C78.6671 73.8 78.6692 73.7766 78.676 73.7543C78.6827 73.7321 78.6939 73.7114 78.7089 73.6935C78.7238 73.6757 78.7422 73.6611 78.763 73.6506C78.7837 73.6401 78.8064 73.6338 78.8296 73.6323C78.876 73.6289 78.9219 73.6437 78.9576 73.6736C78.9932 73.7035 79.0157 73.7461 79.0204 73.7924L79.5313 78.7657C79.5339 78.7884 79.5319 78.8113 79.5256 78.8332C79.5192 78.8551 79.5085 78.8755 79.4942 78.8933C79.4799 78.911 79.4622 78.9257 79.4422 78.9366C79.4221 78.9475 79.4001 78.9542 79.3774 78.9565L79.3528 78.9627Z" fill="black"/>
<path d="M81.6733 78.7288C81.6307 78.7291 81.5894 78.7135 81.5576 78.685C81.5258 78.6566 81.5056 78.6174 81.501 78.5749L81.1378 76.3529C81.1307 76.3064 81.1423 76.259 81.17 76.221C81.1976 76.183 81.2392 76.1574 81.2856 76.1498C81.3087 76.1454 81.3325 76.1458 81.3554 76.151C81.3784 76.1561 81.4001 76.1659 81.4191 76.1797C81.4381 76.1936 81.4541 76.2112 81.4661 76.2314C81.4781 76.2517 81.4857 76.2742 81.4887 76.2975L81.8519 78.5196C81.859 78.566 81.8474 78.6135 81.8198 78.6515C81.7921 78.6895 81.7506 78.7151 81.7041 78.7227L81.6733 78.7288Z" fill="black"/>
<g opacity="0.13">
<path d="M61.2629 50.4643C60.6781 50.9567 60.4073 51.7569 59.9087 52.3416C59.2986 53.1009 58.6429 53.8223 57.9452 54.5021C57.3605 55.0253 56.8004 55.4807 56.2279 55.9177C56.1215 55.9394 56.0195 55.9789 55.9263 56.0347C53.0149 58.1459 50.8237 58.9153 47.1367 59.5924C44.9854 60.0741 42.7512 60.0467 40.6123 59.5124C38.6857 59.063 37.7501 58.5337 35.7374 57.1795C34.2458 56.0484 32.8834 54.7562 31.675 53.3264V53.3264C30.733 52.0126 30.0039 50.5586 29.5145 49.0178C29.2252 48.2361 29.0037 47.4359 28.7759 46.6357C28.4797 45.8638 28.3294 45.0436 28.3327 44.2168C28.1234 43.6013 27.9265 43.0227 27.748 42.4133C27.5773 42.3323 27.3887 42.2963 27.2002 42.3087C26.9015 44.7089 26.914 47.1377 27.2371 49.5348C27.7603 51.6091 28.4066 53.8435 30.3947 56.0901C31.4161 57.1917 32.5531 58.1802 33.7862 59.0384C35.3648 60.2463 37.1215 61.2014 38.9935 61.8698C40.0373 62.1409 41.1016 62.3262 42.1757 62.4238V62.4238C43.3369 62.6217 44.5207 62.6507 45.6903 62.5099C46.6009 62.3979 47.4993 62.2022 48.3739 61.9252C50.2309 61.5157 52.0297 60.8768 53.7289 60.0232C54.1542 59.7713 54.5652 59.4959 54.96 59.1984C56.9009 57.9989 58.6764 56.5504 60.2411 54.8898C60.5243 54.2743 60.8012 53.7142 61.0536 53.1172C61.3798 52.2247 61.6691 51.3322 62.0199 50.4397C61.8993 50.3896 61.7693 50.3659 61.6387 50.3702C61.5082 50.3744 61.38 50.4065 61.2629 50.4643V50.4643Z" fill="black"/>
</g>
<g opacity="0.13">
<path d="M65.0667 58.0721C64.1803 57.8197 63.5833 58.4352 63.1463 59.1123L63.0847 59.1862C62.3092 60.091 62.0938 60.011 60.8135 61.1681C60.536 61.3064 60.2922 61.5039 60.0995 61.7467C59.9221 61.953 59.8072 62.2055 59.7679 62.4747C59.7287 62.7439 59.7668 63.0187 59.8779 63.267C59.7169 63.2696 59.5583 63.3066 59.4129 63.3756C59.2674 63.4447 59.1384 63.544 59.0346 63.6671C58.7921 63.9266 58.5193 64.156 58.2221 64.3504C56.8875 65.2285 55.4788 65.9885 54.012 66.6216C50.4667 67.988 47.9923 68.6651 44.5823 68.4682C39.1227 68.3266 34.5494 66.2461 30.5116 63.4025C29.778 62.8746 29.116 62.2539 28.542 61.5559L28.7081 61.7713C28.1357 61.0881 27.6925 60.1956 26.8616 59.7648C26.6327 59.673 26.3794 59.6626 26.1438 59.7351C25.9081 59.8077 25.7046 59.9589 25.567 60.1635C25.4294 60.368 25.3661 60.6136 25.3878 60.8592C25.4094 61.1048 25.5147 61.3355 25.6859 61.5128C26.4123 62.1283 26.917 63.1809 28.068 64.2088C29.191 65.2101 30.4311 66.072 31.7611 66.7755C32.8392 67.4791 33.9712 68.0965 35.1464 68.622C36.5332 69.2593 37.9754 69.7682 39.455 70.1424C42.1178 70.7494 44.8561 70.9568 47.5799 70.7579C50.7404 70.3285 53.7938 69.3163 56.5849 67.7726C58.0469 67.0606 59.407 66.1559 60.6288 65.0828C60.7396 64.9693 60.8236 64.8325 60.8747 64.6823C60.9258 64.5321 60.9428 64.3725 60.9243 64.2149C61.1277 64.2823 61.3435 64.3039 61.5562 64.2784C61.769 64.2528 61.9736 64.1807 62.1553 64.0672C63.1693 63.4983 64.0522 62.7224 64.7466 61.7898C65.2063 61.3051 65.6185 60.7774 65.9776 60.2141C66.0875 60.018 66.1509 59.7994 66.1631 59.5749C66.1753 59.3505 66.1359 59.1263 66.0479 58.9195C65.96 58.7127 65.8258 58.5288 65.6557 58.3819C65.4856 58.235 65.2841 58.129 65.0667 58.0721V58.0721Z" fill="black"/>
</g>
<path d="M14.342 58.1459C14.3207 58.147 14.2993 58.1437 14.2792 58.1363C14.2591 58.1289 14.2407 58.1175 14.2251 58.1029C14.1931 58.0686 14.1752 58.0235 14.1752 57.9767C14.1752 57.9298 14.1931 57.8847 14.2251 57.8505C15.6108 56.2172 17.1257 54.6981 18.7553 53.308C18.7887 53.2745 18.8341 53.2557 18.8815 53.2557C18.9288 53.2557 18.9742 53.2745 19.0076 53.308C19.024 53.324 19.037 53.3432 19.0459 53.3643C19.0548 53.3855 19.0594 53.4082 19.0594 53.4311C19.0594 53.454 19.0548 53.4767 19.0459 53.4979C19.037 53.519 19.024 53.5382 19.0076 53.5542C17.3739 54.9284 15.8566 56.4354 14.4713 58.0598C14.458 58.0833 14.4394 58.1033 14.4169 58.1183C14.3945 58.1332 14.3688 58.1427 14.342 58.1459V58.1459Z" fill="black"/>
<path d="M13.708 63.3409C13.6847 63.3408 13.6618 63.3358 13.6405 63.3263C13.6193 63.3168 13.6004 63.3029 13.5849 63.2855C13.5514 63.2521 13.5327 63.2067 13.5327 63.1594C13.5327 63.112 13.5514 63.0667 13.5849 63.0332C16.1085 60.4665 18.7183 57.9244 21.3342 55.4685C21.3502 55.4483 21.3704 55.4318 21.3933 55.4201C21.4162 55.4084 21.4415 55.4018 21.4672 55.4008C21.4929 55.3997 21.5186 55.4043 21.5424 55.4141C21.5662 55.4239 21.5876 55.4388 21.6051 55.4577C21.6226 55.4765 21.6359 55.499 21.6439 55.5235C21.652 55.5479 21.6546 55.5738 21.6517 55.5994C21.6487 55.625 21.6403 55.6497 21.6269 55.6717C21.6136 55.6937 21.5956 55.7126 21.5743 55.727C18.9645 58.1891 16.3609 60.725 13.8434 63.2855C13.826 63.3038 13.805 63.3182 13.7816 63.3278C13.7583 63.3373 13.7332 63.3418 13.708 63.3409V63.3409Z" fill="black"/>
<path d="M13.111 69.496C13.0896 69.4971 13.0682 69.4938 13.0481 69.4864C13.028 69.479 13.0097 69.4676 12.994 69.453C12.9606 69.4195 12.9418 69.3741 12.9418 69.3268C12.9418 69.2795 12.9606 69.2341 12.994 69.2006C15.8439 65.9199 18.8784 62.7254 21.999 59.7032C22.0325 59.6697 22.0779 59.6509 22.1252 59.6509C22.1725 59.6509 22.2179 59.6697 22.2514 59.7032C22.2834 59.7374 22.3012 59.7825 22.3012 59.8294C22.3012 59.8762 22.2834 59.9213 22.2514 59.9555C19.1307 62.9716 16.0962 66.1661 13.2649 69.4345C13.2464 69.4569 13.2227 69.4742 13.1958 69.485C13.1689 69.4957 13.1397 69.4995 13.111 69.496V69.496Z" fill="black"/>
<path d="M19.3339 67.8034C19.2909 67.8041 19.2491 67.7888 19.2169 67.7603C19.1849 67.7261 19.1671 67.681 19.1671 67.6342C19.1671 67.5873 19.1849 67.5422 19.2169 67.508C20.8402 65.5544 22.612 63.729 24.5165 62.0483C24.55 62.0149 24.5954 61.9961 24.6427 61.9961C24.69 61.9961 24.7354 62.0149 24.7689 62.0483C24.8009 62.0825 24.8187 62.1277 24.8187 62.1745C24.8187 62.2214 24.8009 62.2665 24.7689 62.3007C22.8802 63.9708 21.1228 65.7837 19.5123 67.7234C19.4936 67.7527 19.4667 67.7758 19.435 67.79C19.4033 67.8043 19.3682 67.8089 19.3339 67.8034V67.8034Z" fill="black"/>
<path d="M25.2243 66.9601C25.1767 66.9599 25.1308 66.9424 25.095 66.9109C25.063 66.8767 25.0452 66.8316 25.0452 66.7847C25.0452 66.7379 25.063 66.6928 25.095 66.6585L27.6679 64.0056C27.7021 63.9736 27.7472 63.9558 27.7941 63.9558C27.8409 63.9558 27.8861 63.9736 27.9203 64.0056C27.9537 64.0391 27.9725 64.0845 27.9725 64.1318C27.9725 64.1792 27.9537 64.2245 27.9203 64.258L25.3413 66.9047C25.3265 66.9213 25.3085 66.9348 25.2884 66.9443C25.2683 66.9538 25.2465 66.9592 25.2243 66.9601Z" fill="black"/>
<path d="M44.0279 54L35.8 42.0181C35.1463 41.0659 34.8779 39.8881 35.0517 38.7348C35.2255 37.5814 35.8278 36.5435 36.7308 35.8414C37.1739 35.5012 37.6787 35.2563 38.2152 35.1212C38.7517 34.9862 39.309 34.9637 39.8541 35.0551C40.3992 35.1465 40.921 35.35 41.3885 35.6535C41.856 35.9569 42.2598 36.3542 42.5759 36.8217L43.9969 38.8977L45.4241 36.8217C45.7402 36.3542 46.144 35.9569 46.6115 35.6535C47.079 35.35 47.6008 35.1465 48.1459 35.0551C48.691 34.9637 49.2483 34.9862 49.7848 35.1212C50.3213 35.2563 50.8261 35.5012 51.2692 35.8414C52.1722 36.5435 52.7745 37.5814 52.9483 38.7348C53.1221 39.8881 52.8537 41.0659 52.2 42.0181L44.0279 54Z" fill="#F35A05"/>
<path d="M44.522 55C44.4361 54.9988 44.3517 54.9768 44.2756 54.9357C44.1994 54.8947 44.1336 54.8358 44.0834 54.7637L35.8729 42.8466C35.1537 41.7778 34.8626 40.4626 35.0607 39.1768C35.2588 37.891 35.9307 36.7343 36.9355 35.9493C37.4307 35.566 37.9956 35.2898 38.5964 35.1373C39.1972 34.9848 39.8216 34.959 40.4322 35.0616C41.0503 35.1619 41.6424 35.3901 42.1731 35.7325C42.7039 36.0748 43.1624 36.5244 43.5212 37.0541L44.4973 38.4847L45.4796 37.0541C45.8384 36.5244 46.2969 36.0748 46.8277 35.7325C47.3585 35.3901 47.9505 35.1619 48.5686 35.0616C49.1792 34.959 49.8036 34.9848 50.4044 35.1373C51.0052 35.2898 51.5701 35.566 52.0653 35.9493C53.0741 36.7378 53.747 37.9007 53.9418 39.1925C54.1366 40.4842 53.8381 41.8037 53.1094 42.8722L44.9421 54.7893C44.8923 54.8551 44.8285 54.9084 44.7557 54.9449C44.6829 54.9814 44.603 55.0003 44.522 55ZM39.7279 36.0834C38.9634 36.0853 38.22 36.3429 37.6089 36.8178C36.8249 37.433 36.3024 38.3386 36.1514 39.344C36.0005 40.3494 36.2328 41.3761 36.7996 42.208L44.522 53.48L52.2507 42.208C52.8174 41.3761 53.0497 40.3494 52.8988 39.344C52.7478 38.3386 52.2253 37.433 51.4414 36.8178C51.062 36.5229 50.6291 36.3099 50.1685 36.1914C49.7079 36.0729 49.2289 36.0514 48.7601 36.1281C48.2823 36.206 47.8247 36.3831 47.4148 36.6487C47.005 36.9143 46.6514 37.263 46.3754 37.6736L44.9545 39.7364C44.9054 39.8096 44.8398 39.8694 44.7634 39.9106C44.687 39.9517 44.602 39.9731 44.5158 39.9727C44.43 39.9715 44.3455 39.9495 44.2694 39.9085C44.1932 39.8674 44.1274 39.8085 44.0772 39.7364L42.6686 37.6736C42.3933 37.2637 42.0407 36.9154 41.632 36.6499C41.2233 36.3843 40.7668 36.2068 40.2901 36.1281C40.0937 36.0992 39.8955 36.0842 39.697 36.0834H39.7279Z" fill="#07040C"/>
</svg>
