<svg xmlns="http://www.w3.org/2000/svg" width="100" height="100" fill="none"><path fill="#fff" d="m70.209 7.62 1.977 6.396h6.395l-5.175 3.947 1.977 6.396-5.174-3.955-5.168 3.955 1.977-6.396-5.175-3.947h6.395l1.97-6.396Z"/><path fill="#000" d="M75.383 25.008a.607.607 0 0 1-.378-.128l-4.796-3.662-4.79 3.662a.621.621 0 0 1-.714 0 .606.606 0 0 1-.235-.714l1.841-5.974-4.825-3.69a.62.62 0 0 1 .378-1.114h5.932l1.841-5.953a.621.621 0 0 1 1.185 0l1.842 5.953h5.939a.621.621 0 0 1 .37 1.113l-4.824 3.69 1.848 5.975a.621.621 0 0 1-.235.714.607.607 0 0 1-.379.128ZM63.677 14.666l3.712 2.855a.636.636 0 0 1 .221.678l-1.427 4.54 3.626-2.777a.621.621 0 0 1 .757 0l3.626 2.776-1.428-4.54a.621.621 0 0 1 .214-.677l3.712-2.856h-4.554a.62.62 0 0 1-.593-.435L70.16 9.755 68.78 14.23a.629.629 0 0 1-.593.435h-4.51Z"/><path fill="#fff" d="m87.432 17.992 1.22 3.954h3.955l-3.198 2.448 1.221 3.955-3.198-2.448-3.205 2.448 1.228-3.954-3.205-2.449h3.962l1.22-3.954Z"/><path fill="#000" d="M90.63 28.97a.636.636 0 0 1-.378-.129l-2.82-2.141-2.855 2.141a.614.614 0 0 1-.714 0 .621.621 0 0 1-.242-.713l1.099-3.57-2.855-2.184a.614.614 0 0 1-.215-.713.62.62 0 0 1 .586-.422h3.497l1.093-3.518a.621.621 0 0 1 1.184 0l1.085 3.518h3.498a.62.62 0 0 1 .592.422.613.613 0 0 1-.214.713l-2.855 2.185 1.092 3.569a.606.606 0 0 1-.236.713.592.592 0 0 1-.342.129Zm-3.198-3.69c.137 0 .27.045.378.128l1.656 1.27-.65-2.105a.62.62 0 0 1 .215-.678l1.742-1.328H88.63a.62.62 0 0 1-.592-.435l-.628-2.042-.628 2.042a.62.62 0 0 1-.593.435H84.05l1.741 1.328a.62.62 0 0 1 .215.678l-.65 2.105 1.656-1.27a.621.621 0 0 1 .421-.129Z"/><path fill="#fff" d="M22.556 69.734a14.99 14.99 0 0 1 3.57-20.9L58.66 25.787l-8.223-11.599-33.498 23.734A29.208 29.208 0 0 0 10 78.606a29.208 29.208 0 0 0 40.686 6.946l33.49-23.734-8.222-11.599-32.528 23.048a14.99 14.99 0 0 1-20.87-3.533Z"/><path fill="#000" d="M33.891 91.583a30.69 30.69 0 0 1-5.082-.428 29.83 29.83 0 0 1-12.227-53.741l33.49-23.733a.62.62 0 0 1 .864.15l8.223 11.598a.628.628 0 0 1 .1.464.592.592 0 0 1-.25.4L26.482 49.341a14.37 14.37 0 0 0-3.42 20.036A14.397 14.397 0 0 0 43.1 72.832l32.527-23.055a.628.628 0 0 1 .464-.107.605.605 0 0 1 .4.257l8.223 11.599a.628.628 0 0 1-.15.863L51.072 86.123a29.6 29.6 0 0 1-17.18 5.46Zm16.417-76.532L17.303 38.427A28.583 28.583 0 1 0 50.35 85.073l32.984-23.376L75.84 51.11 43.813 73.803a15.625 15.625 0 0 1-21.764-3.712 15.617 15.617 0 0 1 3.712-21.763l32.02-22.692-7.473-10.585Z"/><path fill="#F35A05" d="m50.444 14.217-9.872 6.995 8.216 11.596 9.872-6.995-8.216-11.595Z"/><path fill="#000" d="M48.78 33.402a.62.62 0 0 1-.506-.264L40.058 21.54a.62.62 0 0 1 .143-.863l9.872-6.995a.62.62 0 0 1 .863.15l8.223 11.598a.628.628 0 0 1 .1.464.594.594 0 0 1-.25.4l-9.879 6.995a.606.606 0 0 1-.35.114Zm-7.351-12.07 7.502 10.586 8.85-6.282-7.494-10.585-8.858 6.281Z"/><path fill="#F35A05" d="m75.996 50.28-9.872 6.995 8.217 11.596 9.871-6.995-8.216-11.595Z"/><path fill="#000" d="M74.334 69.463h-.107a.628.628 0 0 1-.4-.257l-8.215-11.599a.62.62 0 0 1 .142-.864l9.872-6.995a.628.628 0 0 1 .464-.107.606.606 0 0 1 .4.257l8.223 11.6a.628.628 0 0 1-.15.863l-9.872 6.995a.642.642 0 0 1-.357.107Zm-7.359-12.07 7.502 10.585 8.851-6.281-7.495-10.585-8.858 6.28ZM84.927 49.99c-.06.011-.12.011-.179 0a.621.621 0 0 1-.42-.77l3.004-10.25a.607.607 0 0 1 .428-.421.614.614 0 0 1 .579.136l3.247 2.905 3.212-9.073a.621.621 0 0 1 1.171.414l-3.519 9.922a.634.634 0 0 1-.435.393.62.62 0 0 1-.564-.136l-3.205-2.855-2.727 9.279a.621.621 0 0 1-.592.457ZM10.436 79.863a.621.621 0 0 1-.364-1.128l12.541-8.937a.621.621 0 0 1 .714 1.014l-12.541 8.93a.614.614 0 0 1-.35.12ZM7.117 67.222h-.079a.214.214 0 0 1-.12-.272L17.18 40.07a.207.207 0 0 1 .386.15L7.31 67.121a.213.213 0 0 1-.193.1ZM8.345 71.59h-.072a.214.214 0 0 1-.121-.271l12.99-34.034a.214.214 0 0 1 .272-.12.208.208 0 0 1 .114.27L8.538 71.47a.2.2 0 0 1-.193.121ZM10.208 74.973h-.072a.214.214 0 0 1-.121-.27l15.39-40.323a.215.215 0 0 1 .27-.121.207.207 0 0 1 .115.271L10.4 74.852a.207.207 0 0 1-.192.121ZM13.334 74.973h-.071a.214.214 0 0 1-.122-.27l4.568-11.75a.214.214 0 0 1 .272-.121.207.207 0 0 1 .114.271l-4.568 11.749a.2.2 0 0 1-.193.121ZM17.367 72.118a.158.158 0 0 1-.079 0 .2.2 0 0 1-.114-.264L18.71 67.9a.214.214 0 0 1 .271-.122.207.207 0 0 1 .114.272l-1.534 3.954a.207.207 0 0 1-.193.114ZM7.017 59.634h-.079a.215.215 0 0 1-.114-.271l5.232-13.712a.208.208 0 0 1 .272-.121.207.207 0 0 1 .114.264L7.21 59.513a.2.2 0 0 1-.193.121ZM23.955 48.092h-.064a.199.199 0 0 1-.128-.257 346.556 346.556 0 0 1 5.981-16.902.209.209 0 0 1 .393.143 334.04 334.04 0 0 0-5.982 16.888.208.208 0 0 1-.2.128ZM28.174 45.18h-.065a.2.2 0 0 1-.128-.257l5.482-16.474a.215.215 0 0 1 .264-.136.206.206 0 0 1 .128.264l-5.481 16.474a.214.214 0 0 1-.2.129ZM32.164 42.339h-.065a.208.208 0 0 1-.14-.184.207.207 0 0 1 .012-.08L37.603 25.4a.2.2 0 0 1 .257-.129.207.207 0 0 1 .135.265L32.364 42.21a.214.214 0 0 1-.2.128ZM36.404 39.348h-.058a.207.207 0 0 1-.142-.257c1.427-4.518 2.955-9.043 4.64-13.469a.207.207 0 0 1 .27-.114.199.199 0 0 1 .115.264 224.43 224.43 0 0 0-4.626 13.44.214.214 0 0 1-.2.136ZM40.7 36.572h-.056a.207.207 0 0 1-.136-.257 172.797 172.797 0 0 1 2.462-7.48.21.21 0 0 1 .386-.018.21.21 0 0 1 .007.16 160.034 160.034 0 0 0-2.463 7.459.207.207 0 0 1-.2.136ZM44.212 34.016h-.078a.214.214 0 0 1-.121-.27l.785-2.092a.207.207 0 0 1 .385.143l-.785 2.098a.2.2 0 0 1-.186.121Z"/><path fill="#000" d="M82.907 63.146a1.698 1.698 0 0 0 .714-2.855 1.749 1.749 0 0 0-2.763.485c-.6.478-.714.714-1.013.878-1.713 1.228-3.52 2.313-5.268 3.483-4.74 3.127-9.472 6.524-12.334 8.723-4.283 3.212-8.237 6.374-13.598 9.436-3.655 2.141-9.43 4.161-12.67 4.518a10.5 10.5 0 0 1-1.534.122c-1.428.071-2.856-.043-4.283-.114-1.22-.065-2.434-.172-3.655-.172a2.756 2.756 0 0 0-1.206.129 1.47 1.47 0 0 0 .571 2.812c3.383-.036 6.738.535 10.115.564a25.42 25.42 0 0 0 7.501-1.749c7.01-2.42 12.977-6.93 18.752-11.456 3.005-2.37 10.642-7.645 13.697-9.993a74.05 74.05 0 0 1 6.26-4.461c.136-.072.264-.15.4-.214.135-.065.071 0 .035 0h-.035c.085-.036.2-.079.314-.136Z" opacity=".13"/></svg>