<svg xmlns="http://www.w3.org/2000/svg" width="48" height="49" fill="none"><path fill="#F35A05" d="M18.526 1.58C23.972.311 29.67 1.14 34.584 3.915c4.823 2.766 8.512 7.304 10.364 12.75a31.893 31.893 0 0 1 1.358 11.12 20.078 20.078 0 0 1-1.99 7.588 19.122 19.122 0 0 1-4.705 6.117c-4.12 3.799-9.308 6.073-14.771 6.475-3.68.212-7.352-.55-10.681-2.216-3.33-1.665-6.21-4.183-8.38-7.322a24.337 24.337 0 0 1-3.785-10.476A24.746 24.746 0 0 1 3.23 16.816c1.193-3.651 3.207-6.945 5.871-9.598C11.765 4.565 15 2.631 18.526 1.58Z"/><path fill="#D8570E" d="M22.099 47.944a21.203 21.203 0 0 1-7.94-2.195 22.043 22.043 0 0 1-5.318-3.74 2.14 2.14 0 0 1 .61-2.199c.21-.189.455-.333.721-.424 1.086-.39 1.965.165 2.827.71.39.246.777.49 1.178.643h.024a25.737 25.737 0 0 0 4.078 1.402c3.625.681 7.348.614 10.946-.196a24.47 24.47 0 0 0 9.49-5.585 17.524 17.524 0 0 0 4.345-6.371 15.159 15.159 0 0 0 1.505-10.652 1.942 1.942 0 0 1 .598-1.942 31.912 31.912 0 0 1 1.143 10.39 20.078 20.078 0 0 1-1.99 7.588 19.117 19.117 0 0 1-4.705 6.117c-3.233 2.98-7.124 5.023-11.288 5.959-1.691.194-3.39.303-5.093.326-.375.075-.752.131-1.131.169Z"/><path stroke="#fff" d="m18.413 1.093-.015.004-.014.004c-3.61 1.074-6.915 3.053-9.636 5.763-2.72 2.709-4.774 6.068-5.99 9.791a25.246 25.246 0 0 0-1.26 11.354A24.838 24.838 0 0 0 5.36 38.701l.007.01c2.216 3.207 5.16 5.781 8.567 7.486a21.626 21.626 0 0 0 10.934 2.267h.008c5.575-.41 10.866-2.73 15.067-6.6a19.62 19.62 0 0 0 4.82-6.272 20.577 20.577 0 0 0 2.041-7.777v-.003a32.392 32.392 0 0 0-1.379-11.294l-.002-.006-.002-.007C43.532 10.948 39.766 6.31 34.833 3.48l-.003-.002C29.807.643 23.982-.205 18.413 1.093Z"/><path fill="#fff" d="m33.473 24.159.014.069a.374.374 0 0 1-.03.19.338.338 0 0 1-.119.145c-3.45 2.376-7.35 5.076-11.122 7.387a.295.295 0 0 1-.297.017.337.337 0 0 1-.125-.107.378.378 0 0 1-.064-.158A379.888 379.888 0 0 1 19.64 18.42a.384.384 0 0 1 .015-.19.355.355 0 0 1 .103-.153.3.3 0 0 1 .334-.047l13.179 5.874a.34.34 0 0 1 .129.1c.034.045.06.098.072.154Z"/></svg>