<svg xmlns="http://www.w3.org/2000/svg" width="21" height="24" fill="none"><path fill="#F35A05" d="M0 24h21V6.545L13.816 0H0v24Z"/><path stroke="#fff" stroke-linecap="round" stroke-linejoin="round" stroke-width="2" d="M6.203 7a.656.656 0 0 0-.646.667v1.09c0 .282-.175.529-.42.654a3.841 3.841 0 0 0-.442.264c-.228.157-.522.19-.76.049l-.914-.545a.635.635 0 0 0-.882.244l-.646 1.154a.679.679 0 0 0 .236.911l.915.545c.237.141.357.421.339.703a4.192 4.192 0 0 0 0 .528c.018.282-.102.562-.339.703l-.915.545a.678.678 0 0 0-.236.91l.646 1.155a.635.635 0 0 0 .882.244l.914-.545c.238-.141.532-.108.76.05.14.097.289.185.442.263.245.125.42.372.42.655v1.09c0 .367.29.666.646.666h1.292a.656.656 0 0 0 .645-.667v-1.09c0-.282.176-.529.421-.654a3.84 3.84 0 0 0 .442-.264c.228-.157.522-.19.76-.049l.914.545a.635.635 0 0 0 .882-.244l.646-1.154a.678.678 0 0 0-.236-.911l-.915-.545c-.237-.141-.357-.421-.339-.703a4.207 4.207 0 0 0 0-.528c-.018-.282.102-.562.339-.703l.915-.545a.679.679 0 0 0 .236-.91l-.646-1.155a.635.635 0 0 0-.882-.244l-.915.545c-.237.141-.531.108-.759-.05a3.843 3.843 0 0 0-.442-.263.746.746 0 0 1-.42-.655v-1.09A.656.656 0 0 0 7.494 7H6.203Z"/></svg>