<svg xmlns="http://www.w3.org/2000/svg" width="21" height="24" fill="none"><path fill="#F35A05" d="M0 24h21V6.545L13.816 0H0v24Z"/><path fill="#fff" d="M11.58 18.703a1 1 0 1 0 1.422-1.406l-1.421 1.406Zm-1.569-6.85c0 2.138-1.712 3.853-3.802 3.853v2c3.214 0 5.802-2.63 5.802-5.853h-2Zm-3.802 3.853c-2.09 0-3.803-1.715-3.803-3.853h-2c0 3.223 2.588 5.853 5.803 5.853v-2Zm-3.803-3.853C2.406 9.715 4.118 8 6.21 8V6C2.994 6 .406 8.63.406 11.853h2ZM6.21 8c2.09 0 3.802 1.715 3.802 3.853h2C12.011 8.63 9.423 6 6.209 6v2Zm6.793 9.297-2.68-2.71-1.423 1.407 2.682 2.71 1.421-1.407Z"/></svg>