<svg xmlns="http://www.w3.org/2000/svg" width="620" height="460" fill="none"><path fill="#fff" d="M458.42 274.127H294.984v78.24H458.42v-78.24Z"/><path fill="#07040C" d="M458.42 352.898H294.984a.529.529 0 0 1-.531-.517v-78.226a.516.516 0 0 1 .531-.517H458.42a.506.506 0 0 1 .482.317.509.509 0 0 1 .035.2v78.226a.516.516 0 0 1-.517.517Zm-162.919-1.048h162.388v-77.178H295.501v77.178Z"/><path fill="#F35A05" d="M458.42 263.315H295.082v10.826H458.42v-10.826Z"/><path fill="#07040C" d="M458.42 274.672H295.082a.532.532 0 0 1-.53-.531V263.33a.53.53 0 0 1 .53-.531H458.42a.511.511 0 0 1 .482.328.52.52 0 0 1 .035.203v10.811a.523.523 0 0 1-.146.375.524.524 0 0 1-.371.156Zm-162.821-1.047h162.29v-9.779h-162.29v9.779ZM437.802 286.211h-27.77a.531.531 0 0 1 0-1.048h27.77a.531.531 0 0 1 0 1.048ZM437.802 297.777h-19.557a.533.533 0 0 1-.567-.747.524.524 0 0 1 .339-.289.533.533 0 0 1 .228-.012h19.557a.53.53 0 0 1 0 1.048ZM437.802 309.329h-9.778a.515.515 0 0 1-.531-.517.53.53 0 0 1 .531-.531h9.778a.516.516 0 0 1 .517.531.506.506 0 0 1-.317.481.492.492 0 0 1-.2.036ZM338.12 335.311l-5.056-.168a.544.544 0 0 1-.517-.489 41.758 41.758 0 0 1-.098-2.793 41.44 41.44 0 0 1 14.332-31.319.513.513 0 0 1 .377-.125c.14.01.271.075.363.181l3.129 3.618c.364.419.727.852 1.104 1.271l.656.783a.505.505 0 0 1 .157.37.516.516 0 0 1-.157.37 32.86 32.86 0 0 0-11.384 24.851c0 .894 0 1.843.14 2.793a.603.603 0 0 1-.14.405.562.562 0 0 1-.377.168l-2.431.084h-.098Zm-4.568-1.201 4.568.153 1.886-.07c0-.824-.098-1.606-.098-2.36a33.932 33.932 0 0 1 11.357-25.298l-.321-.391c-.377-.419-.741-.852-1.104-1.271l-2.794-3.213a40.322 40.322 0 0 0-13.577 30.173c0 .698 0 1.508.083 2.277ZM391.677 304.104a.505.505 0 0 1-.28-.083 32.782 32.782 0 0 0-33.944-.685.526.526 0 0 1-.684-.154c-1.649-2.235-3.046-4.26-4.191-6.188a.509.509 0 0 1-.071-.399.519.519 0 0 1 .239-.327 41.268 41.268 0 0 1 22.566-5.845 41.27 41.27 0 0 1 22.134 7.312.528.528 0 0 1 .157.169.525.525 0 0 1 .066.222.525.525 0 0 1-.153.419 387.412 387.412 0 0 0-5.406 5.406.512.512 0 0 1-.433.153Zm-17.811-6.216a33.819 33.819 0 0 1 17.727 5.015c1.704-1.704 3.171-3.185 4.666-4.666a40.276 40.276 0 0 0-42.578-1.396 106.277 106.277 0 0 0 3.646 5.308 33.915 33.915 0 0 1 16.539-4.261Z"/><path fill="#F35A05" d="M402.88 303.043a166.851 166.851 0 0 0-5.657 4.945 33.292 33.292 0 0 1 10.057 23.845c0 .908 0 1.844-.126 2.793 1.495 0 2.976 0 4.47.098 1.006 0 2.012 0 3.018.084.083-1.006.125-1.997.125-2.975a40.745 40.745 0 0 0-11.887-28.79Z"/><path fill="#07040C" d="M415.13 335.367h-.503l-2.081-.07h-.936c-1.397 0-2.794-.07-4.456-.084h-.573v-.559a32.612 32.612 0 0 0-9.792-26.275l-.391-.377.405-.377a200.076 200.076 0 0 1 5.685-4.959l.378-.308.335.35a41.121 41.121 0 0 1 12.041 29.153c0 .963 0 1.955-.126 3.017l.014.489Zm-7.403-1.257c1.397 0 2.668 0 3.911.083h2.529c0-.852.083-1.648.083-2.43a40.12 40.12 0 0 0-11.398-28.078 248.62 248.62 0 0 0-4.875 4.191 33.67 33.67 0 0 1 9.778 23.831c.056.866.028 1.634-.028 2.403ZM372.707 331.484a3.157 3.157 0 0 1-.712-.084 3.194 3.194 0 0 1-2.012-1.663 3.784 3.784 0 0 1 1.397-4.959h.084c.084 0 16.762-7.347 21.19-9.345a.545.545 0 0 1 .757.496c0 .119-.04.235-.114.328v.07l-18.159 14.444c-.727.463-1.57.71-2.431.713Zm-.782-5.811a2.792 2.792 0 0 0-1.02 3.562 2.141 2.141 0 0 0 1.397 1.145 3.032 3.032 0 0 0 2.095-.433l14.947-11.971c-6.272 2.793-16.609 7.333-17.419 7.697ZM372.651 296.925a.175.175 0 0 1-.078-.018.155.155 0 0 1-.061-.052 203.75 203.75 0 0 1-2.878-3.953.182.182 0 0 1 .293-.196c.936 1.313 1.9 2.64 2.794 3.939a.18.18 0 0 1 0 .252l-.07.028ZM376.102 297.022a.147.147 0 0 1-.082-.022.15.15 0 0 1-.058-.062l-3.017-4.386a.18.18 0 0 1 0-.251.194.194 0 0 1 .251 0l3.017 4.4a.18.18 0 0 1 0 .251l-.111.07ZM380.166 297.595a.187.187 0 0 1-.139-.07 154.154 154.154 0 0 0-3.744-4.805.175.175 0 0 1 .021-.245.173.173 0 0 1 .244.021 152.204 152.204 0 0 1 3.758 4.82.15.15 0 0 1 .036.054.164.164 0 0 1-.036.183.197.197 0 0 1-.065.036.191.191 0 0 1-.075.006ZM385.014 298.908a.17.17 0 0 1-.14-.07l-4.191-5.462a.154.154 0 0 1 0-.237.174.174 0 0 1 .119-.05.174.174 0 0 1 .119.05l4.191 5.462a.165.165 0 0 1 .049.118.165.165 0 0 1-.049.119.187.187 0 0 1-.098.07ZM389.61 300.612a.192.192 0 0 1-.14-.07l-4.61-6.034a.154.154 0 0 1-.036-.055.156.156 0 0 1-.013-.064c0-.022.004-.044.013-.064a.154.154 0 0 1 .036-.055.198.198 0 0 1 .252 0l4.609 6.035a.194.194 0 0 1 0 .251l-.111.056ZM392.781 300.249a.135.135 0 0 1-.14-.07l-2.654-3.701a.172.172 0 0 1-.05-.119.174.174 0 0 1 .05-.119.196.196 0 0 1 .125-.046.2.2 0 0 1 .126.046l2.654 3.716a.168.168 0 0 1 .05.119.168.168 0 0 1-.05.118.107.107 0 0 1-.047.045.11.11 0 0 1-.064.011ZM368.922 297.385a.202.202 0 0 1-.14-.069 56.777 56.777 0 0 1-2.794-3.744.164.164 0 0 1-.036-.183.18.18 0 0 1 .036-.055.184.184 0 0 1 .252 0 47.495 47.495 0 0 0 2.794 3.716.198.198 0 0 1 0 .252.173.173 0 0 1-.046.055.149.149 0 0 1-.066.028ZM365.387 297.93a.148.148 0 0 1-.125 0l-2.892-3.422a.185.185 0 0 1-.051-.126c0-.047.019-.092.051-.126a.198.198 0 0 1 .251 0l2.892 3.423a.168.168 0 0 1 .037.054.178.178 0 0 1 0 .129.168.168 0 0 1-.037.054.17.17 0 0 1-.061.021.159.159 0 0 1-.065-.007ZM362.007 299.174h-.126a70.19 70.19 0 0 1-3.352-3.395.146.146 0 0 1-.056-.119.146.146 0 0 1 .056-.118.18.18 0 0 1 .251 0 58.3 58.3 0 0 0 3.339 3.366.184.184 0 0 1 0 .252.16.16 0 0 1-.112.014ZM358.92 300.361a.155.155 0 0 1-.112 0 92.575 92.575 0 0 1-2.905-2.305.194.194 0 0 1 0-.252.183.183 0 0 1 .251 0 75.907 75.907 0 0 0 2.892 2.291.184.184 0 0 1 0 .252.236.236 0 0 1-.126.014Z"/><path fill="#07040C" d="M459.034 276.334c-.139-2.151-2.528-1.48-4.009-1.55-2.36 0-4.721.125-7.082 0-7.389-.098-14.779-.126-22.154-.657-7.711-.433-15.366-.614-23.133-.964-6.356-.167-12.712.07-19.053.112-7.516 0-15.017.335-22.532.391-5.225.14-10.449.154-15.687.126-2.794 0-5.588.21-8.381.182-3.13 0-6.259-.266-9.388-.182-2.626 0-5.238.363-7.85.517-5.979.265-11.957.447-17.936.335h-3.925a4.095 4.095 0 0 0-1.844.126 1.829 1.829 0 0 0-.503 3.031 1.56 1.56 0 0 0 .459 1.116 1.56 1.56 0 0 0 1.119.449c3.143.265 6.272 0 9.415-.098 6.552.139 13.117.098 19.682.209 5.812.154 11.595-.586 17.406-.489 8.13 0 16.259.154 24.389.224 5.797 0 11.608-.154 17.406 0 4.078 0 8.157-.461 12.236-.349 4.079.111 8.591-.154 12.88 0 6.844.293 13.675.544 20.52.391 8.549 0 17.098.628 25.633 0 .642-.084 1.397.112 1.871-.419a1.272 1.272 0 0 0 .168-1.593c.185-.267.287-.583.293-.908Z" opacity=".13"/><path fill="#fff" d="M188.625 211.379v35.453c7.558.293 15.031.112 22.56-.321v-36.948l-22.56 1.816Z"/><path fill="#07040C" d="M196.21 247.503c-2.626 0-5.168 0-7.654-.154a.518.518 0 0 1-.503-.517v-35.453a.519.519 0 0 1 .475-.517l22.559-1.844a.56.56 0 0 1 .525.316.515.515 0 0 1 .048.215v36.948a.53.53 0 0 1-.489.517c-5.322.335-10.267.489-14.961.489Zm-7.11-1.174c6.608.238 13.648.14 21.526-.321V210.122l-21.47 1.69v16.092a6976.37 6976.37 0 0 0-.056 18.425Z"/><path fill="#fff" d="M287.022 205.862c0-41.181.685-76.201.21-114.88-56.435 0-113.358.824-170.211.223-.545 39.406 0 76.48 0 114.796 56.825 0 113.492-.046 170.001-.139Z"/><path fill="#07040C" d="M117.021 206.532a.53.53 0 0 1-.531-.531c0-12.767 0-25.619-.112-38.051-.125-24.823-.251-50.483.112-76.759a.533.533 0 0 1 .531-.517c36.123.391 72.834.196 108.315 0 20.31-.098 41.319-.21 61.896-.21a.516.516 0 0 1 .516.518c.294 23.97.14 46.348 0 70.053-.097 14.346-.195 29.181-.195 44.827a.529.529 0 0 1-.517.53h-84.791c-27.812 0-56.783.14-85.224.14Zm.517-114.796c-.349 26.08-.238 51.559-.112 76.214 0 12.251.112 24.92.112 37.534 28.287 0 56.965 0 84.693-.07 27.728-.069 56.197 0 84.26 0 0-15.463.098-30.13.196-44.323.153-23.523.307-45.748 0-69.509-20.409 0-41.222.112-61.365.21-35.3.126-71.828.321-107.784-.112v.056Z"/><path fill="#fff" d="M117.021 201.838c-.195 4.191 0 8.563-.237 13.369 57.021.097 113.497 0 170.336-.126 0-4.33-.14-10.002-.14-13.536l-169.959.293Z"/><path fill="#07040C" d="M174.363 215.779h-57.58a.475.475 0 0 1-.377-.167.497.497 0 0 1-.153-.378c.111-2.472.125-4.833.139-7.11.014-2.277 0-4.19.098-6.258a.531.531 0 0 1 .531-.503l169.959-.279a.534.534 0 0 1 .517.517v6.09c0 2.543.084 5.169.084 7.446a.53.53 0 0 1-.531.53c-40.049.056-77.36.112-112.687.112Zm-57.035-1.103c51.685.097 107.127 0 169.275-.112 0-2.151 0-4.568-.084-6.915v-5.587l-168.925.279c-.07 1.858-.084 3.73-.084 5.713 0 1.984-.098 4.331-.182 6.622ZM157.852 247.433a.532.532 0 0 1-.228-1.036.532.532 0 0 1 .228-.012h88.465a.532.532 0 0 1 .616.524.521.521 0 0 1-.187.404.532.532 0 0 1-.429.12h-88.465Z"/><path fill="#07040C" d="M211.437 220.194c0-.517-.126-1.034-.14-1.565 0-.936 0-1.872-.084-2.794-1.522-.433-3.366.084-4.959-.083a134.984 134.984 0 0 0-15.24 0 2.656 2.656 0 0 0-2.01.707 2.676 2.676 0 0 0-.629 3.019 2.664 2.664 0 0 0 2.639 1.596c3.632-.14 7.278-.224 10.91-.154 3.087.112 6.551.587 9.541-.07.014-.265 0-.447-.028-.656Z" opacity=".13"/><path fill="#F35A05" d="M173.287 135.193a5.267 5.267 0 1 0 0-10.533 5.267 5.267 0 0 0 0 10.533Z"/><path fill="#07040C" d="M173.287 135.71a5.778 5.778 0 0 1-5.342-3.57 5.783 5.783 0 1 1 5.342 3.57Zm0-10.519a4.735 4.735 0 1 0 4.736 4.736 4.749 4.749 0 0 0-4.736-4.722v-.014Z"/><path fill="#fff" d="M197.174 145.725a5.266 5.266 0 1 0 0-10.532 5.266 5.266 0 0 0 0 10.532Z"/><path fill="#07040C" d="M197.174 146.242a5.798 5.798 0 1 1 5.783-5.783 5.787 5.787 0 0 1-1.693 4.09 5.787 5.787 0 0 1-4.09 1.693Zm0-10.532a4.747 4.747 0 0 0-4.674 5.667 4.754 4.754 0 0 0 3.729 3.739 4.746 4.746 0 0 0 4.879-2.017 4.745 4.745 0 0 0-.584-5.993 4.754 4.754 0 0 0-3.35-1.396Z"/><path fill="#fff" d="M215.236 122.858a5.266 5.266 0 1 0 0-10.532 5.266 5.266 0 0 0 0 10.532Z"/><path fill="#07040C" d="M215.236 123.375a5.786 5.786 0 0 1-5.343-3.57 5.788 5.788 0 0 1 1.254-6.302 5.78 5.78 0 0 1 8.898.876c.635.951.974 2.07.974 3.213a5.795 5.795 0 0 1-5.783 5.783Zm0-10.518a4.74 4.74 0 0 0-4.375 2.923 4.737 4.737 0 1 0 9.111 1.812 4.752 4.752 0 0 0-4.736-4.735Z"/><path fill="#F35A05" d="M233.982 140.459a5.271 5.271 0 0 1 3.242-4.875 5.258 5.258 0 0 1 3.043-.305 5.271 5.271 0 0 1 4.146 4.134 5.26 5.26 0 0 1-.298 3.044 5.26 5.26 0 0 1-4.866 3.255 5.269 5.269 0 0 1-5.267-5.253Z"/><path fill="#07040C" d="M239.249 146.242a5.793 5.793 0 0 1-5.368-3.572 5.802 5.802 0 0 1 1.254-6.324 5.801 5.801 0 0 1 6.324-1.254 5.797 5.797 0 0 1-2.21 11.15Zm0-10.532a4.75 4.75 0 0 0-3.378 8.103 4.751 4.751 0 0 0 8.113-3.354 4.763 4.763 0 0 0-4.735-4.749Z"/><path fill="#fff" d="M256.961 113.695a5.264 5.264 0 0 1 3.251-4.866 5.273 5.273 0 0 1 5.739 1.142 5.264 5.264 0 0 1 1.142 5.739 5.27 5.27 0 0 1-4.866 3.251 5.248 5.248 0 0 1-4.869-3.249 5.244 5.244 0 0 1-.397-2.017Z"/><path fill="#07040C" d="M262.227 119.492a5.796 5.796 0 0 1-4.118-9.891 5.793 5.793 0 0 1 8.924.872 5.8 5.8 0 0 1-.715 7.316 5.8 5.8 0 0 1-4.091 1.703Zm0-10.533a4.752 4.752 0 0 0-4.672 5.673 4.754 4.754 0 0 0 6.483 3.462 4.75 4.75 0 0 0 2.925-4.399 4.737 4.737 0 0 0-4.736-4.736ZM192.383 138.545a.432.432 0 0 1-.196 0 546.095 546.095 0 0 1-14.122-5.88.544.544 0 0 1-.152-.869.51.51 0 0 1 .373-.145c.068.003.136.02.198.05a546.027 546.027 0 0 0 14.095 5.867.542.542 0 0 1 .293.684.53.53 0 0 1-.489.293ZM201.337 137.372a.557.557 0 0 1-.321-.112.528.528 0 0 1-.084-.74l11.399-14.248a.514.514 0 0 1 .35-.191.536.536 0 0 1 .383.114.529.529 0 0 1 .19.351.51.51 0 0 1-.019.202.509.509 0 0 1-.094.18l-11.385 14.249a.588.588 0 0 1-.189.142.586.586 0 0 1-.23.053ZM235.17 137.372a.561.561 0 0 1-.377-.153l-15.869-15.757a.525.525 0 0 1 .37-.894c.139 0 .272.055.371.153l15.882 15.757a.515.515 0 0 1 0 .741.516.516 0 0 1-.377.153Z"/><path fill="#07040C" d="M243.523 137.777a.569.569 0 0 1-.335-.112.527.527 0 0 1 0-.74l15.547-19.193a.51.51 0 0 1 .351-.19.516.516 0 0 1 .573.464.51.51 0 0 1-.114.382l-15.617 19.138a.514.514 0 0 1-.405.251ZM193.417 141.968h-.084a.16.16 0 0 1-.054-.043.162.162 0 0 1-.016-.195l2.333-4.428a.199.199 0 0 1 .238-.084.174.174 0 0 1 .049.119.174.174 0 0 1-.049.119l-2.333 4.428a.185.185 0 0 1-.084.084ZM195.331 143.714h-.084a.18.18 0 0 1-.07-.237l3.38-6.37a.167.167 0 0 1 .224 0 .165.165 0 0 1 .095.1.165.165 0 0 1-.011.137l-3.381 6.356a.156.156 0 0 1-.075.028.16.16 0 0 1-.078-.014ZM197.859 143.365h-.084a.182.182 0 0 1-.07-.238l1.998-3.548a.15.15 0 0 1 .054-.036.164.164 0 0 1 .183.036.181.181 0 0 1 .07.238l-2.04 3.45a.158.158 0 0 1-.111.098ZM258.526 113.835h-.084a.17.17 0 0 1-.089-.095.158.158 0 0 1-.01-.065c0-.022.006-.044.015-.064a29.143 29.143 0 0 1 1.732-2.919.18.18 0 0 1 .238 0 .165.165 0 0 1 .049.118.164.164 0 0 1-.049.119 28.297 28.297 0 0 0-1.691 2.878.216.216 0 0 1-.111.028ZM259.825 115.762h-.084a.18.18 0 0 1-.07-.237 58.81 58.81 0 0 1 3.031-5.197.184.184 0 0 1 .252 0 .184.184 0 0 1 0 .238 59.874 59.874 0 0 0-3.018 5.168.148.148 0 0 1-.111.028ZM261.333 117.508h-.084a.183.183 0 0 1 0-.237 78.905 78.905 0 0 1 3.381-5.881.168.168 0 0 1 .107-.077.171.171 0 0 1 .207.128.172.172 0 0 1-.021.131 78.25 78.25 0 0 0-3.366 5.867.177.177 0 0 1-.099.075.18.18 0 0 1-.125-.006ZM263.862 116.894h-.112a.194.194 0 0 1 0-.252c.698-.977 1.397-2.011 1.97-3.059a.176.176 0 0 1 .045-.049.168.168 0 0 1 .129-.03.16.16 0 0 1 .063.023.18.18 0 0 1 .077.108.168.168 0 0 1 .002.067.16.16 0 0 1-.023.063 47.876 47.876 0 0 1-1.97 3.087.214.214 0 0 1-.086.041.234.234 0 0 1-.095.001ZM172.464 169.5h-35.425a.532.532 0 0 1-.228-1.035.532.532 0 0 1 .228-.012h35.425a.53.53 0 0 1 0 1.047ZM202.161 184.335h-65.122a.532.532 0 0 1-.228-1.035.532.532 0 0 1 .228-.012h65.122a.526.526 0 0 1 .445.524.528.528 0 0 1-.445.523Z"/><path fill="#fff" d="M126.338 211.295a3.017 3.017 0 1 0 0-6.035 3.017 3.017 0 0 0 0 6.035Z"/><path fill="#07040C" d="M126.338 211.812a3.541 3.541 0 0 1-3.289-2.184 3.545 3.545 0 0 1 2.587-4.844 3.546 3.546 0 0 1 3.197 5.989 3.545 3.545 0 0 1-2.495 1.039Zm0-6.034a2.499 2.499 0 0 0-.507 4.951 2.5 2.5 0 1 0 .507-4.951Z"/><path fill="#F35A05" d="M140.195 211.295a3.018 3.018 0 1 0 .001-6.035 3.018 3.018 0 0 0-.001 6.035Z"/><path fill="#07040C" d="M140.195 211.812a3.543 3.543 0 0 1-3.479-4.245 3.554 3.554 0 0 1 .975-1.817 3.554 3.554 0 0 1 3.872-.76 3.55 3.55 0 0 1 2.18 3.288 3.514 3.514 0 0 1-1.04 2.504 3.539 3.539 0 0 1-2.508 1.03Zm0-6.034a2.498 2.498 0 0 0-1.768 4.268 2.504 2.504 0 0 0 2.725.542 2.495 2.495 0 0 0 1.544-2.31 2.501 2.501 0 0 0-2.501-2.5Z"/><path fill="#fff" d="M154.751 211.295a3.017 3.017 0 1 0 0-6.035 3.017 3.017 0 0 0 0 6.035Z"/><path fill="#07040C" d="M154.751 211.812a3.547 3.547 0 1 1-.03-7.094 3.547 3.547 0 0 1 .03 7.094Zm0-6.034a2.497 2.497 0 0 0-2.468 2.979 2.493 2.493 0 0 0 1.961 1.972 2.502 2.502 0 0 0 2.571-1.06 2.506 2.506 0 0 0-.305-3.154 2.497 2.497 0 0 0-1.759-.737Z"/><path fill="#fff" d="M548.38 57.582H320.338v163.547H548.38V57.582Z"/><path fill="#07040C" d="M548.379 221.59H320.338a.535.535 0 0 1-.376-.155.534.534 0 0 1-.155-.375V57.582a.533.533 0 0 1 .531-.53h228.041a.532.532 0 0 1 .517.53v163.533a.53.53 0 0 1-.517.475Zm-227.483-.991h226.995V58.155H320.896v162.444Z"/><path fill="#F35A05" d="M548.38 49.368H320.338v14.15H548.38v-14.15Z"/><path fill="#07040C" d="M548.379 64.035H320.338a.533.533 0 0 1-.531-.53v-14.15a.533.533 0 0 1 .531-.518h228.041a.531.531 0 0 1 .517.517v14.15a.533.533 0 0 1-.517.532Zm-227.483-1.047h226.995V49.885H320.896v13.103Z"/><path fill="#fff" d="M501.514 59.454a3.017 3.017 0 1 0 0-6.035 3.017 3.017 0 0 0 0 6.035Z"/><path fill="#07040C" d="M501.514 59.97a3.55 3.55 0 0 1-3.479-4.245 3.545 3.545 0 0 1 2.795-2.784 3.552 3.552 0 0 1 3.641 1.52c.388.586.594 1.273.591 1.976a3.543 3.543 0 0 1-1.04 2.504 3.54 3.54 0 0 1-2.508 1.03Zm0-6.034a2.498 2.498 0 0 0-2.452 2.989 2.494 2.494 0 0 0 1.964 1.964 2.502 2.502 0 0 0 2.988-2.452 2.5 2.5 0 0 0-2.5-2.473v-.028Z"/><path fill="#fff" d="M519.408 59.454a3.017 3.017 0 1 0 .001-6.035 3.017 3.017 0 0 0-.001 6.035Z"/><path fill="#07040C" d="M519.408 59.97a3.545 3.545 0 0 1-3.279-2.193 3.55 3.55 0 0 1 2.596-4.836 3.549 3.549 0 0 1 4.231 3.496 3.543 3.543 0 0 1-1.04 2.504 3.53 3.53 0 0 1-2.508 1.03Zm0-6.034a2.5 2.5 0 1 0 2.501 2.5 2.5 2.5 0 0 0-2.501-2.472v-.028Z"/><path fill="#fff" d="M533.879 56.437a3.014 3.014 0 0 1 1.863-2.788 3.015 3.015 0 0 1 4.114 2.199 3.016 3.016 0 0 1-2.959 3.606 3.017 3.017 0 0 1-3.018-3.017Z"/><path fill="#07040C" d="M536.897 59.97a3.55 3.55 0 0 1-2.523-6.056 3.55 3.55 0 0 1 5.465.546 3.544 3.544 0 0 1-.447 4.472 3.549 3.549 0 0 1-2.495 1.039Zm0-6.034a2.502 2.502 0 0 0-1.787 4.264 2.501 2.501 0 0 0 4.273-1.763 2.5 2.5 0 0 0-2.486-2.473v-.028Z"/><path fill="#07040C" d="M547.583 64.147c-.279-.223-1.187-.28-.922-.223h-1.704c-2.333-.112-4.679-.168-6.984-.224-6.985-.237-13.969.573-20.954.447-3.576 0-7.138.154-10.714 0-2.793 0-5.517-.307-8.269-.377-7.99 0-15.967-.587-23.957-.391-6.928.084-13.857.047-20.785-.112h-16.609c-4.61-.181-9.206.293-13.816.28-10.099.153-20.199.167-30.298-.14-3.688 0-7.376-.182-11.05 0-3.087.181-6.188 0-9.275.112h-10.267c-4.037-.182-8.074-.266-12.111-.126-3.283 0-6.565.251-9.778.35h-9.08c-2.249-.14-4.498-.197-6.733-.113-1.187.098-2.556-.307-3.478.601a2.042 2.042 0 0 0-.419 2.178 2.037 2.037 0 0 0 1.816 1.273c2.654.097 5.322 0 7.962.237 3.897.126 7.809.153 11.706 0 4.777-.307 9.555-.49 14.346-.475 3.702.07 7.389.21 11.091.181 4.065.084 8.116.084 12.181 0 2.626-.083 5.266-.265 7.906-.195 7.348.14 14.696.433 22.057.293 7.362-.14 14.849.098 22.267-.307 6.635 0 13.256 0 19.891.084 9.778.21 19.654 0 29.488 0 5.965.153 11.93.307 17.909.28 4.47.195 8.94.46 13.424.334 3.562-.125 7.138-.07 10.7-.21 2.151-.083 4.288-.39 6.439-.432 5.588-.224 11.176-.084 16.763 0a2.053 2.053 0 0 0 1.732-.503 1.754 1.754 0 0 0 .498-1.535 1.754 1.754 0 0 0-.973-1.287Z" opacity=".13"/><path fill="#07040C" d="M502.855 83.299h-27.756a.532.532 0 1 1 0-1.048h27.756a.532.532 0 1 1 0 1.048ZM502.855 96.583h-39.113a.532.532 0 0 1 0-1.062h39.113a.533.533 0 0 1 .531.531.532.532 0 0 1-.531.531Z"/><path fill="#fff" d="m337.52 41.602-1.733-5.798 3.632-5.238-8.954-6.342c-1.145 1.928-2.304 3.842-3.464 5.77a.864.864 0 0 1-.223.279.827.827 0 0 1-.461.084l-5.979-.14c-.978-1.914-1.942-3.716-3.017-5.462a.63.63 0 0 0-.336-.321.615.615 0 0 0-.447.14l-7.11 4.358a.56.56 0 0 0-.167.14.529.529 0 0 0 .069.517 25.076 25.076 0 0 0 3.185 4.511 59.709 59.709 0 0 1-3.436 5.7 2.319 2.319 0 0 1-1.131 1.033 2.294 2.294 0 0 1-1.258-.111 68.758 68.758 0 0 1-4.959-1.635 17.172 17.172 0 0 0-.74 10.714 48.524 48.524 0 0 0 6.328-.642l3.688 6.537-2.962 4.987 6.789 5.043 3.52-5.267 6.217.126 2.402 5.588 9.275-3.283-2.234-5.685 3.324-5.588 6.3-.517.196-7.836-6.314-1.663Zm-10.7 2.96c-.017.375-.112.742-.28 1.077-.083.214-.185.42-.307.614a5.522 5.522 0 0 1-.852 1.02 6.794 6.794 0 0 1-2.249 1.397c-.351.12-.711.214-1.076.28a2.916 2.916 0 0 1-.922 0c-.195 0-.405-.085-.6-.085h-.266a4.107 4.107 0 0 1-2.347-1.955 3.892 3.892 0 0 1-.558-1.746 3.842 3.842 0 0 1 .321-1.635c.293-.737.658-1.444 1.089-2.11a5.66 5.66 0 0 1 1.914-1.899 2.963 2.963 0 0 1 2.445-.168 1.397 1.397 0 0 1 1.006-.083 3.35 3.35 0 0 1 1.48.992c.376.465.673.989.88 1.55.075.181.136.368.182.559a2.68 2.68 0 0 1 0 .335c0 .168 0 .35.07.517v-.112c0-.154 0-.154 0 0v.531a1.68 1.68 0 0 1 0 .265c.05.215.073.436.07.657Z"/><path fill="#07040C" d="M310.238 48.53a.183.183 0 0 1-.109-.086.183.183 0 0 1-.016-.138 205.076 205.076 0 0 1 6.216-18.34.17.17 0 0 1 .036-.063.171.171 0 0 1 .131-.054.163.163 0 0 1 .07.019.182.182 0 0 1 .098.223 200.17 200.17 0 0 0-6.216 18.313.157.157 0 0 1-.14.136.156.156 0 0 1-.07-.01ZM312.962 49.536a.183.183 0 0 1-.126-.224 104.324 104.324 0 0 1 6.426-17.028.183.183 0 0 1 .255-.12.183.183 0 0 1 .099.201.167.167 0 0 1-.033.073 103.146 103.146 0 0 0-6.411 16.972.157.157 0 0 1-.141.136.155.155 0 0 1-.069-.01ZM311.943 60.739a.164.164 0 0 1-.063-.036.178.178 0 0 1-.042-.06.174.174 0 0 1 .007-.142l4.498-11.09a.169.169 0 0 1 .096-.105.164.164 0 0 1 .141.006.17.17 0 0 1 .089.095.16.16 0 0 1 .01.065.158.158 0 0 1-.015.064l-4.498 11.175a.167.167 0 0 1-.223.028ZM317.865 58.364h-.069a.159.159 0 0 1-.058-.035.164.164 0 0 1-.04-.188l2.514-6.37a.182.182 0 0 1 .035-.058.175.175 0 0 1 .122-.053c.023 0 .046.004.067.013a.158.158 0 0 1 .104.088.16.16 0 0 1-.007.136l-2.514 6.37a.165.165 0 0 1-.154.097ZM322.559 37.355a.16.16 0 0 1-.058-.03.18.18 0 0 1-.042-.052.16.16 0 0 1-.012-.128l1.201-3.91a.182.182 0 0 1 .224-.127.184.184 0 0 1 .1.09c.021.041.025.09.011.134l-1.201 3.911a.182.182 0 0 1-.223.112ZM327.294 38.375a.182.182 0 0 1-.098-.224 102.394 102.394 0 0 1 4.191-9.89.153.153 0 0 1 .173-.035c.019.008.036.02.051.035a.167.167 0 0 1 .088.095.162.162 0 0 1-.005.129 113.295 113.295 0 0 0-4.19 9.848.184.184 0 0 1-.21.042ZM322.559 58.42h-.084a.166.166 0 0 1-.053-.038.145.145 0 0 1-.035-.056.161.161 0 0 1 .005-.13l11.44-24.766a.15.15 0 0 1 .092-.096.152.152 0 0 1 .131.012c.022.008.042.02.058.035a.168.168 0 0 1 .04.188l-11.44 24.767a.169.169 0 0 1-.154.084ZM327.127 59.426h-.07a.183.183 0 0 1-.084-.238l7.669-16.846a.18.18 0 0 1 .102-.09.18.18 0 0 1 .189.044.175.175 0 0 1 .046.121.179.179 0 0 1-.016.064l-7.683 16.847a.165.165 0 0 1-.153.098ZM335.313 50.988h-.084a.18.18 0 0 1 0-.237l3.38-6.258a.169.169 0 0 1 .238 0 .183.183 0 0 1 .069.237l-3.38 6.258a.181.181 0 0 1-.223 0ZM329.641 62.834a.183.183 0 0 1-.09-.102.187.187 0 0 1 .006-.135l1.523-3.13a.18.18 0 0 1 .238-.07.166.166 0 0 1 .088.095.161.161 0 0 1-.005.13l-1.536 3.128a.176.176 0 0 1-.035.058.159.159 0 0 1-.124.047.156.156 0 0 1-.065-.02ZM303.813 47.077a.182.182 0 0 1-.084-.237l2.067-4.358a.189.189 0 0 1 .036-.071.185.185 0 0 1 .219-.048.182.182 0 0 1 .067.272l-2.152 4.345a.15.15 0 0 1-.153.097ZM312.515 30.65h-.084a.183.183 0 0 1-.069-.237l1.536-2.794a.184.184 0 0 1 .238-.07.17.17 0 0 1 0 .237l-1.523 2.794a.169.169 0 0 1-.098.07Z"/><path fill="#07040C" d="M328.635 45.722a.893.893 0 0 0-1.76-.111c-.293.908-.181.754-1.145 1.704s-.601.53-2.054 1.075a3.505 3.505 0 0 1-1.955.336 2.467 2.467 0 0 1-.461-.126 5.585 5.585 0 0 1-1.397-.712c-.447-.224-.838-.63-1.397-.671a1.509 1.509 0 0 0-.936 2.794c2.431 1.69 4.875 2.458 7.641 1.061a6.606 6.606 0 0 0 3.003-3.73c.283-.494.441-1.05.461-1.62ZM332.826 61.465c-.941.415-1.932.706-2.947.866-.811.266-1.802.126-2.501.67a1.705 1.705 0 0 0 1.397 2.976c2.026-.433 4.372-.517 5.951-2.053a1.594 1.594 0 0 0-.851-2.563 1.593 1.593 0 0 0-1.049.104ZM344.378 47.971a2.105 2.105 0 0 0-.251-.991 1.818 1.818 0 0 0-3.255.265 1.733 1.733 0 0 1-.112.238 8.39 8.39 0 0 0-.321.838c-.098.21-.224.503-.308.67a2.077 2.077 0 0 0-.251 1.006 1.926 1.926 0 0 0 1.659 1.985 1.93 1.93 0 0 0 2.141-1.454 8.726 8.726 0 0 0 .656-2.207l.042-.35Z" opacity=".13"/><path fill="#07040C" d="M326.903 66.606a.547.547 0 0 1-.489-.335 30.569 30.569 0 0 0-2.444-5.197 27.281 27.281 0 0 1-5.951 0 153.068 153.068 0 0 0-1.676 3.157l-1.006 1.9a.53.53 0 0 1-.657.237 17.781 17.781 0 0 1-7.487-5.587.53.53 0 0 1 0-.629c1.048-1.397 2.109-2.961 3.269-4.805a27.238 27.238 0 0 1-3.325-5.88l-1.397.292a53.27 53.27 0 0 1-4.568.867.53.53 0 0 1-.586-.392c-.887-3.795-.62-7.77.768-11.412a.506.506 0 0 1 .615-.336l6.467 1.62a51.804 51.804 0 0 1 3.213-5.698 40.578 40.578 0 0 1-3.185-4.848.521.521 0 0 1 .112-.628 30.568 30.568 0 0 1 8.381-5.252.518.518 0 0 1 .671.223 54.115 54.115 0 0 1 2.793 5.727 26.052 26.052 0 0 1 6.51-.223c.964-1.872 1.97-3.772 3.227-5.783a.531.531 0 0 1 .684-.182 37.648 37.648 0 0 1 6.803 4.568c.545.475 1.104.964 1.62 1.397.314.24.551.564.685.936a.555.555 0 0 1-.084.419c-.475.712-.964 1.397-1.397 2.15a239.891 239.891 0 0 0-2.165 3.186c.643 1.62 1.313 3.269 1.9 4.93 2.239.174 4.439.688 6.523 1.523a.476.476 0 0 1 .322.447 20.87 20.87 0 0 1-1.258 8.787.5.5 0 0 1-.502.335h-.699a43.707 43.707 0 0 0-5.057 0 20.346 20.346 0 0 1-3.185 5.169 50.425 50.425 0 0 1 2.794 5.447.515.515 0 0 1-.237.657 25.856 25.856 0 0 1-9.709 3.143l-.293.07Zm-2.668-6.621a.513.513 0 0 1 .447.237 30.048 30.048 0 0 1 2.556 5.294 25.14 25.14 0 0 0 8.507-2.794 51.5 51.5 0 0 0-2.682-5.21.536.536 0 0 1 0-.6 19.552 19.552 0 0 0 3.367-5.448.486.486 0 0 1 .433-.336 38.582 38.582 0 0 1 5.518 0h.307a19.912 19.912 0 0 0 1.089-7.669 21.88 21.88 0 0 0-6.244-1.396.53.53 0 0 1-.447-.35c-.656-1.83-1.397-3.674-2.109-5.462a.517.517 0 0 1 0-.474c.796-1.258 1.578-2.375 2.319-3.45.447-.63.866-1.244 1.285-1.873 0-.083-.168-.167-.251-.251a30.194 30.194 0 0 0-1.607-1.397 35.731 35.731 0 0 0-6.048-4.177c-1.188 1.928-2.152 3.786-3.074 5.588a.57.57 0 0 1-.53.293 25.572 25.572 0 0 0-6.985.252.518.518 0 0 1-.573-.308 51.073 51.073 0 0 0-2.654-5.587 29.99 29.99 0 0 0-7.291 4.596 39.953 39.953 0 0 0 3.129 4.651.505.505 0 0 1 0 .587 52.122 52.122 0 0 0-3.52 6.272.537.537 0 0 1-.601.293l-6.412-1.606a18.61 18.61 0 0 0-.712 9.904 67.086 67.086 0 0 0 4.037-.782l1.9-.391a.53.53 0 0 1 .586.307 25.565 25.565 0 0 0 3.562 6.328.544.544 0 0 1 0 .6c-1.145 1.872-2.221 3.395-3.255 4.848a16.773 16.773 0 0 0 6.384 4.721c.266-.489.517-.978.769-1.467.628-1.201 1.229-2.36 1.871-3.492a.548.548 0 0 1 .517-.265c2.115.266 4.255.266 6.37 0l.042.014Z"/><path fill="#07040C" d="M321.385 48.95c-.831 0-1.654-.172-2.416-.504a3.423 3.423 0 0 1-1.397-1.09 3.9 3.9 0 0 1-.559-1.9 7.433 7.433 0 0 1 1.397-5.182 4.651 4.651 0 0 1 5.015-1.718.416.416 0 0 1 .251.182h.084a5.017 5.017 0 0 1 3.269 4.428 5.502 5.502 0 0 1-3.396 5.339 5.5 5.5 0 0 1-2.192.416l-.056.028Zm.741-9.542a3.897 3.897 0 0 0-2.962 1.509 6.426 6.426 0 0 0-1.131 4.47c-.004.491.126.974.377 1.397.258.328.601.58.992.726a4.751 4.751 0 0 0 4.442-.265 4.519 4.519 0 0 0 2.067-3.953 4.004 4.004 0 0 0-2.556-3.507h-.154a1.264 1.264 0 0 1-.489-.25 2.79 2.79 0 0 0-.586-.127Zm1.061-.363.112.517-.112-.517ZM339.964 193.541a.499.499 0 0 1-.335-.126.528.528 0 0 1 0-.74l22.182-26.723a.532.532 0 0 1 .727-.083l14.416 10.742 31.723-51.685a.49.49 0 0 1 .335-.238.541.541 0 0 1 .419.084l16.162 11.762 17.615-30.731a.583.583 0 0 1 .391-.266.52.52 0 0 1 .447.168l23.119 25.144 6.844-5.49a.502.502 0 0 1 .391-.112.526.526 0 0 1 .364.224l23.747 33.525 33.832-37.618a.53.53 0 0 1 .741 0 .547.547 0 0 1 0 .74l-34.266 38.009a.507.507 0 0 1-.81-.041l-23.845-33.679-6.789 5.447a.515.515 0 0 1-.712 0l-22.965-24.948-17.545 30.648a.629.629 0 0 1-.349.251.562.562 0 0 1-.419-.098l-16.19-11.761-31.723 51.684a.49.49 0 0 1-.35.238.522.522 0 0 1-.405-.098l-14.485-10.798-21.862 26.345a.55.55 0 0 1-.405.224Z"/><path fill="#07040C" d="M362.328 207.482a.532.532 0 0 1-.517-.531v-4.191a.516.516 0 0 1 .517-.516.515.515 0 0 1 .531.516v4.191a.53.53 0 0 1-.531.531Zm0-8.381a.516.516 0 0 1-.517-.531v-4.191a.516.516 0 0 1 .531-.517.496.496 0 0 1 .517.517v4.191a.53.53 0 0 1-.531.531Zm0-8.382a.53.53 0 0 1-.531-.531v-4.19a.512.512 0 0 1 .157-.371.514.514 0 0 1 .374-.146.518.518 0 0 1 .517.517v4.19a.533.533 0 0 1-.517.531Zm0-8.381a.527.527 0 0 1-.375-.156.527.527 0 0 1-.156-.375v-4.191a.516.516 0 0 1 .517-.516.515.515 0 0 1 .531.516v4.191a.536.536 0 0 1-.15.371.534.534 0 0 1-.367.16Zm0-8.381a.516.516 0 0 1-.517-.517v-4.191a.529.529 0 0 1 .517-.531.531.531 0 0 1 .531.531v4.191a.515.515 0 0 1-.517.517h-.014ZM409.124 206.616a.515.515 0 0 1-.365-.152.515.515 0 0 1-.152-.365v-4.191a.529.529 0 0 1 .517-.531.53.53 0 0 1 .531.531v4.191a.529.529 0 0 1-.531.517Zm0-8.381a.529.529 0 0 1-.531-.517v-4.191a.529.529 0 0 1 .517-.531.533.533 0 0 1 .531.517v4.191a.519.519 0 0 1-.517.531Zm0-8.382a.532.532 0 0 1-.531-.517v-4.19a.515.515 0 0 1 .517-.531c.138 0 .271.054.371.15a.534.534 0 0 1 .16.367v4.19a.515.515 0 0 1-.517.531Zm0-8.381a.529.529 0 0 1-.531-.517v-4.191a.519.519 0 0 1 .316-.49.528.528 0 0 1 .732.476v4.191a.533.533 0 0 1-.517.531Zm0-8.381a.529.529 0 0 1-.531-.517v-4.191a.506.506 0 0 1 .317-.481.492.492 0 0 1 .2-.036.533.533 0 0 1 .531.517v4.191a.529.529 0 0 1-.517.531v-.014Zm0-8.382a.527.527 0 0 1-.517-.531v-4.19a.534.534 0 0 1 .16-.367c.1-.096.233-.15.371-.15a.514.514 0 0 1 .517.517v4.19a.53.53 0 0 1-.517.531h-.014Zm0-8.381a.532.532 0 0 1-.517-.531v-4.191a.533.533 0 0 1 .531-.516.531.531 0 0 1 .517.516v4.191a.527.527 0 0 1-.156.375.527.527 0 0 1-.375.156Zm0-8.381a.533.533 0 0 1-.517-.531v-4.191a.532.532 0 0 1 .531-.517.533.533 0 0 1 .517.517v4.191a.527.527 0 0 1-.156.375.527.527 0 0 1-.375.156Zm0-8.382a.52.52 0 0 1-.517-.531v-4.19a.534.534 0 0 1 .16-.367c.1-.096.233-.15.371-.15a.514.514 0 0 1 .517.517v4.19a.531.531 0 0 1-.531.531Zm0-8.381a.516.516 0 0 1-.517-.531v-4.191a.534.534 0 0 1 .517-.516.515.515 0 0 1 .531.516v4.191a.527.527 0 0 1-.156.375.527.527 0 0 1-.375.156ZM444.493 206.616a.533.533 0 0 1-.517-.517v-4.191c0-.141.056-.276.156-.375a.527.527 0 0 1 .375-.156.533.533 0 0 1 .517.531v4.191a.532.532 0 0 1-.531.517Zm0-8.382a.531.531 0 0 1-.517-.516v-4.191c0-.141.056-.276.156-.375a.527.527 0 0 1 .375-.156.516.516 0 0 1 .517.531v4.191a.533.533 0 0 1-.531.516Zm0-8.381a.531.531 0 0 1-.517-.517v-4.19a.531.531 0 0 1 .531-.531.514.514 0 0 1 .517.517v4.19a.531.531 0 0 1-.531.531Zm0-8.381a.536.536 0 0 1-.362-.155.536.536 0 0 1-.155-.362v-4.191a.519.519 0 0 1 .517-.531.533.533 0 0 1 .531.517v4.191a.529.529 0 0 1-.517.531h-.014Zm0-8.382a.53.53 0 0 1-.531-.53v-4.191a.519.519 0 0 1 .517-.517.533.533 0 0 1 .531.517v4.191a.529.529 0 0 1-.517.53Zm0-8.381a.53.53 0 0 1-.531-.531v-4.19a.519.519 0 0 1 .517-.517c.138 0 .271.054.371.15a.534.534 0 0 1 .16.367v4.19a.53.53 0 0 1-.517.531Zm0-8.381a.527.527 0 0 1-.375-.156.527.527 0 0 1-.156-.375v-4.191a.528.528 0 0 1 .517-.516.528.528 0 0 1 .531.516v4.191a.515.515 0 0 1-.517.531Zm0-8.381a.529.529 0 0 1-.531-.531v-4.191a.528.528 0 0 1 .156-.361.528.528 0 0 1 .361-.156.533.533 0 0 1 .531.517v4.191a.519.519 0 0 1-.517.531Zm0-8.382a.53.53 0 0 1-.531-.531v-4.19a.53.53 0 0 1 .517-.517.515.515 0 0 1 .531.517v4.19a.515.515 0 0 1-.517.531Zm0-8.381a.516.516 0 0 1-.517-.531v-4.191a.53.53 0 0 1 .531-.516.514.514 0 0 1 .517.516v4.191a.527.527 0 0 1-.156.375.527.527 0 0 1-.375.156Zm0-8.381a.516.516 0 0 1-.517-.531v-4.191a.516.516 0 0 1 .531-.517.516.516 0 0 1 .517.517v4.191a.527.527 0 0 1-.156.375.527.527 0 0 1-.375.156Zm0-8.382a.527.527 0 0 1-.517-.531v-4.19a.512.512 0 0 1 .156-.371.528.528 0 0 1 .375-.146.514.514 0 0 1 .517.517v4.19a.531.531 0 0 1-.531.531ZM474.456 206.616a.516.516 0 0 1-.517-.517v-4.191a.529.529 0 0 1 .517-.531.535.535 0 0 1 .517.531v4.191a.527.527 0 0 1-.531.517h.014Zm0-8.381a.529.529 0 0 1-.531-.517v-4.191a.529.529 0 0 1 .517-.531.53.53 0 0 1 .531.517v4.191a.519.519 0 0 1-.517.531Zm0-8.382a.532.532 0 0 1-.531-.517v-4.19a.53.53 0 0 1 .517-.531.533.533 0 0 1 .531.517v4.19a.515.515 0 0 1-.517.531Zm0-8.381a.529.529 0 0 1-.531-.517v-4.191a.514.514 0 0 1 .517-.53.53.53 0 0 1 .531.516v4.191a.515.515 0 0 1-.517.531Zm0-8.381a.529.529 0 0 1-.531-.517v-4.191a.516.516 0 0 1 .517-.517.53.53 0 0 1 .531.517v4.191a.532.532 0 0 1-.517.531v-.014Zm0-8.382a.534.534 0 0 1-.531-.531v-4.19a.535.535 0 0 1 .531-.517.518.518 0 0 1 .517.517v4.19a.533.533 0 0 1-.517.531Zm0-8.381a.532.532 0 0 1-.517-.531v-4.191a.534.534 0 0 1 .531-.516.518.518 0 0 1 .517.516v4.191a.53.53 0 0 1-.531.531Zm0-8.381a.533.533 0 0 1-.517-.531v-4.191a.533.533 0 0 1 .531-.517.53.53 0 0 1 .517.517v4.191a.53.53 0 0 1-.531.531Zm0-8.382a.534.534 0 0 1-.201-.04.531.531 0 0 1-.28-.288.544.544 0 0 1-.036-.203v-4.19a.535.535 0 0 1 .531-.517.518.518 0 0 1 .517.517v4.19a.535.535 0 0 1-.155.376.535.535 0 0 1-.376.155Zm0-8.381a.516.516 0 0 1-.517-.531v-4.191a.535.535 0 0 1 .517-.516.515.515 0 0 1 .531.516v4.191a.53.53 0 0 1-.531.531ZM532.776 207.482a.516.516 0 0 1-.516-.531v-4.191a.515.515 0 0 1 .516-.516.518.518 0 0 1 .517.516v4.191a.53.53 0 0 1-.531.531h.014Zm0-8.381a.547.547 0 0 1-.53-.531v-4.191a.515.515 0 0 1 .516-.517.499.499 0 0 1 .202.036.503.503 0 0 1 .289.28c.026.064.04.132.04.201v4.191a.53.53 0 0 1-.531.531h.014Zm0-8.382a.534.534 0 0 1-.375-.155.535.535 0 0 1-.155-.376v-4.19a.518.518 0 0 1 .516-.517.515.515 0 0 1 .531.517v4.19a.523.523 0 0 1-.146.375.524.524 0 0 1-.371.156Zm0-8.381a.53.53 0 0 1-.53-.531v-4.191a.528.528 0 0 1 .516-.53c.141 0 .276.056.376.155.099.1.155.235.155.375v4.191a.535.535 0 0 1-.15.371.534.534 0 0 1-.367.16Zm0-8.381a.514.514 0 0 1-.53-.517v-4.191a.528.528 0 0 1 .516-.531.531.531 0 0 1 .531.531v4.191a.509.509 0 0 1-.147.37.496.496 0 0 1-.37.147Zm0-8.382a.519.519 0 0 1-.49-.315.516.516 0 0 1-.04-.202v-4.19a.528.528 0 0 1 .516-.531c.141 0 .276.056.376.155.099.1.155.235.155.376v4.19a.503.503 0 0 1-.517.517Zm0-8.381a.519.519 0 0 1-.49-.316.511.511 0 0 1-.04-.201v-4.191a.519.519 0 0 1 .315-.49.535.535 0 0 1 .577.115c.099.1.155.235.155.375v4.191a.503.503 0 0 1-.517.517Zm0-8.381a.514.514 0 0 1-.53-.517v-4.191a.515.515 0 0 1 .516-.531.531.531 0 0 1 .531.531v4.191a.527.527 0 0 1-.517.517Zm0-8.382a.519.519 0 0 1-.49-.315.516.516 0 0 1-.04-.202v-4.19a.515.515 0 0 1 .516-.531c.141 0 .276.056.376.155.099.1.155.235.155.376v4.19a.53.53 0 0 1-.517.517Zm0-8.381a.529.529 0 0 1-.53-.517v-4.191a.519.519 0 0 1 .315-.49.535.535 0 0 1 .577.115c.099.1.155.235.155.375v4.191a.53.53 0 0 1-.517.517Zm0-8.381a.529.529 0 0 1-.53-.517v-1.593a.528.528 0 0 1 .516-.53.53.53 0 0 1 .531.53v1.593a.527.527 0 0 1-.517.517Z"/><path fill="#07040C" d="M540.208 207.482H335.424a.532.532 0 0 1-.517-.531.516.516 0 0 1 .517-.517h204.784a.515.515 0 0 1 .531.517.527.527 0 0 1-.156.375.527.527 0 0 1-.375.156ZM450.556 204.898a.155.155 0 0 1-.112 0l-3.409-2.99a.184.184 0 0 1 0-.251.174.174 0 0 1 .119-.05.174.174 0 0 1 .119.05l3.408 2.989a.174.174 0 0 1 .069.087.169.169 0 0 1-.18.22l-.014-.055ZM455.92 204.967h-.098a120.147 120.147 0 0 1-9.373-7.236.194.194 0 0 1 0-.251.185.185 0 0 1 .126-.051c.046 0 .091.019.125.051a119.747 119.747 0 0 0 9.331 7.208.18.18 0 0 1 0 .251.162.162 0 0 1-.111.028ZM460.152 204.898h-.112a767.273 767.273 0 0 1-13.424-10.952.164.164 0 0 1-.036-.183.18.18 0 0 1 .036-.055.184.184 0 0 1 .252 0 704.396 704.396 0 0 0 13.424 10.938.2.2 0 0 1 .046.126c0 .046-.017.09-.046.126a.17.17 0 0 1-.14 0ZM464.412 204.981a.152.152 0 0 1-.111 0 375.76 375.76 0 0 1-17.741-14.932.184.184 0 0 1 0-.252.201.201 0 0 1 .126-.046.2.2 0 0 1 .126.046 384.792 384.792 0 0 0 17.726 14.933.18.18 0 0 1 .037.054.184.184 0 0 1 .013.065.168.168 0 0 1-.05.118.135.135 0 0 1-.061.021.159.159 0 0 1-.065-.007ZM468.24 204.995a.225.225 0 0 1-.126 0 433.185 433.185 0 0 0-21.26-18.508.18.18 0 0 1-.006-.234.187.187 0 0 1 .106-.065.187.187 0 0 1 .123.019 446.741 446.741 0 0 1 21.275 18.523.184.184 0 0 1 0 .251.161.161 0 0 1-.112.014ZM472.906 204.604a.124.124 0 0 1-.056.013.121.121 0 0 1-.056-.013l-26.178-23.328a.198.198 0 0 1 0-.251.18.18 0 0 1 .252 0l26.136 23.286a.165.165 0 0 1 .049.118.165.165 0 0 1-.049.119.169.169 0 0 1-.098.056ZM471.942 199.087a.155.155 0 0 1-.112 0 425.892 425.892 0 0 1-25.367-22.476.194.194 0 0 1 0-.252.183.183 0 0 1 .251 0c8.116 7.795 16.637 15.366 25.354 22.462a.17.17 0 0 1 .049.119.17.17 0 0 1-.049.119.2.2 0 0 1-.126.028ZM471.495 194.407a.155.155 0 0 1-.112 0l-24.851-22.266a.184.184 0 0 1 0-.252.17.17 0 0 1 .119-.049.17.17 0 0 1 .119.049l24.837 22.267a.165.165 0 0 1 .041.194.166.166 0 0 1-.041.057.179.179 0 0 1-.112 0ZM471.327 189.322h-.097a111.826 111.826 0 0 1-8.675-7.263c-5.252-4.708-10.672-9.583-15.855-14.542a.184.184 0 0 1 0-.251.152.152 0 0 1 .238 0c5.182 4.959 10.602 9.778 15.854 14.527a111.425 111.425 0 0 0 8.647 7.25.172.172 0 0 1 .037.055.173.173 0 0 1-.037.183.165.165 0 0 1-.112.041ZM471.341 185.188a.16.16 0 0 1-.097 0 324.735 324.735 0 0 1-24.628-21.624.17.17 0 0 1-.049-.119.17.17 0 0 1 .049-.119.184.184 0 0 1 .252 0 330.164 330.164 0 0 0 24.543 21.568.172.172 0 0 1 .037.055.173.173 0 0 1-.037.183.174.174 0 0 1-.07.056ZM471.327 181.081a.152.152 0 0 1-.111 0c-8.382-7.194-16.609-14.654-24.655-22.169a.17.17 0 0 1-.007-.244.171.171 0 0 1 .244-.007 880.118 880.118 0 0 0 24.641 22.154.18.18 0 0 1 0 .252.16.16 0 0 1-.112.014ZM471.229 176.736a.176.176 0 0 1-.111 0c-8.382-6.83-16.609-13.968-24.586-21.26a.184.184 0 0 1 0-.252.2.2 0 0 1 .252 0 601.985 601.985 0 0 0 24.571 21.261.194.194 0 0 1 0 .251.182.182 0 0 1-.126 0ZM471.243 172.462h-.111l-24.516-20.842a.181.181 0 0 1-.061-.118.177.177 0 0 1 .04-.126.164.164 0 0 1 .053-.042.174.174 0 0 1 .133-.012.182.182 0 0 1 .059.033l24.585 20.8a.194.194 0 0 1-.082.307.17.17 0 0 1-.1 0ZM471.537 168.509h-.112l-25.144-20.954a.165.165 0 0 1-.049-.118c0-.022.005-.044.013-.065a.176.176 0 0 1 .036-.054.196.196 0 0 1 .252 0l25.144 20.953a.184.184 0 0 1 0 .252.174.174 0 0 1-.14-.014ZM471.383 163.69a.155.155 0 0 1-.112 0 1007.314 1007.314 0 0 1-24.962-20.954.165.165 0 0 1-.049-.118.165.165 0 0 1 .049-.119.18.18 0 0 1 .252 0 942.398 942.398 0 0 0 24.962 20.953.154.154 0 0 1 .036.055c.009.02.013.042.013.064a.156.156 0 0 1-.013.064.164.164 0 0 1-.036.055.17.17 0 0 1-.14 0ZM471.579 159.848h-.112a519.374 519.374 0 0 1-25.284-20.953.183.183 0 0 1 .118-.289.186.186 0 0 1 .12.023 489.23 489.23 0 0 0 25.255 20.954.18.18 0 0 1 0 .251.189.189 0 0 1-.097.014ZM471.509 155.685h-.098a245.098 245.098 0 0 1-25.06-20.52.183.183 0 0 1 .01-.23.18.18 0 0 1 .227-.035 244.003 244.003 0 0 0 25.019 20.492.184.184 0 0 1 0 .251.164.164 0 0 1-.098.042ZM471.201 151.746a.115.115 0 0 1-.048.01.116.116 0 0 1-.049-.01 250.89 250.89 0 0 1-24.725-20.464.172.172 0 0 1-.05-.119.174.174 0 0 1 .05-.119.184.184 0 0 1 .251 0 252.067 252.067 0 0 0 24.683 20.437.168.168 0 0 1 .05.118.168.168 0 0 1-.05.119.149.149 0 0 1-.112.028ZM471.397 147.555h-.098a678.213 678.213 0 0 1-24.906-20.282.18.18 0 0 1 0-.252.15.15 0 0 1 .054-.036.164.164 0 0 1 .129 0 .15.15 0 0 1 .054.036c8.074 6.985 16.442 13.773 24.893 20.269a.165.165 0 0 1 .049.119.165.165 0 0 1-.049.118.136.136 0 0 1-.126.028ZM471.104 142.625a.164.164 0 0 1-.098 0c-3.897-3.004-7.767-6.035-11.874-9.234s-8.563-6.691-13.088-10.183a.174.174 0 0 1-.05-.119.174.174 0 0 1 .05-.119.165.165 0 0 1 .056-.042.181.181 0 0 1 .138 0c.022.01.041.024.057.042 4.517 3.493 8.879 6.887 13.089 10.184 4.093 3.199 7.962 6.216 11.859 9.233a.154.154 0 0 1 .042.053.162.162 0 0 1 0 .131.158.158 0 0 1-.042.054.166.166 0 0 1-.139 0ZM470.88 138.629a.147.147 0 0 1-.097 0c-6.761-5.35-15.673-12.362-24.795-19.123a.18.18 0 0 1-.037-.109c0-.04.013-.078.036-.11a.186.186 0 0 1 .095-.065.174.174 0 0 1 .115.005c9.122 6.761 18.048 13.773 24.795 19.123a.169.169 0 0 1 .042.195.165.165 0 0 1-.042.056.16.16 0 0 1-.112.028ZM459.957 126.141a.155.155 0 0 1-.112 0 1022.64 1022.64 0 0 1-12.572-9.778.19.19 0 0 1-.046-.116.183.183 0 0 1 .04-.118.184.184 0 0 1 .229-.045 519.625 519.625 0 0 0 12.572 9.778.146.146 0 0 1 .056.119.146.146 0 0 1-.056.118.162.162 0 0 1-.111.042ZM471.23 134.634a.166.166 0 0 1-.112 0l-2.305-1.718a.15.15 0 0 1-.036-.054.164.164 0 0 1 0-.129.15.15 0 0 1 .036-.054.18.18 0 0 1 .251 0l2.305 1.718a.168.168 0 0 1 .05.118.168.168 0 0 1-.05.119.15.15 0 0 1-.139 0Z"/><path fill="#fff" d="M427.745 87.894h-85.308v58.67h85.308v-58.67Z"/><path fill="#07040C" d="M427.744 147.094h-85.308a.53.53 0 0 1-.516-.53v-58.67a.528.528 0 0 1 .516-.53h85.308a.533.533 0 0 1 .531.53v58.67c0 .14-.056.275-.155.375a.535.535 0 0 1-.376.155Zm-84.777-1.047h84.26V88.411h-84.26v57.636Z"/><path fill="#07040C" d="M408.985 106.263h-47.774a.517.517 0 0 1-.429-.119.524.524 0 0 1-.138-.182.515.515 0 0 1 0-.445.524.524 0 0 1 .339-.289.517.517 0 0 1 .228-.012h47.774a.517.517 0 0 1 .429.119.524.524 0 0 1 .187.405.529.529 0 0 1-.616.523ZM410.032 131.1h-47.774a.534.534 0 0 1-.375-.155.535.535 0 0 1-.115-.577.505.505 0 0 1 .288-.28.502.502 0 0 1 .202-.036h47.774a.499.499 0 0 1 .202.036.505.505 0 0 1 .329.481.531.531 0 0 1-.531.531ZM389.051 118.542h-35.956a.535.535 0 0 1-.376-.155.535.535 0 0 1-.114-.577.512.512 0 0 1 .49-.316h35.956a.49.49 0 0 1 .369.148.49.49 0 0 1 .147.369.515.515 0 0 1-.516.531Z"/><path fill="#F35A05" d="M401.637 108.471a3.018 3.018 0 1 0-.001-6.035 3.018 3.018 0 0 0 .001 6.035Z"/><path fill="#07040C" d="M401.637 109.001a3.552 3.552 0 0 1-3.278-2.19 3.544 3.544 0 0 1 .769-3.867 3.548 3.548 0 1 1 2.509 6.057Zm0-6.034a2.506 2.506 0 0 0-2.312 1.547 2.502 2.502 0 0 0 4.398 2.332c.273-.413.417-.898.414-1.393a2.498 2.498 0 0 0-.733-1.763 2.483 2.483 0 0 0-1.767-.723Z"/><path fill="#fff" d="M370.849 121.881a3.018 3.018 0 1 0 0-6.035 3.018 3.018 0 0 0 0 6.035Z"/><path fill="#07040C" d="M370.849 122.411a3.544 3.544 0 0 1-3.289-2.183 3.546 3.546 0 0 1 2.587-4.845 3.546 3.546 0 0 1 3.197 5.989 3.544 3.544 0 0 1-2.495 1.039Zm0-6.034a2.501 2.501 0 1 0 2.487 2.5 2.498 2.498 0 0 0-2.487-2.514v.014Z"/><path fill="#F35A05" d="M398.62 130.569a3.022 3.022 0 0 1 1.862-2.787 3.015 3.015 0 0 1 4.114 2.199 3.014 3.014 0 0 1-2.959 3.606 3.019 3.019 0 0 1-3.017-3.018Z"/><path fill="#07040C" d="M401.637 134.117a3.545 3.545 0 0 1-3.278-2.19 3.544 3.544 0 0 1 .769-3.867 3.548 3.548 0 1 1 2.509 6.057Zm0-6.034a2.506 2.506 0 0 0-2.312 1.547 2.502 2.502 0 0 0 4.398 2.332c.273-.413.417-.898.414-1.393 0-.327-.065-.652-.19-.955a2.5 2.5 0 0 0-1.354-1.346 2.492 2.492 0 0 0-.956-.185Z"/><path fill="#07040C" d="M427.06 147.011h-.698c-1.705 0-3.423 0-5.127-.14-3.939-.196-7.892-.098-11.832-.265-4.595 0-9.177.153-13.773.223-2.57.098-5.141 0-7.711 0-3.604 0-7.222.14-10.826.098a282.12 282.12 0 0 0-28.552-.573c-1.9 0-3.883-.531-5.727 0a1.848 1.848 0 0 0-1.104 2.067 1.842 1.842 0 0 0 1.816 1.481c1.511-.051 3.024.01 4.526.182 4.023 0 8.046 0 12.069-.07 5.588-.07 11.175.377 16.763.74 3.716.07 7.431-.069 11.175 0 2.794 0 5.462.168 8.2.098 4.065 0 8.13-.139 12.208-.209h10.91c2.068 0 4.191 0 6.23-.098a9.267 9.267 0 0 0 1.76-.154 1.565 1.565 0 0 0 1.313-.992 1.617 1.617 0 0 0-.751-2.256 1.613 1.613 0 0 0-.869-.132Z" opacity=".13"/><path fill="#fff" d="M577.533 108.68a12.495 12.495 0 0 1-1.705-10.016 16.56 16.56 0 0 1 5.001-7.46 102.112 102.112 0 0 0-8.912-11.3 6.154 6.154 0 0 0-.978-.796c-.544-.391-1.257-.643-1.941-1.118a14.327 14.327 0 0 1-13.822 4.549 14.316 14.316 0 0 1-10.666-9.899 68.603 68.603 0 0 0-15.994 4.554 10.62 10.62 0 0 1 1.285 5.783 14.813 14.813 0 0 1-1.397 6.3 9.261 9.261 0 0 1-4.568 4.484 12.289 12.289 0 0 1-3.701.824c-2.19.189-4.391.189-6.58 0 0 0-4.19 15.24-3.688 15.24 1.397.336 2.696.699 4.037 1.104a15.83 15.83 0 0 1 4.191 1.788 6.189 6.189 0 0 1 2.794 3.534c.209 1 .209 2.032 0 3.031a16.32 16.32 0 0 1-5.35 9.471s10.323 10.1 10.49 10.002a12.586 12.586 0 0 1 4.987-3.674 17.038 17.038 0 0 1 2.417-1.062 9.364 9.364 0 0 1 8.898 2.18 12.486 12.486 0 0 1 3.772 8.521c3.659-.196 7.319-.471 10.979-.825a8.462 8.462 0 0 0 4.736-1.522 20.252 20.252 0 0 1 2.011-9.303 11.034 11.034 0 0 1 2.794-3.73 9.58 9.58 0 0 1 6.579-1.956c2.366.242 4.68.85 6.859 1.802 2.389-4.456 4.819-9.01 5.588-14.15a16.233 16.233 0 0 1-8.116-6.356Z"/><path fill="#F35A05" d="M559.625 94.641a17.827 17.827 0 0 0-10.896-2.64 16.36 16.36 0 0 0-12.754 8.172 17.312 17.312 0 0 0-1.089 16.036 16.857 16.857 0 0 0 13.047 9.541 17.413 17.413 0 0 0 13.158-4.079c3.562-3.073 5.015-7.557 5.476-12.195.182-2.333-.712-10.812-6.942-14.835Zm-6.384 24.39a11.734 11.734 0 0 1-12.712-3.967 8.91 8.91 0 0 1-1.704-3.758 10.272 10.272 0 0 1 .279-4.19 13.746 13.746 0 0 1 5.588-8.242 10.029 10.029 0 0 1 9.778-.782 12 12 0 0 1 6.3 10.071 11.178 11.178 0 0 1-7.529 10.868Z"/><path fill="#07040C" d="M567.671 107.716c-.196-.545-.378-1.103-.573-1.662-.377-1.034-.796-2.054-1.146-3.087h-.181c-1.16.517-.531 1.397-.503 2.374.028.978.349 2.026.489 3.032.132 1.023.16 2.058.084 3.087v.084c-.154.572-.405 1.117-.573 1.676a12.766 12.766 0 0 1-2.319 4.973c-.084.112-.223.279-.307.405-.084.126-.489.712-.615.88l-.07.098-.181.209c-.168.252-1.034 1.09-1.034 1.132-1.173.88-1.061.866-2.333 1.788a25.94 25.94 0 0 1-3.003 1.634 14.146 14.146 0 0 1-4.791 1.397 35.543 35.543 0 0 1-4.568-.168 12.768 12.768 0 0 1-4.903-1.941c-.615-.336-1.188-1.062-1.942-.936a48.226 48.226 0 0 0 1.634 1.718c.713.726 1.397 1.397 2.166 2.137a18.497 18.497 0 0 0 7.361 1.299 19.38 19.38 0 0 0 4.191-.475 18.14 18.14 0 0 0 6.607-3.422 31.96 31.96 0 0 0 4.191-3.967 16.957 16.957 0 0 0 2.486-8.284 20.625 20.625 0 0 0-.167-3.981ZM586.305 115.259a.897.897 0 0 0-.742-.631.897.897 0 0 0-.878.422c-1.607 2.794-3.227 5.587-4.917 8.269a22.614 22.614 0 0 0-2.124 3.283 2.29 2.29 0 0 0-.405.95 1.315 1.315 0 0 0 1.956 1.299c.303-.205.537-.497.67-.838.146-.144.282-.298.406-.461 1.648-2.361 2.458-5.182 3.855-7.683l2.081-3.939a.866.866 0 0 0 .098-.671ZM560.086 139.705c-.657-.196-1.257.168-1.886.279a34.93 34.93 0 0 1-11.678 1.048 1.604 1.604 0 0 0-1.606 1.606 1.607 1.607 0 0 0 1.606 1.607c3.617.247 7.25-.007 10.798-.754a38.433 38.433 0 0 0 2.486-.601 1.855 1.855 0 0 0 1.244-.824 1.633 1.633 0 0 0 .092-1.415 1.62 1.62 0 0 0-1.056-.946Z" opacity=".13"/><path fill="#07040C" d="M545.949 144.929a.518.518 0 0 1-.517-.489 12.165 12.165 0 0 0-3.883-8.157 7.63 7.63 0 0 0-4.303-2.138 10.415 10.415 0 0 0-4.609.936 11.802 11.802 0 0 0-6.105 4.191.584.584 0 0 1-.349.223.51.51 0 0 1-.405-.097 56.166 56.166 0 0 1-10.714-10.142.545.545 0 0 1 .07-.74 15.123 15.123 0 0 0 5.28-8.87 6.598 6.598 0 0 0 0-3.297c-.517-1.579-1.928-2.906-4.33-4.051a25.043 25.043 0 0 0-6.985-2.109.465.465 0 0 1-.335-.21.486.486 0 0 1-.098-.391 76.12 76.12 0 0 1 4.428-15.52.532.532 0 0 1 .671-.293c2.794.992 9.876 1.076 12.739-2.305 4.764-5.587 2.515-11.957 1.705-13.773a.52.52 0 0 1 .265-.684 90.984 90.984 0 0 1 11.887-3.912l4.457-1.299a.53.53 0 0 1 .658.365.514.514 0 0 1-.002.278c-.335 1.173 2.431 6.02 6.426 8.032 9.373 4.721 15.365-1.188 16.916-3.115a.558.558 0 0 1 .782 0 109.514 109.514 0 0 1 11.776 13.76.56.56 0 0 1 .098.39.571.571 0 0 1-.21.35 12.682 12.682 0 0 0-4.987 12.767 13.778 13.778 0 0 0 10.058 9.932c.138.041.257.13.335.251a.506.506 0 0 1 0 .405 64.837 64.837 0 0 1-6.523 14.766.522.522 0 0 1-.288.23.522.522 0 0 1-.369-.021c-3.576-1.523-6.984-2.794-10.281-1.704a9.247 9.247 0 0 0-5.406 5.699 27.939 27.939 0 0 0-1.397 6.901c0 .517-.125 1.047-.181 1.578a.521.521 0 0 1-.136.293.522.522 0 0 1-.283.154 90.715 90.715 0 0 1-15.925 1.858l.07-.042Zm-9.233-11.859a4.7 4.7 0 0 1 .628 0 8.515 8.515 0 0 1 4.917 2.416 13.243 13.243 0 0 1 4.191 8.382 91.415 91.415 0 0 0 14.877-1.746l.125-1.188a29.07 29.07 0 0 1 1.397-7.152 10.276 10.276 0 0 1 6.049-6.328c3.422-1.159 7.11.084 10.602 1.565a63.903 63.903 0 0 0 6.035-13.634 14.813 14.813 0 0 1-10.309-10.574 13.827 13.827 0 0 1 4.987-13.536 107.537 107.537 0 0 0-10.98-12.81c-1.886 2.068-8.283 7.753-17.824 2.948-3.702-1.872-6.649-6.132-6.985-8.382l-3.785 1.104c-3.831.992-7.6 2.21-11.287 3.646a13.968 13.968 0 0 1-2.053 14.402c-3.074 3.604-10.058 3.702-13.424 2.794a74.78 74.78 0 0 0-4.107 14.332 26.53 26.53 0 0 1 6.747 2.109c2.682 1.285 4.274 2.794 4.875 4.68a7.625 7.625 0 0 1 .097 3.813 16.214 16.214 0 0 1-5.252 9.164 55.543 55.543 0 0 0 9.778 9.233 13.36 13.36 0 0 1 6.286-4.191 12.562 12.562 0 0 1 4.415-1.047Z"/><path fill="#07040C" d="M549.26 120.107a12.239 12.239 0 0 1-9.695-4.736 9.322 9.322 0 0 1-1.788-3.981 10.334 10.334 0 0 1 .293-4.344 14.32 14.32 0 0 1 5.798-8.55 10.557 10.557 0 0 1 10.323-.795 12.47 12.47 0 0 1 6.579 10.504 11.787 11.787 0 0 1-7.892 11.315 11.5 11.5 0 0 1-3.618.587Zm.614-22.35c-1.93.013-3.816.58-5.434 1.634a13.317 13.317 0 0 0-5.364 7.934 9.583 9.583 0 0 0-.265 3.911 8.387 8.387 0 0 0 1.592 3.549 11.177 11.177 0 0 0 12.139 3.771 10.71 10.71 0 0 0 7.18-10.267 11.383 11.383 0 0 0-6.006-9.624 8.384 8.384 0 0 0-3.842-.922v.014Z"/><path fill="#07040C" d="M549.288 126.393c-.654 0-1.308-.042-1.956-.126a17.366 17.366 0 0 1-13.452-9.778 17.7 17.7 0 0 1 1.117-16.54 17.02 17.02 0 0 1 13.131-8.38 18.44 18.44 0 0 1 11.245 2.793c6.719 4.344 7.376 13.326 7.18 15.366-.559 5.587-2.403 9.778-5.657 12.572a18.013 18.013 0 0 1-11.608 4.093Zm-1.048-33.875a15.746 15.746 0 0 0-12.349 7.934 16.644 16.644 0 0 0-1.061 15.534 16.31 16.31 0 0 0 12.572 9.247 16.878 16.878 0 0 0 12.753-3.967c3.032-2.612 4.778-6.481 5.309-11.846.237-2.5-.894-10.56-6.719-14.332a17.281 17.281 0 0 0-10.561-2.57h.056Z"/><path fill="#07040C" d="M546.103 144.762a33.302 33.302 0 0 0-1.02-5.169c-1.215-4.19-5.504-7.85-9.946-5.881a17.762 17.762 0 0 0-4.973 3.018 1.393 1.393 0 0 0-.866 0 23.28 23.28 0 0 1-3.017 1.033h-.154a16.495 16.495 0 0 1-1.927-1.229l-.615-.559a2.976 2.976 0 0 0-1.201-.796 14.706 14.706 0 0 1-1.732-1.634c-1.006-1.02-2.054-1.984-3.046-3.004a4.329 4.329 0 0 0-2.039-1.397 1.582 1.582 0 0 0-1.746 1.146 1.645 1.645 0 0 0 .866 1.872c.449.398.865.832 1.243 1.299a27.32 27.32 0 0 0 5.238 5.154 38.474 38.474 0 0 0 3.255 2.794 5.5 5.5 0 0 0 3.185 1.257 6.098 6.098 0 0 0 3.8-2.235c2.793-2.402 6.062-4.107 7.291-3.366a4.48 4.48 0 0 1 2.012 1.69c1.02 1.69.712 2.584 1.271 5.322.067.536.184 1.065.349 1.579.149.577.437 1.109.838 1.55.387.363.874.601 1.397.685.426.056.856.084 1.285.084.466.092.949.058 1.397-.098a1.509 1.509 0 0 0 .95-1.397c-.042-1.439-1.006-1.718-2.095-1.718ZM518.975 113.43a21.644 21.644 0 0 0-7.557-3.409h-.098l-.139-.251a1.507 1.507 0 0 0-2.699.416c-.109.368-.073.764.1 1.106.783 1.691 2.724 1.914 4.317 2.403a25.644 25.644 0 0 1 6.258 2.794 1.078 1.078 0 0 0 1.645-.163c.118-.175.182-.381.185-.592-.154-1.145-1.313-1.704-2.012-2.304Z" opacity=".13"/><path fill="#fff" d="M563.731 25.58a3.017 3.017 0 1 0 0-6.034 3.017 3.017 0 0 0 0 6.033Z"/><path fill="#07040C" d="M563.731 26.096a3.545 3.545 0 0 1-3.278-2.19 3.552 3.552 0 0 1 .769-3.867 3.55 3.55 0 1 1 2.509 6.057Zm0-6.034a2.504 2.504 0 0 0-2.311 1.546 2.496 2.496 0 0 0 .548 2.727 2.5 2.5 0 0 0 4.263-1.787 2.48 2.48 0 0 0-1.544-2.301 2.485 2.485 0 0 0-.956-.185Z"/><path fill="#fff" d="M492.979 305.851a3.017 3.017 0 1 1 6.032 0 3.017 3.017 0 0 1-6.032 0Z"/><path fill="#07040C" d="M495.996 309.399a3.545 3.545 0 0 1-3.278-2.191 3.551 3.551 0 0 1 .769-3.866 3.555 3.555 0 0 1 3.867-.769 3.548 3.548 0 0 1-1.358 6.826Zm0-6.035c-.495 0-.979.147-1.39.423a2.494 2.494 0 0 0-1.061 2.571 2.501 2.501 0 0 0 4.952-.507 2.482 2.482 0 0 0-.734-1.764 2.483 2.483 0 0 0-1.767-.723Z"/><path fill="#fff" d="M357.467 248.816a3.018 3.018 0 1 0-.001-6.035 3.018 3.018 0 0 0 .001 6.035Z"/><path fill="#07040C" d="M357.467 249.333a3.55 3.55 0 1 1 1.35-6.824 3.547 3.547 0 0 1-1.35 6.824Zm0-6.035a2.5 2.5 0 1 0-.027 5 2.5 2.5 0 0 0 .027-5Z"/><path fill="#fff" d="M582.659 172.881a3.017 3.017 0 1 0 0-6.035 3.017 3.017 0 0 0 0 6.035Z"/><path fill="#07040C" d="M582.659 173.398a3.556 3.556 0 0 1-1.975-.591 3.548 3.548 0 1 1 1.975.591Zm0-6.035a2.494 2.494 0 0 0-1.394.416 2.494 2.494 0 0 0-1.073 2.569 2.5 2.5 0 1 0 2.467-2.985Z"/><path fill="#fff" d="M246.931 343.636a3.015 3.015 0 0 1 1.863-2.787 3.015 3.015 0 0 1 4.114 2.199 3.015 3.015 0 0 1-1.283 3.097 3.015 3.015 0 0 1-3.81-.375 3.017 3.017 0 0 1-.884-2.134Z"/><path fill="#07040C" d="M249.949 347.17a3.547 3.547 0 1 1 3.534-3.534 3.536 3.536 0 0 1-3.534 3.534Zm0-6.034a2.497 2.497 0 0 0-2.321 1.534 2.496 2.496 0 0 0 .534 2.729 2.502 2.502 0 0 0 2.726.549 2.506 2.506 0 0 0 .82-4.075 2.5 2.5 0 0 0-1.759-.737Z"/><path fill="#fff" d="M93.134 83.313a3.017 3.017 0 1 0 0-6.035 3.017 3.017 0 0 0 0 6.035Z"/><path fill="#07040C" d="M93.204 83.83a3.548 3.548 0 1 1-.028-7.096 3.548 3.548 0 0 1 .028 7.095Zm0-6.035a2.5 2.5 0 1 0-.028 5 2.5 2.5 0 0 0 .028-5ZM245.605 63.617h-47.788a.533.533 0 0 1-.445-.524.534.534 0 0 1 .445-.524h47.788a.529.529 0 0 1 .445.524.529.529 0 0 1-.445.523ZM244.543 38.78h-47.774a.533.533 0 0 1-.616-.524.52.52 0 0 1 .187-.404.525.525 0 0 1 .429-.12h47.774a.533.533 0 0 1 .616.524.52.52 0 0 1-.187.405.525.525 0 0 1-.429.119ZM253.706 51.338h-35.955a.528.528 0 0 1-.445-.524.528.528 0 0 1 .445-.524h35.955a.53.53 0 1 1 0 1.048Z"/><path fill="#F35A05" d="M205.165 66.396a3.017 3.017 0 1 0 0-6.034 3.017 3.017 0 0 0 0 6.034Z"/><path fill="#07040C" d="M205.165 66.913a3.548 3.548 0 1 1 3.548-3.534 3.534 3.534 0 0 1-3.548 3.534Zm0-6.034a2.504 2.504 0 0 0-2.311 1.543 2.506 2.506 0 0 0 .542 2.725 2.503 2.503 0 0 0 3.848-.379c.274-.411.421-.895.421-1.389a2.5 2.5 0 0 0-2.5-2.43v-.07Z"/><path fill="#fff" d="M238.983 49.969a3.014 3.014 0 0 1-3.588 2.99 3.014 3.014 0 0 1-2.386-2.363 3.01 3.01 0 0 1 1.278-3.106 3.017 3.017 0 0 1 4.696 2.479Z"/><path fill="#07040C" d="M235.966 53.503a3.545 3.545 0 0 1-3.289-2.184 3.546 3.546 0 0 1 .766-3.873 3.549 3.549 0 1 1 2.523 6.057Zm0-6.035a2.5 2.5 0 1 0-.028 5.001 2.5 2.5 0 0 0 .028-5Z"/><path fill="#F35A05" d="M205.165 41.28a3.017 3.017 0 1 0 0-6.034 3.017 3.017 0 0 0 0 6.034Z"/><path fill="#07040C" d="M205.165 41.797a3.548 3.548 0 1 1 3.548-3.534 3.535 3.535 0 0 1-3.548 3.534Zm0-6.034a2.504 2.504 0 0 0-2.311 1.543 2.507 2.507 0 0 0 .542 2.725 2.505 2.505 0 0 0 2.725.542 2.504 2.504 0 0 0 1.544-2.31 2.5 2.5 0 0 0-2.5-2.459v-.041ZM399.318 396.788h-47.787a.526.526 0 0 1-.445-.524.529.529 0 0 1 .445-.524h47.787a.534.534 0 0 1 .319.868.531.531 0 0 1-.319.18ZM378.322 384.23h-35.955a.534.534 0 0 1-.367-.16.535.535 0 0 1-.15-.371.515.515 0 0 1 .517-.517h35.955a.499.499 0 0 1 .202.036.503.503 0 0 1 .289.28.535.535 0 0 1-.115.577.535.535 0 0 1-.376.155Z"/><path fill="#fff" d="M360.121 387.568a3.017 3.017 0 1 0 0-6.035 3.017 3.017 0 0 0 0 6.035Z"/><path fill="#07040C" d="M360.121 388.085a3.543 3.543 0 0 1-3.479-4.245 3.554 3.554 0 0 1 .975-1.817 3.554 3.554 0 0 1 3.872-.76 3.55 3.55 0 0 1 2.18 3.288 3.528 3.528 0 0 1-2.191 3.269c-.43.177-.891.267-1.357.265Zm0-6.034a2.498 2.498 0 0 0-1.768 4.268 2.495 2.495 0 0 0 2.725.542 2.495 2.495 0 0 0 1.544-2.31 2.499 2.499 0 0 0-2.501-2.5Z"/><path fill="#F35A05" d="M390.922 399.274a3.018 3.018 0 1 0 .001-6.035 3.018 3.018 0 0 0-.001 6.035Z"/><path fill="#07040C" d="M390.923 399.805a3.545 3.545 0 0 1-3.288-2.18 3.551 3.551 0 0 1 .76-3.872 3.55 3.55 0 0 1 5.028 5.008 3.552 3.552 0 0 1-2.5 1.044Zm0-6.034a2.498 2.498 0 0 0-1.782 4.268 2.494 2.494 0 0 0 2.731.539 2.496 2.496 0 0 0 1.537-2.321 2.503 2.503 0 0 0-2.486-2.486ZM303.408 418.705H255.62a.532.532 0 0 1-.517-.531.516.516 0 0 1 .517-.517h47.788a.516.516 0 0 1 .516.517.533.533 0 0 1-.516.531Z"/><path fill="#F35A05" d="M267.033 418.174a3.016 3.016 0 1 1-6.036.003 3.016 3.016 0 0 1 6.036-.003Z"/><path fill="#07040C" d="M264.015 421.722a3.545 3.545 0 0 1-3.278-2.19 3.552 3.552 0 0 1 .769-3.867 3.551 3.551 0 0 1 3.867-.769 3.556 3.556 0 0 1 2.19 3.278 3.55 3.55 0 0 1-3.548 3.548Zm0-6.034c-.495 0-.979.147-1.391.422a2.506 2.506 0 0 0-1.06 2.571 2.493 2.493 0 0 0 1.972 1.961 2.496 2.496 0 0 0 2.565-1.075c.273-.413.417-.898.415-1.393a2.484 2.484 0 0 0-2.501-2.416v-.07Z"/><path fill="#fff" d="M563.263 332.603a140.55 140.55 0 0 0-16.846 12.739c-2.794 2.459-5.769 5.169-9.471 5.588a4.421 4.421 0 0 1-2.375-.266 3.749 3.749 0 0 1-1.997-2.794 7.341 7.341 0 0 1 .447-3.548 6.507 6.507 0 0 1 1.397-2.402 8.7 8.7 0 0 1 2.123-1.467c5.28-2.794 10.896-5.224 15.519-9.191a10.486 10.486 0 0 1-1.508-2.068 3.728 3.728 0 0 1-.419-2.472 6.49 6.49 0 0 1 2.374-3.046 133.182 133.182 0 0 0-25.814-13.675c3.115-3.45 5.881-7.18 8.633-10.91 3.743-5.07 7.487-10.141 11.328-14.849 4.331 7.502 10.309 13.885 16.232 20.213 3.982 4.424 8.232 8.6 12.726 12.502 2.43 2.04 5.182 4.191 5.685 7.362a8.18 8.18 0 0 1-1.467 5.685 22.554 22.554 0 0 1-4.12 4.359 6.835 6.835 0 0 1-4.443 2.179 20.2 20.2 0 0 1-8.004-3.939ZM534.613 285.96a85.701 85.701 0 0 1-9.191 12.195 4.463 4.463 0 0 1-2.347-3.534 11.945 11.945 0 0 1 .461-4.372 5.623 5.623 0 0 1 .615-1.704c.302-.452.67-.856 1.089-1.202a10.488 10.488 0 0 1 3.297-2.193 6.99 6.99 0 0 1 6.076.81Z"/><path fill="#F35A05" d="M526.777 310.49a5720.964 5720.964 0 0 0 19.975-27.072 21.153 21.153 0 0 1-3.059-8.828s-26.359 34.349-26.261 34.181a18.46 18.46 0 0 1 9.345 1.719Z"/><path fill="#07040C" d="M557.341 327.518a.507.507 0 0 1-.308-.098c-.265-.196-27.099-19.305-39.476-17.894a.507.507 0 0 1-.433-.154.58.58 0 0 1-.293-.112.54.54 0 0 1-.098-.74l26.709-34.741a.53.53 0 0 1 .558-.181.542.542 0 0 1 .377.461c.825 10.854 10.659 21.135 20.171 31.08a448.74 448.74 0 0 1 4.987 5.267.53.53 0 0 1 0 .628 160.484 160.484 0 0 1-11.845 16.288.534.534 0 0 1-.349.196Zm-38.415-19.096c12.474 0 34.922 15.478 38.317 17.88a157.183 157.183 0 0 0 11.175-15.477c-1.537-1.649-3.143-3.325-4.694-4.945-9.261-9.681-18.83-19.682-20.324-30.41l-25.27 32.952h.796Z"/><path fill="#07040C" d="M527.21 310.266a.488.488 0 0 1-.308-.112.516.516 0 0 1-.112-.726l19.11-25.535a.513.513 0 0 1 .34-.207.529.529 0 0 1 .386.095.52.52 0 0 1 .112.726l-19.109 25.549a.513.513 0 0 1-.419.21ZM524.933 298.714a.534.534 0 0 1-.391-.168 8.542 8.542 0 0 1 .128-11.427 8.548 8.548 0 0 1 3.448-2.276 6.37 6.37 0 0 1 6.411.824.53.53 0 0 1-.698.782 5.355 5.355 0 0 0-5.35-.628 8.129 8.129 0 0 0-2.487 1.397 7.639 7.639 0 0 0-2.528 5.168 7.472 7.472 0 0 0 1.858 5.392.528.528 0 0 1 .156.37.512.512 0 0 1-.156.37.491.491 0 0 1-.391.196ZM571.044 336.989c-2.487 0-4.749-1.705-6.705-3.325-1.397-1.117-2.542-2.151-3.716-3.157-1.173-1.006-2.361-2.053-3.702-3.157a.531.531 0 0 1 .685-.81c1.397 1.117 2.542 2.165 3.702 3.171a230.606 230.606 0 0 0 3.701 3.143c2.096 1.76 4.359 3.436 6.775 3.017a9.315 9.315 0 0 0 4.722-3.269 19.953 19.953 0 0 0 3.506-4.525 6.504 6.504 0 0 0 .461-5.309 9.262 9.262 0 0 0-2.445-3.031c-2.975-2.794-5.95-5.587-9.526-8.507a.527.527 0 0 1-.018-.697.531.531 0 0 1 .688-.113c3.59 2.989 6.579 5.755 9.569 8.549a10.23 10.23 0 0 1 2.696 3.394 7.505 7.505 0 0 1 .424 3.14 7.506 7.506 0 0 1-.913 3.035 21.101 21.101 0 0 1-3.688 4.791 10.182 10.182 0 0 1-5.294 3.576 5.184 5.184 0 0 1-.922.084Z"/><path fill="#07040C" d="M536.597 351.893a4.89 4.89 0 0 1-2.682-.754c-2.613-1.676-2.794-5.587-1.299-8.088 1.285-2.137 3.171-2.933 5.587-3.953l1.397-.587h.14a62.715 62.715 0 0 0 11.175-6.691 24.37 24.37 0 0 0 3.269-3.352 67.104 67.104 0 0 1 2.067-2.291.53.53 0 0 1 .367-.161.512.512 0 0 1 .201.037.511.511 0 0 1 .289.277.512.512 0 0 1 .007.401.511.511 0 0 1-.11.172 35.206 35.206 0 0 0-2.025 2.249 24.182 24.182 0 0 1-3.451 3.506 62.307 62.307 0 0 1-11.384 6.803l-.14.07-1.397.587c-2.291.978-3.939 1.69-5.057 3.534-1.117 1.844-1.075 5.35.964 6.663 2.277 1.397 5.323-.154 6.524-.908a41.212 41.212 0 0 0 5.853-4.847l1.271-1.216a89.635 89.635 0 0 1 14.933-11.175.533.533 0 0 1 .759.584.532.532 0 0 1-.215.324 87.483 87.483 0 0 0-14.765 10.98l-1.285 1.201a41.05 41.05 0 0 1-6.006 4.959 9.984 9.984 0 0 1-4.987 1.676Z"/><path fill="#07040C" d="M551.697 331.653a.526.526 0 0 1-.447-.252l-1.229-2.053a5.044 5.044 0 0 1-.503-1.034 3.45 3.45 0 0 1 .6-2.905 8.842 8.842 0 0 1 1.984-1.858.526.526 0 0 1 .67.152.529.529 0 0 1-.041.686 7.456 7.456 0 0 0-1.747 1.62 2.353 2.353 0 0 0-.461 1.998c.096.284.232.552.405.796l1.216 2.053a.532.532 0 0 1-.182.727.645.645 0 0 1-.265.07ZM576.967 324.892a.545.545 0 0 1-.363-.126 103.821 103.821 0 0 0-8.13-6.733.51.51 0 0 1-.214-.339.5.5 0 0 1 .102-.387.503.503 0 0 1 .34-.208.515.515 0 0 1 .386.096 103.361 103.361 0 0 1 8.228 6.789.529.529 0 0 1 0 .74.499.499 0 0 1-.349.168ZM574.131 328.258a.603.603 0 0 1-.335-.112 370.9 370.9 0 0 0-8.382-6.411.544.544 0 0 1-.111-.741.53.53 0 0 1 .74-.111c2.794 2.081 5.671 4.19 8.381 6.439a.532.532 0 0 1 .084.74.51.51 0 0 1-.377.196ZM571.24 331.96a.534.534 0 0 1-.35-.126 90.626 90.626 0 0 0-8.311-6.523.537.537 0 0 1-.21-.552.527.527 0 0 1 .625-.398c.067.015.13.044.186.084a92.964 92.964 0 0 1 8.381 6.607.532.532 0 0 1 0 .74.547.547 0 0 1-.321.168ZM525.994 282.245a.578.578 0 0 1-.447-.252 20.378 20.378 0 0 1-2.919-12.376.514.514 0 0 1 .176-.359.52.52 0 0 1 .382-.116.531.531 0 0 1 .489.559 19.207 19.207 0 0 0 2.794 11.734.509.509 0 0 1 .071.398.522.522 0 0 1-.239.328.505.505 0 0 1-.307.084ZM522.041 285.346a.51.51 0 0 1-.391-.168 39.621 39.621 0 0 0-6.062-5.49.518.518 0 0 1 .228-.932.52.52 0 0 1 .386.094 39.553 39.553 0 0 1 6.217 5.588.532.532 0 0 1 0 .74.603.603 0 0 1-.378.168ZM519.22 289.369h-.168a22.635 22.635 0 0 0-11.259-.671.534.534 0 0 1-.389-.078.534.534 0 0 1-.225-.327.514.514 0 0 1 .405-.614 23.738 23.738 0 0 1 11.789.684.521.521 0 0 1 .361.454.538.538 0 0 1-.025.203.522.522 0 0 1-.489.349ZM532.28 309.568h-.125a.18.18 0 0 1 0-.252l5.07-5.503a.177.177 0 0 1 .117-.036.182.182 0 0 1 .172.153.185.185 0 0 1-.023.12l-5.085 5.504a.151.151 0 0 1-.061.02.143.143 0 0 1-.065-.006ZM535.004 311.216h-.126a.184.184 0 0 1 0-.251l2.571-2.794a.168.168 0 0 1 .054-.037.177.177 0 0 1 .129 0c.02.009.039.021.054.037a.169.169 0 0 1 .042.195.165.165 0 0 1-.042.056l-2.57 2.794a.155.155 0 0 1-.112 0ZM537.966 313.255a.162.162 0 0 1-.126 0 .133.133 0 0 1-.041-.053.147.147 0 0 1 0-.131.14.14 0 0 1 .041-.053l1.942-2.053a.193.193 0 0 1 .251 0 .18.18 0 0 1 0 .251l-1.942 2.053a.233.233 0 0 1-.125-.014ZM541.388 314.974a.179.179 0 0 1-.112 0 .17.17 0 0 1-.049-.119.17.17 0 0 1 .049-.119l1.397-1.606a.18.18 0 0 1 .252 0 .154.154 0 0 1 0 .237l-1.397 1.593a.168.168 0 0 1-.068.024.16.16 0 0 1-.072-.01Z"/><path fill="#07040C" d="M523.089 290.85a.843.843 0 0 1 .698-.364.859.859 0 0 1 .699.364c.124.291.186.605.181.922a7.833 7.833 0 0 0 1.104 3.17c.531.908.475.447.95 1.286a1.107 1.107 0 0 1-.516 1.401 1.102 1.102 0 0 1-1.44-.396 8.285 8.285 0 0 1-1.816-4.484 5.106 5.106 0 0 1 0-1.397.876.876 0 0 1 .14-.502Z" opacity=".13"/><path fill="#fff" d="m437.565 383.42 2.318 7.515h7.502l-6.077 4.638 2.319 7.501-6.062-4.638-6.077 4.638 2.319-7.501-6.062-4.638h7.501l2.319-7.515Z"/><path fill="#07040C" d="M443.627 403.591a.558.558 0 0 1-.322-.112l-5.741-4.386-5.755 4.386a.529.529 0 0 1-.615 0 .518.518 0 0 1-.209-.587l2.207-7.152-5.769-4.414a.53.53 0 0 1-.182-.587.522.522 0 0 1 .503-.349h7.11l2.207-7.138a.514.514 0 0 1 .503-.363.487.487 0 0 1 .489.363l2.207 7.138h7.124c.108 0 .213.034.301.096a.522.522 0 0 1 .188.253.535.535 0 0 1-.181.587l-5.77 4.414 2.207 7.152a.52.52 0 0 1-.195.587.505.505 0 0 1-.307.112Zm-6.063-5.686a.422.422 0 0 1 .307.112l4.778 3.632-1.844-5.937a.556.556 0 0 1 .181-.572l4.848-3.688h-5.951a.518.518 0 0 1-.503-.377l-1.816-5.881-1.83 5.881a.5.5 0 0 1-.489.377h-5.964l4.847 3.688a.526.526 0 0 1 .181.572l-1.83 5.937 4.764-3.632a.475.475 0 0 1 .321-.112Z"/><path fill="#fff" d="m266.292 280.818 7.25-2.137-2.933-10.141-6.328 2.151-4.191-6.454 3.534-6.327-8.786-4.191-2.794 7.18-7.417.098-2.976-6.258-8.982 5.252 3.744 5.587-4.917 6.217-4.889-1.719-2.584 11.175 5.769 1.244 2.5 7.194-4.372 4.847 7.403 6.873 3.548-5.085 6.803 1.481.685 6.844 9.066-.6-.866-6.23 5.266-3.59 5.001 4.819 6.802-8.759-6.034-3.687.698-5.784Zm-17.531 5.099a6.748 6.748 0 1 1 6.426-6.747 6.593 6.593 0 0 1-6.426 6.747Z"/><path fill="#07040C" d="M246.331 305.124a.516.516 0 0 1-.517-.475l-.656-6.453-6.091-1.397-3.38 4.875a.481.481 0 0 1-.364.209.51.51 0 0 1-.419-.125l-7.403-6.887a.547.547 0 0 1 0-.74l4.191-4.61-2.305-6.621-5.49-1.174a.501.501 0 0 1-.192-.084.497.497 0 0 1-.143-.153.538.538 0 0 1 0-.391l2.584-11.175a.494.494 0 0 1 .265-.336.553.553 0 0 1 .419 0l4.54 1.593 4.498-5.588-3.548-5.322a.588.588 0 0 1 0-.405.479.479 0 0 1 .252-.335l8.996-5.252a.534.534 0 0 1 .419 0 .56.56 0 0 1 .307.279l2.794 5.951 6.733-.098 2.654-6.831a.487.487 0 0 1 .293-.307.565.565 0 0 1 .405 0l8.801 4.19a.547.547 0 0 1 .265.322.457.457 0 0 1 0 .405l-3.353 6.09 3.772 5.839 5.951-2.011a.457.457 0 0 1 .405 0 .542.542 0 0 1 .265.321l2.92 10.127a.53.53 0 0 1-.349.657l-6.985 2.039-.628 5.057 5.741 3.52a.519.519 0 0 1 .23.569.534.534 0 0 1-.091.2l-6.802 8.758a.521.521 0 0 1-.169.137.524.524 0 0 1-.209.059.537.537 0 0 1-.405-.14l-4.693-4.526-4.652 3.171.824 5.909a.448.448 0 0 1-.111.391.429.429 0 0 1-.364.195l-9.065.601-.14-.028Zm-7.487-9.373h.111l6.803 1.481a.523.523 0 0 1 .276.166.52.52 0 0 1 .129.295l.699 6.314 8.004-.531-.796-5.671a.512.512 0 0 1 .223-.503l5.266-3.59a.532.532 0 0 1 .657 0l4.582 4.414 6.09-7.837-5.587-3.38a.518.518 0 0 1-.252-.517l.727-5.741a.514.514 0 0 1 .363-.433l6.761-1.998-2.626-9.108-5.812 1.97a.505.505 0 0 1-.614-.209l-4.191-6.44a.544.544 0 0 1 0-.545l3.227-5.867-7.781-3.66-2.57 6.65a.534.534 0 0 1-.475.335l-7.431.098a.522.522 0 0 1-.475-.294l-2.794-5.741-8.018 4.68 3.436 5.196a.502.502 0 0 1 0 .615l-4.959 6.118a.528.528 0 0 1-.586.168l-4.331-1.523-2.333 10.058 5.253 1.117a.553.553 0 0 1 .391.349l2.5 7.18a.565.565 0 0 1-.111.531l-3.898 4.554 6.58 6.118 3.198-4.595a.517.517 0 0 1 .364-.224Zm9.918-9.317a7.28 7.28 0 0 1-1.816-14.389 7.277 7.277 0 0 1 8.8 7.125 7.103 7.103 0 0 1-1.983 5.083 7.107 7.107 0 0 1-5.001 2.181Zm0-13.48a6.234 6.234 0 0 0-5.991 3.608 6.23 6.23 0 1 0 11.885 2.608 6.061 6.061 0 0 0-5.894-6.216Z"/><path fill="#07040C" d="M236.497 298.419c-.252-.866-1.174-1.201-1.774-1.76-.196-.196-1.244-.95-2.319-1.97-.699-.6-1.215-1.48-2.026-1.913-1.397-.699-2.682 1.313-1.578 2.458a37.151 37.151 0 0 0 5.085 4.498c.405.21.195.447 1.229.601a1.508 1.508 0 0 0 1.383-1.914ZM254.251 301.716a1.787 1.787 0 0 0-.866 0c-.897.077-1.799.077-2.696 0-.88-.084-1.774-.112-2.654-.182-.447 0-.936-.195-1.397 0a1.583 1.583 0 0 0-.389 2.633c.268.233.607.368.962.384 1.432.098 2.87.098 4.302 0 .68.042 1.361.042 2.04 0a1.67 1.67 0 0 0 .978-.209 1.515 1.515 0 0 0 .635-1.396 1.515 1.515 0 0 0-.915-1.23ZM268.248 289.591c-1.257 2.137-3.367 4.749-3.897 5.699-.308.489-.908.768-1.104 1.397a1.4 1.4 0 0 0 .536 1.523 1.4 1.4 0 0 0 1.615 0 19.618 19.618 0 0 0 2.207-2.794 43.801 43.801 0 0 0 2.305-3.241c.28-.517.782-.95.838-1.565a1.391 1.391 0 0 0-.858-1.471 1.397 1.397 0 0 0-1.642.452Z" opacity=".13"/><path fill="#fff" d="m140.195 35.12 2.319 7.501h7.502l-6.063 4.638 2.319 7.501-6.077-4.637-6.062 4.637 2.319-7.501-6.077-4.638h7.502l2.318-7.501Z"/><path fill="#07040C" d="M146.286 55.36a.562.562 0 0 1-.322-.11l-5.755-4.401-5.741 4.4a.546.546 0 0 1-.628 0 .52.52 0 0 1-.196-.587l2.207-7.152-5.783-4.414a.548.548 0 0 1-.168-.586.517.517 0 0 1 .489-.35h7.124l2.193-7.138a.536.536 0 0 1 .503-.377.534.534 0 0 1 .503.377l2.207 7.138h7.11a.516.516 0 0 1 .322.936l-5.783 4.414 2.221 7.152a.53.53 0 0 1-.21.587.56.56 0 0 1-.293.112Zm-6.077-5.684a.549.549 0 0 1 .322.097l4.763 3.646-1.802-6.006a.535.535 0 0 1 .182-.573l4.847-3.688h-6.007a.529.529 0 0 1-.503-.377l-1.816-5.881-1.816 5.88a.512.512 0 0 1-.502.378h-5.951l4.847 3.688a.555.555 0 0 1 .182.573l-1.844 5.936 4.777-3.645a.475.475 0 0 1 .307-.098l.014.07Z"/><path fill="#fff" d="m581.367 253.985 2.319 7.502h7.501l-6.062 4.637 2.318 7.502-6.076-4.638-6.076 4.638 2.332-7.502-6.076-4.637h7.501l2.319-7.502Z"/><path fill="#07040C" d="M587.443 274.157a.506.506 0 0 1-.321-.112l-5.755-4.4-5.755 4.4a.514.514 0 0 1-.814-.246.522.522 0 0 1 .003-.327l2.207-7.152-5.783-4.414a.533.533 0 0 1-.181-.587.545.545 0 0 1 .503-.349h7.11l2.207-7.138a.524.524 0 0 1 .503-.363.533.533 0 0 1 .503.363l2.207 7.138h7.11a.546.546 0 0 1 .503.349.528.528 0 0 1-.182.587l-5.783 4.414 2.207 7.152a.52.52 0 0 1-.195.587.573.573 0 0 1-.294.098Zm-14.346-12.139 4.833 3.687a.517.517 0 0 1 .182.573l-1.83 5.937 4.763-3.646a.548.548 0 0 1 .643 0l4.763 3.646-1.83-5.937a.521.521 0 0 1 .182-.573l4.833-3.687h-5.95a.538.538 0 0 1-.503-.378l-1.816-5.88-1.816 5.88a.535.535 0 0 1-.503.378h-5.951ZM328.412 257.393a.535.535 0 0 1-.349-.126 347.782 347.782 0 0 0-3.129-2.794.516.516 0 0 1-.239-.375.529.529 0 0 1 .937-.407 152.69 152.69 0 0 1 3.129 2.794.52.52 0 0 1 .156.37.534.534 0 0 1-.04.201.531.531 0 0 1-.116.169.531.531 0 0 1-.349.168Zm-6.3-5.518a.497.497 0 0 1-.335-.126l-3.199-2.696a.53.53 0 0 1-.07-.74.515.515 0 0 1 .74 0c1.062.88 2.124 1.788 3.199 2.696a.529.529 0 0 1 0 .74.516.516 0 0 1-.335.126Zm-6.412-5.392a.603.603 0 0 1-.335-.112c-1.048-.894-2.123-1.774-3.213-2.696a.53.53 0 0 1 .685-.796l3.198 2.682a.528.528 0 0 1 .07.74.493.493 0 0 1-.405.182Zm-6.398-5.336a.533.533 0 0 1-.349-.126l-3.171-2.794a.53.53 0 0 1 .685-.796l3.171 2.794a.528.528 0 0 1 .156.37.516.516 0 0 1-.156.37.548.548 0 0 1-.336.182Zm-6.314-5.588a.486.486 0 0 1-.349-.139l-3.115-2.794a.528.528 0 0 1-.156-.37.512.512 0 0 1 .156-.371.532.532 0 0 1 .741 0l3.115 2.794a.532.532 0 0 1 0 .741.518.518 0 0 1-.392.139ZM508.988 333.006h-2.417a.531.531 0 0 1 0-1.048h4.191a.532.532 0 0 1 0 1.048h-1.774Zm5.978-.182a.513.513 0 0 1-.517-.488.516.516 0 0 1 .127-.378.5.5 0 0 1 .362-.167h.461a.53.53 0 0 1 .433.872.512.512 0 0 1-.363.175h-.475l-.028-.014Zm-12.572 0a83.264 83.264 0 0 1-4.19-.363.53.53 0 0 1-.475-.572.508.508 0 0 1 .195-.356.505.505 0 0 1 .391-.105c1.397.139 2.794.265 4.191.363a.51.51 0 0 1 .363.176.526.526 0 0 1 .126.383.529.529 0 0 1-.587.446l-.014.028Zm-8.381-.908h-.07a87.446 87.446 0 0 1-4.191-.726.532.532 0 0 1-.405-.615.524.524 0 0 1 .412-.407.514.514 0 0 1 .203.002c1.397.266 2.794.503 4.107.713a.533.533 0 0 1 .412.56.53.53 0 0 1-.496.487l.028-.014Zm-8.214-1.634h-.07a68.25 68.25 0 0 1-4.064-1.089.53.53 0 0 1-.364-.657.532.532 0 0 1 .657-.349c1.397.391 2.682.754 4.023 1.075a.526.526 0 0 1 .387.427.51.51 0 0 1-.01.202.5.5 0 0 1-.503.363l-.056.028Zm-8.046-2.361a.337.337 0 0 1-.167 0c-1.397-.447-2.654-.949-3.954-1.466a.526.526 0 0 1-.285-.275.514.514 0 0 1-.008-.396.512.512 0 0 1 .482-.334c.07 0 .138.014.202.041 1.286.503 2.599.992 3.898 1.397a.528.528 0 0 1 .335.67.539.539 0 0 1-.447.335l-.056.028Zm-7.781-3.087a.558.558 0 0 1-.223 0 116.476 116.476 0 0 1-3.799-1.83.547.547 0 0 1-.224-.712.513.513 0 0 1 .504-.28.523.523 0 0 1 .194.056c1.23.629 2.501 1.23 3.758 1.802a.544.544 0 0 1 .265.699.514.514 0 0 1-.419.237l-.056.028Z"/><path fill="#fff" d="M220.865 408.773c0-22.923.266-42.898 0-64.424-32.128 0-64.424.936-96.79.6-.307 21.931 0 42.577 0 63.908 32.352-.084 64.606-.084 96.79-.084Z"/><path fill="#07040C" d="M124.075 409.304a.532.532 0 0 1-.517-.517c0-7.11 0-14.262-.069-21.191-.07-13.815-.14-28.105.069-42.73a.53.53 0 0 1 .517-.517c18.691.195 37.716 0 55.987-.252 13.383-.167 27.226-.335 40.79-.335a.52.52 0 0 1 .516.517c.182 14.192.126 27.63 0 41.907v22.573a.515.515 0 0 1-.516.531h-48.277c-15.868 0-32.296.014-48.5.014Zm.517-63.894c-.195 14.43-.126 28.539 0 42.186 0 6.747.07 13.718.07 20.66h95.729V386.2c0-14.053.111-27.324 0-41.32-13.397 0-27.044.167-40.259.335-18.215.154-37.003.377-55.54.195Z"/><path fill="#F35A05" d="M124.285 338.23c-.112 2.668-.084 5.211-.21 8.27 32.394.07 64.495 0 96.791-.07 0-2.794-.084-6.384-.084-8.633l-96.497.433Z"/><path fill="#07040C" d="M156.819 347.059h-32.743a.506.506 0 0 1-.378-.168.48.48 0 0 1-.139-.377c0-1.579.084-3.017.111-4.414.028-1.397 0-2.571.098-3.87a.517.517 0 0 1 .517-.503l96.497-.419a.558.558 0 0 1 .377.154.492.492 0 0 1 .154.363v8.633a.506.506 0 0 1-.317.481.492.492 0 0 1-.2.036c-22.727.056-43.918.084-63.977.084Zm-32.199-1.076c29.265 0 60.583 0 95.715-.084v-7.557l-95.477.419c0 1.118 0 2.207-.07 3.353-.07 1.145-.112 2.486-.168 3.869ZM172.464 369.563a.548.548 0 0 1-.531-.531.53.53 0 0 1 .531-.517h5.839a.527.527 0 0 1 .616.524.537.537 0 0 1-.187.404.527.527 0 0 1-.429.12h-5.839ZM172.464 381.771a.533.533 0 0 1-.531-.517c0-.14.056-.275.155-.375a.535.535 0 0 1 .376-.155h5.839a.532.532 0 0 1 .227 1.035.512.512 0 0 1-.227.012h-5.839ZM136.34 393.77a.517.517 0 0 1-.429-.119.537.537 0 0 1-.139-.627.54.54 0 0 1 .34-.289.532.532 0 0 1 .228-.012h45.357a.532.532 0 0 1 .568.747.545.545 0 0 1-.34.288.517.517 0 0 1-.228.012H136.34Z"/><path fill="#fff" d="M160.855 381.213c0-9.779.07-18.355 0-27.561-8.116 0-16.288.405-24.473.266-.084 9.373 0 18.159 0 27.323l24.473-.028Z"/><path fill="#07040C" d="M136.382 381.771a.535.535 0 0 1-.376-.155.534.534 0 0 1-.155-.375v-27.338a.5.5 0 0 1 .154-.363.557.557 0 0 1 .377-.153c4.721.083 9.513 0 14.15-.112 3.395 0 6.887-.14 10.323-.14a.515.515 0 0 1 .531.517v27.561a.533.533 0 0 1-.531.516h-12.209l-12.264.042Zm.517-27.323v26.276h23.439v-26.499c-3.254 0-6.565.07-9.778.139-4.484.056-9.094.154-13.661.084Z"/><path fill="#07040C" d="M140.852 378.796a.179.179 0 0 1-.112 0 17.442 17.442 0 0 1-2.109-1.844.194.194 0 0 1 0-.251.168.168 0 0 1 .118-.05c.022 0 .044.005.065.013a.18.18 0 0 1 .054.037 17.032 17.032 0 0 0 2.067 1.802.18.18 0 0 1 0 .251.187.187 0 0 1-.083.042ZM145.783 379.508a.166.166 0 0 1-.112 0 277.24 277.24 0 0 0-7.403-6.621.163.163 0 0 1-.056-.116.167.167 0 0 1 .279-.135 236.274 236.274 0 0 1 7.418 6.621.183.183 0 0 1 0 .251.208.208 0 0 1-.126 0ZM150.756 379.439h-.126l-12.055-10.198a.194.194 0 0 1 0-.251.18.18 0 0 1 .251 0l12.069 10.197a.18.18 0 0 1 0 .252.149.149 0 0 1-.069.016.15.15 0 0 1-.07-.016ZM155.338 379.257a.155.155 0 0 1-.112 0 390.56 390.56 0 0 0-16.469-13.969.146.146 0 0 1-.042-.053.147.147 0 0 1 0-.131.146.146 0 0 1 .042-.053.168.168 0 0 1 .118-.05c.022 0 .044.005.065.013a.18.18 0 0 1 .054.037c5.588 4.498 11.175 9.205 16.497 13.969a.18.18 0 0 1 0 .251.135.135 0 0 1-.079.016.135.135 0 0 1-.074-.03ZM158.858 377.762a.138.138 0 0 1-.098 0c-6.803-5.462-13.578-11.175-20.143-16.86a.172.172 0 0 1-.037-.055.173.173 0 0 1 .037-.183.184.184 0 0 1 .251 0 642.503 642.503 0 0 0 20.115 16.847.18.18 0 0 1 0 .251.16.16 0 0 1-.125 0ZM158.76 373.222a.155.155 0 0 1-.112 0l-19.933-16.287a.175.175 0 0 1-.059-.052.174.174 0 0 1-.032-.072.187.187 0 0 1 .036-.149.186.186 0 0 1 .215-.053.18.18 0 0 1 .063.046l19.92 16.246a.2.2 0 0 1 .046.126c0 .046-.017.09-.046.126a.234.234 0 0 1-.098.069ZM158.858 368.557a.155.155 0 0 1-.112 0c-4.819-4.191-9.778-8.284-14.737-12.265a.168.168 0 0 1-.028-.237.164.164 0 0 1 .113-.063.164.164 0 0 1 .124.035c4.861 3.939 9.862 8.046 14.64 12.236a.18.18 0 0 1 .036.055c.009.02.013.042.013.064a.17.17 0 0 1-.049.119.262.262 0 0 1 0 .056ZM158.746 363.36h-.098a159.978 159.978 0 0 1-8.633-6.691.198.198 0 0 1 0-.251.18.18 0 0 1 .252 0 164.079 164.079 0 0 0 8.605 6.663.184.184 0 0 1 0 .251.163.163 0 0 1-.126.028ZM158.858 359.267a.155.155 0 0 1-.112 0 45.933 45.933 0 0 0-3.213-2.5.183.183 0 0 1-.017-.223.18.18 0 0 1 .213-.07 47.77 47.77 0 0 1 3.24 2.528.18.18 0 0 1 .037.054.184.184 0 0 1 .013.065.168.168 0 0 1-.05.118.157.157 0 0 1-.111.028Z"/><path fill="#07040C" d="M219.664 346.011a2.329 2.329 0 0 0-1.201 0h-.182c-11.664-.126-23.328-.153-34.922-.265-8.004-.126-16.008-.377-24.026-.196-5.183 0-10.351.308-15.534.224-2.486 0-4.959.153-7.445.223h-6.328c-1.09 0-2.179 0-3.255-.098a4.028 4.028 0 0 0-1.872 0 1.806 1.806 0 0 0-1.038 2.007 1.802 1.802 0 0 0 1.737 1.444c2.366.249 4.745.351 7.124.307 3.325.14 6.649 0 9.974-.084 7.11.126 14.234 0 21.358-.07 5.686-.181 11.357.098 17.042.168 6.845.084 13.69.112 20.548.265 5.504 0 11.008-.111 16.498 0l.391.07.279.084c.125.014.252.014.377 0h.294a2.08 2.08 0 0 0 .181-4.079Z" opacity=".13"/><path fill="#fff" d="M236.147 382.568c2.926-12.484-4.822-24.975-17.306-27.901-12.484-2.926-24.976 4.822-27.901 17.306-2.926 12.484 4.822 24.976 17.306 27.901 12.484 2.926 24.975-4.822 27.901-17.306Z"/><path fill="#07040C" d="M213.518 400.965a23.746 23.746 0 1 1 9.087-45.687 23.746 23.746 0 0 1-9.087 45.687Zm0-46.419a22.693 22.693 0 0 0-12.604 3.823 22.692 22.692 0 0 0-9.646 23.288 22.69 22.69 0 0 0 17.824 17.824 22.687 22.687 0 0 0 27.111-22.249 22.712 22.712 0 0 0-22.685-22.686Z"/><path fill="#07040C" d="M213.196 400.797a.533.533 0 0 1-.516-.531l.293-45.79a.527.527 0 0 1 .517-.517.529.529 0 0 1 .531.531l-.294 45.776a.53.53 0 0 1-.531.531Z"/><path fill="#07040C" d="M213.504 368.263a35.686 35.686 0 0 1-18.076-4.735.523.523 0 0 1-.181-.713.52.52 0 0 1 .712-.181 34.713 34.713 0 0 0 17.545 4.582 34.746 34.746 0 0 0 17.573-4.54.517.517 0 0 1 .712.181.519.519 0 0 1-.181.713 35.75 35.75 0 0 1-18.16 4.749l.056-.056ZM190.525 378.042a.529.529 0 0 1-.531-.517.53.53 0 0 1 .517-.531c14.975-.349 30.005-.573 45.916-.657a.514.514 0 0 1 .531.517.53.53 0 0 1-.517.531 2513.98 2513.98 0 0 0-45.902.657h-.014ZM229.568 394.525a.52.52 0 0 1-.363-.14 24.393 24.393 0 0 0-32.506-1.076.515.515 0 0 1-.404.172.535.535 0 0 1-.396-.192.537.537 0 0 1-.032-.634.525.525 0 0 1 .162-.156 25.436 25.436 0 0 1 33.888 1.118.529.529 0 0 1 0 .74.495.495 0 0 1-.349.168Z"/><path fill="#07040C" d="M213.196 400.797h-.181a16.36 16.36 0 0 1-7.474-5.937 28.886 28.886 0 0 1-5.224-22.043 30.34 30.34 0 0 1 12.907-19.207.536.536 0 0 1 .573 0 26.417 26.417 0 0 1 11.091 15.254c2.794 9.024 1.397 17.391-4.19 25.577a15.666 15.666 0 0 1-7.362 6.342.389.389 0 0 1-.14.014Zm.322-46.097a29.207 29.207 0 0 0-12.167 18.313 27.823 27.823 0 0 0 5.029 21.233 15.359 15.359 0 0 0 6.802 5.503 14.858 14.858 0 0 0 6.678-5.881c5.364-7.92 6.691-15.98 4.023-24.682a25.424 25.424 0 0 0-10.365-14.528v.042Z"/><path fill="#07040C" d="M236.86 379.439a16.845 16.845 0 0 1-1.537 3.157 41.417 41.417 0 0 1-5.28 6.9 24.104 24.104 0 0 1-2.039 1.914 21.319 21.319 0 0 1-4.191 3.45 32.562 32.562 0 0 1-6.607 2.571c-1.383.243-2.79.323-4.191.237a22.444 22.444 0 0 1-2.319-.377 17.723 17.723 0 0 1-2.961-.922 23.663 23.663 0 0 1-4.387-1.718 35.16 35.16 0 0 1-4.931-3.45 32.49 32.49 0 0 1-4.511-4.191 27.45 27.45 0 0 1-2.166-2.682 6.09 6.09 0 0 0 .391 1.495 20.88 20.88 0 0 0 1.397 2.989 22.273 22.273 0 0 0 2.962 4.19 25.174 25.174 0 0 0 3.213 2.641 25.87 25.87 0 0 0 5.671 3.24 18.866 18.866 0 0 0 8.186 1.956 23.32 23.32 0 0 0 12.669-3.883 36.445 36.445 0 0 0 5.015-4.61 34.337 34.337 0 0 0 2.333-3.129l-.196.293 1.062-1.508c.231-.263.377-.589.419-.936a.98.98 0 0 0 0-.35c.168-.265.335-.53.489-.81.473-.925.87-1.887 1.187-2.877.324-.746.586-1.517.783-2.305a1.398 1.398 0 0 0-.07-1.132 1.003 1.003 0 0 0-.391-.153Z" opacity=".13"/><path fill="#07040C" d="M312.208 393.757h-68.825a.532.532 0 0 1 0-1.048h68.294v-66.925a.53.53 0 0 1 .732-.49.505.505 0 0 1 .28.288.499.499 0 0 1 .036.202v67.456a.516.516 0 0 1-.517.517Z"/><path fill="#fff" d="M312.208 328.801a3.016 3.016 0 1 0 0-6.034 3.017 3.017 0 0 0 0 6.034Z"/><path fill="#07040C" d="M312.208 329.318a3.541 3.541 0 0 1-3.289-2.184 3.553 3.553 0 0 1-.206-2.053 3.546 3.546 0 0 1 4.845-2.586 3.546 3.546 0 0 1 2.184 3.289 3.55 3.55 0 0 1-3.534 3.534Zm0-6.034a2.499 2.499 0 0 0-1.787 4.263 2.506 2.506 0 0 0 2.727.549 2.506 2.506 0 0 0 1.547-2.312 2.5 2.5 0 0 0-2.487-2.5Z"/><path fill="#fff" d="M435.693 77.278a3.017 3.017 0 1 0 0-6.035 3.017 3.017 0 0 0 0 6.035Z"/><path fill="#07040C" d="M435.693 77.795a3.545 3.545 0 0 1-3.289-2.184 3.546 3.546 0 0 1 4.639-4.64 3.55 3.55 0 0 1 1.145 5.785 3.549 3.549 0 0 1-2.495 1.039Zm0-6.035a2.501 2.501 0 1 0-.028 5.002 2.501 2.501 0 0 0 .028-5.002Z"/><path fill="#F35A05" d="M112.802 276.725H97.409v29.126h15.393v-29.126Z"/><path fill="#07040C" d="M112.76 306.381H97.395a.528.528 0 0 1-.517-.53v-29.125a.53.53 0 0 1 .517-.531h15.365a.53.53 0 0 1 .517.531v29.125a.532.532 0 0 1-.517.53Zm-14.82-.977h14.345v-28.162H97.939v28.162Z"/><path fill="#fff" d="M137.178 242.404h-15.394v63.447h15.394v-63.447Z"/><path fill="#07040C" d="M137.178 306.381h-15.366a.515.515 0 0 1-.517-.53v-63.447a.506.506 0 0 1 .317-.481.492.492 0 0 1 .2-.036h15.366a.515.515 0 0 1 .531.517v63.447a.53.53 0 0 1-.531.53Zm-14.863-.977h14.346v-62.469h-14.346v62.469Z"/><path fill="#fff" d="M164.417 266.347h-15.394v38.693h15.394v-38.693Z"/><path fill="#07040C" d="M164.445 305.557h-15.366a.515.515 0 0 1-.516-.517v-38.749a.53.53 0 0 1 .516-.517h15.366a.53.53 0 0 1 .517.517v38.707a.504.504 0 0 1-.027.211.497.497 0 0 1-.109.182.51.51 0 0 1-.381.166Zm-14.877-1.048h14.346v-37.646h-14.36l.014 37.646Z"/><path fill="#07040C" d="M153.116 303.755h-.097l-2.291-1.564a.179.179 0 0 1-.044-.119c0-.044.015-.086.044-.119a.165.165 0 0 1 .119-.049.165.165 0 0 1 .118.049l2.291 1.551a.184.184 0 0 1 .059.193.184.184 0 0 1-.157.128l-.042-.07ZM157.461 303.783c-2.375-1.397-4.736-3.003-6.985-4.61a.177.177 0 0 1-.109-.119.179.179 0 0 1 .029-.159.172.172 0 0 1 .064-.053.176.176 0 0 1 .162-.001.194.194 0 0 1 .064.053 136.624 136.624 0 0 0 6.984 4.582.18.18 0 0 1 .018.299.21.21 0 0 1-.072.035.197.197 0 0 1-.155-.027ZM160.855 303.406a.104.104 0 0 1-.049.011.106.106 0 0 1-.049-.011 187.386 187.386 0 0 1-10.057-7.445.19.19 0 0 1-.046-.116.185.185 0 0 1 .04-.118.19.19 0 0 1 .106-.065.187.187 0 0 1 .123.019 186.217 186.217 0 0 0 10.03 7.446.178.178 0 0 1 .044.118.179.179 0 0 1-.044.119.156.156 0 0 1-.098.042ZM163.048 301.87h-.097l-12.433-9.22a.164.164 0 0 1-.036-.183.165.165 0 0 1 .036-.054.18.18 0 0 1 .252 0l12.432 9.219a.172.172 0 0 1 .037.055.173.173 0 0 1-.037.183.17.17 0 0 1-.154 0ZM162.852 298.573a.147.147 0 0 1-.097 0 217.25 217.25 0 0 1-12.041-9.359.18.18 0 0 1 0-.252.196.196 0 0 1 .125-.046.2.2 0 0 1 .126.046 220.71 220.71 0 0 0 12.013 9.345.172.172 0 0 1 .037.055.173.173 0 0 1-.037.183.142.142 0 0 1-.126.028ZM162.853 295.109a.15.15 0 0 1-.098 0 723.03 723.03 0 0 1-12.069-9.471.196.196 0 0 1 0-.252.2.2 0 0 1 .126-.046c.046 0 .09.017.125.046a720.933 720.933 0 0 0 12.056 9.471.166.166 0 0 1 .041.057.165.165 0 0 1 0 .138.176.176 0 0 1-.041.057.17.17 0 0 1-.14 0ZM162.462 290.89a.155.155 0 0 1-.112 0 320.419 320.419 0 0 1-11.58-9.303.18.18 0 0 1 0-.252.184.184 0 0 1 .251 0c3.772 3.171 7.655 6.3 11.566 9.29a.18.18 0 0 1 0 .251.193.193 0 0 1-.125.014ZM162.643 287.244a.116.116 0 0 1-.049.01.115.115 0 0 1-.048-.01 345.233 345.233 0 0 1-11.804-9.485.173.173 0 0 1 .223-.265 334.563 334.563 0 0 0 11.79 9.485.168.168 0 0 1 .037.054.173.173 0 0 1-.037.183.17.17 0 0 1-.112.028ZM162.574 283.472a.15.15 0 0 1-.098 0 407.242 407.242 0 0 1-11.762-9.512.175.175 0 0 1-.021-.245.174.174 0 0 1 .244-.021 401.434 401.434 0 0 0 11.748 9.499.194.194 0 0 1 0 .251.158.158 0 0 1-.111.028ZM162.643 279.896h-.111c-4.037-3.101-8.032-6.369-11.86-9.778a.184.184 0 0 1 0-.251.172.172 0 0 1 .055-.037.173.173 0 0 1 .183.037 254.275 254.275 0 0 0 11.845 9.708.172.172 0 0 1 .037.055.173.173 0 0 1-.037.183.161.161 0 0 1-.112.083ZM162.755 276.572h-.112l-10.183-8.284a.182.182 0 0 1 .101-.298.18.18 0 0 1 .122.019l10.184 8.283c.029.036.046.08.046.126a.2.2 0 0 1-.046.126.184.184 0 0 1-.112.028ZM162.839 273.275a.106.106 0 0 1-.049.011.104.104 0 0 1-.049-.011 46.967 46.967 0 0 1-5.462-4.665.149.149 0 0 1-.041-.053.152.152 0 0 1 0-.132.149.149 0 0 1 .041-.053.184.184 0 0 1 .251 0 47.54 47.54 0 0 0 5.406 4.624.168.168 0 0 1 .05.119.168.168 0 0 1-.05.118.133.133 0 0 1-.097.042ZM162.811 269.629h-.126l-1.397-1.257a.198.198 0 0 1 0-.251.18.18 0 0 1 .252 0l1.397 1.243a.184.184 0 0 1 0 .251.169.169 0 0 1-.062.021.156.156 0 0 1-.064-.007Z"/><path fill="#fff" d="M120.625 109.979H26.53v9.429h94.095v-9.429Z"/><path fill="#07040C" d="M120.625 119.939H26.531a.532.532 0 0 1-.531-.531v-9.429a.52.52 0 0 1 .53-.517h94.095a.528.528 0 0 1 .49.316.516.516 0 0 1 .041.201v9.429a.531.531 0 0 1-.531.531Zm-93.591-1.048h93.06v-8.381H27.048l-.014 8.381Z"/><path fill="#F35A05" d="M107.536 109.979H82.853v9.429h24.683v-9.429Z"/><path fill="#07040C" d="M107.536 119.939H82.867a.532.532 0 0 1-.53-.531v-9.429a.52.52 0 0 1 .53-.517h24.669a.528.528 0 0 1 .49.316.516.516 0 0 1 .041.201v9.429a.531.531 0 0 1-.531.531Zm-24.11-1.048h23.635v-8.381H83.426v8.381Z"/><path fill="#fff" d="M139.986 135.794h-64.9v9.429h64.9v-9.429Z"/><path fill="#07040C" d="M139.986 145.739H75.045a.507.507 0 0 1-.482-.316.504.504 0 0 1-.035-.2v-9.429a.516.516 0 0 1 .516-.531h64.9a.52.52 0 0 1 .517.531v9.429a.487.487 0 0 1-.14.363.496.496 0 0 1-.335.153Zm-64.369-.977h63.838v-8.382H75.617v8.382Z"/><path fill="#F35A05" d="M75.1 135.794H49.078v9.429H75.1v-9.429Z"/><path fill="#07040C" d="M75.045 145.739H49.062a.516.516 0 0 1-.516-.516v-9.429a.53.53 0 0 1 .517-.531h25.982a.532.532 0 0 1 .53.531v9.429a.52.52 0 0 1-.328.481.517.517 0 0 1-.202.035Zm-25.452-.977H74.57v-8.382H49.593v8.382ZM78.914 143.937a.244.244 0 0 1-.126 0l-2.249-2.402a.183.183 0 0 1 0-.252.17.17 0 0 1 .238 0l2.249 2.403a.152.152 0 0 1 0 .237.16.16 0 0 1-.112.014ZM82.42 143.938a.17.17 0 0 1-.126 0l-5.755-5.756a.193.193 0 0 1 0-.237.18.18 0 0 1 .252 0l5.755 5.755a.154.154 0 0 1 0 .238.17.17 0 0 1-.126 0ZM85.898 144.077a.181.181 0 0 1-.126 0l-6.467-6.467a.156.156 0 0 1 0-.238.183.183 0 0 1 .251 0l6.454 6.454a.182.182 0 0 1 0 .251.165.165 0 0 1-.112 0ZM89.572 143.937a.152.152 0 0 1-.126 0l-6.481-6.481a.182.182 0 0 1 0-.252.17.17 0 0 1 .237 0l6.496 6.482a.208.208 0 0 1 0 .251.161.161 0 0 1-.126 0ZM93.805 144.175a.137.137 0 0 1-.126 0l-6.495-6.482a.181.181 0 0 1-.029-.28.196.196 0 0 1 .067-.043c.026-.009.053-.012.08-.009a.178.178 0 0 1 .133.081l6.482 6.496a.151.151 0 0 1 .041.184.156.156 0 0 1-.041.053.12.12 0 0 1-.056.013.12.12 0 0 1-.056-.013ZM97.506 143.812a.17.17 0 0 1-.125 0l-5.574-6.035a.182.182 0 0 1 0-.251.153.153 0 0 1 .053-.042.165.165 0 0 1 .132 0c.02.01.038.024.053.042l5.587 5.965a.182.182 0 0 1 0 .251.163.163 0 0 1-.054.051.162.162 0 0 1-.072.019ZM102.018 143.868a.152.152 0 0 1-.111 0c-2.152-1.942-4.191-3.995-6.23-6.105a.193.193 0 0 1 0-.251.18.18 0 0 1 .251 0c1.97 2.095 4.05 4.191 6.188 6.09a.172.172 0 0 1 .037.055.173.173 0 0 1-.037.183.154.154 0 0 1-.098.028ZM106.74 143.868a.139.139 0 0 1-.056.013.132.132 0 0 1-.056-.013l-6.16-6.147a.18.18 0 0 1-.029-.28.183.183 0 0 1 .067-.043.185.185 0 0 1 .156.016.18.18 0 0 1 .057.056l6.146 6.16a.172.172 0 0 1 .05.119.174.174 0 0 1-.05.119.15.15 0 0 1-.063.015.149.149 0 0 1-.062-.015ZM111.364 143.812a.171.171 0 0 1-.126 0l-6.356-6.384a.184.184 0 0 1 0-.251.208.208 0 0 1 .252 0l6.355 6.397a.152.152 0 0 1 0 .238.147.147 0 0 1-.062.013.151.151 0 0 1-.063-.013ZM116.141 143.812a.225.225 0 0 1-.126 0l-6.146-6.161a.168.168 0 0 1-.037-.054.177.177 0 0 1 0-.129.168.168 0 0 1 .037-.054.18.18 0 0 1 .251 0l6.147 6.146a.184.184 0 0 1 0 .252.171.171 0 0 1-.126 0ZM120.374 143.602a.162.162 0 0 1-.126 0l-6.09-6.076a.182.182 0 0 1-.072-.213.183.183 0 0 1 .266-.094.187.187 0 0 1 .057.055l6.021 6.035a.184.184 0 0 1-.056.293ZM124.788 143.505a.171.171 0 0 1-.126 0l-5.951-5.951a.184.184 0 0 1 0-.252.176.176 0 0 1 .053-.041.152.152 0 0 1 .132 0c.02.01.038.024.053.041l5.965 5.965a.164.164 0 0 1 .041.053.152.152 0 0 1 0 .131.168.168 0 0 1-.041.054.171.171 0 0 1-.126 0ZM128.867 143.672a.245.245 0 0 1-.126 0l-5.951-5.951a.187.187 0 0 1-.081-.133.176.176 0 0 1 .01-.079.177.177 0 0 1 .11-.111.185.185 0 0 1 .213.072l5.95 5.951a.18.18 0 0 1 0 .251.24.24 0 0 1-.125 0ZM133.588 143.714a.166.166 0 0 1-.112 0l-6.397-6.049a.18.18 0 0 1-.088-.128.18.18 0 0 1 .006-.08.174.174 0 0 1 .103-.115.183.183 0 0 1 .216.058l6.398 5.965a.177.177 0 0 1 .047.092.178.178 0 0 1-.075.183.182.182 0 0 1-.098.032v.042ZM137.527 143.169a.24.24 0 0 1-.125 0l-5.281-5.392a.195.195 0 0 1 0-.237.18.18 0 0 1 .252 0l5.28 5.266a.185.185 0 0 1 .051.126.185.185 0 0 1-.051.126.249.249 0 0 1-.126.111ZM138.1 139.831a.225.225 0 0 1-.126 0l-2.095-2.152a.18.18 0 0 1 0-.251.194.194 0 0 1 .251 0l2.096 2.151a.184.184 0 0 1 0 .252.171.171 0 0 1-.126 0Z"/><path fill="#fff" d="M236.273 188.065a35.664 35.664 0 0 1 33.009-21.568c19.989 0 33.916 14.947 34.922 33.078 1.481 26.066-17.405 40.72-34.922 40.72a35.621 35.621 0 0 1-29.963-16.33c-6.538-10.253-6.608-26.764-3.046-35.9Z"/><path fill="#07040C" d="M269.281 240.826a36.329 36.329 0 0 1-30.41-16.581c-6.621-10.379-6.747-26.96-3.087-36.32l.489.196-.489-.196a36.314 36.314 0 0 1 33.525-21.903 35.306 35.306 0 0 1 24.949 9.89 35.962 35.962 0 0 1 10.532 23.747c.852 15.157-5.043 24.767-10.141 30.159a35.104 35.104 0 0 1-25.368 11.008Zm0-73.812a35.213 35.213 0 0 0-32.519 21.247c-3.59 9.205-3.241 25.633 2.989 35.411a35.317 35.317 0 0 0 29.53 16.078 34.086 34.086 0 0 0 13.399-2.871 34.082 34.082 0 0 0 11.187-7.913c4.945-5.252 10.686-14.611 9.848-29.335-1.076-18.913-15.562-32.617-34.434-32.617Z"/><path fill="#fff" d="M235.589 185.174a149.891 149.891 0 0 0-12.572-10.435c3.715-.503 7.333-.768 10.951-.978-.922-3.73-1.606-7.403-2.291-11.077a152.184 152.184 0 0 1 12.447 9.778 46.717 46.717 0 0 1 1.299 10.63c-2.906 1.048-6.719 1.216-9.834 2.082Z"/><path fill="#07040C" d="M235.589 185.69a.488.488 0 0 1-.349-.139 172.375 172.375 0 0 0-12.572-10.393.523.523 0 0 1-.182-.545.512.512 0 0 1 .433-.391c3.716-.503 7.292-.768 10.365-.95-.852-3.52-1.509-6.984-2.137-10.477a.513.513 0 0 1 .223-.544.53.53 0 0 1 .587 0 156.41 156.41 0 0 1 12.474 9.778.584.584 0 0 1 .182.307c.084.475.181.964.265 1.397a39.759 39.759 0 0 1 1.048 9.317.544.544 0 0 1-.363.475 34.374 34.374 0 0 1-5.42 1.174c-1.491.21-2.969.499-4.428.866l-.126.125Zm-11.175-10.588a175.58 175.58 0 0 1 11.384 9.485c1.397-.349 2.794-.587 4.261-.81a37.434 37.434 0 0 0 4.903-1.02 39.597 39.597 0 0 0-1.02-8.703l-.251-1.271c-4.191-3.59-7.488-6.286-11.175-8.926.6 3.213 1.243 6.51 2.053 9.778a.6.6 0 0 1-.084.433.543.543 0 0 1-.391.21c-2.947.167-6.272.391-9.75.824h.07Z"/><path fill="#fff" d="M263.191 179.684a25.02 25.02 0 0 1 17.475 2.458 24.699 24.699 0 0 1 11.287 13.466 32.424 32.424 0 0 1 1.467 11.748 20.379 20.379 0 0 1-7.292 14.472 27.044 27.044 0 0 1-16.064 6.817 23.752 23.752 0 0 1-20.646-10.058 25.241 25.241 0 0 1-2.794-22.811c2.78-7.501 8.87-14.36 16.567-16.092Z"/><path fill="#07040C" d="M268.625 229.189a24.393 24.393 0 0 1-19.64-10.322 25.802 25.802 0 0 1-2.794-23.301c3.073-8.381 9.778-14.765 16.916-16.427a25.595 25.595 0 0 1 17.852 2.514 25.145 25.145 0 0 1 11.525 13.76 32.472 32.472 0 0 1 1.494 11.929 20.939 20.939 0 0 1-7.473 14.863 27.475 27.475 0 0 1-16.357 6.984c-.531-.013-1.034 0-1.523 0Zm-5.322-49.016c-6.873 1.564-13.215 7.752-16.162 15.757a24.694 24.694 0 0 0 2.71 22.35 23.154 23.154 0 0 0 20.185 9.778 26.438 26.438 0 0 0 15.771-6.691 19.837 19.837 0 0 0 7.152-14.067 31.21 31.21 0 0 0-1.397-11.538 24.025 24.025 0 0 0-28.147-15.589h-.112Z"/><path fill="#F35A05" d="M265.999 191.096a13.682 13.682 0 0 1 9.415 1.299 13.12 13.12 0 0 1 6.077 7.097c.647 1.995.917 4.094.796 6.188a10.73 10.73 0 0 1-3.925 7.627 14.712 14.712 0 0 1-8.661 3.604 12.945 12.945 0 0 1-11.175-5.308 13.117 13.117 0 0 1-1.495-12.028 13.323 13.323 0 0 1 8.968-8.479Z"/><path fill="#07040C" d="M268.932 217.4a13.448 13.448 0 0 1-10.77-5.588 13.585 13.585 0 0 1-1.564-12.572 13.835 13.835 0 0 1 9.289-8.8 14.23 14.23 0 0 1 9.778 1.397 13.603 13.603 0 0 1 6.314 7.389c.682 2.056.962 4.223.824 6.384a11.169 11.169 0 0 1-4.19 8.018 15.141 15.141 0 0 1-8.94 3.702l-.741.07Zm-2.793-25.843a12.817 12.817 0 0 0-8.535 8.158 12.56 12.56 0 0 0 1.397 11.538 12.317 12.317 0 0 0 10.658 5.071 14.137 14.137 0 0 0 8.381-3.478 10.124 10.124 0 0 0 3.744-7.18 16 16 0 0 0-.755-5.993 12.574 12.574 0 0 0-5.839-6.817 13.215 13.215 0 0 0-9.051-1.243v-.056Z"/><path fill="#07040C" d="M268.345 203.249a.543.543 0 0 1-.349-.139c-13.34-12.139-27.393-23.747-41.753-34.657a.522.522 0 0 1 .236-.935.53.53 0 0 1 .393.097 601.836 601.836 0 0 1 41.823 34.712.532.532 0 0 1 .156.371.522.522 0 0 1-.156.37.571.571 0 0 1-.35.181ZM285.974 218.056h-.083a.18.18 0 0 1-.07-.237 97.444 97.444 0 0 0 4.847-11.706.184.184 0 0 1 .089-.101.183.183 0 0 1 .134-.011.164.164 0 0 1 .106.087.16.16 0 0 1 .006.137 96.984 96.984 0 0 1-4.875 11.761.188.188 0 0 1-.154.07ZM279.507 224.887a.178.178 0 0 1-.09-.102.176.176 0 0 1 .006-.135 173.663 173.663 0 0 0 10.742-25.857.16.16 0 0 1 .032-.062.181.181 0 0 1 .055-.044.175.175 0 0 1 .136-.006.182.182 0 0 1 .112.224 175.705 175.705 0 0 1-10.826 25.884.201.201 0 0 1-.072.07.202.202 0 0 1-.095.028ZM276.196 225.781a.198.198 0 0 1-.098-.224 522.439 522.439 0 0 0 12.167-30.563.182.182 0 0 1 .224-.112.186.186 0 0 1 .1.089c.021.042.025.09.011.134a529.446 529.446 0 0 1-12.18 30.592.174.174 0 0 1-.095.089.158.158 0 0 1-.065.01.158.158 0 0 1-.064-.015ZM283.572 198.43h-.084a.17.17 0 0 1-.089-.094.172.172 0 0 1 .005-.129 102.65 102.65 0 0 0 3.101-7.739.16.16 0 0 1 .032-.062.155.155 0 0 1 .055-.044.16.16 0 0 1 .137-.006.181.181 0 0 1 .098.224 103.108 103.108 0 0 1-3.102 7.766.19.19 0 0 1-.153.084ZM281.309 194.938a.198.198 0 0 1-.098-.224l2.934-7.124a.18.18 0 0 1 .223-.098.195.195 0 0 1 .093.101c.018.043.02.092.005.137l-2.92 7.11a.181.181 0 0 1-.237.098ZM278.99 191.446a.166.166 0 0 1-.097-.091.17.17 0 0 1-.001-.133l2.529-6.202a.17.17 0 0 1 .094-.089.161.161 0 0 1 .065-.01c.022 0 .044.006.064.015a.16.16 0 0 1 .104.088c.01.021.014.045.013.068a.161.161 0 0 1-.019.068l-2.529 6.188a.18.18 0 0 1-.223.098ZM275.302 189.378h-.07a.179.179 0 0 1-.089-.102.176.176 0 0 1 .006-.135 75.297 75.297 0 0 0 2.318-6.217.167.167 0 0 1 .309-.03c.021.04.026.086.013.128-.671 2.123-1.397 4.191-2.319 6.258a.176.176 0 0 1-.07.073.18.18 0 0 1-.098.025ZM271.768 188.065a.147.147 0 0 1-.062-.032.145.145 0 0 1-.042-.056.153.153 0 0 1 .006-.135 51.17 51.17 0 0 0 2.054-6.035.17.17 0 0 1 .142-.129.19.19 0 0 1 .067.003.178.178 0 0 1 .129.143.168.168 0 0 1-.003.067 52.012 52.012 0 0 1-2.067 6.09.193.193 0 0 1-.098.08.194.194 0 0 1-.126.004ZM267.815 188.191a.183.183 0 0 1-.112-.224l1.9-6.677a.184.184 0 0 1 .224-.111c.021.006.04.016.057.03a.171.171 0 0 1 .061.114.159.159 0 0 1-.007.065l-1.899 6.677a.184.184 0 0 1-.224.126ZM263.624 190.174a.167.167 0 0 1-.123-.154.179.179 0 0 1 .011-.069l2.501-7.99a.163.163 0 0 1 .031-.058.183.183 0 0 1 .05-.042.177.177 0 0 1 .063-.019.159.159 0 0 1 .065.007.178.178 0 0 1 .109.086c.024.042.03.091.017.137l-2.5 7.991a.184.184 0 0 1-.224.111ZM258.609 192.116a.175.175 0 0 1-.097-.09.166.166 0 0 1 0-.133l3.366-9.164a.183.183 0 0 1 .224-.112.184.184 0 0 1 .111.224l-3.38 9.177a.178.178 0 0 1-.093.092.18.18 0 0 1-.131.006ZM271.796 227.178h-.084a.179.179 0 0 1-.044-.119c0-.043.015-.085.044-.118a63.897 63.897 0 0 0 3.925-8.689.179.179 0 0 1 .158-.164.168.168 0 0 1 .08.008.18.18 0 0 1 .097.268 65.465 65.465 0 0 1-3.953 8.744.167.167 0 0 1-.223.07ZM268.471 226.94h-.097a.18.18 0 0 1 0-.251 41.714 41.714 0 0 0 3.701-7.767.184.184 0 0 1 .224-.111.18.18 0 0 1 .098.223 41.21 41.21 0 0 1-3.73 7.837.154.154 0 0 1-.084.073.155.155 0 0 1-.112-.004ZM265.189 226.452a.181.181 0 0 1-.059-.04.17.17 0 0 1-.025-.198 97.783 97.783 0 0 0 3.143-7.11.167.167 0 0 1 .157-.111.17.17 0 0 1 .067.013.18.18 0 0 1 .097.224 92.98 92.98 0 0 1-3.157 7.138.158.158 0 0 1-.035.058.161.161 0 0 1-.056.037.156.156 0 0 1-.132-.011ZM256.64 188.582a.182.182 0 0 1-.112-.224l1.397-3.841a.183.183 0 0 1 .224-.112.184.184 0 0 1 .111.224l-1.397 3.841a.195.195 0 0 1-.223.112ZM247.56 209.256a.185.185 0 0 1-.092-.093.185.185 0 0 1-.006-.131 338.207 338.207 0 0 0 6.664-15.743.196.196 0 0 1 .094-.088.197.197 0 0 1 .129-.009.158.158 0 0 1 .058.035.171.171 0 0 1 .04.188 334.348 334.348 0 0 1-6.663 15.757.166.166 0 0 1-.036.058.152.152 0 0 1-.188.026ZM247.127 201.768h-.07a.163.163 0 0 1-.104-.169.178.178 0 0 1 .02-.068 133.62 133.62 0 0 0 4.834-10.211.182.182 0 0 1 .286-.062.165.165 0 0 1 .041.06.16.16 0 0 1-.006.141c-1.397 3.465-3.101 6.985-4.847 10.24a.166.166 0 0 1-.068.055.159.159 0 0 1-.086.014ZM248.943 214.061a.182.182 0 0 1-.098-.223l7.711-18.16a.185.185 0 0 1 .093-.092.185.185 0 0 1 .131-.006.2.2 0 0 1 .093.101.19.19 0 0 1 .004.137l-7.71 18.159a.17.17 0 0 1-.16.1.16.16 0 0 1-.064-.016ZM250.759 217.4a.167.167 0 0 1-.111-.157.17.17 0 0 1 .013-.067l3.883-8.646a.17.17 0 0 1 .16-.1.16.16 0 0 1 .064.016.179.179 0 0 1 .112.168.181.181 0 0 1-.014.069l-3.884 8.633a.17.17 0 0 1-.094.089.176.176 0 0 1-.129-.005ZM253.217 219.928h-.084a.166.166 0 0 1-.088-.094.162.162 0 0 1 .005-.13l3.352-7.403a.144.144 0 0 1 .035-.058.152.152 0 0 1 .124-.046.164.164 0 0 1 .065.02c.021.008.041.02.058.035a.166.166 0 0 1 .039.189l-3.352 7.403a.184.184 0 0 1-.067.06.19.19 0 0 1-.087.024ZM255.76 221.982h-.084a.17.17 0 0 1-.089-.095.177.177 0 0 1 .005-.129l2.794-6.258a.184.184 0 0 1 .102-.09.185.185 0 0 1 .135.006.18.18 0 0 1 .084.238l-2.794 6.244a.152.152 0 0 1-.065.063.169.169 0 0 1-.088.021ZM258.512 223.909h-.07a.17.17 0 0 1-.089-.094.161.161 0 0 1-.01-.065c0-.022.006-.044.015-.064l2.794-6.244a.178.178 0 0 1 .102-.09.176.176 0 0 1 .135.006.181.181 0 0 1 .084.237l-2.794 6.23a.166.166 0 0 1-.167.084ZM261.85 226.046h-.084a.177.177 0 0 1-.089-.101.178.178 0 0 1 .006-.136l2.877-6.384a.184.184 0 0 1 .102-.09.188.188 0 0 1 .136.006c.02.009.038.022.053.039a.143.143 0 0 1 .035.056.16.16 0 0 1 .011.065.176.176 0 0 1-.015.064l-2.878 6.384a.184.184 0 0 1-.154.097Z"/><path fill="#07040C" d="M232.446 174.571c.6-.936 1.522-.642 2.221 0 .698.643 1.285.992 1.941 1.397 2.794 2.151 5.7 4.009 7.809 5.881a1.119 1.119 0 0 1-.046 1.379 1.112 1.112 0 0 1-1.351.283c-2.528-2.011-5.196-3.827-7.822-5.727-.699-.475-1.397-.992-2.054-1.397a1.395 1.395 0 0 1-.698-1.816ZM265.021 216.38a6.723 6.723 0 0 0 3.534.251 29.34 29.34 0 0 0 3.674-.279 11.742 11.742 0 0 0 7.756-4.468 11.742 11.742 0 0 0 2.357-8.635 20.359 20.359 0 0 0-.53-3.31l-.21-.783a1.091 1.091 0 0 0-.768 1.327 8.508 8.508 0 0 1-.866 6.049 9.948 9.948 0 0 1-2.501 3.618 14.117 14.117 0 0 1-5.462 3.171c-2.071.46-4.213.498-6.299.112-.803-.2-1.588-.467-2.347-.797h-.098.084c-.741-.279-1.397-1.089-2.305-.768a1.202 1.202 0 0 0-.74 1.565c.223.614.908.935 1.396 1.313a20.851 20.851 0 0 0 2.878 1.62.643.643 0 0 1 .447.014ZM275.288 239.317a35.3 35.3 0 0 1-6.342.978v-.154c.06-.287.01-.586-.139-.838l-.168-.237a3.812 3.812 0 0 0-.405-.908 43.151 43.151 0 0 0 2.5-.447 35.71 35.71 0 0 0 7.334-2.068c1.9-.81 3.855-1.481 5.727-2.347a46.038 46.038 0 0 0 6.538-3.981c3.506-2.793 5.978-4.931 7.445-8.381a38.026 38.026 0 0 0 4.037-10.016l.098-.405.126-.489a.863.863 0 0 1 .307-.586.919.919 0 0 1 1.367.252.931.931 0 0 1 .128.502 23.17 23.17 0 0 1-.755 3.897 37.535 37.535 0 0 1-2.654 6.566 28.742 28.742 0 0 1-2.179 4.288 22.528 22.528 0 0 1-4.568 4.847 28.095 28.095 0 0 1-2.654 2.165.904.904 0 0 1 .532.682.9.9 0 0 1-.294.813 32.29 32.29 0 0 1-9.066 4.931 27.171 27.171 0 0 1-4.833 1.327c-.587 0-1.272.307-1.802 0a1.078 1.078 0 0 1-.28-.391Z" opacity=".13"/><path fill="#07040C" d="M293.56 200.134a1.477 1.477 0 0 0-.266 0c-.95 0-1.201.88-1.131 1.691.07.81 0 1.774 0 2.668a20.582 20.582 0 0 1-.824 4.819c-1.579 4.805-1.942 4.931-4.512 7.822a19.142 19.142 0 0 1-3.423 3.479c-.992.614-1.969 1.257-2.989 1.857-.906.515-1.839.981-2.794 1.397-.642.196-1.397.405-2.235.615a.611.611 0 0 1-.433.587 27.81 27.81 0 0 1-4.54.782 34.866 34.866 0 0 1-4.512.196 39.171 39.171 0 0 1-6.244-.615 1.48 1.48 0 0 0 .685 1.732 22.643 22.643 0 0 0 8.493 1.704 27.025 27.025 0 0 0 7.166-1.047 18.4 18.4 0 0 0 8.381-4.331l-.293.224c1.089-.852.726-.531 1.718-1.327a38.987 38.987 0 0 0 5.224-5.811 26.153 26.153 0 0 0 2.906-7.711l.125-.503c-.139-2.822-.251-5.532-.502-8.228ZM245.255 183.316a4.188 4.188 0 0 0-1.746.251c-2.207.657-4.484.866-6.733 1.299h.419c-.363 0-.726.084-1.103.112a1.838 1.838 0 0 0-.825-.209h-.097c-.769-.503-3.129-2.682-4.582-3.94-1.648-1.508-3.353-2.933-5.085-4.344-.74-.489-1.397-1.397-2.305-1.397a1.525 1.525 0 0 0-1.479 1.808c.055.293.196.563.404.776 2.528 1.984 4.959 4.079 7.347 6.23a37.251 37.251 0 0 0 3.912 3.213c.194.122.4.225.614.308a1.395 1.395 0 0 0 1.299.768 25.136 25.136 0 0 0 8.759-1.844c.67-.321 1.606-.251 2.011-.978a1.392 1.392 0 0 0-.26-1.744 1.377 1.377 0 0 0-.55-.309Z" opacity=".13"/><path fill="#fff" d="M591.32 391.073a5.292 5.292 0 0 0 2.067-5.448 4.509 4.509 0 0 0-4.33-2.989 5.695 5.695 0 0 0-4.61 2.794 9.07 9.07 0 0 0-5.589-9.018 9.08 9.08 0 0 0-12.146 5.717 9.072 9.072 0 0 0-.34 3.734 4.013 4.013 0 0 0-3.982-2.878 7.713 7.713 0 0 0-4.805 2.04 5.88 5.88 0 0 0-2.319 3.548 4.962 4.962 0 0 0 3.59 4.875c2.068.74 27.449 1.648 32.464-2.375Z"/><path fill="#07040C" d="M570.352 394.621c-3.899.106-7.8-.109-11.664-.642-2.151-.741-4.274-2.906-3.939-5.448a6.184 6.184 0 0 1 2.501-3.883 8.142 8.142 0 0 1 5.126-2.166 4.888 4.888 0 0 1 3.464 1.397 9.788 9.788 0 0 1 2.403-5.266 9.51 9.51 0 0 1 6.901-3.436 9.614 9.614 0 0 1 7.068 3.101 9.862 9.862 0 0 1 2.724 5.685 5.993 5.993 0 0 1 4.093-1.858h.07a4.988 4.988 0 0 1 4.749 3.353 5.795 5.795 0 0 1-2.235 6.006c-2.794 2.249-11.175 2.934-17.67 3.101-1.16.042-2.389.056-3.591.056Zm-7.976-11.091a7.11 7.11 0 0 0-4.456 1.928 5.212 5.212 0 0 0-2.137 3.213 4.481 4.481 0 0 0 3.241 4.316c4.954.594 9.948.776 14.932.545 8.968-.238 15.017-1.257 17.042-2.864a4.816 4.816 0 0 0 1.886-4.889 3.933 3.933 0 0 0-3.813-2.612 5.118 5.118 0 0 0-4.191 2.57.543.543 0 0 1-.615.224.537.537 0 0 1-.363-.531 8.542 8.542 0 0 0-5.292-8.377 8.546 8.546 0 0 0-11.381 5.289 8.543 8.543 0 0 0-.369 3.479.543.543 0 0 1-.433.587.534.534 0 0 1-.6-.419 3.505 3.505 0 0 0-3.465-2.459h.014Z"/><path fill="#07040C" d="M592.759 387.399a1.4 1.4 0 0 0-1.816.336 10.14 10.14 0 0 1-1.579.963h-.307c-.883.289-1.784.522-2.696.699l-.698.112c-3.004.321-6.021.517-9.038.642-3.453.27-6.917.359-10.379.266a15.752 15.752 0 0 1-5.769-.587 5.59 5.59 0 0 1-2.068-.922c-.447-.251-.852-.657-1.397-.671a1.73 1.73 0 0 0-1.853 1.148 1.73 1.73 0 0 0 .736 2.051 16.44 16.44 0 0 0 10.113 2.473c2.529 0 5.071 0 7.613-.07 4.093-.377 8.228-.447 12.279-1.173a17.975 17.975 0 0 0 4.596-1.495c.687-.32 1.338-.714 1.942-1.173.321-.28.754-.489.894-.908a1.4 1.4 0 0 0-.573-1.691Z" opacity=".13"/></svg>