<svg xmlns="http://www.w3.org/2000/svg" width="21" height="24" fill="none"><g clip-path="url(#a)"><path fill="#F35A05" d="M0 24h21V6.545L13.816 0H0v24Z"/><path fill="#fff" d="m6.354 8.667-.111-.994a1 1 0 0 0-.889.994h1Zm-1 7.666a1 1 0 1 0 2 0h-2ZM4.87 13.5a1 1 0 1 0 0 2v-2Zm2.969 2a1 1 0 1 0 0-2v2Zm4.442-3c0 3.047-2.442 5.5-5.432 5.5v2c4.114 0 7.432-3.368 7.432-7.5h-2ZM6.85 18c-2.99 0-5.432-2.453-5.432-5.5h-2c0 4.132 3.317 7.5 7.432 7.5v-2Zm-5.432-5.5c0-3.047 2.442-5.5 5.432-5.5V5C2.734 5-.583 8.368-.583 12.5h2ZM6.849 7c2.99 0 5.432 2.453 5.432 5.5h2c0-4.132-3.318-7.5-7.432-7.5v2ZM5.354 8.667V12h2V8.667h-2Zm0 3.333v4.333h2V12h-2Zm1 0-.218.976h.002l.005.001.012.003a3.14 3.14 0 0 0 .157.03c.1.017.238.038.404.055.323.033.782.055 1.262-.012.469-.066 1.055-.23 1.537-.65.52-.453.808-1.105.808-1.903h-2c0 .285-.084.362-.12.394-.075.065-.23.14-.503.178a3.344 3.344 0 0 1-.78.004 4.14 4.14 0 0 1-.336-.05c-.007 0-.011-.002-.013-.002H6.57h.002L6.355 12Zm3.969-1.5c0-.798-.285-1.444-.763-1.914-.451-.443-1.01-.667-1.477-.785-.474-.12-.93-.15-1.256-.153a5.89 5.89 0 0 0-.577.024h-.006l.11.995c.112.993.111.993.111.994h-.002c-.001 0-.001 0 0 0a1.193 1.193 0 0 1 .079-.006c.062-.004.154-.008.267-.007.231.003.517.025.785.092.274.07.458.169.564.273.079.077.165.201.165.487h2Zm-5.453 5h2.969v-2h-2.97v2Z"/></g><defs><clipPath id="a"><path fill="#fff" d="M0 0h21v24H0z"/></clipPath></defs></svg>