<svg xmlns="http://www.w3.org/2000/svg" width="21" height="24" fill="none"><g clip-path="url(#a)"><path fill="#F35A05" d="M0 24h21V6.545L13.816 0H0v24Z"/><path stroke="#fff" stroke-linecap="round" stroke-linejoin="round" stroke-width="2" d="M6.337 6H1.866c-.8 0-1.45.656-1.45 1.464v4.518c0 .389.153.761.425 1.036l5.283 5.339a2.157 2.157 0 0 0 3.074 0l3.447-3.483a2.213 2.213 0 0 0 0-3.106L7.36 6.428A1.441 1.441 0 0 0 6.337 6Z"/><ellipse cx="3.385" cy="9" fill="#fff" rx=".99" ry="1"/></g><defs><clipPath id="a"><path fill="#fff" d="M0 0h21v24H0z"/></clipPath></defs></svg>