<svg xmlns="http://www.w3.org/2000/svg" width="100" height="100" fill="none"><path fill="#F35A05" fill-rule="evenodd" d="M21.214 16.03a6.183 6.183 0 0 0-6.183 6.184V73.74a6.183 6.183 0 0 0 6.183 6.184h56.68a6.183 6.183 0 0 0 6.184-6.184V22.214a6.183 6.183 0 0 0-6.184-6.184h-56.68ZM70.68 71.68H27.397a4.122 4.122 0 0 1-4.122-4.122s-1.546-3.092-1.546-5.153c0-2.06 1.546-4.637 1.546-4.637v-18.55s-1.03-3.092-1.03-5.153c0-2.061 1.03-4.637 1.03-4.637a5.153 5.153 0 0 1 5.153-5.153H70.68a5.153 5.153 0 0 1 5.153 5.152v37.1a5.153 5.153 0 0 1-5.153 5.153Z" clip-rule="evenodd"/><path fill="#000" d="m25.624 25.17-.828 1.379a1 1 0 0 0 .303 1.346l.307.205a1 1 0 0 1 .446.832V39.463a.786.786 0 0 1-.786.785.786.786 0 0 0-.786.76l-.468 14.058a1 1 0 0 0 .552.927l.935.468a1 1 0 0 1 .553.894v9.274a1 1 0 0 1-.293.707l-.595.594a1 1 0 0 0-.048 1.362l2.42 2.794a1 1 0 0 0 .804.344l2.475-.118c.896-.042 1.287-1.15.617-1.746l-2.468-2.194a1 1 0 0 1-.336-.748v-10.61a1 1 0 0 0-.143-.514l-1.26-2.102a1 1 0 0 1-.143-.514V43.576a1 1 0 0 1 .106-.447l.819-1.639a1 1 0 0 0 .106-.447V28.52c0-.083.01-.164.03-.243l.418-1.673a1 1 0 0 1 .263-.465l.045-.045c.7-.7.067-1.882-.903-1.688l-1.48.296a1 1 0 0 0-.662.466ZM63.467 52.615c-1.417.472-4.131-.786-4.576-1a1.07 1.07 0 0 0-.13-.053l-1.08-.36c-.718-.24-1.366.508-1.028 1.184.075.15.193.274.338.357l3.229 1.845a1 1 0 0 0 .331.118l2.564.427a1 1 0 0 0 .66-.118l2.967-1.695a1 1 0 0 0 .453-.552l1.288-3.866a.882.882 0 0 0-1.602-.716l-1.304 2.282c-.033.057-.06.117-.084.178-.139.34-.707 1.53-2.026 1.97Z" opacity=".13"/><path fill="#333" d="M85.066 32.608v-2.672c0-2.032-.097-4.176 0-6.18.151-1.78-.106-3.57-.751-5.234-1.281-2.603-4.176-2.854-6.557-3.063-1.85-.153-3.855-.236-6.32-.236h-8.824c-2.52 0-5.04 0-7.559-.112-2.269 0-4.523-.111-6.806-.111-5.443 0-10.997.111-16.356.209l-7.183.125h-.988c-2.784 0-5.93 0-7.837 2.31-1.907 2.311-1.81 5.875-1.726 9.02v2.075c-.07 4.357 0 8.797 0 13.084 0 5.164 0 10.496-.097 15.743 0 3.327-.14 7.183 0 10.983v1.837c-.19 2.45.143 4.913.974 7.225 1.28 2.644 3.814 2.867 6.292 2.867h.668v.446c-.111 1.53-.25 3.605.766 4.412a4.83 4.83 0 0 0 2.895.627H31.28a4.65 4.65 0 0 0 2.868-.655 1.907 1.907 0 0 0 .64-1.392c.05-.736.05-1.476 0-2.213v-1.308h3.926c4.76 0 9.59.18 14.281.334 3.995.125 8.13.25 12.194.306v.14c-.084 1.391-.195 3.382.78 4.175a4.83 4.83 0 0 0 2.895.627H74.487a4.65 4.65 0 0 0 2.868-.655 1.88 1.88 0 0 0 .626-1.392 13.31 13.31 0 0 0 0-2.24v-.78c3.09-.25 5.025-1.03 5.916-2.367.483-.89.714-1.896.668-2.909v-.264c.112-1.977.125-4.01.14-5.972V66.42l.166-8.546c.154-8.213.279-16.815.195-25.265Zm-2.088 35.983v2.297c0 1.503 0 3.062-.097 4.58-.209 3.632-4.399 3.785-7.475 3.91h-.89c-1.824.084-3.745.14-5.833.14-3.94 0-7.935-.167-11.818-.334-3.09-.126-6.278-.25-9.41-.293H44.77c-2.784 0-5.568 0-8.352.112-2.784.111-5.568.111-8.352.111-2.784 0-5.568-.07-7.865-.195-4.287-.236-4.384-4.524-4.468-7.976v-.96c-.111-2.965-.167-5.457-.125-7.976.14-8.783.209-16.55.209-23.733 0-3.967 0-8.658.125-13.28.111-3.967.557-7.294 4.997-7.78a29.142 29.142 0 0 1 3.271-.14h2.478l5.93-.111c5.108-.098 10.384-.195 15.576-.195h9.619c4.175 0 8.463.07 12.806.083h3.062a27.56 27.56 0 0 1 6.027.515c3.856.85 3.689 4.747 3.564 8.171v2.353c.25 8.449.11 17.037 0 25.347l-.293 15.354ZM71.76 84.278h-1.921a7.384 7.384 0 0 1-1.615-.139c-1.53-.362-1.489-1.587-1.392-2.993H76.255a4.482 4.482 0 0 1-.376 2.576c-.404.542-1.517.612-2.31.612H72.51l-.752-.056Zm-43.151 0h-1.921a7.179 7.179 0 0 1-1.6-.139c-1.1-.264-1.17-.431-1.393-1.573a8.357 8.357 0 0 1 0-1.768v-.236h9.438v.612a4.635 4.635 0 0 1-.39 2.59c-.404.542-1.517.612-2.31.612h-1.058l-.766-.098Z"/><path fill="#333" d="M76.046 39.777v-4.175c0-1.768-.083-3.592 0-5.387v-.432a7.642 7.642 0 0 0-1.016-4.941c-1.392-1.726-4.37-1.921-6.472-1.921H48.402c-3.842 0-7.74.083-11.512.153l-5.094.097c-4.051.07-7.726.46-8.352 4.44a2.13 2.13 0 0 0-1.865.905c-.683 1.128-.543 3.327-.446 4.942v2.324c0 1.546-.153 3.453.627 4.427.394.411.933.651 1.503.668v2.269c0 4.037 0 8.213-.084 12.319a2.004 2.004 0 0 0-1.614.89c-.682 1.128-.543 3.328-.446 4.942v2.325c0 1.545-.153 3.452.627 4.426a2.38 2.38 0 0 0 1.684.696c.612 3.703 3.34 4.176 6.194 4.176h2.032l1.824-.07h4.941c5.568 0 11.136.07 16.593.21l3.674.125c2.186.083 4.455.167 6.682.167h2.784a13.475 13.475 0 0 0 5.568-.877 3.188 3.188 0 0 0 1.907-2.534c.41-2.212.508-4.47.292-6.709 0-1.044-.084-2.06 0-2.993 0-1.795 0-3.605.097-5.414-.055-4.886.042-10.037.028-15.048Zm-1.879 21.548a34.8 34.8 0 0 1-.18 6.166c-.432 2.784-1.281 3.647-3.773 3.94a43.5 43.5 0 0 1-4.858.236h-.334c-3.452 0-6.96-.11-10.342-.236-2.7-.084-5.415-.181-8.13-.209-2.714-.028-5.567 0-8.351 0h-1.392c-.53 0-1.197 0-1.949.084-.974 0-2.088.125-3.202.125-3.939 0-6.069-.85-6.64-2.673h.335c1.016-.153 1.225-.46 1.392-1.392.142-1.154.165-2.32.07-3.48v-2.979c.198-1.392.127-2.81-.21-4.175a2.13 2.13 0 0 0-1.934-1.225c.083-4.107.083-8.283.083-12.32v-2.296l.585-.07c1.016-.153 1.225-.459 1.392-1.392.142-1.154.166-2.32.07-3.48V32.971c.198-1.393.127-2.81-.21-4.176a1.921 1.921 0 0 0-1.656-1.183c.557-2.492 3.188-2.784 5.944-2.784h1.893l8.352-.14h6.57c2.185 0 4.176 0 6.32.07h9.841c1.81 0 3.299 0 4.69.084h.836a7.294 7.294 0 0 1 2.979.431c1.767.89 1.781 2.339 1.795 4.009v.46c0 3.131.084 6.291.098 9.423 0 4.816-.07 9.744-.167 14.476l.041 4.65c-.013.974.014 2.004.042 3.034ZM23.68 67.074c-.18 0-.723 0-.835-1.17a8.643 8.643 0 0 1-.153-2.519v-1.907c-.111-1.893-.25-4.176 1.712-4.398 1.003.125.835 3.521.766 4.983v1.74a10.766 10.766 0 0 1 0 3.09c-.273.093-.56.14-.85.14H24a1.668 1.668 0 0 1-.32.04Zm1.392-32.85V35.962a10.759 10.759 0 0 1 0 3.09 2.59 2.59 0 0 1-.849.14h-.32a1.68 1.68 0 0 1-.334 0c-.18 0-.724 0-.835-1.17a8.645 8.645 0 0 1-.153-2.519v-1.907c-.112-1.893-.25-4.176 1.712-4.399 1.086.168.919 3.564.849 5.026h-.07Z"/><path fill="#333" d="M63.574 40.64a8.913 8.913 0 0 0-1.823-.195 6.793 6.793 0 0 0-6.96 4.914 7.975 7.975 0 0 0 5.568 10.147 9.743 9.743 0 0 0 2.561.39c3.369 0 5.693-2.339 6.542-6.57.85-4.232-1.406-7.35-5.888-8.686Zm4.176 6.445a.765.765 0 0 0-.612.264.89.89 0 0 0-.209.571.793.793 0 0 0 .821.835h.126a8.95 8.95 0 0 1-1.184 3.605 4.635 4.635 0 0 1-3.814 1.824v-.334a.722.722 0 0 0-.194-.57.822.822 0 0 0-.599-.251.849.849 0 0 0-.877.807c-.005.065-.005.13 0 .195a3.297 3.297 0 0 1-.501-.125 5.874 5.874 0 0 1-4.426-5.15h.18a.696.696 0 0 0 .613-.794.919.919 0 0 0-.821-.822v-.473a5.054 5.054 0 0 1 4.788-4.398v.209a.835.835 0 0 0 1.67 0v-.154a2.22 2.22 0 0 1 .32 0c2.047.613 4.51 1.935 4.761 4.83l-.042-.07Z"/><path fill="#000" d="M48.044 55.784a.163.163 0 0 1-.125-.021.187.187 0 0 1-.046-.252 40.477 40.477 0 0 1 3.683-5.364.181.181 0 0 1 .326.067.175.175 0 0 1-.03.132 39.278 39.278 0 0 0-3.695 5.329.175.175 0 0 1-.113.11ZM47.583 62.114a.168.168 0 0 1-.133-.033.181.181 0 0 1-.047-.252c2.045-3.024 4.18-6.04 6.339-8.97a.18.18 0 0 1 .268-.061.182.182 0 0 1 .019.274 292.77 292.77 0 0 0-6.322 8.962.18.18 0 0 1-.124.08ZM48.12 68.363a.162.162 0 0 1-.125-.022.18.18 0 0 1-.047-.251 154.738 154.738 0 0 1 7.236-11.13.18.18 0 0 1 .251-.047.187.187 0 0 1 .047.252 150.484 150.484 0 0 0-7.22 11.108.174.174 0 0 1-.143.09ZM54.016 65.53a.175.175 0 0 1-.125-.022.187.187 0 0 1-.047-.251 50.04 50.04 0 0 1 4.282-6.42.181.181 0 0 1 .252-.047.188.188 0 0 1 .047.252 49.847 49.847 0 0 0-4.246 6.375.182.182 0 0 1-.163.113ZM59.736 63.605a.2.2 0 0 1-.139-.025.187.187 0 0 1-.046-.252l2.078-3.12a.187.187 0 0 1 .252-.046.181.181 0 0 1 .047.252l-2.086 3.114a.17.17 0 0 1-.106.077Z"/><path fill="#333" d="M78.69 19.928a.875.875 0 0 0-.264 0 .793.793 0 0 0-.751.724.807.807 0 0 0 .57.932c1.866.585 1.893 3.69 1.907 5.75v1.182c.126 2.033.181 4.176.14 6.682a.821.821 0 0 0 .208.57.863.863 0 0 0 .613.237.82.82 0 0 0 .849-.807 70.33 70.33 0 0 0-.57-11.233c-.251-2.019-.822-3.439-2.701-4.037ZM75.086 20.818a.793.793 0 0 0 .807-.835.808.808 0 0 0-.877-.835.793.793 0 0 0-.807.835.89.89 0 0 0 .195.571.766.766 0 0 0 .682.264ZM65.064 46.264c.064-.302.101-.61.11-.919a.793.793 0 0 0-.25-.598.821.821 0 0 0-.57-.25h-.251a4.943 4.943 0 0 1-.89.236c-.201.027-.397.079-.586.153a2.782 2.782 0 0 0-.946-.167 2.659 2.659 0 0 0-1.67.585 4.065 4.065 0 0 0-1.392 2.227 3.202 3.202 0 0 0 .89 2.7 3.34 3.34 0 0 0 2.617 1.28c.726.002 1.43-.249 1.99-.709a3.34 3.34 0 0 0 .878-3.87c.011-.224.034-.447.07-.668Zm-1.615 2.645a1.656 1.656 0 0 1-1.392.96 1.603 1.603 0 0 1-1.295-.71 1.615 1.615 0 0 1 .112-2.31c.253-.26.598-.409.96-.418a1.49 1.49 0 0 1 1.183.654l.112.14a1.517 1.517 0 0 1 .32 1.684Z"/></svg>