<svg width="100" height="100" viewBox="0 0 100 100" fill="none" xmlns="http://www.w3.org/2000/svg">
<path fill-rule="evenodd" clip-rule="evenodd" d="M21.2138 16.0303C17.7989 16.0303 15.0305 18.7986 15.0305 22.2136V73.7413C15.0305 77.1562 17.7989 79.9246 21.2138 79.9246H77.8943C81.3092 79.9246 84.0776 77.1562 84.0776 73.7413V22.2136C84.0776 18.7986 81.3092 16.0303 77.8943 16.0303H21.2138ZM70.6804 71.6802H27.3972C25.1205 71.6802 23.2749 69.8346 23.2749 67.558C23.2749 67.558 21.7291 64.4663 21.7291 62.4052C21.7291 60.3441 23.2749 57.7677 23.2749 57.7677V39.2177C23.2749 39.2177 22.2444 36.1261 22.2444 34.065C22.2444 32.0039 23.2749 29.4275 23.2749 29.4275C23.2749 26.5817 25.5819 24.2747 28.4277 24.2747H70.6804C73.5262 24.2747 75.8332 26.5817 75.8332 29.4275V66.5274C75.8332 69.3732 73.5262 71.6802 70.6804 71.6802Z" fill="#F35A05"/>
<g opacity="0.13">
<path d="M25.6239 25.1694L24.7963 26.5488C24.5216 27.0066 24.6549 27.5993 25.0991 27.8954L25.4062 28.1001C25.6844 28.2856 25.8515 28.5978 25.8515 28.9322V34.0651V39.4626C25.8515 39.8966 25.4997 40.2484 25.0657 40.2484C24.6419 40.2484 24.2945 40.5844 24.2804 41.008L23.8118 55.0657C23.7988 55.4563 24.0145 55.8187 24.364 55.9935L25.2987 56.4608C25.6375 56.6302 25.8515 56.9765 25.8515 57.3553V66.6286C25.8515 66.8938 25.7462 67.1481 25.5586 67.3357L24.9641 67.9302C24.5931 68.3012 24.5719 68.8958 24.9155 69.2922L27.3369 72.0861C27.5377 72.3179 27.8338 72.4447 28.1401 72.4301L30.6153 72.3122C31.5106 72.2696 31.902 71.1614 31.2321 70.5659L28.7635 68.3717C28.55 68.1819 28.4279 67.9099 28.4279 67.6243V57.0142C28.4279 56.833 28.3786 56.6551 28.2854 56.4997L27.0246 54.3984C26.9313 54.2429 26.8821 54.0651 26.8821 53.8839V43.5761C26.8821 43.4209 26.9182 43.2677 26.9876 43.1289L27.807 41.4901C27.8765 41.3512 27.9126 41.1981 27.9126 41.0429V35.6109V28.5201C27.9126 28.4384 27.9226 28.3569 27.9425 28.2776L28.3607 26.6046C28.4047 26.4288 28.4956 26.2682 28.6238 26.14L28.6689 26.0949C29.3685 25.3953 28.7358 24.2132 27.7656 24.4072L26.2853 24.7033C26.009 24.7586 25.7689 24.9278 25.6239 25.1694Z" fill="black"/>
</g>
<g opacity="0.13">
<path d="M63.4667 52.6153C62.0501 53.0875 59.3355 51.8289 58.8914 51.6151C58.8487 51.5945 58.8067 51.5772 58.7618 51.5623L57.6801 51.2017C56.9632 50.9628 56.3153 51.7098 56.6533 52.3856C56.7281 52.5354 56.8457 52.6596 56.9911 52.7427L60.2197 54.5877C60.3225 54.6464 60.4348 54.6864 60.5515 54.7058L63.1154 55.1331C63.3426 55.171 63.5759 55.1293 63.7759 55.015L66.7419 53.3201C66.9555 53.1981 67.1167 53.0015 67.1945 52.7681L68.4831 48.9022C68.5691 48.6441 68.5312 48.3607 68.3803 48.1343C68.0167 47.5889 67.2063 47.6168 66.8811 48.1859L65.5769 50.4682C65.5443 50.5254 65.5177 50.585 65.4929 50.646C65.3543 50.9858 64.7856 52.1757 63.4667 52.6153Z" fill="black"/>
</g>
<path d="M85.0662 32.6084C85.0662 31.7176 85.0662 30.8267 85.0662 29.9358C85.0662 27.9036 84.9688 25.7599 85.0662 23.7555C85.2171 21.9764 84.96 20.1864 84.3146 18.5217C83.0339 15.9187 80.1386 15.6681 77.7584 15.4594C75.9071 15.3062 73.9026 15.2227 71.4388 15.2227C69.9216 15.2227 68.3904 15.2227 66.8732 15.2227H64.8966H62.6138C60.0943 15.2227 57.5748 15.2227 55.0554 15.1114C52.7864 15.1114 50.5315 15 48.2486 15C42.806 15 37.2521 15.1114 31.893 15.2088L24.7104 15.3341H23.7221C20.9382 15.3341 17.7923 15.3341 15.8853 17.6448C13.9783 19.9554 14.0758 23.5189 14.1593 26.6647C14.1593 27.3885 14.1593 28.0567 14.1593 28.7387C14.0897 33.0956 14.1593 37.536 14.1593 41.8233C14.1593 46.9875 14.1593 52.3187 14.0619 57.5664C14.0619 60.8932 13.9227 64.749 14.0619 68.5491C14.0619 69.1337 14.0619 69.7462 14.0619 70.3865C13.8725 72.8364 14.2046 75.2986 15.0362 77.6108C16.3169 80.2555 18.8502 80.4782 21.3279 80.4782H21.9961V80.9237C21.8847 82.4548 21.7455 84.5289 22.7617 85.3362C23.6373 85.8431 24.6501 86.0622 25.657 85.9626C26.2834 85.9626 26.9237 85.9626 27.4804 85.9626C28.0372 85.9626 28.2878 85.9626 28.6358 85.9626H29.7354C30.2226 85.9626 30.7516 85.9626 31.2805 85.9626C32.282 86.0606 33.2881 85.831 34.148 85.3084C34.3452 85.1332 34.5039 84.9191 34.6141 84.6795C34.7243 84.4399 34.7836 84.1801 34.7883 83.9164C34.8372 83.1795 34.8372 82.4401 34.7883 81.7032C34.7883 81.2577 34.7883 80.8123 34.7883 80.3947H38.7136C43.4742 80.3947 48.3043 80.5757 52.9952 80.7288C56.9902 80.8541 61.1243 80.9793 65.1889 81.035V81.1742C65.1054 82.5662 64.994 84.5567 65.9684 85.3501C66.8441 85.857 67.8568 86.0761 68.8637 85.9765C69.4901 85.9765 70.1304 85.9765 70.6872 85.9765C71.244 85.9765 71.4945 85.9765 71.8425 85.9765H72.9422C73.4294 85.9765 73.9583 85.9765 74.4872 85.9765C75.4887 86.0745 76.4949 85.8449 77.3547 85.3223C77.5507 85.147 77.7077 84.9325 77.8156 84.6928C77.9235 84.453 77.9799 84.1933 77.9811 83.9303C78.0441 83.1846 78.0441 82.4349 77.9811 81.6892C77.9811 81.4387 77.9811 81.1742 77.9811 80.9097C81.0713 80.6592 83.0061 79.8797 83.897 78.5434C84.3803 77.6525 84.6113 76.6466 84.5651 75.6342V75.3697C84.6765 73.3931 84.6904 71.3609 84.7043 69.3982C84.7043 68.4099 84.7043 67.4076 84.7043 66.4193L84.8713 57.8727C85.0245 49.6601 85.1497 41.0577 85.0662 32.6084ZM82.9783 68.5908C82.9783 69.3564 82.9783 70.122 82.9783 70.8876C82.9783 72.3909 82.9783 73.9499 82.8808 75.4671C82.672 79.1002 78.4822 79.2533 75.406 79.3786H74.5151C72.6916 79.4621 70.7707 79.5178 68.6827 79.5178C64.7435 79.5178 60.7485 79.3508 56.8649 79.1837C53.7747 79.0584 50.5871 78.9331 47.4552 78.8914H44.7687C41.9848 78.8914 39.2008 78.8914 36.4169 79.0028C33.633 79.1141 30.849 79.1141 28.0651 79.1141C25.2811 79.1141 22.4972 79.0445 20.2004 78.9192C15.9132 78.6826 15.8157 74.3953 15.7322 70.9432V69.9828C15.6209 67.0179 15.5652 64.5263 15.607 62.0068C15.7461 53.2235 15.8157 45.4563 15.8157 38.2737C15.8157 34.3066 15.8157 29.6157 15.941 24.9943C16.0524 21.0272 16.4978 17.7004 20.9382 17.2132C22.0251 17.1055 23.1172 17.0591 24.2093 17.074H26.687L32.6168 16.9627C37.7253 16.8652 43.0009 16.7678 48.1929 16.7678H57.8115C61.9874 16.7678 66.2746 16.8374 70.6176 16.8513H73.6799C75.7018 16.8013 77.723 16.9741 79.7071 17.3664C83.5629 18.2155 83.3959 22.113 83.2706 25.5372C83.2706 26.3585 83.2706 27.1519 83.2706 27.8896C83.5211 36.3389 83.3819 44.9273 83.2706 53.2374L82.9783 68.5908ZM71.759 84.2783H70.9238H69.8381C69.2964 84.2913 68.7549 84.2446 68.2234 84.1391C66.6922 83.7772 66.734 82.5523 66.8314 81.1464H68.808C70.0886 81.1464 71.3553 81.1464 72.622 81.1464H74.4316H76.2551C76.3872 82.0231 76.2564 82.9192 75.8792 83.7215C75.4755 84.2644 74.362 84.334 73.5686 84.334H72.5107L71.759 84.2783ZM28.6079 84.2783H27.7728H26.687C26.1499 84.2919 25.613 84.2453 25.0863 84.1391C23.9866 83.8747 23.917 83.7076 23.6943 82.5662C23.6318 81.9786 23.6318 81.386 23.6943 80.7984V80.5618H33.1318C33.1318 80.7566 33.1318 80.9654 33.1318 81.1742C33.2534 82.0568 33.1181 82.9556 32.7421 83.7633C32.3384 84.3061 31.2248 84.3757 30.4314 84.3757H29.3735L28.6079 84.2783Z" fill="#333333"/>
<path d="M76.0463 39.7774C76.0463 38.3854 76.0463 36.9935 76.0463 35.6015C76.0463 33.8337 75.9628 32.0102 76.0463 30.2146V29.7831C76.2768 28.0684 75.9185 26.3262 75.0302 24.8416C73.6382 23.1155 70.6594 22.9207 68.5575 22.9207C67.778 22.9207 67.0264 22.9207 66.3443 22.9207H64.7992H64.145C61.542 22.9207 58.939 22.9207 56.3221 22.9207C53.7052 22.9207 51.1022 22.9207 48.4018 22.9207C44.56 22.9207 40.6625 23.0042 36.8902 23.0738L31.7956 23.1712C27.745 23.2408 24.0702 23.6306 23.4438 27.6116C23.0816 27.5911 22.7201 27.6634 22.3937 27.8217C22.0672 27.9801 21.7867 28.2192 21.5786 28.5164C20.8965 29.6439 21.0357 31.8432 21.1331 33.4579C21.1331 33.8755 21.1331 34.2513 21.1331 34.5575C21.1331 34.8638 21.1331 35.3231 21.1331 35.7825C21.1331 37.3275 20.98 39.2346 21.7595 40.2089C22.1536 40.6202 22.6935 40.8601 23.2629 40.877V43.146C23.2629 47.1827 23.2629 51.3586 23.1793 55.4649C22.8585 55.4733 22.5444 55.5586 22.2635 55.7136C21.9825 55.8686 21.7428 56.0888 21.5647 56.3557C20.8826 57.4832 21.0218 59.6826 21.1192 61.2973C21.1192 61.7148 21.1192 62.0907 21.1192 62.3969C21.1192 62.7032 21.1192 63.1625 21.1192 63.6218C21.1192 65.1669 20.9661 67.0739 21.7456 68.0483C21.9669 68.2693 22.2295 68.4445 22.5185 68.5639C22.8075 68.6833 23.1172 68.7446 23.4299 68.7443C24.0424 72.4469 26.7706 72.9202 29.6242 72.9202C30.2923 72.9202 31.0161 72.9202 31.6564 72.9202L33.4799 72.8506H38.4214C43.9893 72.8506 49.5572 72.9202 55.0137 73.0594L58.6885 73.1847C60.8739 73.2682 63.1428 73.3517 65.3699 73.3517H68.1539C70.0509 73.4552 71.9484 73.1563 73.7217 72.4748C74.233 72.2556 74.6781 71.9064 75.0126 71.462C75.3471 71.0176 75.5596 70.4933 75.6287 69.9414C76.0387 67.7295 76.1371 65.4712 75.9211 63.2321C75.9211 62.1881 75.8375 61.172 75.9211 60.2393C75.9211 58.4437 75.9211 56.6342 76.0185 54.8246C75.9628 49.9388 76.0602 44.7885 76.0463 39.7774ZM74.1672 61.3251C74.2895 63.3819 74.229 65.4454 73.9862 67.4915C73.5547 70.2754 72.7056 71.1385 70.214 71.4308C68.6003 71.6002 66.9785 71.6792 65.356 71.6674H65.0219C61.5698 71.6674 58.0621 71.5561 54.6796 71.4308C51.9792 71.3473 49.2648 71.2498 46.5505 71.222C43.8362 71.1942 40.9826 71.222 38.1987 71.222H36.8067C36.2778 71.222 35.6096 71.222 34.858 71.3055C33.8836 71.3055 32.77 71.4308 31.6564 71.4308C27.7172 71.4308 25.5874 70.5817 25.0167 68.7582H25.3508C26.3669 68.6051 26.5757 68.2988 26.7428 67.3662C26.8851 66.2117 26.9084 65.0456 26.8124 63.8863C26.8124 63.4826 26.8124 63.079 26.8124 62.7032C26.8124 62.3273 26.8124 61.5617 26.8124 60.9075C27.0105 59.515 26.9396 58.0974 26.6036 56.7316C26.4312 56.3643 26.1576 56.0539 25.8148 55.8369C25.472 55.6199 25.0744 55.5054 24.6687 55.5067C24.7523 51.4003 24.7523 47.2244 24.7523 43.1877V40.891L25.3369 40.8214C26.353 40.6683 26.5618 40.362 26.7289 39.4294C26.8712 38.2749 26.8945 37.1088 26.7985 35.9495C26.7985 35.5458 26.7985 35.1422 26.7985 34.7663C26.7985 34.3905 26.7985 33.6249 26.7985 32.9707C26.9966 31.5782 26.9257 30.1606 26.5897 28.7948C26.4521 28.4622 26.2239 28.1749 25.931 27.9657C25.6382 27.7565 25.2924 27.6338 24.9332 27.6116C25.49 25.12 28.1208 24.8277 30.8769 24.8277H32.77L41.1218 24.6885C43.3211 24.6885 45.5065 24.6885 47.6919 24.6885C49.8773 24.6885 51.8678 24.6885 54.0115 24.7581C54.9441 24.7581 55.8906 24.7581 56.7954 24.7581H60.331H63.8527C65.6622 24.7581 67.1516 24.7581 68.5436 24.8416H69.3788C70.3909 24.7768 71.4055 24.9237 72.3576 25.2731C74.1254 26.1639 74.1393 27.6116 74.1532 29.282V29.7413C74.1532 32.8732 74.2368 36.033 74.2507 39.1649C74.2507 43.9811 74.1811 48.9087 74.0837 53.6414L74.1254 58.2906C74.1115 59.265 74.1393 60.295 74.1672 61.3251ZM23.6804 67.0739C23.4995 67.0739 22.9566 67.0739 22.8453 65.9047C22.6712 65.0769 22.6196 64.228 22.6921 63.3852C22.6921 63.0372 22.6921 62.7031 22.6921 62.4108C22.6921 62.1185 22.6921 61.8123 22.6921 61.4782C22.5808 59.5851 22.4416 57.3023 24.4043 57.0796C25.4065 57.2049 25.2394 60.6013 25.1699 62.0628C25.1699 62.4387 25.1699 62.7449 25.1699 62.9258C25.1699 63.1068 25.1699 63.427 25.1699 63.8028C25.3185 64.8275 25.3185 65.8683 25.1699 66.893C24.8966 66.9864 24.6096 67.0334 24.3207 67.0322H24.0006C23.8955 67.0564 23.7883 67.0704 23.6804 67.0739ZM25.0724 34.2235C25.0724 34.5993 25.0724 34.9055 25.0724 35.0865C25.0724 35.2674 25.0724 35.5876 25.0724 35.9634C25.2211 36.9881 25.2211 38.0289 25.0724 39.0536C24.7991 39.147 24.5121 39.1941 24.2233 39.1928H23.9032C23.7921 39.2039 23.6802 39.2039 23.5691 39.1928C23.3881 39.1928 22.8453 39.1928 22.7339 38.0235C22.5599 37.1957 22.5083 36.3469 22.5808 35.5041C22.5808 35.1561 22.5808 34.822 22.5808 34.5297C22.5808 34.2374 22.5808 33.9311 22.5808 33.5971C22.4694 31.704 22.3302 29.4212 24.2929 29.1984C25.3786 29.3655 25.2116 32.7619 25.142 34.2235H25.0724Z" fill="#333333"/>
<path d="M63.5744 40.6401C62.9749 40.5126 62.3638 40.4473 61.7509 40.4452C60.2044 40.3475 58.6709 40.7815 57.4049 41.6753C56.139 42.569 55.2167 43.8688 54.7911 45.3588C54.4606 46.3902 54.3437 47.478 54.4474 48.556C54.5511 49.6341 54.8732 50.6797 55.3942 51.6291C55.9152 52.5786 56.6241 53.412 57.4776 54.0786C58.3312 54.7452 59.3115 55.2309 60.359 55.5063C61.1915 55.7496 62.0529 55.8807 62.9202 55.896C66.2887 55.896 68.6133 53.5575 69.4624 49.3259C70.3115 45.0943 68.0565 41.9763 63.5744 40.6401ZM67.7503 47.0849C67.6349 47.0799 67.5198 47.1011 67.4138 47.1469C67.3077 47.1927 67.2134 47.2619 67.1378 47.3494C67.0035 47.5092 66.9296 47.7112 66.9291 47.92C66.9232 48.0301 66.9403 48.1402 66.9793 48.2432C67.0183 48.3463 67.0784 48.4401 67.1556 48.5186C67.2329 48.5972 67.3257 48.6588 67.4281 48.6996C67.5304 48.7403 67.6402 48.7592 67.7503 48.7552H67.8756C67.7434 50.0277 67.3399 51.257 66.6924 52.3604C66.2468 52.945 65.6686 53.4152 65.0054 53.7323C64.3422 54.0493 63.6132 54.2041 62.8784 54.1839V54.1839C62.8784 54.0725 62.8784 53.9612 62.8784 53.8498C62.8889 53.7463 62.8769 53.6417 62.8432 53.5432C62.8096 53.4447 62.7551 53.3546 62.6835 53.2791C62.606 53.1989 62.513 53.1353 62.4101 53.0922C62.3072 53.0492 62.1966 53.0275 62.085 53.0286C61.8621 53.021 61.6451 53.1014 61.481 53.2525C61.317 53.4035 61.2189 53.6131 61.2081 53.8359C61.2025 53.9007 61.2025 53.9659 61.2081 54.0308C61.038 54.0022 60.8705 53.9603 60.707 53.9055C59.5267 53.6111 58.4669 52.9574 57.674 52.0348C56.8811 51.1123 56.3942 49.9663 56.2805 48.7552H56.4614C56.5544 48.745 56.6444 48.7161 56.726 48.6703C56.8076 48.6245 56.8791 48.5628 56.9363 48.4887C56.9935 48.4146 57.0351 48.3298 57.0588 48.2393C57.0824 48.1487 57.0876 48.0543 57.0739 47.9618C57.0525 47.7512 56.9592 47.5546 56.8095 47.4049C56.6599 47.2553 56.4632 47.1619 56.2526 47.1405V47.1405C56.2526 46.9874 56.2526 46.8343 56.2526 46.6673C56.4055 45.4878 56.9695 44.4 57.8453 43.5954C58.7212 42.7909 59.8528 42.321 61.041 42.2686V42.4775C61.041 42.699 61.129 42.9114 61.2856 43.068C61.4423 43.2246 61.6547 43.3126 61.8762 43.3126C62.0977 43.3126 62.3101 43.2246 62.4668 43.068C62.6234 42.9114 62.7114 42.699 62.7114 42.4775V42.3243C62.818 42.3166 62.925 42.3166 63.0315 42.3243C65.0777 42.9368 67.5415 44.2592 67.7921 47.1545L67.7503 47.0849Z" fill="#333333"/>
<path d="M48.0435 55.7844C48.0224 55.7893 48.0004 55.79 47.979 55.7863C47.9576 55.7826 47.9372 55.7747 47.9189 55.7629C47.8807 55.7347 47.8546 55.693 47.846 55.6463C47.8374 55.5995 47.8469 55.5512 47.8725 55.5112C48.9543 53.6272 50.186 51.8333 51.5557 50.147C51.583 50.1074 51.6248 50.0803 51.672 50.0716C51.7192 50.0629 51.7679 50.0733 51.8074 50.1005C51.8267 50.1135 51.8432 50.1302 51.856 50.1497C51.8687 50.1691 51.8775 50.1909 51.8817 50.2138C51.8859 50.2367 51.8855 50.2602 51.8805 50.2829C51.8756 50.3056 51.8661 50.3271 51.8527 50.3461C50.4759 52.0174 49.2396 53.7997 48.1566 55.6747C48.1476 55.7006 48.1327 55.724 48.1131 55.743C48.0935 55.7621 48.0696 55.7762 48.0435 55.7844V55.7844Z" fill="black"/>
<path d="M47.5825 62.1138C47.5593 62.118 47.5355 62.1172 47.5126 62.1116C47.4897 62.106 47.4682 62.0956 47.4495 62.0812C47.41 62.0539 47.3829 62.0121 47.3742 61.9649C47.3655 61.9177 47.3759 61.869 47.4031 61.8295C49.4482 58.8051 51.5839 55.7894 53.7415 52.8585C53.7537 52.8354 53.7707 52.8153 53.7915 52.7994C53.8122 52.7835 53.8361 52.7723 53.8616 52.7665C53.8871 52.7608 53.9135 52.7606 53.9391 52.766C53.9646 52.7714 53.9887 52.7823 54.0097 52.7979C54.0306 52.8135 54.048 52.8335 54.0605 52.8564C54.073 52.8793 54.0804 52.9047 54.0822 52.9308C54.0839 52.9568 54.0801 52.983 54.0708 53.0074C54.0615 53.0318 54.0471 53.0539 54.0285 53.0722C51.8781 56.0081 49.7475 59.0165 47.7074 62.0336C47.6934 62.055 47.6751 62.0733 47.6535 62.0871C47.632 62.1009 47.6078 62.11 47.5825 62.1138V62.1138Z" fill="black"/>
<path d="M48.1191 68.3628C48.098 68.3677 48.0761 68.3684 48.0547 68.3647C48.0333 68.361 48.0128 68.3531 47.9946 68.3413C47.955 68.3141 47.9279 68.2723 47.9192 68.2251C47.9105 68.1779 47.9209 68.1291 47.9481 68.0896C50.1873 64.293 52.6266 60.5484 55.1835 56.9599C55.2107 56.9204 55.2525 56.8933 55.2997 56.8846C55.3469 56.8759 55.3956 56.8863 55.4352 56.9135C55.4734 56.9417 55.4995 56.9835 55.5081 57.0302C55.5167 57.0769 55.5072 57.1252 55.4816 57.1652C52.9236 60.7476 50.4844 64.4922 48.2613 68.2731C48.2471 68.2988 48.2266 68.3205 48.2017 68.3362C48.1769 68.3518 48.1485 68.361 48.1191 68.3628V68.3628Z" fill="black"/>
<path d="M54.0155 65.53C53.9728 65.5386 53.9284 65.531 53.891 65.5085C53.8527 65.4803 53.8266 65.4386 53.818 65.3919C53.8094 65.3451 53.8189 65.2968 53.8445 65.2568C55.1044 63.0096 56.536 60.863 58.1265 58.8362C58.1537 58.7967 58.1956 58.7696 58.2428 58.7609C58.29 58.7522 58.3387 58.7626 58.3783 58.7898C58.4165 58.818 58.4425 58.8598 58.4512 58.9065C58.4598 58.9533 58.4503 59.0015 58.4247 59.0415C56.848 61.0548 55.4285 63.1863 54.1789 65.4174C54.1656 65.45 54.143 65.478 54.114 65.4981C54.085 65.5181 54.0508 65.5292 54.0155 65.53V65.53Z" fill="black"/>
<path d="M59.7355 63.6051C59.688 63.6136 59.6389 63.6046 59.5975 63.5798C59.5593 63.5516 59.5332 63.5098 59.5246 63.4631C59.516 63.4164 59.5254 63.3681 59.5511 63.3281L61.6295 60.2087C61.6577 60.1704 61.6994 60.1444 61.7462 60.1358C61.7929 60.1271 61.8412 60.1366 61.8812 60.1622C61.9207 60.1895 61.9478 60.2313 61.9565 60.2785C61.9652 60.3257 61.9548 60.3744 61.9276 60.414L59.842 63.5284C59.8303 63.5476 59.8148 63.5643 59.7965 63.5775C59.7782 63.5907 59.7575 63.6001 59.7355 63.6051Z" fill="black"/>
<path d="M78.6908 19.928C78.6032 19.9146 78.514 19.9146 78.4263 19.928C78.2347 19.9374 78.053 20.0159 77.9148 20.149C77.7766 20.282 77.6913 20.4607 77.6747 20.6518C77.6355 20.8505 77.6724 21.0567 77.7781 21.2294C77.8838 21.4022 78.0506 21.5289 78.2454 21.5844C80.1106 22.1691 80.1385 25.2731 80.1524 27.3333C80.1524 27.7926 80.1524 28.1963 80.1524 28.5164C80.2777 30.5487 80.3334 32.6924 80.2916 35.1979C80.2857 35.4078 80.3604 35.6121 80.5004 35.7686C80.6654 35.9251 80.8855 36.0101 81.1129 36.0052C81.2219 36.009 81.3305 35.9909 81.4325 35.9522C81.5344 35.9134 81.6277 35.8548 81.7067 35.7796C81.7857 35.7045 81.849 35.6143 81.8928 35.5144C81.9367 35.4146 81.9602 35.307 81.962 35.1979C82.072 31.4443 81.8811 27.6879 81.3913 23.9647C81.1407 21.9463 80.57 20.5265 78.6908 19.928Z" fill="#333333"/>
<path d="M75.0858 20.8184C75.1948 20.8205 75.303 20.8001 75.4037 20.7585C75.5045 20.7169 75.5956 20.655 75.6713 20.5766C75.7471 20.4982 75.8058 20.4051 75.844 20.303C75.8822 20.2009 75.8989 20.0921 75.8932 19.9832C75.8975 19.8688 75.8775 19.7547 75.8344 19.6486C75.7913 19.5425 75.7261 19.4467 75.6432 19.3677C75.5602 19.2887 75.4614 19.2283 75.3533 19.1904C75.2452 19.1526 75.1303 19.1381 75.0162 19.1481C74.9072 19.146 74.799 19.1664 74.6983 19.208C74.5976 19.2496 74.5065 19.3116 74.4307 19.3899C74.355 19.4683 74.2962 19.5614 74.258 19.6635C74.2198 19.7656 74.2031 19.8744 74.2089 19.9832C74.2055 20.1904 74.2744 20.3922 74.4037 20.554C74.4863 20.6515 74.592 20.7267 74.7111 20.7729C74.8303 20.8191 74.9591 20.8348 75.0858 20.8184V20.8184Z" fill="#333333"/>
<path d="M65.0635 46.2641C65.1279 45.9618 65.1652 45.6544 65.1748 45.3455C65.1776 45.2337 65.1567 45.1225 65.1135 45.0194C65.0704 44.9162 65.0059 44.8234 64.9243 44.7469C64.7744 44.5916 64.5693 44.5016 64.3536 44.4963H64.103C63.8141 44.6028 63.5158 44.682 63.2122 44.733C63.0119 44.7604 62.8156 44.8118 62.6275 44.8861C62.3241 44.776 62.0038 44.7194 61.681 44.7191C61.0738 44.7175 60.4843 44.9238 60.0106 45.3037C59.313 45.8716 58.8234 46.6549 58.6187 47.5308C58.5491 48.0191 58.5933 48.5169 58.7478 48.9854C58.9024 49.4538 59.163 49.8802 59.5095 50.2312C59.8207 50.6285 60.2178 50.9501 60.671 51.1719C61.1243 51.3937 61.6218 51.5099 62.1264 51.5119C62.8521 51.513 63.5557 51.2621 64.1169 50.802C64.6575 50.3354 65.0343 49.7078 65.1921 49.0114C65.35 48.315 65.2805 47.5863 64.9939 46.9323C65.005 46.7085 65.0282 46.4854 65.0635 46.2641V46.2641ZM63.4488 48.9089C63.3245 49.1793 63.1296 49.4111 62.8846 49.5802C62.6397 49.7492 62.3537 49.8491 62.0568 49.8694C61.7999 49.8636 61.5482 49.7961 61.3228 49.6726C61.0975 49.549 60.9053 49.373 60.7623 49.1594C60.6153 49.0017 60.5013 48.8162 60.4271 48.6137C60.353 48.4112 60.3201 48.196 60.3305 47.9806C60.3409 47.7652 60.3943 47.5541 60.4876 47.3598C60.5809 47.1654 60.7121 46.9916 60.8737 46.8488C61.1272 46.5898 61.4718 46.4401 61.8341 46.4312C62.069 46.4392 62.2986 46.5026 62.5042 46.6163C62.7098 46.73 62.8857 46.8908 63.0173 47.0854L63.1286 47.2246C63.3456 47.4403 63.4923 47.7166 63.5494 48.0172C63.6066 48.3178 63.5715 48.6286 63.4488 48.9089V48.9089Z" fill="#333333"/>
</svg>
