<svg width="100" height="100" viewBox="0 0 100 100" fill="none" xmlns="http://www.w3.org/2000/svg">
<path d="M53.2449 85.0048C56.9173 84.6993 56.4948 78.3034 56.5598 75.1055C56.6248 70.5166 56.6941 65.9298 56.7678 61.3453C56.9758 47.4096 56.8977 34.0458 57.1057 20.0841C57.1057 18.6087 57.1058 17.0357 56.3908 15.8007C55.1298 13.6947 52.4193 13.5193 50.1184 13.5712C39.4391 13.8117 29.0523 13.5128 18.373 13.7532C17.3461 13.7532 16.2476 13.8247 15.4286 14.5007C14.2456 15.4822 14.1286 17.3477 14.1286 18.9661L13.5826 78.1149C13.5826 80.2794 13.3486 83.3148 15.4026 84.2703C19.244 86.0708 46.732 85.5443 53.2449 85.0048Z" fill="#F35A05"/>
<path d="M20.154 20.3445L51.8669 20.0845V78.8043L19.192 78.7328L20.154 20.3445Z" fill="white"/>
<path d="M72.8677 34.5791C77.1647 34.5791 80.6481 31.0084 80.6481 26.6038C80.6481 22.1991 77.1647 18.6284 72.8677 18.6284C68.5708 18.6284 65.0874 22.1991 65.0874 26.6038C65.0874 31.0084 68.5708 34.5791 72.8677 34.5791Z" fill="white"/>
<path d="M72.8681 35.1313C71.1737 35.1701 69.5062 34.703 68.0784 33.7899C66.6506 32.8767 65.5272 31.5588 64.8518 30.0043C64.1763 28.4499 63.9794 26.7294 64.286 25.0625C64.5927 23.3957 65.3892 21.858 66.5737 20.6458C67.7582 19.4335 69.277 18.6018 70.9364 18.2566C72.5957 17.9114 74.3202 18.0685 75.8899 18.7079C77.4595 19.3472 78.8031 20.4397 79.7491 21.846C80.6951 23.2523 81.2005 24.9086 81.2009 26.6035C81.2218 28.8379 80.3567 30.9895 78.7951 32.5877C77.2334 34.1859 75.1023 35.1005 72.8681 35.1313V35.1313ZM72.8681 19.1806C71.3923 19.1419 69.9385 19.544 68.6924 20.3357C67.4464 21.1274 66.4647 22.2727 65.8729 23.6252C65.281 24.9776 65.1059 26.4759 65.3699 27.9284C65.6339 29.3809 66.3251 30.7217 67.355 31.7794C68.3849 32.8371 69.7068 33.5636 71.1518 33.8662C72.5967 34.1688 74.0991 34.0336 75.4668 33.478C76.8346 32.9223 78.0056 31.9715 78.8301 30.7469C79.6547 29.5224 80.0954 28.0798 80.0959 26.6035C80.1202 24.6611 79.3727 22.7885 78.0176 21.3968C76.6624 20.0051 74.8104 19.208 72.8681 19.1806Z" fill="black"/>
<path fill-rule="evenodd" clip-rule="evenodd" d="M70.3965 21.5395C69.936 21.8404 69.8645 22.2085 70.119 22.968C70.2227 23.2776 70.3075 23.5958 70.3075 23.675C70.3075 23.7543 70.3312 23.8342 70.3601 23.8527C70.4392 23.9033 70.7994 25.0037 70.8289 25.285C70.8388 25.3797 70.9818 25.9042 71.1117 26.3219C71.2997 26.9265 71.5805 28.274 71.6272 28.795L71.6613 29.1765L71.0972 29.218C70.7868 29.2408 70.3586 29.2594 70.1455 29.2594C69.8404 29.2594 69.7323 29.2861 69.6369 29.3848C69.5356 29.4896 69.5269 29.5358 69.5841 29.6657C69.7028 29.9353 70.0595 30.0357 71.0096 30.067C71.5519 30.0849 71.8808 30.1214 71.9092 30.1669C72.0047 30.3196 71.9576 30.5201 71.8186 30.5528C71.743 30.5706 71.4228 30.6433 71.107 30.7143C70.4461 30.8629 70.4296 30.8704 70.4296 31.0243C70.4296 31.2596 70.5583 31.2858 71.2293 31.1871C72.0101 31.0723 72.137 31.07 72.1648 31.1704C72.2905 31.624 72.4047 31.8495 72.5089 31.8495C72.6535 31.8495 72.8005 31.5645 72.8505 31.1873C72.8713 31.0303 72.8936 30.9019 72.9002 30.9019C72.9067 30.9019 73.212 30.8455 73.5787 30.7765C73.9453 30.7076 74.3337 30.6507 74.4416 30.6502C74.6799 30.649 74.8171 30.4574 74.67 30.3311C74.5574 30.2343 74.0211 30.2371 73.3542 30.338C72.9409 30.4006 72.8493 30.3985 72.8048 30.3258C72.6638 30.0954 72.7788 30.0015 73.3299 29.8971C73.8119 29.8058 75.1914 29.3318 75.299 29.2205C75.3455 29.1724 75.4328 29.1331 75.493 29.1331C75.6689 29.1331 76.6689 28.5932 77.0681 28.2827C77.7182 27.777 77.9965 27.2736 77.9986 26.5992C77.9997 26.2506 77.9673 26.1158 77.8016 25.7822C77.4956 25.1663 76.8523 24.5031 75.8906 23.8121C75.2784 23.3723 73.837 22.5788 72.9938 22.2174C72.7755 22.1238 72.4596 21.9812 72.2917 21.9004C71.4102 21.4761 70.7003 21.341 70.3965 21.5395ZM72.8274 23.1996C73.3287 23.4054 73.8665 23.6426 74.0226 23.7268C74.4318 23.9478 75.0624 24.3053 75.337 24.4722C75.4673 24.5514 75.6623 24.6641 75.7703 24.7227C76.0493 24.8741 76.9617 25.8146 76.9641 25.9533C76.9651 26.017 77.0063 26.1244 77.0556 26.1918C77.1794 26.3612 77.1677 26.6307 77.0246 26.9087C76.8155 27.3146 76.599 27.5101 75.9853 27.8474C75.4505 28.1412 74.9888 28.3236 73.7846 28.7164C73.4109 28.8384 72.7598 28.9575 72.6947 28.9159C72.6658 28.8974 72.6234 28.6047 72.6006 28.2654C72.5435 27.4201 72.4009 26.6483 72.0253 25.1532C71.6303 23.581 71.5425 23.2172 71.5016 22.9817L71.4591 22.7369L71.6875 22.7812C71.8131 22.8056 72.326 22.9939 72.8274 23.1996Z" fill="black"/>
<path d="M34.4536 86.0644C25.8348 86.0644 17.255 85.7524 15.149 84.7645C12.9261 83.7245 12.9716 80.767 13.0106 78.6026V78.1021L13.5501 18.9533C13.5501 17.0488 13.7645 15.1444 15.071 14.0654C16.0655 13.2399 17.385 13.2074 18.3535 13.1879C23.6964 13.0644 29.0522 13.0839 34.2326 13.0969C39.413 13.1099 44.7624 13.0969 50.0988 13.0059C52.6988 12.9539 55.4807 13.2009 56.8586 15.5019C57.6971 16.9188 57.6712 18.6738 57.6517 20.0518C57.5477 27.0196 57.5152 33.9615 57.4827 40.6824C57.4502 47.4032 57.4177 54.3321 57.3137 61.3194L57.1056 75.0732C57.1056 75.3982 57.1056 75.7232 57.1056 76.1261C57.1056 79.7401 57.1056 85.226 53.2902 85.512C50.2938 85.8304 42.3575 86.0644 34.4536 86.0644ZM28.9027 14.2019C25.4253 14.2019 21.9024 14.2019 18.3795 14.3059C17.3395 14.3059 16.4295 14.3904 15.7795 14.9234C14.824 15.7229 14.681 17.3413 14.6615 18.9728L14.109 78.6286C14.109 80.5786 14.044 83.0355 15.617 83.77C19.2569 85.4664 46.1209 85.0375 53.1992 84.4525C55.9942 84.2185 56.0007 79.3696 56.0007 76.1651C56.0007 75.7817 56.0007 75.4241 56.0007 75.0992L56.2087 61.3389C56.3126 54.3776 56.3452 47.4292 56.3777 40.7149C56.4102 34.0005 56.4427 27.0651 56.5467 20.0778C56.5467 18.7778 56.5922 17.2243 55.8967 16.0804C54.8112 14.2669 52.3607 14.0719 50.1118 14.1304C44.7624 14.2539 39.4 14.2344 34.2196 14.2214L28.9027 14.2019Z" fill="black"/>
<path d="M69.5141 46.5906L69.4426 55.1379L83.8463 55.2094L84.1258 60.6303L94.4476 50.5035L84.1973 40.9617L83.8463 46.4541L69.5141 46.5906Z" fill="white"/>
<path d="M84.1257 61.1829C84.0567 61.1826 83.9884 61.1694 83.9242 61.1439C83.8254 61.1045 83.7399 61.0377 83.6777 60.9514C83.6155 60.865 83.5793 60.7627 83.5733 60.6565L83.3263 55.7556L69.4426 55.6906C69.37 55.6907 69.2982 55.6765 69.2312 55.6486C69.1642 55.6207 69.1035 55.5797 69.0525 55.5281C68.9494 55.4243 68.8911 55.2843 68.89 55.1381L68.9615 46.5908C68.9615 46.4453 69.0189 46.3058 69.1211 46.2024C69.2233 46.0989 69.3621 46.04 69.5075 46.0383L83.3328 45.9083L83.6448 40.9294C83.6534 40.8258 83.6907 40.7267 83.7525 40.6431C83.8144 40.5596 83.8983 40.495 83.9948 40.4565C84.0914 40.418 84.1968 40.4072 84.2991 40.4253C84.4015 40.4434 84.4967 40.4896 84.5742 40.5589L94.8245 50.0812C94.9328 50.1852 94.9958 50.3276 95 50.4777C95.0006 50.5518 94.9859 50.6253 94.9568 50.6935C94.9278 50.7617 94.8849 50.8232 94.831 50.8742L84.5157 61.0009C84.4148 61.1106 84.2747 61.176 84.1257 61.1829ZM70.0015 54.5921L83.8527 54.6571C83.9937 54.6586 84.1288 54.7139 84.2303 54.8118C84.3318 54.9097 84.3921 55.0427 84.3987 55.1836L84.6132 59.376L93.6481 50.5102L84.6717 42.1643L84.3987 46.4868C84.3905 46.6265 84.3295 46.7578 84.2282 46.8544C84.1268 46.9509 83.9927 47.0053 83.8527 47.0067L70.06 47.1367L70.0015 54.5921Z" fill="black"/>
<path d="M51.8603 79.3305L19.192 79.285C19.1184 79.2853 19.0456 79.2712 18.9775 79.2433C18.9095 79.2154 18.8476 79.1744 18.7955 79.1225C18.7433 79.071 18.7025 79.009 18.6756 78.9408C18.6487 78.8725 18.6364 78.7994 18.6395 78.726L19.6015 20.3377C19.6032 20.1934 19.6612 20.0555 19.7632 19.9535C19.8653 19.8515 20.0031 19.7934 20.1474 19.7917L51.8603 19.5317C52.0068 19.5317 52.1474 19.5899 52.251 19.6936C52.3546 19.7972 52.4128 19.9377 52.4128 20.0842V78.804C52.4117 78.9503 52.3534 79.0903 52.2503 79.194C52.1432 79.2889 52.0032 79.3379 51.8603 79.3305V79.3305ZM19.7509 78.1606L51.3143 78.2255V20.6432L20.6934 20.8902L19.7509 78.1606Z" fill="black"/>
<path d="M32.2372 17.6273C32.1005 17.6193 31.9717 17.5607 31.8757 17.463C31.7797 17.3653 31.7234 17.2355 31.7178 17.0987C31.7121 16.9618 31.7575 16.8278 31.845 16.7225C31.9326 16.6172 32.0561 16.5482 32.1917 16.5288C34.882 16.2885 37.5848 16.2169 40.2841 16.3144C40.3569 16.316 40.4287 16.3322 40.4952 16.362C40.5616 16.3919 40.6215 16.4347 40.6711 16.488C40.7208 16.5413 40.7593 16.604 40.7844 16.6724C40.8094 16.7408 40.8205 16.8136 40.8171 16.8863C40.8163 16.9586 40.8009 17.03 40.7717 17.0961C40.7425 17.1622 40.7002 17.2217 40.6473 17.2709C40.5944 17.3202 40.532 17.3581 40.464 17.3825C40.396 17.4069 40.3237 17.4172 40.2516 17.4128C37.5934 17.3219 34.9322 17.3935 32.2827 17.6273H32.2372Z" fill="black"/>
<path d="M22.2274 36.1975C22.1978 36.207 22.166 36.207 22.1364 36.1975C22.0942 36.1742 22.0629 36.1351 22.0495 36.0888C22.0361 36.0425 22.0416 35.9928 22.0649 35.9505C24.7525 31.2014 27.8727 26.7105 31.3857 22.5348C31.4167 22.4969 31.4615 22.4728 31.5103 22.468C31.5591 22.4631 31.6077 22.4778 31.6457 22.5088C31.6836 22.5398 31.7076 22.5847 31.7125 22.6334C31.7174 22.6822 31.7027 22.7309 31.6717 22.7688C28.171 26.9267 25.0637 31.4004 22.3898 36.1325C22.3697 36.1553 22.3445 36.173 22.3163 36.1843C22.2881 36.1956 22.2576 36.2001 22.2274 36.1975V36.1975Z" fill="black"/>
<path d="M22.8255 42.0733C22.7885 42.0726 22.7524 42.0613 22.7215 42.0408C22.6814 42.0121 22.6542 41.9687 22.6456 41.9201C22.6371 41.8715 22.648 41.8215 22.676 41.7808L36.0917 22.5217C36.1193 22.4821 36.1615 22.455 36.209 22.4465C36.2566 22.4379 36.3056 22.4486 36.3452 22.4762C36.3849 22.5038 36.412 22.546 36.4205 22.5935C36.429 22.6411 36.4183 22.6901 36.3907 22.7297L22.962 41.9953C22.9469 42.018 22.9267 42.0369 22.903 42.0505C22.8793 42.064 22.8528 42.0718 22.8255 42.0733V42.0733Z" fill="black"/>
<path d="M22.0324 48.2028C21.9933 48.2019 21.9552 48.1907 21.9219 48.1703C21.8842 48.1397 21.8592 48.096 21.852 48.0479C21.8448 47.9998 21.8558 47.9507 21.8829 47.9103L40.804 22.0799L40.8885 21.9824C40.9055 21.9651 40.9257 21.9513 40.948 21.9419C40.9704 21.9326 40.9943 21.9277 41.0185 21.9277C41.0427 21.9277 41.0667 21.9326 41.089 21.9419C41.1113 21.9513 41.1316 21.9651 41.1485 21.9824C41.1658 21.9993 41.1795 22.0195 41.1889 22.0419C41.1983 22.0642 41.2031 22.0881 41.2031 22.1124C41.2031 22.1366 41.1983 22.1605 41.1889 22.1829C41.1795 22.2052 41.1658 22.2254 41.1485 22.2424L41.09 22.3203L22.1819 48.1313C22.1637 48.1535 22.141 48.1714 22.1151 48.1838C22.0893 48.1961 22.061 48.2026 22.0324 48.2028V48.2028Z" fill="black"/>
<path d="M22.65 55.3722C22.6126 55.3737 22.5759 55.3622 22.546 55.3397C22.5256 55.3267 22.5082 55.3096 22.4947 55.2895C22.4813 55.2694 22.4721 55.2467 22.4679 55.2229C22.4636 55.1991 22.4643 55.1747 22.4699 55.1512C22.4755 55.1276 22.4859 55.1055 22.5005 55.0862C30.0988 43.835 38.1912 32.6942 46.55 21.9889C46.5795 21.9513 46.6226 21.9267 46.6701 21.9207C46.7175 21.9146 46.7654 21.9274 46.8035 21.9564C46.8208 21.9733 46.8345 21.9936 46.8439 22.0159C46.8533 22.0382 46.8581 22.0622 46.8581 22.0864C46.8581 22.1106 46.8533 22.1346 46.8439 22.1569C46.8345 22.1792 46.8208 22.1994 46.8035 22.2164C38.4511 32.9152 30.3588 44.0429 22.754 55.2942C22.7306 55.3326 22.6934 55.3605 22.65 55.3722V55.3722Z" fill="black"/>
<path d="M22.9231 61.6639C22.8859 61.6639 22.8496 61.6526 22.8191 61.6314C22.7792 61.6026 22.7517 61.5598 22.7421 61.5116C22.7324 61.4634 22.7414 61.4133 22.7671 61.3714C31.2949 49.1646 40.3167 37.0294 49.4815 25.3036C49.4962 25.284 49.5146 25.2676 49.5358 25.2553C49.5569 25.243 49.5804 25.2352 49.6046 25.2321C49.6289 25.2291 49.6535 25.231 49.677 25.2377C49.7005 25.2444 49.7225 25.2557 49.7415 25.2711C49.7749 25.3061 49.7935 25.3527 49.7935 25.4011C49.7935 25.4495 49.7749 25.4961 49.7415 25.5311C40.5442 37.2309 31.5419 49.3791 23.04 61.5859C23.0267 61.606 23.0095 61.6232 22.9894 61.6366C22.9693 61.65 22.9468 61.6593 22.9231 61.6639V61.6639Z" fill="black"/>
<path d="M23.0203 69.4377C22.9884 69.446 22.9548 69.446 22.9228 69.4377C22.9027 69.4246 22.8853 69.4076 22.8718 69.3877C22.8582 69.3678 22.8488 69.3454 22.8439 69.3218C22.8391 69.2982 22.839 69.2739 22.8436 69.2503C22.8482 69.2267 22.8575 69.2042 22.8708 69.1842C31.0931 56.4965 40.05 44.0752 49.4878 32.2585C49.5042 32.2414 49.5238 32.2277 49.5456 32.2184C49.5674 32.2091 49.5909 32.2043 49.6146 32.2043C49.6383 32.2043 49.6617 32.2091 49.6834 32.2184C49.7052 32.2277 49.7249 32.2414 49.7413 32.2585C49.7586 32.2754 49.7723 32.2956 49.7817 32.318C49.7911 32.3403 49.7959 32.3643 49.7959 32.3885C49.7959 32.4127 49.7911 32.4366 49.7817 32.459C49.7723 32.4813 49.7586 32.5015 49.7413 32.5185C40.31 44.3222 31.3597 56.7305 23.1438 69.4117C23.1071 69.4348 23.0633 69.4441 23.0203 69.4377V69.4377Z" fill="black"/>
<path d="M23.8589 75.4892C23.8271 75.4984 23.7933 75.4984 23.7615 75.4892C23.7413 75.4761 23.7239 75.459 23.7104 75.4392C23.6968 75.4193 23.6874 75.3969 23.6826 75.3733C23.6777 75.3497 23.6776 75.3254 23.6822 75.3018C23.6868 75.2782 23.6961 75.2557 23.7095 75.2357C31.4315 63.7782 39.7565 52.7389 48.6494 42.1644C48.6648 42.146 48.6837 42.1309 48.7049 42.1198C48.7261 42.1087 48.7493 42.1019 48.7731 42.0998C48.7969 42.0977 48.821 42.1003 48.8438 42.1075C48.8666 42.1147 48.8878 42.1263 48.9062 42.1416C48.9245 42.157 48.9397 42.1758 48.9508 42.197C48.9618 42.2182 48.9686 42.2414 48.9708 42.2653C48.9729 42.2891 48.9702 42.3131 48.9631 42.336C48.9559 42.3588 48.9443 42.38 48.9289 42.3984C40.0485 52.9628 31.7322 63.989 24.0149 75.4307C23.9946 75.451 23.9702 75.4667 23.9433 75.4768C23.9164 75.4869 23.8876 75.4911 23.8589 75.4892V75.4892Z" fill="black"/>
<path d="M27.3102 75.9831C27.2707 75.9856 27.2316 75.9741 27.1997 75.9506C27.1797 75.9365 27.1627 75.9184 27.1498 75.8975C27.1369 75.8766 27.1283 75.8533 27.1247 75.829C27.1211 75.8047 27.1224 75.7799 27.1285 75.7561C27.1347 75.7323 27.1457 75.7101 27.1607 75.6906C34.0571 66.4348 41.2524 57.2115 48.5453 48.2807C48.5622 48.2634 48.5825 48.2497 48.6048 48.2403C48.6271 48.2309 48.6511 48.2261 48.6753 48.2261C48.6995 48.2261 48.7235 48.2309 48.7458 48.2403C48.7681 48.2497 48.7884 48.2634 48.8053 48.2807C48.8387 48.3158 48.8573 48.3623 48.8573 48.4107C48.8573 48.4591 48.8387 48.5056 48.8053 48.5407C41.5125 57.465 34.3236 66.6818 27.4272 75.9376C27.4117 75.9526 27.3934 75.9643 27.3733 75.9721C27.3532 75.9799 27.3317 75.9837 27.3102 75.9831Z" fill="black"/>
<path d="M32.3934 75.5348C32.3531 75.5348 32.3142 75.521 32.2829 75.4958C32.2451 75.4651 32.2202 75.4214 32.213 75.3733C32.2058 75.3252 32.2168 75.2762 32.2439 75.2358C37.4468 68.2463 42.996 61.5214 48.8706 55.0862C48.9056 55.0528 48.9521 55.0342 49.0005 55.0342C49.0489 55.0342 49.0955 55.0528 49.1306 55.0862C49.1479 55.1031 49.1616 55.1234 49.171 55.1457C49.1803 55.168 49.1852 55.192 49.1852 55.2162C49.1852 55.2404 49.1803 55.2644 49.171 55.2867C49.1616 55.309 49.1479 55.3292 49.1306 55.3462C43.2636 61.7809 37.723 68.5059 32.5299 75.4958C32.5109 75.5111 32.489 75.5224 32.4656 75.5291C32.4421 75.5358 32.4176 75.5377 32.3934 75.5348V75.5348Z" fill="black"/>
<path d="M36.3257 75.8597C36.2855 75.8597 36.2465 75.846 36.2152 75.8207C36.1766 75.7921 36.1508 75.7495 36.1435 75.702C36.1362 75.6545 36.1479 75.606 36.1762 75.5672C40.0073 70.3549 44.1305 65.3636 48.526 60.6175C48.5613 60.5896 48.6053 60.5753 48.6503 60.5771C48.6952 60.5788 48.7381 60.5967 48.771 60.6273C48.804 60.6579 48.825 60.6993 48.8301 60.744C48.8352 60.7887 48.8242 60.8337 48.799 60.871C44.4003 65.6143 40.2769 70.6057 36.4492 75.8207C36.4142 75.8484 36.3702 75.8623 36.3257 75.8597V75.8597Z" fill="black"/>
<path d="M40.5896 75.8338C40.567 75.8348 40.5445 75.8313 40.5233 75.8235C40.5021 75.8157 40.4826 75.8037 40.4661 75.7883C40.4488 75.7713 40.4351 75.7511 40.4257 75.7288C40.4164 75.7064 40.4115 75.6825 40.4115 75.6583C40.4115 75.6341 40.4164 75.6101 40.4257 75.5878C40.4351 75.5654 40.4488 75.5452 40.4661 75.5283L48.578 66.4285C48.5944 66.4103 48.6145 66.3958 48.6369 66.3859C48.6593 66.376 48.6835 66.3708 48.708 66.3708C48.7325 66.3708 48.7567 66.376 48.7791 66.3859C48.8015 66.3958 48.8215 66.4103 48.838 66.4285C48.8709 66.4624 48.8894 66.5079 48.8894 66.5552C48.8894 66.6025 48.8709 66.648 48.838 66.682L40.7261 75.7818C40.708 75.7991 40.6866 75.8126 40.6631 75.8215C40.6397 75.8305 40.6147 75.8346 40.5896 75.8338V75.8338Z" fill="black"/>
<path d="M44.7559 75.9831C44.7107 75.9827 44.667 75.9666 44.6324 75.9376C44.6151 75.9206 44.6013 75.9004 44.592 75.8781C44.5826 75.8558 44.5778 75.8318 44.5778 75.8076C44.5778 75.7833 44.5826 75.7594 44.592 75.7371C44.6013 75.7147 44.6151 75.6945 44.6324 75.6776L48.5323 71.4527C48.5485 71.4347 48.5681 71.4202 48.5899 71.4098C48.6118 71.3995 48.6354 71.3935 48.6596 71.3923C48.6837 71.3911 48.7079 71.3947 48.7307 71.4028C48.7534 71.4109 48.7744 71.4234 48.7923 71.4396C48.8102 71.4559 48.8248 71.4755 48.8352 71.4973C48.8455 71.5192 48.8514 71.5428 48.8526 71.567C48.8538 71.5911 48.8503 71.6152 48.8421 71.638C48.834 71.6608 48.8215 71.6817 48.8053 71.6997L44.9054 75.9246C44.8869 75.9455 44.8637 75.9617 44.8377 75.9719C44.8117 75.9821 44.7837 75.9859 44.7559 75.9831Z" fill="black"/>
<path d="M22.0323 28.3913C21.9975 28.3894 21.9638 28.3781 21.9348 28.3588C21.8943 28.3321 21.8657 28.2909 21.8548 28.2437C21.8439 28.1965 21.8516 28.147 21.8763 28.1053C23.214 26.0002 24.8594 24.1072 26.7577 22.4894C26.7755 22.4727 26.7964 22.4598 26.8193 22.4514C26.8422 22.443 26.8665 22.4392 26.8909 22.4404C26.9152 22.4416 26.9391 22.4476 26.961 22.4582C26.983 22.4687 27.0026 22.4836 27.0188 22.5019C27.0349 22.5202 27.0471 22.5415 27.0548 22.5646C27.0625 22.5877 27.0655 22.6122 27.0636 22.6365C27.0617 22.6608 27.0549 22.6844 27.0437 22.7061C27.0324 22.7277 27.017 22.7469 26.9982 22.7624C25.1303 24.3607 23.5093 26.2269 22.1883 28.3003C22.1724 28.3277 22.1497 28.3505 22.1224 28.3665C22.095 28.3825 22.064 28.391 22.0323 28.3913V28.3913Z" fill="black"/>
<g opacity="0.13">
<path d="M80.4729 26.9871C80.3871 26.8436 80.2698 26.7215 80.1299 26.6299C79.99 26.5384 79.8312 26.4797 79.6653 26.4584C79.4995 26.4372 79.3309 26.4538 79.1725 26.5071C79.014 26.5604 78.8697 26.6489 78.7504 26.7661C78.4124 27.1106 78.3994 27.6371 78.1784 28.0661C78.2174 27.9686 78.3539 27.6566 78.2369 27.9166C78.0025 28.4176 77.7195 28.8944 77.392 29.34C77.1665 29.6023 76.9138 29.8398 76.638 30.0485C75.78 30.6985 74.246 31.797 72.738 31.9985L72.0881 32.07C71.2951 32.2325 70.3201 32.0115 69.6766 32.59C69.5068 32.766 69.3921 32.9878 69.3466 33.2282C69.3012 33.4686 69.3271 33.717 69.421 33.9428C69.5149 34.1687 69.6728 34.3622 69.8753 34.4994C70.0778 34.6367 70.316 34.7118 70.5606 34.7154C73.0631 34.4164 74.246 34.7544 76.573 33.266C77.3572 32.806 78.0819 32.2516 78.7309 31.615C79.3784 30.8646 79.877 29.9976 80.1999 29.0606L80.0894 29.3335C80.2909 28.6316 80.8694 27.7216 80.4729 26.9871Z" fill="black"/>
</g>
<g opacity="0.13">
<path d="M94.2136 50.341C94.2167 50.1557 94.1702 49.973 94.0789 49.8117C93.9876 49.6505 93.8549 49.5165 93.6946 49.4237C93.5342 49.3309 93.3519 49.2827 93.1666 49.284C92.9813 49.2852 92.7997 49.336 92.6406 49.431C92.5032 49.5154 92.3857 49.6284 92.2961 49.7625L92.1271 49.9315C91.4237 50.4573 90.757 51.0307 90.1317 51.6474C88.7862 53.0514 87.3757 54.3904 86.0302 55.7944C86.0131 55.2713 85.9076 54.7548 85.7183 54.2669C85.696 54.1144 85.6438 53.9677 85.5647 53.8354C85.4856 53.7031 85.3812 53.5877 85.2574 53.4959C85.1336 53.4041 84.9928 53.3377 84.8433 53.3005C84.6937 53.2632 84.5382 53.2559 84.3858 53.2789C83.7358 52.8369 82.6828 52.9474 81.9028 52.8824C79.2054 52.7979 76.5145 52.8824 73.8235 52.8369C73.1216 52.8369 72.4196 52.8889 71.7176 52.8369C71.2239 52.7591 70.7195 52.7835 70.2356 52.9084C69.9752 53.0189 69.7608 53.2158 69.6288 53.466C69.4967 53.7162 69.455 54.0043 69.5108 54.2816C69.5666 54.5589 69.7164 54.8085 69.9349 54.9882C70.1534 55.1679 70.4272 55.2667 70.7101 55.2679C73.492 55.6254 76.274 55.3914 79.0624 55.3264C80.2129 55.3719 81.3698 55.2874 82.5268 55.2874C82.8854 55.2887 83.2436 55.3126 83.5993 55.3589C83.5993 55.4044 83.5993 55.4434 83.5993 55.4889V55.5994C83.5603 56.2818 83.3848 56.5223 83.2678 58.0628C83.2123 58.2653 83.2068 58.4782 83.2516 58.6834C83.2964 58.8885 83.3902 59.0797 83.5249 59.2407C83.6597 59.4017 83.8315 59.5276 84.0255 59.6077C84.2196 59.6879 84.4302 59.7198 84.6393 59.7008C84.8367 59.773 85.051 59.7857 85.2555 59.7371C85.4601 59.6886 85.6458 59.581 85.7897 59.4278C86.7712 58.2318 87.9023 57.1658 88.9357 56.0154C89.9692 54.8649 91.0742 53.6169 92.2246 52.4924C92.6796 52.0591 93.1476 51.6366 93.6286 51.225C93.7948 51.1414 93.9361 51.0159 94.0388 50.8608C94.1414 50.7058 94.2017 50.5265 94.2136 50.341V50.341Z" fill="black"/>
</g>
<g opacity="0.13">
<path d="M52.3413 20.7147C52.1008 19.8893 51.3274 19.7918 50.5864 19.9283C47.7849 20.1232 44.9769 20.0907 42.169 20.1622C38.0806 20.4092 33.9922 20.6172 29.8972 20.6042C28.5388 20.5717 27.1868 20.6822 25.8284 20.6042L26.1208 20.6432C24.5479 20.4742 22.9749 20.4092 21.3954 20.3572C21.233 20.2773 21.0529 20.2402 20.8721 20.2497C20.6913 20.2591 20.516 20.3148 20.3628 20.4112C20.2096 20.5077 20.0837 20.6418 19.9971 20.8008C19.9105 20.9597 19.866 21.1382 19.8679 21.3192C19.9394 24.8097 19.582 28.2806 19.517 31.7645C19.387 38.9469 19.3155 46.1292 19.14 53.3051C19.0165 55.5345 19.2895 57.01 19.231 59.7659C19.231 61.6704 19.114 63.5749 19.0555 65.4728C19.127 67.2798 19.114 67.4878 19.1465 69.1843C19.22 69.7533 19.3263 70.3175 19.465 70.8742C19.5117 71.504 19.4636 72.1372 19.322 72.7527C19.1206 74.0316 18.9882 75.3204 18.9255 76.6136C18.802 77.9136 18.5355 79.2135 20.0565 79.389C21.1289 79.311 21.2979 78.4986 21.2589 77.5821C21.2199 76.6656 21.3435 75.8466 21.324 74.9821C21.324 73.8837 21.4344 72.7917 21.4474 71.6997C21.3526 70.2605 21.3526 68.8165 21.4474 67.3773V67.3773C21.5059 66.6233 21.4474 65.8693 21.4474 65.1218C21.5449 63.3474 21.6164 61.5729 21.6164 59.7985C21.6944 56.8605 21.5709 55.4305 21.4604 52.9151C21.5319 50.1396 21.4604 47.3642 21.4604 44.5887C21.5969 41.0268 21.4604 37.4389 21.6034 33.9095C21.6814 30.1785 21.8634 26.4411 21.9349 22.7102C24.0279 22.7492 26.1208 22.9117 28.2138 22.8142C29.8128 22.7362 31.4052 22.8142 33.0042 22.7622C34.8242 22.7037 36.6506 22.5737 38.4771 22.5737C41.4843 22.5304 44.4938 22.4892 47.5054 22.4502C48.8054 22.4112 50.6253 22.1707 51.0348 22.1902C51.2291 22.2224 51.4284 22.2047 51.614 22.1388C51.7996 22.073 51.9654 21.9611 52.096 21.8137C52.2265 21.6662 52.3175 21.4881 52.3604 21.2959C52.4033 21.1037 52.3968 20.9037 52.3413 20.7147V20.7147Z" fill="black"/>
</g>
</svg>
