<svg xmlns="http://www.w3.org/2000/svg" width="100" height="100" fill="none"><path fill="#F35A05" d="M53.245 85.005c3.672-.306 3.25-6.702 3.315-9.9.065-4.588.134-9.175.208-13.76.208-13.935.13-27.3.338-41.26 0-1.476 0-3.05-.715-4.284-1.261-2.106-3.972-2.282-6.273-2.23-10.679.24-21.066-.058-31.745.182-1.027 0-2.125.072-2.944.748-1.183.981-1.3 2.847-1.3 4.465l-.546 59.149c0 2.164-.234 5.2 1.82 6.155 3.841 1.8 31.329 1.274 37.842.735Z"/><path fill="#fff" d="m20.154 20.345 31.713-.26v58.72l-32.675-.072.962-58.389ZM72.868 34.58c4.297 0 7.78-3.572 7.78-7.976 0-4.405-3.483-7.976-7.78-7.976-4.297 0-7.78 3.571-7.78 7.976 0 4.404 3.483 7.975 7.78 7.975Z"/><path fill="#000" d="M72.868 35.131a8.528 8.528 0 1 1 8.333-8.527 8.45 8.45 0 0 1-8.333 8.527Zm0-15.95a7.424 7.424 0 1 0 7.228 7.422 7.332 7.332 0 0 0-7.228-7.422Z"/><path fill="#000" fill-rule="evenodd" d="M70.397 21.54c-.461.3-.532.669-.278 1.428.104.31.189.628.189.707 0 .08.023.16.052.178.08.05.44 1.15.469 1.432.01.095.153.62.283 1.037.188.605.469 1.952.515 2.473l.034.381-.564.042c-.31.023-.738.041-.951.041-.306 0-.414.027-.51.126-.1.105-.11.15-.052.28.119.27.475.37 1.426.402.542.018.87.054.9.1.095.153.048.353-.091.386l-.712.161c-.66.149-.677.156-.677.31 0 .236.128.262.8.163.78-.115.907-.117.935-.017.125.454.24.68.344.68.144 0 .291-.286.341-.663.021-.157.044-.285.05-.285.007 0 .312-.056.679-.126.366-.068.755-.125.863-.126.238-.001.375-.193.228-.319-.113-.097-.649-.094-1.316.007-.413.063-.505.06-.55-.012-.14-.23-.025-.325.526-.429.482-.091 1.861-.565 1.969-.676a.314.314 0 0 1 .194-.088c.176 0 1.176-.54 1.575-.85.65-.506.928-1.01.93-1.684.002-.348-.03-.483-.196-.817-.306-.616-.95-1.279-1.911-1.97-.613-.44-2.054-1.233-2.897-1.595a21.748 21.748 0 0 1-.702-.317c-.882-.424-1.592-.559-1.895-.36Zm2.43 1.66c.502.205 1.04.443 1.196.527.409.22 1.04.578 1.314.745.13.08.325.192.433.25.28.152 1.192 1.093 1.194 1.231a.503.503 0 0 0 .092.239c.123.17.112.439-.031.717-.21.406-.426.601-1.04.938-.534.294-.996.477-2.2.87-.374.121-1.025.24-1.09.199-.03-.019-.072-.311-.094-.65-.058-.846-.2-1.618-.576-3.113-.395-1.572-.483-1.936-.523-2.171l-.043-.245.228.044c.126.025.639.213 1.14.419Z" clip-rule="evenodd"/><path fill="#000" d="M34.454 86.064c-8.62 0-17.199-.312-19.305-1.3-2.223-1.04-2.177-3.997-2.138-6.161v-.5l.54-59.15c0-1.904.213-3.809 1.52-4.888.995-.825 2.314-.858 3.283-.877 5.342-.124 10.698-.104 15.879-.091 5.18.013 10.53 0 15.866-.091 2.6-.052 5.382.195 6.76 2.496.838 1.417.812 3.172.793 4.55-.104 6.968-.137 13.91-.17 20.63-.032 6.721-.064 13.65-.168 20.637l-.208 13.754v1.053c0 3.614 0 9.1-3.816 9.386-2.996.318-10.932.552-18.836.552Zm-5.551-71.862c-3.478 0-7 0-10.523.104-1.04 0-1.95.084-2.6.617-.956.8-1.099 2.418-1.118 4.05l-.553 59.656c0 1.95-.065 4.406 1.508 5.141 3.64 1.696 30.504 1.267 37.582.683 2.795-.234 2.802-5.083 2.802-8.288V75.1l.208-13.76c.104-6.961.136-13.91.169-20.624.032-6.715.065-13.65.169-20.637 0-1.3.045-2.854-.65-3.998-1.086-1.813-3.536-2.008-5.785-1.95-5.35.124-10.712.104-15.892.091l-5.317-.02Z"/><path fill="#fff" d="m69.514 46.59-.071 8.548 14.403.071.28 5.421 10.322-10.127-10.25-9.541-.352 5.492-14.332.137Z"/><path fill="#000" d="M84.126 61.183a.552.552 0 0 1-.448-.232.559.559 0 0 1-.105-.294l-.247-4.901-13.883-.065a.548.548 0 0 1-.39-.163.56.56 0 0 1-.163-.39l.072-8.547a.552.552 0 0 1 .545-.553l13.826-.13.312-4.979a.56.56 0 0 1 .93-.37l10.25 9.522a.539.539 0 0 1 .007.793L84.515 61.001a.565.565 0 0 1-.39.182ZM70 54.593l13.852.064a.552.552 0 0 1 .546.527l.214 4.192 9.035-8.866-8.976-8.346-.273 4.323a.553.553 0 0 1-.546.52l-13.793.13-.059 7.455ZM51.86 79.33l-32.668-.045a.56.56 0 0 1-.516-.344.525.525 0 0 1-.036-.215l.962-58.388a.552.552 0 0 1 .545-.546l31.713-.26a.552.552 0 0 1 .553.552v58.72a.559.559 0 0 1-.163.39.545.545 0 0 1-.39.136Zm-32.11-1.17 31.564.066V20.642l-30.62.247-.943 57.27ZM32.237 17.627a.552.552 0 0 1-.045-1.098c2.69-.24 5.393-.312 8.092-.215a.546.546 0 0 1 .533.572.534.534 0 0 1-.565.527c-2.659-.091-5.32-.02-7.97.214h-.045Z"/><path fill="#000" d="M22.227 36.197a.149.149 0 0 1-.09 0 .182.182 0 0 1-.072-.247 88.697 88.697 0 0 1 9.32-13.415.184.184 0 1 1 .287.234 87.855 87.855 0 0 0-9.282 13.364.194.194 0 0 1-.163.064ZM22.826 42.073a.195.195 0 0 1-.105-.032.189.189 0 0 1-.045-.26l13.416-19.26a.182.182 0 0 1 .299.209L22.962 41.995a.176.176 0 0 1-.136.078ZM22.032 48.203a.221.221 0 0 1-.11-.033.195.195 0 0 1-.04-.26l18.922-25.83.084-.098a.183.183 0 0 1 .201-.04c.022.01.043.023.06.04a.18.18 0 0 1 .04.2.183.183 0 0 1-.04.06l-.059.078-18.908 25.811a.195.195 0 0 1-.15.072ZM22.65 55.372a.162.162 0 0 1-.104-.032.175.175 0 0 1-.046-.254A596.18 596.18 0 0 1 46.55 21.99a.182.182 0 0 1 .254-.033.182.182 0 0 1 0 .26 599.918 599.918 0 0 0-24.05 33.078.175.175 0 0 1-.104.078ZM22.923 61.664a.182.182 0 0 1-.104-.033.195.195 0 0 1-.052-.26c8.528-12.206 17.55-24.342 26.714-36.067a.182.182 0 0 1 .26-.033.188.188 0 0 1 0 .26A779.841 779.841 0 0 0 23.04 61.586a.181.181 0 0 1-.117.078ZM23.02 69.438a.194.194 0 0 1-.097 0 .181.181 0 0 1-.052-.254A462.151 462.151 0 0 1 49.488 32.26a.176.176 0 0 1 .253 0 .18.18 0 0 1 .04.2.183.183 0 0 1-.04.06 460.242 460.242 0 0 0-26.597 36.893.182.182 0 0 1-.124.026ZM23.859 75.49a.175.175 0 0 1-.098 0 .182.182 0 0 1-.052-.254 390.247 390.247 0 0 1 24.94-33.072.183.183 0 0 1 .302.033.185.185 0 0 1 .012.139.183.183 0 0 1-.034.062 391.945 391.945 0 0 0-24.914 33.033.201.201 0 0 1-.156.058ZM27.31 75.983a.182.182 0 0 1-.15-.292 786.137 786.137 0 0 1 21.385-27.41.182.182 0 0 1 .312.13.189.189 0 0 1-.052.13 779.53 779.53 0 0 0-21.378 27.397.161.161 0 0 1-.117.045ZM32.393 75.535a.176.176 0 0 1-.11-.04.195.195 0 0 1-.04-.26 261.376 261.376 0 0 1 16.628-20.149.188.188 0 0 1 .26 0 .182.182 0 0 1 0 .26 260.368 260.368 0 0 0-16.601 20.15.183.183 0 0 1-.137.039ZM36.326 75.86a.176.176 0 0 1-.11-.04.182.182 0 0 1-.04-.253 171.352 171.352 0 0 1 12.35-14.95.188.188 0 0 1 .273.254 169.368 169.368 0 0 0-12.35 14.95.182.182 0 0 1-.123.039ZM40.59 75.834a.17.17 0 0 1-.179-.176.183.183 0 0 1 .055-.13l8.112-9.1a.174.174 0 0 1 .201-.042c.022.01.042.024.059.043a.182.182 0 0 1 0 .253l-8.112 9.1a.187.187 0 0 1-.136.052ZM44.756 75.983a.195.195 0 0 1-.124-.045.181.181 0 0 1 0-.26l3.9-4.225a.184.184 0 1 1 .273.247l-3.9 4.225a.176.176 0 0 1-.15.058ZM22.032 28.391a.195.195 0 0 1-.097-.032.189.189 0 0 1-.059-.254 24.985 24.985 0 0 1 4.882-5.616.181.181 0 0 1 .26.013.182.182 0 0 1-.02.26 24.892 24.892 0 0 0-4.81 5.538.183.183 0 0 1-.156.091Z"/><path fill="#000" d="M80.473 26.987a1.104 1.104 0 0 0-1.723-.22c-.338.344-.35.87-.572 1.3.04-.098.176-.41.059-.15a8.45 8.45 0 0 1-.845 1.423c-.225.262-.478.5-.754.709-.858.65-2.392 1.748-3.9 1.95l-.65.071c-.793.163-1.768-.059-2.411.52a1.255 1.255 0 0 0 .884 2.125c2.502-.299 3.685.04 6.012-1.449a11.106 11.106 0 0 0 2.158-1.651 7.8 7.8 0 0 0 1.469-2.554l-.11.273c.2-.702.78-1.612.383-2.347ZM94.214 50.341a1.04 1.04 0 0 0-1.573-.91 1.118 1.118 0 0 0-.345.332l-.169.169c-.703.525-1.37 1.099-1.995 1.715-1.346 1.404-2.756 2.743-4.102 4.147a4.643 4.643 0 0 0-.312-1.527 1.171 1.171 0 0 0-1.332-.988c-.65-.442-1.703-.332-2.483-.397-2.698-.084-5.389 0-8.08-.045-.701 0-1.403.052-2.105 0a3.654 3.654 0 0 0-1.482.071 1.229 1.229 0 0 0 .474 2.36c2.782.357 5.564.123 8.352.058 1.15.046 2.308-.039 3.465-.039.358.002.717.026 1.072.072v.24c-.039.683-.214.923-.331 2.464a1.3 1.3 0 0 0 1.371 1.638 1.072 1.072 0 0 0 1.15-.273c.982-1.196 2.113-2.262 3.147-3.413 1.033-1.15 2.138-2.398 3.289-3.523.455-.433.923-.855 1.404-1.267a1.067 1.067 0 0 0 .585-.884ZM52.341 20.715c-.24-.826-1.014-.923-1.755-.787-2.801.195-5.61.163-8.417.234-4.088.247-8.177.455-12.272.442-1.358-.032-2.71.078-4.069 0l.293.04c-1.573-.17-3.146-.235-4.726-.287a1.06 1.06 0 0 0-1.527.962c.071 3.49-.286 6.962-.351 10.446-.13 7.182-.201 14.364-.377 21.54-.123 2.23.15 3.705.091 6.46 0 1.905-.117 3.81-.176 5.708.072 1.807.059 2.015.091 3.711.074.57.18 1.133.319 1.69a6.3 6.3 0 0 1-.143 1.879 36.038 36.038 0 0 0-.396 3.86c-.124 1.3-.39 2.6 1.13 2.776 1.073-.078 1.242-.89 1.203-1.807-.04-.916.084-1.735.065-2.6 0-1.098.11-2.19.123-3.282a32.882 32.882 0 0 1 0-4.323c.059-.754 0-1.508 0-2.255.098-1.775.17-3.55.17-5.324.077-2.938-.046-4.367-.157-6.883.072-2.775 0-5.55 0-8.326.137-3.562 0-7.15.143-10.68.078-3.73.26-7.468.332-11.199 2.093.04 4.186.202 6.279.104 1.599-.078 3.191 0 4.79-.052 1.82-.058 3.647-.188 5.473-.188 3.007-.044 6.017-.085 9.028-.124 1.3-.039 3.12-.28 3.53-.26a1.163 1.163 0 0 0 1.306-1.475Z" opacity=".13"/></svg>