<svg xmlns="http://www.w3.org/2000/svg" width="18" height="15" fill="none"><path fill="#F35A05" d="M3.909 7.5.346 2.77a1.69 1.69 0 0 1-.324-1.296C.098 1.02.358.61.75.332c.192-.134.41-.23.643-.284a1.895 1.895 0 0 1 1.374.21c.202.12.377.277.514.461l.615.82.618-.82c.137-.184.312-.341.514-.461a1.895 1.895 0 0 1 1.374-.21c.232.053.45.15.643.284.39.277.651.687.727 1.142a1.69 1.69 0 0 1-.324 1.296L3.909 7.5ZM13.928 7.5l-3.562-4.73a1.69 1.69 0 0 1-.324-1.296c.075-.455.336-.865.727-1.142.192-.134.41-.23.643-.284a1.895 1.895 0 0 1 1.373.21c.203.12.378.277.514.461l.616.82.618-.82c.136-.184.311-.341.514-.461a1.895 1.895 0 0 1 1.374-.21c.232.053.45.15.642.284.391.277.652.687.727 1.142.075.456-.04.92-.324 1.296L13.928 7.5Z"/><path fill="#07040C" d="M7.48 14.996h.85c2.737-.28 5.26-1.47 7.082-3.34a.537.537 0 0 0 .174-.39.536.536 0 0 0-.174-.39.645.645 0 0 0-.431-.162.645.645 0 0 0-.431.162c-1.618 1.662-3.86 2.721-6.292 2.97a5.527 5.527 0 0 1-2.718-.254 5.007 5.007 0 0 1-2.171-1.502.575.575 0 0 0-.164-.168.674.674 0 0 0-.703-.02.586.586 0 0 0-.176.16.502.502 0 0 0 .024.636 5.87 5.87 0 0 0 2.242 1.739 6.525 6.525 0 0 0 2.887.56Z"/></svg>