<svg xmlns="http://www.w3.org/2000/svg" width="620" height="460" fill="none"><path fill="#fff" d="M464.77 220.759a241.713 241.713 0 0 0-17.738-14.379c5.226-.691 10.328-1.064 15.429-1.382-1.299-5.129-2.253-10.203-3.221-15.208a220.453 220.453 0 0 1 17.53 13.549c.871 4.631 2.046 9.525 1.825 14.655-4.064 1.354-9.429 1.576-13.825 2.765Z"/><path fill="#07040C" d="M464.77 221.464h.18a60 60 0 0 1 6.249-1.203 47.18 47.18 0 0 0 7.645-1.631.68.68 0 0 0 .47-.636 54.095 54.095 0 0 0-1.382-12.844c-.139-.664-.263-1.383-.388-1.991a.689.689 0 0 0-.248-.401 217.987 217.987 0 0 0-17.572-13.59.71.71 0 0 0-1.092.733c.898 4.728 1.824 9.608 3.027 14.475-4.341.262-9.401.622-14.641 1.313a.706.706 0 0 0-.594.525.732.732 0 0 0 .263.747 241.317 241.317 0 0 1 17.696 14.337.71.71 0 0 0 .387.166Zm13.148-4.023a50.493 50.493 0 0 1-6.913 1.382c-2.018.304-4.147.636-6.028 1.12a243.557 243.557 0 0 0-16.092-13.106c4.922-.595 9.677-.913 13.645-1.148a.65.65 0 0 0 .526-.276.712.712 0 0 0 .124-.595c-1.147-4.535-2.046-9.097-2.903-13.535 5.267 3.664 9.912 7.397 15.871 12.36.111.581.221 1.161.346 1.756a55.408 55.408 0 0 1 1.424 12.042Z"/><path fill="#07040C" d="M460.346 206.145c.843-1.285 2.143-.885 3.124 0 .982.885 1.812 1.383 2.765 2.019 3.968 2.958 8.019 5.53 11.061 8.101a1.566 1.566 0 0 1-.991 2.474 1.56 1.56 0 0 1-1.028-.179c-3.567-2.765-7.341-5.281-11.06-7.894-.982-.65-1.922-1.382-2.903-2.005a1.781 1.781 0 0 1-.968-2.516Z" opacity=".13"/><path fill="#07040C" d="M29.604 174.391a.7.7 0 0 1-.609-.401 29.518 29.518 0 0 0-3.276-5.212.707.707 0 0 1 .346-1.149.719.719 0 0 1 .553.082.708.708 0 0 1 .207.196 31.095 31.095 0 0 1 2.765 4.258l3.691-6.732a.705.705 0 0 1 .417-.343.715.715 0 0 1 .537.052.72.72 0 0 1 .29.954l-4.3 7.991a.717.717 0 0 1-.622.304ZM29.604 195.364a.7.7 0 0 1-.609-.401 29.481 29.481 0 0 0-3.276-5.212.707.707 0 0 1 .346-1.149.7.7 0 0 1 .76.278 31.095 31.095 0 0 1 2.765 4.258l3.663-6.802a.702.702 0 0 1 1.292.128.72.72 0 0 1-.047.536l-4.3 7.991a.714.714 0 0 1-.595.373ZM28.041 216.337a.741.741 0 0 1-.622-.401 29.424 29.424 0 0 0-3.262-5.212.712.712 0 0 1-.153-.521.713.713 0 0 1 .263-.475.72.72 0 0 1 .995.125 30.965 30.965 0 0 1 2.765 4.258l3.65-6.802a.705.705 0 0 1 .417-.343.698.698 0 0 1 .75.227.709.709 0 0 1 .078.78l-4.286 7.991a.72.72 0 0 1-.594.373ZM48.447 174.723h-6.18a.702.702 0 0 1-.776-.389.71.71 0 0 1 .19-.848.702.702 0 0 1 .587-.145 695.818 695.818 0 0 0 37.203-.65.694.694 0 0 1 .668.398.717.717 0 0 1-.613 1.012 800.71 800.71 0 0 1-31.079.622ZM48.475 195.295h-6.207a.706.706 0 0 1 0-1.383c12.346.111 24.885-.11 37.203-.663a.702.702 0 0 1 .776.389.71.71 0 0 1-.19.848.702.702 0 0 1-.586.145c-10.23.429-20.655.664-30.996.664ZM49.028 215.867H42.82a.705.705 0 0 1 0-1.383 694.77 694.77 0 0 0 37.204-.663.704.704 0 0 1 0 1.382c-10.23.429-20.655.664-30.996.664Z"/><path fill="#F35A05" d="M527.544 57.572a10.839 10.839 0 0 1 11.323 7.078 13.046 13.046 0 0 1-3.277 13.701 12.013 12.013 0 0 1-13.286 1.783 12.746 12.746 0 0 1-6.788-9.553 11.342 11.342 0 0 1 4.645-10.742 18.554 18.554 0 0 1 7.383-2.267Z"/><path fill="#07040C" d="M527.586 82.07a12.676 12.676 0 0 0 8.474-3.194 13.822 13.822 0 0 0 3.457-14.475 11.448 11.448 0 0 0-12.084-7.534 19.354 19.354 0 0 0-7.659 2.35 12.09 12.09 0 0 0-4.949 11.364 13.522 13.522 0 0 0 7.161 10.134 12.553 12.553 0 0 0 5.6 1.355Zm1.313-23.932a10.383 10.383 0 0 1 9.304 6.72c.78 2.234.898 4.646.341 6.946a12.297 12.297 0 0 1-3.479 6.022 11.307 11.307 0 0 1-12.443 1.686 12.106 12.106 0 0 1-6.401-9.055 10.571 10.571 0 0 1 4.328-10.051 17.869 17.869 0 0 1 7.106-2.143c.41-.076.826-.118 1.244-.125Z"/><path fill="#07040C" d="M515.447 68.88c-.138-.926-.346-3.331.705-3.663.083-.47.18-.968.318-1.548.069-.42.215-.822.429-1.19a1.38 1.38 0 0 1 .11-.442.856.856 0 0 1 1.284-.198.866.866 0 0 1 .265.406c.11.584.11 1.184 0 1.77a2.35 2.35 0 0 1-.277.732 21.452 21.452 0 0 0-.263 2.129c-.1 1.796.054 3.597.457 5.35v.11a16.246 16.246 0 0 0 2.004 2.268 9.174 9.174 0 0 0 7.106 3 17.302 17.302 0 0 0 6.222-1.244 1.216 1.216 0 0 1 .65 2.337l-.775.29a.973.973 0 0 1-.511.83c-4.314 2.211-9.982 2.142-13.466-1.577a15.69 15.69 0 0 1-2.018-2.543 9.651 9.651 0 0 1-.581-1.217 11.973 11.973 0 0 1-.567-1.134 9.674 9.674 0 0 1-.912-3.152c-.07-.332-.249-1.825-.18-1.313Z" opacity=".13"/><path fill="#fff" d="M475.354 116.204a10.835 10.835 0 0 1 11.323 7.024 13.075 13.075 0 0 1-3.277 13.714 12.015 12.015 0 0 1-13.313 1.784 12.738 12.738 0 0 1-4.563-3.963 12.742 12.742 0 0 1-2.226-5.618 11.333 11.333 0 0 1 4.646-10.742 18.773 18.773 0 0 1 7.41-2.199Z"/><path fill="#07040C" d="M475.395 140.661c3.14.03 6.177-1.114 8.517-3.207a13.83 13.83 0 0 0 3.428-14.475 11.472 11.472 0 0 0-12.097-7.521 19.273 19.273 0 0 0-7.659 2.35 12.084 12.084 0 0 0-4.949 11.42 13.508 13.508 0 0 0 7.161 10.12 12.435 12.435 0 0 0 5.599 1.313Zm1.383-23.904a10.342 10.342 0 0 1 9.304 6.719 12.302 12.302 0 0 1-3.097 12.941 11.31 11.31 0 0 1-12.442 1.673 12.063 12.063 0 0 1-6.401-9.042 10.6 10.6 0 0 1 4.216-10.079 17.9 17.9 0 0 1 7.107-2.143c.412-.057.828-.08 1.244-.069h.069Z"/><path fill="#07040C" d="M463.561 125.979a.827.827 0 0 1 .593-.815.826.826 0 0 1 .942.359c.359 1.119.083 2.129.387 3.221a23.7 23.7 0 0 0 .608 1.908l.207.359c.235.373.498.747.761 1.092a8.553 8.553 0 0 0 1.479 1.521 53.908 53.908 0 0 0 4.908 2.973c1.673.967 5.019.622 7.189-.761.719-.387.705-.733 1.756-1.382a1.119 1.119 0 0 1 1.217 1.811 10.716 10.716 0 0 1-4.148 2.765 11.71 11.71 0 0 1-5.074.401 6.981 6.981 0 0 1-1.521-.498.957.957 0 0 1-.414.512c-.705.359-1.493-.18-2.143-.443a12.19 12.19 0 0 1-4.507-4.521.498.498 0 0 1-.069-.152c-.083-.138-.374-.829-.498-1.078v-.111a10.576 10.576 0 0 1-1.383-3.055 11.319 11.319 0 0 1-.248-2.115v-.595c-.046-.464-.06-.93-.042-1.396Z" opacity=".13"/><path fill="#07040C" d="M485.294 120.034a.706.706 0 0 0 .539-.249c11.544-13.507 22.964-27.401 34.024-41.268a.695.695 0 0 0 .152-.52.7.7 0 0 0-.262-.475.699.699 0 0 0-.514-.152.697.697 0 0 0-.468.262c-11.06 13.825-22.452 27.733-33.927 41.241a.688.688 0 0 0-.165.515.69.69 0 0 0 .248.48c.105.092.235.15.373.166Z"/><path fill="#fff" d="m254.602 25.488 17.572 24.665c3.139-8.945 6.18-17.655 8.71-26.185-8.35.331-16.687.774-26.282 1.52Z"/><path fill="#07040C" d="M272.174 50.858h.138a.674.674 0 0 0 .567-.457c2.862-8.184 6.125-17.447 8.71-26.268a.664.664 0 0 0-.11-.622.71.71 0 0 0-.595-.276c-6.622.262-15.595.691-26.268 1.52a.688.688 0 0 0-.597.395.689.689 0 0 0 .072.712l17.503 24.691a.71.71 0 0 0 .58.305Zm7.742-26.144c-2.391 8.005-5.309 16.383-7.963 23.918l-16.051-22.535c9.608-.733 17.793-1.12 24.014-1.383Z"/><path fill="#fff" d="M234.238 62.913a433.875 433.875 0 0 1 21.885-4.147c-4.659-3.913-9.318-7.84-14.115-11.793-3.111 5.295-6.167 10.673-7.77 15.94Z"/><path fill="#07040C" d="M234.238 63.674h.152a417.073 417.073 0 0 1 21.844-4.245.722.722 0 0 0 .566-.511.703.703 0 0 0-.235-.733 1448.116 1448.116 0 0 0-14.046-11.752.688.688 0 0 0-.581-.151.804.804 0 0 0-.484.331c-3.345 5.765-6.248 10.95-7.838 16.217a.704.704 0 0 0 .152.678c.131.11.298.17.47.166Zm20.267-5.406a453.89 453.89 0 0 0-19.23 3.746 82.522 82.522 0 0 1 6.912-14.018 1379.98 1379.98 0 0 1 12.318 10.272Z"/><path fill="#fff" d="M443.044 169.736a328.177 328.177 0 0 1-7.216-15.858c-2.129 4.258-4.272 8.503-6.401 12.871a62.1 62.1 0 0 0 13.617 2.987Z"/><path fill="#07040C" d="M431.572 144.78a.694.694 0 0 0 .58-.304.716.716 0 0 0 0-.705 346.06 346.06 0 0 1-7.203-15.816.694.694 0 0 0-.622-.443.738.738 0 0 0-.649.387 1098.853 1098.853 0 0 0-6.415 12.872.739.739 0 0 0 0 .594.682.682 0 0 0 .442.387 61.514 61.514 0 0 0 13.825 3.028h.042Zm-7.272-14.876a320.471 320.471 0 0 0 6.097 13.369 63.452 63.452 0 0 1-11.448-2.627 1317.96 1317.96 0 0 1 5.351-10.742Z"/><path fill="#fff" d="M542.406 143.081a418.826 418.826 0 0 1 21.886-4.259c-4.646-3.926-9.305-7.852-14.102-11.792-3.111 5.336-6.166 10.714-7.784 16.051Z"/><path fill="#07040C" d="M542.406 143.855h.152c7.217-1.701 14.627-3.125 21.858-4.341a.71.71 0 0 0 .551-.905.674.674 0 0 0-.219-.326c-4.549-3.829-9.263-7.797-14.033-11.737a.783.783 0 0 0-.58-.152.726.726 0 0 0-.484.345c-3.346 5.752-6.249 10.936-7.839 16.203a.688.688 0 0 0-.018.36.685.685 0 0 0 .17.318.69.69 0 0 0 .442.235Zm20.31-5.53a413.736 413.736 0 0 0-19.218 3.746 81.137 81.137 0 0 1 6.913-14.032c4.148 3.498 8.254 6.968 12.305 10.286ZM111.73 143.865a.685.685 0 0 0 .685-.575.728.728 0 0 0-.035-.392c-2.24-5.53-4.535-11.296-6.912-17.033a.676.676 0 0 0-.429-.401.687.687 0 0 0-.595.069c-5.654 3.512-10.659 6.733-14.53 10.632a.678.678 0 0 0-.18.677.718.718 0 0 0 .498.498 404.863 404.863 0 0 1 21.277 6.498c.072.021.147.03.221.027Zm-7.258-16.7c2.06 5.004 4.148 9.995 6.028 14.848a430.252 430.252 0 0 0-18.733-5.71 82.037 82.037 0 0 1 12.705-9.138ZM34.097 95.755a.664.664 0 0 1-.387-.11.692.692 0 0 1-.208-.968A476.267 476.267 0 0 1 65.093 51.64a.69.69 0 0 1 1.064-.027 80.517 80.517 0 0 1 13.964 21.263l28.286-38.172a.679.679 0 0 1 .512-.276.738.738 0 0 1 .553.193c4.866 4.867 9.747 10.438 14.917 16.342 5.53 6.263 11.157 12.733 17.365 18.996a7086.734 7086.734 0 0 0 13.438-27.319c4.244-8.655 8.295-16.84 11.945-24.25a.703.703 0 0 1 .94-.317.717.717 0 0 1 .318.954c-3.678 7.396-7.687 15.58-11.931 24.235-4.549 9.29-9.263 18.885-13.825 28.204a.71.71 0 0 1-.512.387.704.704 0 0 1-.608-.208c-6.512-6.498-12.443-13.23-18.125-19.756-4.95-5.64-9.678-11.06-14.268-15.678l-28.59 38.476a.72.72 0 0 1-.65.29.706.706 0 0 1-.567-.428A79.135 79.135 0 0 0 65.66 53.16a471.904 471.904 0 0 0-30.968 42.278.72.72 0 0 1-.594.317Z"/><path fill="#fff" d="M260.879 122.804a3.987 3.987 0 0 0-2.461-3.68 3.978 3.978 0 0 0-4.341.869 3.985 3.985 0 0 0 .618 6.128 3.989 3.989 0 0 0 5.027-.502 3.969 3.969 0 0 0 1.157-2.815Z"/><path fill="#07040C" d="M256.911 127.491a4.688 4.688 0 1 0-4.686-4.687 4.67 4.67 0 0 0 4.686 4.687Zm0-7.964a3.28 3.28 0 0 1 3.214 3.916 3.281 3.281 0 0 1-2.575 2.575 3.28 3.28 0 0 1-3.363-1.394 3.274 3.274 0 0 1-.552-1.82 3.276 3.276 0 0 1 3.276-3.207v-.07Z"/><path fill="#fff" d="M465.621 65.466a3.983 3.983 0 0 0-6.797-2.83 3.977 3.977 0 0 0-.86 4.346 3.979 3.979 0 0 0 3.689 2.452 3.967 3.967 0 0 0 3.968-3.968Z"/><path fill="#07040C" d="M440.661 76.393a4.688 4.688 0 1 0-4.686-4.673 4.668 4.668 0 0 0 2.894 4.322 4.667 4.667 0 0 0 1.792.351Zm0-7.95a3.28 3.28 0 0 1 3.027 2.023 3.28 3.28 0 0 1-.71 3.571 3.276 3.276 0 1 1-2.317-5.593Z"/><path fill="#fff" d="M424.016 29.582a6.711 6.711 0 0 0-4.14-6.195 6.705 6.705 0 1 0 4.14 6.195Z"/><path fill="#07040C" d="M417.31 36.992a7.408 7.408 0 0 0 7.268-8.855 7.406 7.406 0 0 0-5.822-5.823 7.409 7.409 0 0 0-8.856 7.268 7.426 7.426 0 0 0 7.41 7.41Zm0-13.41a6.002 6.002 0 0 1 5.885 7.17 5.997 5.997 0 0 1-4.714 4.715 6.001 6.001 0 0 1-7.171-5.885 6.014 6.014 0 0 1 6-6ZM562.135 52.857a.707.707 0 0 0 .622-.373l11.019-20.931a.715.715 0 0 0 .052-.538.702.702 0 0 0-.606-.496.708.708 0 0 0-.691.37l-10.977 20.945a.694.694 0 0 0 .019.698.69.69 0 0 0 .617.325h-.055Z"/><path fill="#07040C" d="M575.296 45.89a.692.692 0 0 0 .622-.388.669.669 0 0 0-.094-.777.671.671 0 0 0-.224-.163l-19.687-9.843a.705.705 0 0 0-.94.317.684.684 0 0 0-.046.54.677.677 0 0 0 .364.4l19.687 9.844a.82.82 0 0 0 .318.07ZM532.19 240.148a.71.71 0 0 0 .539-.235l11.654-13.314a.716.716 0 0 0 0-.995.712.712 0 0 0-.512-.172.704.704 0 0 0-.483.241l-11.655 13.3a.722.722 0 0 0 .069.995c.107.1.243.163.388.18ZM133.093 189.171a.728.728 0 0 0 .54-.235l11.654-13.314a.716.716 0 0 0 0-.995.696.696 0 0 0-.512-.172.702.702 0 0 0-.483.241l-11.655 13.3a.72.72 0 0 0 .456 1.175Z"/><path fill="#07040C" d="M544.563 242.816a.705.705 0 0 0 .693-.624.72.72 0 0 0-.14-.523 153.295 153.295 0 0 1-11.143-15.913.721.721 0 0 0-.968-.235.706.706 0 0 0-.235.968 156.762 156.762 0 0 0 11.24 16.051.705.705 0 0 0 .553.276ZM145.467 191.839a.707.707 0 0 0 .693-.625.72.72 0 0 0-.14-.523 153.282 153.282 0 0 1-11.143-15.912.719.719 0 0 0-.968-.235.704.704 0 0 0-.235.967 156.542 156.542 0 0 0 11.24 16.051.7.7 0 0 0 .553.277Z"/><path fill="#fff" d="M557.351 268.103a5.4 5.4 0 0 0-6.586-5.067 5.403 5.403 0 0 0-3.787 7.397 5.407 5.407 0 0 0 4.981 3.283 5.536 5.536 0 0 0 3.851-1.698 5.524 5.524 0 0 0 1.541-3.915Z"/><path fill="#07040C" d="M551.959 274.421a6.318 6.318 0 1 0-6.11-6.318 6.225 6.225 0 0 0 1.748 4.423 6.225 6.225 0 0 0 4.362 1.895Zm0-11.226a4.906 4.906 0 0 1 3.752 8.298 4.91 4.91 0 0 1-8.452-3.39 4.794 4.794 0 0 1 4.7-4.908Z"/><path fill="#fff" d="M514.051 295.02c-2.986 0-5.406-2.513-5.406-5.613 0-3.1 2.42-5.613 5.406-5.613 2.985 0 5.405 2.513 5.405 5.613 0 3.1-2.42 5.613-5.405 5.613Z"/><path fill="#07040C" d="M514.051 295.712a6.314 6.314 0 0 0 5.984-3.757 6.315 6.315 0 0 0-1.24-6.955 6.316 6.316 0 0 0-9.781.873 6.32 6.32 0 0 0-1.074 3.534 6.22 6.22 0 0 0 6.111 6.305Zm0-11.213a4.91 4.91 0 0 1 1.244 9.701 4.904 4.904 0 0 1-5.101-2.046 4.908 4.908 0 0 1-.844-2.747 4.811 4.811 0 0 1 4.701-4.908Z"/><path fill="#F35A05" d="M541.563 339.883a5.408 5.408 0 0 0-6.582-5.068 5.407 5.407 0 0 0 1.176 10.681 5.53 5.53 0 0 0 5.406-5.613Z"/><path fill="#07040C" d="M536.157 346.201a6.32 6.32 0 0 0 5.993-3.743 6.32 6.32 0 0 0-1.225-6.958 6.315 6.315 0 0 0-6.91-1.472 6.313 6.313 0 0 0-3.955 5.855 6.218 6.218 0 0 0 6.097 6.318Zm0-11.226a4.91 4.91 0 0 1 5.061 5.723 4.911 4.911 0 0 1-3.798 3.976 4.908 4.908 0 0 1-5.949-4.791 4.813 4.813 0 0 1 4.686-4.908Z"/><path fill="#07040C" d="M533.862 335.335a.766.766 0 0 0 .29-.069.71.71 0 0 0 .412-.672.72.72 0 0 0-.066-.269l-18.305-39.512a.705.705 0 0 0-.94-.332.706.706 0 0 0-.345.926l18.318 39.513a.693.693 0 0 0 .636.415ZM519.152 287.14a.65.65 0 0 0 .346-.097l27.885-15.816a.701.701 0 0 0 .332-.429.714.714 0 0 0-.251-.747.703.703 0 0 0-.524-.142.701.701 0 0 0-.262.088l-27.885 15.871a.704.704 0 0 0-.263.954.717.717 0 0 0 .622.318Z"/><path fill="#fff" d="M104.474 265.715a33.581 33.581 0 0 1 16.59-19.355c8.392-4.424 30.692-6.456 40.425-7.3-.359 23.337-.248 46.688-.401 70.951-1.866 6.913-4.41 13.742-8.834 19.355-4.424 5.613-10.936 9.899-18.069 10.273-10.521.553-19.964-7.535-24.347-17.116-4.382-9.581-4.783-20.448-5.115-30.982-.304-8.586-2.765-17.531-.249-25.826Z"/><path fill="#07040C" d="M133.093 340.371h1.092c6.829-.359 13.604-4.147 18.581-10.548 3.843-4.881 6.594-10.922 8.972-19.618a.774.774 0 0 0 0-.18c0-8.295.07-16.673.097-24.733 0-15.885 0-30.9.304-46.204a.614.614 0 0 0-.221-.525.7.7 0 0 0-.539-.194c-8.751.76-32.005 2.765-40.688 7.383a33.971 33.971 0 0 0-16.908 19.784c-1.783 5.903-1.12 12.138-.47 18.166.29 2.599.581 5.295.664 7.88.304 10.037.65 21.402 5.17 31.259 4.065 8.834 12.968 17.53 23.946 17.53Zm27.249-30.415c-2.309 8.447-4.977 14.323-8.682 19.023-4.728 6.028-11.129 9.678-17.544 10.01-10.825.567-19.687-7.991-23.683-16.715-4.382-9.595-4.728-20.807-5.046-30.706-.069-2.64-.373-5.364-.65-7.991-.636-5.889-1.299-11.986.415-17.613a32.58 32.58 0 0 1 16.203-18.94c8.198-4.328 30.18-6.346 39.388-7.148-.235 15.042-.263 29.821-.304 45.443-.028 7.964-.111 16.273-.111 24.582l.014.055Z"/><path fill="#fff" d="M231.818 375.045a2085.48 2085.48 0 0 1 2.862-54.112 660.74 660.74 0 0 0 237.987-14.807 1180.175 1180.175 0 0 0 2.24 118.897c-11.309 4.396-129.736 25.715-232.443 10.493l-12.083-1.797c.175-19.549.654-39.107 1.437-58.674Z"/><path fill="#07040C" d="M322.484 441.613c26.475 0 50.932-1.52 70.509-3.29 42.471-3.857 76.038-10.286 82.135-12.65a.69.69 0 0 0 .443-.705 1187.716 1187.716 0 0 1-2.226-118.828.662.662 0 0 0-.263-.567.69.69 0 0 0-.608-.138 655.55 655.55 0 0 1-237.794 14.807.68.68 0 0 0-.537.151.689.689 0 0 0-.251.499 2139.452 2139.452 0 0 0-2.862 54.125c-.774 19.591-1.258 39.333-1.382 58.674a.72.72 0 0 0 .608.706l12.07 1.797a551.014 551.014 0 0 0 80.158 5.419Zm151.677-17.088c-7.162 2.475-39.955 8.641-81.265 12.443-38.531 3.498-95.892 5.959-150.335-2.101l-11.461-1.715c.179-19.134.663-38.71 1.382-58.066.677-17.101 1.618-35.033 2.765-53.351a665.657 665.657 0 0 0 118.897 3.359 658.78 658.78 0 0 0 117.722-17.972c-1.12 39.595-.374 79.121 2.295 117.403Z"/><path fill="#fff" d="M102.373 372.598c1.203-19.839 2.405-39.692 1.88-59.559-.415-15.802-1.922-31.701.221-47.365-.815 8.779 4.881 17.682 12.097 23.917 12.996 11.199 30.54 16.134 47.601 20.061a649.476 649.476 0 0 0 49.563 9.373v.097c-.539 10.327-1.175 20.655-1.673 30.982a2639.844 2639.844 0 0 0-2.046 55.301c-.221 8.655-.396 17.318-.525 25.991a485.267 485.267 0 0 1-53.117-11.433c-20.392-5.793-41.171-14.198-54.568-30.637-.083-6.138.249-11.419.567-16.728Z"/><path fill="#07040C" d="M209.477 432.046a.76.76 0 0 0 .456-.152.726.726 0 0 0 .249-.539c.124-8.599.304-17.337.525-25.991.443-17.475 1.12-35.531 2.046-55.218.305-6.277.664-12.664 1.01-18.83l.663-12.153a.693.693 0 0 0-.594-.774c-16.59-2.502-33.305-5.654-49.508-9.373-15.968-3.678-34.107-8.544-47.296-19.909-8.13-7.009-12.567-15.733-11.849-23.323a.702.702 0 0 0-.626-.661.705.705 0 0 0-.756.509c-1.659 12.125-1.134 24.568-.622 36.596.152 3.566.304 7.258.401 10.88.525 19.853-.705 40.01-1.881 59.448h.706-.706c-.317 5.199-.649 10.577-.58 16.729a.617.617 0 0 0 .166.428c14.323 17.655 36.858 25.743 54.9 30.914a482.308 482.308 0 0 0 53.185 11.419h.111Zm3.511-112.413c-.207 3.872-.428 7.729-.636 11.6-.345 6.18-.705 12.567-1.009 18.844-.926 19.701-1.603 37.77-2.046 55.3-.221 8.392-.387 16.853-.511 25.19a480.65 480.65 0 0 1-52.232-11.281c-17.765-5.047-39.941-13.038-54.057-30.208 0-6.001.263-11.282.581-16.383 1.175-19.522 2.406-39.706 1.88-59.615a690.72 690.72 0 0 0-.401-10.908 252.255 252.255 0 0 1-.11-29.295c1.59 6 5.654 12.11 11.668 17.295 13.424 11.585 31.798 16.507 47.891 20.212 16.092 3.706 32.503 6.802 48.982 9.291v-.042Z"/><path fill="#F35A05" d="M366.614 141.509c-4.147 12.443-.318 27.457 10.231 35.158 5.737 4.147 12.871 6 18.927 9.678 6.055 3.677 11.253 10.742 9.262 17.585a29.213 29.213 0 0 0-1.645 5.129c-.456 4.825 4.521 8.088 8.185 11.254 8.295 7.12 11.461 20.849 4.313 29.033-5.641 6.47-15.208 7.438-23.793 7.618-11.627.235-23.669-.249-34.162-5.281-10.493-5.033-18.332-14.116-23.392-24.43-5.06-10.313-7.355-21.788-8.392-33.18-1.203-13.176-.595-27.139 6.097-38.559 6.691-11.419 20.876-19.327 34.369-14.005Z"/><path fill="#07040C" d="M387.781 257.697h4.313c8.779-.18 18.54-1.259 24.291-7.853a17.579 17.579 0 0 0 4.064-13.148 25.114 25.114 0 0 0-8.502-16.95c-.512-.442-1.065-.885-1.604-1.382-3.29-2.765-6.691-5.53-6.332-9.305.159-1.065.466-2.103.913-3.083.249-.622.511-1.258.705-1.907 2.143-7.245-3.443-14.572-9.54-18.319a70.33 70.33 0 0 0-8.557-4.244 53.944 53.944 0 0 1-10.328-5.461c-9.94-7.245-14.143-21.706-9.982-34.356a.663.663 0 0 0-.019-.518.681.681 0 0 0-.382-.353 25.742 25.742 0 0 0-20.309.719 33.292 33.292 0 0 0-14.959 13.521c-5.751 9.816-7.714 22.203-6.193 38.987 1.216 13.355 3.981 24.305 8.461 33.457 5.53 11.268 13.949 20.061 23.724 24.761 9.373 4.507 19.936 5.434 30.236 5.434Zm-22.038-115.759c-4.009 13.065.429 27.816 10.687 35.296a55.595 55.595 0 0 0 10.59 5.613 66.48 66.48 0 0 1 8.378 4.147c5.655 3.471 10.867 10.176 8.931 16.715-.179.595-.414 1.175-.65 1.784a12.196 12.196 0 0 0-1.009 3.483c-.428 4.507 3.429 7.701 6.83 10.508l1.576 1.382a24.068 24.068 0 0 1 7.977 15.927 16.265 16.265 0 0 1-3.733 12.124c-5.378 6.167-14.35 7.19-23.268 7.369-11.461.235-23.502-.248-33.844-5.212-9.498-4.562-17.682-13.12-23.06-24.097-4.41-9.014-7.134-19.798-8.295-32.987-1.493-16.466.415-28.591 6.014-38.13 6.041-10.452 19.632-18.733 32.876-13.922Z"/><path fill="#F35A05" d="M307.746 92.472c-1.742 18.843-4.037 39-16.327 53.379-4.01 4.673-8.931 8.544-12.554 13.507-4.313 5.903-6.566 13.065-8.06 20.226-2.765 13.521-2.958 28.245 3.443 40.494 6.401 12.249 20.627 21.07 34.01 17.89 11.793-2.765 20.185-13.963 23.074-25.743 2.89-11.779 1.258-24.152-.816-36.097a425.624 425.624 0 0 0-22.77-83.656Z"/><path fill="#07040C" d="M302.728 239.309a24.676 24.676 0 0 0 5.71-.664c11.06-2.613 20.323-12.926 23.599-26.267 2.973-12.098 1.231-24.609-.802-36.388a428.844 428.844 0 0 0-22.88-83.781.719.719 0 0 0-.761-.443.694.694 0 0 0-.594.636c-1.95 20.918-4.507 39.347-16.176 52.979-1.659 1.935-3.525 3.774-5.322 5.53a66.631 66.631 0 0 0-7.259 7.991c-3.746 5.115-6.332 11.627-8.184 20.489-3.374 16.272-2.198 30.056 3.498 40.964 6.055 11.544 17.889 18.954 29.171 18.954Zm5.392-143.782a430.412 430.412 0 0 1 21.774 80.753c2.019 11.641 3.733 23.973.83 35.821-3.152 12.816-12 22.715-22.563 25.217a23.467 23.467 0 0 1-5.392.622c-10.825 0-22.12-7.106-27.899-18.152-5.53-10.618-6.678-24.084-3.373-40.024 1.797-8.669 4.327-15 7.935-19.95a67.072 67.072 0 0 1 7.12-7.825c1.811-1.797 3.705-3.65 5.392-5.627 11.378-13.341 14.282-30.913 16.231-50.863l-.055.028Z"/><path fill="#fff" d="M304.967 194.736a230.159 230.159 0 0 0 7.563-30.152 44.373 44.373 0 0 1 13.327-.221c1.991.262 4.148.801 5.268 2.391a7.1 7.1 0 0 1 .981 3.415l2.655 24.457a3.073 3.073 0 0 1-2.06 3.747 23.895 23.895 0 0 1-27.734-3.637Z"/><path fill="#07040C" d="M321.406 201.981a23.817 23.817 0 0 0 11.641-2.986 3.788 3.788 0 0 0 2.419-4.438l-2.668-24.471a7.863 7.863 0 0 0-1.092-3.747c-1.3-1.852-3.747-2.405-5.752-2.682a44.987 44.987 0 0 0-13.548.235.708.708 0 0 0-.567.567 232.294 232.294 0 0 1-7.535 30.056.686.686 0 0 0 .166.733 24.362 24.362 0 0 0 16.936 6.733Zm-1.466-37.328a43.455 43.455 0 0 1 5.835.387c1.7.235 3.788.691 4.783 2.101a6.59 6.59 0 0 1 .843 3.083l2.655 24.471a3.4 3.4 0 0 1 0 1.548 3.549 3.549 0 0 1-1.659 1.507 23.38 23.38 0 0 1-26.572-3.221c3.07-9.6 5.508-19.391 7.3-29.309a43.205 43.205 0 0 1 6.815-.553v-.014Z"/><path fill="#fff" d="M302.341 95.596c-1.493 9.097-2.516 18.83-7.424 26.862-2.682 4.369-9.913 28.577 7.382 41.352a39.33 39.33 0 0 0 33.485 6.345c8.447-2.156 21.194-12.968 23.503-26.834 5.406 3.442 12.443 1.23 14.129-4.065.968-3.042-1.244-7.908-4.852-8.807-2.765-.705-3.139-.774-5.738.18a84.425 84.425 0 0 1 3.844-20.489c-4.466-9.429-14.074-16.466-24.333-21.346a41.79 41.79 0 0 0-10.673-3.76c-10.714-1.784-27.775 1.202-29.323 10.562Z"/><path fill="#07040C" d="M325.443 172.132a42.553 42.553 0 0 0 10.521-1.382c8.295-2.129 21.014-12.443 23.862-26.42a10.979 10.979 0 0 0 8.738.622 8.907 8.907 0 0 0 5.53-5.53 8.023 8.023 0 0 0-.857-6 7.403 7.403 0 0 0-4.466-3.705c-2.53-.636-3.249-.761-5.115-.153.478-6.54 1.731-13 3.732-19.244a.685.685 0 0 0 0-.526c-5.018-10.617-16.189-17.654-24.664-21.677a42.76 42.76 0 0 0-10.963-3.72c-7.59-1.382-19.12-.235-25.535 4.328a10.316 10.316 0 0 0-4.604 6.747l-.539 3.345c-1.258 8.033-2.558 16.328-6.802 23.268-3.277 5.35-9.678 29.531 7.576 42.291a39.301 39.301 0 0 0 23.586 7.756Zm33.872-29.572a.75.75 0 0 0-.291 0 .66.66 0 0 0-.401.526c-2.309 13.714-15.069 24.235-23.005 26.267a38.408 38.408 0 0 1-32.89-6.11c-17.641-13.024-9.056-37.411-7.217-40.425 4.397-7.176 5.71-15.609 6.996-23.78l.539-3.331a8.977 8.977 0 0 1 4.023-5.835c6.111-4.34 17.171-5.35 24.485-4.147 3.65.739 7.184 1.967 10.507 3.65 8.198 3.898 18.968 10.659 23.876 20.737a84.963 84.963 0 0 0-3.761 20.545.667.667 0 0 0 .277.608.68.68 0 0 0 .663.097c2.406-.899 2.572-.857 5.309-.166a6.043 6.043 0 0 1 3.581 3.028 6.52 6.52 0 0 1 .774 4.894 7.466 7.466 0 0 1-4.673 4.673 9.684 9.684 0 0 1-8.405-.996.741.741 0 0 0-.387-.18v-.055Z"/><path fill="#fff" d="M215.048 158.611a2.425 2.425 0 0 0-1.036-2.253 6.684 6.684 0 0 0-2.392-.996 85.881 85.881 0 0 0-30.416-2.087c-.981.097-2.253.484-2.267 1.479.039.455.246.879.581 1.189a15.21 15.21 0 0 0 7.438 4.023c7.852 2.323 16.327 3.194 24.208.996 1.382-.387 3.58-.678 3.884-2.351Z"/><path fill="#07040C" d="M338.411 142.284a12.585 12.585 0 0 0 7.853-2.765 15.216 15.216 0 0 0 5.461-9.415c1.313-7.853-3.415-15.208-10.535-16.411-7.12-1.203-13.991 4.148-15.319 12.07a15.115 15.115 0 0 0 2.074 10.673 12.451 12.451 0 0 0 8.461 5.737c.664.092 1.335.129 2.005.111Zm11.917-12.443a13.824 13.824 0 0 1-4.935 8.544 10.866 10.866 0 0 1-16.259-2.765 13.701 13.701 0 0 1-1.866-9.678c1.189-7.092 7.327-11.986 13.687-10.908 6.359 1.079 10.562 7.701 9.373 14.779v.028ZM302.866 133.242a12.652 12.652 0 0 0 7.867-2.765 15.514 15.514 0 0 0 3.373-20.088 12.431 12.431 0 0 0-8.461-5.737c-7.12-1.203-13.991 4.147-15.318 12.069a15.21 15.21 0 0 0 2.073 10.673 12.446 12.446 0 0 0 8.462 5.737 12.21 12.21 0 0 0 2.004.111Zm.802-27.401c.584-.003 1.166.044 1.742.138a11.048 11.048 0 0 1 7.507 5.115 14.1 14.1 0 0 1-3.069 18.18 10.864 10.864 0 0 1-13.071.614 10.864 10.864 0 0 1-3.188-3.379 13.742 13.742 0 0 1-1.866-9.677c1.078-6.374 6.235-10.991 11.945-10.991Z"/><path fill="#F35A05" d="M368.467 87.633c-12.874 0-23.309-10.436-23.309-23.31 0-12.873 10.435-23.309 23.309-23.309 12.873 0 23.309 10.436 23.309 23.31 0 12.873-10.436 23.309-23.309 23.309Z"/><path fill="#07040C" d="M368.467 88.352a24.027 24.027 0 0 0 4.704-47.592 24.026 24.026 0 0 0-28.732 23.536 24.053 24.053 0 0 0 24.028 24.055Zm0-46.633a22.617 22.617 0 1 1-22.618 22.577 22.644 22.644 0 0 1 22.618-22.577ZM184.163 161.238h.138a.697.697 0 0 0 .454-.305.703.703 0 0 0 .099-.538 299.994 299.994 0 0 1-5.115-37.01 12.76 12.76 0 0 1 .332-5.199 3.995 3.995 0 0 1 3.387-2.765c1.258 0 2.502.816 3.94 2.586a30.655 30.655 0 0 1 5.102 9.083c.43.972.587 2.042.456 3.097-.18.829-.913 1.645-1.728 1.548a2.765 2.765 0 0 1-1.383-.677 18.203 18.203 0 0 1-5.06-6.153.689.689 0 0 0-.678-.38.676.676 0 0 0-.262.076.704.704 0 0 0-.318.94 19.664 19.664 0 0 0 5.461 6.636 3.985 3.985 0 0 0 2.018.968 3.194 3.194 0 0 0 3.249-2.64 6.904 6.904 0 0 0-.497-3.885 32.178 32.178 0 0 0-5.337-9.498c-1.078-1.383-2.765-3.111-5.032-3.111a5.408 5.408 0 0 0-4.715 3.747 13.826 13.826 0 0 0-.414 5.792 303.476 303.476 0 0 0 5.143 37.19c.05.158.153.294.291.385.139.09.304.13.469.113Z"/><path fill="#07040C" d="M195.721 132.039a2.54 2.54 0 0 0 1.285-.359 4.065 4.065 0 0 0 1.701-2.447c.62-2.212.696-4.541.221-6.789a27.485 27.485 0 0 0-3.359-9.276 4.588 4.588 0 0 0-1.535-1.742 3.737 3.737 0 0 0-2.046-.47 8.14 8.14 0 0 0-6.774 3.76.708.708 0 0 0 1.202.747 6.649 6.649 0 0 1 5.53-3.139c.453-.017.903.073 1.314.263.436.33.791.756 1.037 1.244a26.44 26.44 0 0 1 3.179 8.807 13.131 13.131 0 0 1-.165 6.125 2.767 2.767 0 0 1-1.079 1.659 1.101 1.101 0 0 1-1.064 0 1.392 1.392 0 0 1-.788-1.079.732.732 0 0 0-.816-.58.686.686 0 0 0-.573.528.697.697 0 0 0-.008.273 2.763 2.763 0 0 0 1.576 2.13c.355.204.753.322 1.162.345Z"/><path fill="#07040C" d="M200.283 131.389a3.23 3.23 0 0 0 2.682-1.866 7.63 7.63 0 0 0 .65-2.848c.289-3.218.326-6.454.111-9.678a12.732 12.732 0 0 0-.774-4.064 5.272 5.272 0 0 0-3.07-3.014c-2.308-.747-4.617.65-6.166 1.769a.709.709 0 0 0-.104.947.708.708 0 0 0 .934.187c1.286-.926 3.207-2.115 4.908-1.562a3.843 3.843 0 0 1 2.253 2.295c.421 1.157.645 2.377.664 3.608.21 3.136.177 6.284-.097 9.415a6.59 6.59 0 0 1-.511 2.337 1.845 1.845 0 0 1-1.466 1.092 2.226 2.226 0 0 1-1.382-.664.454.454 0 0 1-.139-.235.689.689 0 0 0-.131-.524.694.694 0 0 0-.463-.278.721.721 0 0 0-.802.581 1.68 1.68 0 0 0 .47 1.382 3.606 3.606 0 0 0 2.433 1.12Z"/><path fill="#07040C" d="M213.127 125.127h.207a.701.701 0 0 0 .498-.599.695.695 0 0 0-.028-.272 85.351 85.351 0 0 1-3.387-24.056v-3.083c.097-4.604.18-9.374-1.314-13.826-.58-1.686-1.88-3.193-3.497-2.764a3.267 3.267 0 0 0-1.95 2.156c-1.797 4.563-2.004 9.678-2.212 14.766a50.397 50.397 0 0 1-1.617 12.871.719.719 0 0 0 .051.551.72.72 0 0 0 1.331-.123 51.367 51.367 0 0 0 1.673-13.272c.194-4.894.401-9.954 2.115-14.309.318-.802.636-1.216 1.01-1.382.76-.222 1.506 1.009 1.783 1.838 1.383 4.148 1.383 8.862 1.244 13.342v3.11a86.497 86.497 0 0 0 3.443 24.443.703.703 0 0 0 .65.609Z"/><path fill="#F35A05" d="M361.803 131.307c-3-10.521-4.562-17.973-3.18-29.158-24.678 6-43.909-2.157-63.72-9.028a20.31 20.31 0 0 1 4.783-9.677c5.876-6.913 12.277-12.443 26.019-14.102 9.678-1.203 21.803-.249 30.568 3.871s15.069 11.406 19.659 19.272a40.957 40.957 0 0 1 4.798 23.365c-.678 6.913-3.747 11.254-8.696 17.019-1.383-1.383-2.655-2.765-4.659-2.959a9.676 9.676 0 0 0-5.572 1.397Z"/><path fill="#07040C" d="M372.034 133.629a.726.726 0 0 0 .511-.235c4.576-5.336 8.13-9.996 8.862-17.42a41.469 41.469 0 0 0-4.894-23.793c-5.433-9.304-12.138-15.885-19.963-19.549-9.678-4.548-22.342-5.018-30.969-3.94-14.558 1.839-21.07 8.046-26.434 14.35a21.058 21.058 0 0 0-4.935 9.955.704.704 0 0 0 .47.788l5.046 1.77c17.572 6.207 35.752 12.636 58.066 7.507-1.231 11.309.608 18.954 3.318 28.438a.707.707 0 0 0 .391.442.715.715 0 0 0 .59 0 9.158 9.158 0 0 1 5.185-1.271c1.687.165 2.765 1.285 4.147 2.585l.166.166a.707.707 0 0 0 .443.207Zm-38.268-64.01c7.23 0 15.47 1.133 22.217 4.285 7.548 3.54 14.06 9.927 19.355 18.982a40.655 40.655 0 0 1 4.714 22.95c-.622 6.235-3.096 10.231-8.046 16.051a7.49 7.49 0 0 0-4.548-2.627 9.564 9.564 0 0 0-5.185 1.051c-2.627-9.221-4.313-16.811-2.931-28.079a.678.678 0 0 0-.235-.608.703.703 0 0 0-.636-.166c-22.383 5.447-40.618-.996-58.259-7.23l-4.48-1.577a20.044 20.044 0 0 1 4.507-8.696c5.171-6.041 11.42-12.097 25.563-13.825 2.642-.33 5.301-.5 7.964-.512Z"/><path fill="#fff" d="M204.458 130.85a11.058 11.058 0 0 0-2.156-7.258 29.067 29.067 0 0 1-2.973-3.83 3.541 3.541 0 0 1 .567-4.424 3.696 3.696 0 0 1 2.945-.414 13.698 13.698 0 0 1 6.622 4.354 14.729 14.729 0 0 1 3.014 3.968 12.81 12.81 0 0 1 1.037 4.314c.149.929.059 1.88-.263 2.765a5.53 5.53 0 0 1-2.765 2.475 6.33 6.33 0 0 1-3.829.898 2.68 2.68 0 0 1-2.199-2.848Z"/><path fill="#07040C" d="M323.77 155.888h.981a12.822 12.822 0 0 0 8.171-4.258.723.723 0 0 0 0-.996.704.704 0 0 0-.996 0 11.372 11.372 0 0 1-7.258 3.788 5.811 5.811 0 0 1-5.64-2.239.712.712 0 0 0-.735-.346.715.715 0 0 0-.468.309.706.706 0 0 0 .027.811 6.914 6.914 0 0 0 5.918 2.931ZM338.438 124.753a2.21 2.21 0 0 0-2.201-2.638 2.21 2.21 0 0 0-.329 4.394 2.144 2.144 0 0 0 1.634-.347 2.144 2.144 0 0 0 .896-1.409ZM208.717 162.455a.703.703 0 0 0 .497-.198.688.688 0 0 0 .208-.494 101.981 101.981 0 0 1 3.345-24.097l.208-.802c1.12-4.147 2.378-8.959.649-13.203a19.337 19.337 0 0 0-5.613-6.816 10.904 10.904 0 0 0-4.963-2.779 4.384 4.384 0 0 0-5.129 2.765c-.539 2.185 1.078 3.913 2.489 5.434.262.276.525.553.76.829a10.793 10.793 0 0 1 1.258 12.07.717.717 0 0 0 .263.967.686.686 0 0 0 .264.087.687.687 0 0 0 .525-.15.69.69 0 0 0 .178-.213 12.241 12.241 0 0 0-1.382-13.687 32.88 32.88 0 0 0-.788-.871c-1.231-1.383-2.516-2.682-2.157-4.148a3.007 3.007 0 0 1 1.423-1.526 2.993 2.993 0 0 1 2.075-.229 9.674 9.674 0 0 1 4.258 2.543 17.749 17.749 0 0 1 5.226 6.291c1.562 3.788.415 8.115-.705 12.304l-.207.802a103.31 103.31 0 0 0-3.388 24.429.712.712 0 0 0 .432.664c.087.037.18.055.274.055v-.027ZM307.069 117.357a2.208 2.208 0 0 0-.9-2.315 2.212 2.212 0 1 0-1.63 4.002 2.157 2.157 0 0 0 2.53-1.687ZM313.429 138.8a.691.691 0 0 0 .359-1.231l-2.516-1.949c-.277-.207-.346-.304-.36-.346.129-.158.283-.294.457-.401a13.594 13.594 0 0 0 5.53-10.562.715.715 0 0 0-.197-.503.712.712 0 0 0-.495-.216.717.717 0 0 0-.719.691 12.198 12.198 0 0 1-4.977 9.457 1.64 1.64 0 0 0-1.026 1.464 1.645 1.645 0 0 0 .916 1.536l2.516 1.949a.692.692 0 0 0 .512.111ZM327.738 121.532a.594.594 0 0 0 .373-.111.704.704 0 0 0 .235-.967 10.558 10.558 0 0 0-8.295-4.742c-2.019-.083-4.3.691-4.853 2.613a.723.723 0 0 0 .484.871.706.706 0 0 0 .871-.484c.332-1.134 1.977-1.645 3.429-1.59a9.079 9.079 0 0 1 7.12 4.147.685.685 0 0 0 .636.263ZM361.057 131.071a.699.699 0 0 0 .474-.159.698.698 0 0 0 .249-.434.7.7 0 0 0-.502-.789l-9.678-3.208a.718.718 0 0 0-.553.047.715.715 0 0 0-.359.424.721.721 0 0 0 .222.775.736.736 0 0 0 .248.137l9.677 3.221c.074.01.15.006.222-.014Z"/><path fill="#fff" d="M354.808 298.439c1.562-18.664 3.138-31.991 4.7-50.641 2.281 12.65 9.111 37.521 11.931 51.042-26.834.871-44.24 1.715-67.481 4.701a32.714 32.714 0 0 1 10.079 13.203 57 57 0 0 1 3.263 15.927c28.618-.968 56.752-1.383 84.845-.539 3.138.096 6.484.165 9.166-1.466a10.82 10.82 0 0 0 4.286-5.53c2.35-6.042.912-12.83-.539-19.148-4.327-18.733-12.706-54.292-20.392-71.891-3.318-7.604-7.314-15.028-13.051-21.028-11.987-12.54-29.808-17.199-47.006-21.25-.747 4.3-5.281 6.844-9.539 7.784-3.79.942-7.776.715-11.434-.65-3.581-1.479-6.595-4.604-8.295-9.677-13.203-1.203-21.54-1.162-27.36-.318-7.687 1.119-15.208 6.719-20.309 12.332-10.715 11.696-16.286 21.553-27.568 35.116-9.677-24.526-15.318-50.656-14.807-77.974-2.419 5.53-33.401 5.004-36.692-3.789 2.171 32.545 4.41 65.463 14.296 96.556 3.193 9.995 7.258 19.95 14.101 27.927 6.844 7.977 16.812 13.825 27.305 13.479 10.493-.345 17.212-3.18 23.987-16.134a21.15 21.15 0 0 1 2.889 5.876c.083 13.825-1.216 30.07-1.382 43.688 30.927 4.894 63.388.76 94.467-1.245.014-9.235-.138-18.442.54-26.351Z"/><path fill="#07040C" d="M286.442 346.648c1.59 0 2.917-1.383 3.76-3.899l.152-.428a21.94 21.94 0 0 1 3.899-7.977 17.421 17.421 0 0 1 8.599-4.743 57.992 57.992 0 0 1 12.54-1.382c1.106 0 2.06-.069 2.765-.124a.709.709 0 0 0 .609-.499.71.71 0 0 0-.734-.912c-.649 0-1.59.097-2.682.125a59.114 59.114 0 0 0-12.857 1.479 18.73 18.73 0 0 0-9.263 5.143 22.893 22.893 0 0 0-4.148 8.475l-.152.442c-.304.927-1.175 3.056-2.544 2.931a1.293 1.293 0 0 1-.912-.511 5.117 5.117 0 0 1-.622-3.484 32.943 32.943 0 0 1 4.147-12.443.709.709 0 1 0-1.23-.705 34.566 34.566 0 0 0-4.397 12.927 6.417 6.417 0 0 0 .927 4.548 2.656 2.656 0 0 0 1.88 1.023l.263.014ZM120.335 388.956a6.052 6.052 0 0 1-4.608-4.791 6.055 6.055 0 1 1 11.93-.148 6.248 6.248 0 0 1-7.322 4.939Zm1.699-10.537a4.642 4.642 0 0 0-4.453 2.445 4.65 4.65 0 0 0 .449 5.061 4.64 4.64 0 0 0 4.814 1.623 4.642 4.642 0 0 0 3.421-3.755 4.84 4.84 0 0 0-4.231-5.374ZM143.953 349.996a6.06 6.06 0 0 1-3.02-1.705 6.06 6.06 0 0 1-1.225-6.532 6.058 6.058 0 0 1 11.11-.153 6.057 6.057 0 0 1 .459 3.437 6.261 6.261 0 0 1-7.324 4.953Zm1.701-10.55a4.656 4.656 0 0 0-4.478 2.444 4.653 4.653 0 0 0 .447 5.082 4.655 4.655 0 0 0 7.112.247 4.663 4.663 0 0 0 1.15-2.4 4.856 4.856 0 0 0-4.24-5.319l.009-.054Z"/><path fill="#F35A05" d="M164.765 368.308a5.749 5.749 0 0 1 4.104-5.014 5.758 5.758 0 0 1 6.167 1.988 5.755 5.755 0 0 1-2.111 8.742 5.752 5.752 0 0 1-3.359.463 5.52 5.52 0 0 1-3.681-2.094 5.536 5.536 0 0 1-1.12-4.085Z"/><path fill="#07040C" d="M169.454 375.183a6.05 6.05 0 0 1-4.242-8.242 6.056 6.056 0 0 1 11.564 3.303 6.25 6.25 0 0 1-7.322 4.939Zm1.701-10.551a4.657 4.657 0 0 0-5.012 5.048 4.66 4.66 0 0 0 8.085 2.735 4.656 4.656 0 0 0 1.156-2.396 4.857 4.857 0 0 0-4.229-5.387ZM192.982 350.157a6.06 6.06 0 0 1-4.619-4.782 6.058 6.058 0 0 1 2.552-6.138 6.059 6.059 0 0 1 9.378 5.965 6.265 6.265 0 0 1-7.311 4.955Zm1.701-10.551a4.66 4.66 0 1 0 4.218 5.371 4.84 4.84 0 0 0-4.218-5.371ZM280.234 349.095a3.39 3.39 0 0 0 1.977-.691c.539-.415 1.867-1.825 2.503-6.097a.708.708 0 0 0-1.304-.467.713.713 0 0 0-.093.259c-.456 3.07-1.382 4.701-1.963 5.171a1.59 1.59 0 0 1-1.7.249 2.762 2.762 0 0 1-.802-1.784 33.664 33.664 0 0 1 2.986-20.364.696.696 0 0 0-.542-.999.714.714 0 0 0-.426.073 16.078 16.078 0 0 0-6.912 8.295 37.321 37.321 0 0 0-2.254 10.424 4.837 4.837 0 0 1-.428 1.894 1.219 1.219 0 0 1-1.093.691c-.566-.097-.926-.94-1.119-1.645a23.056 23.056 0 0 1 4.631-21.623.713.713 0 0 0 .163-.8.713.713 0 0 0-.163-.236.704.704 0 0 0-.995 0 24.52 24.52 0 0 0-4.978 22.936c.443 1.576 1.203 2.474 2.24 2.654a2.563 2.563 0 0 0 1.495-.292 2.57 2.57 0 0 0 1.063-1.09 5.996 5.996 0 0 0 .594-2.42c.24-3.435.966-6.819 2.157-10.051a15.818 15.818 0 0 1 4.341-6.18 34.666 34.666 0 0 0-2.115 18.927 3.82 3.82 0 0 0 1.382 2.765c.404.26.875.399 1.355.401ZM343.184 418.227l-13.978.235a.723.723 0 0 1-.506-.203.75.75 0 0 1-.211-.49l-.315-49.447a.723.723 0 0 1 .68-.703l13.553-.496a.715.715 0 0 1 .519.189.761.761 0 0 1 .212.504l.67 49.697a.69.69 0 0 1-.624.714Zm-13.228-1.19 12.554-.21-.756-48.269-12.172.446.374 48.033ZM318.72 416.978l-13.662-.22a.701.701 0 0 1-.492-.217.732.732 0 0 1-.199-.504l.529-23.359a.685.685 0 0 1 .214-.485.683.683 0 0 1 .495-.191l12.914.192a.689.689 0 0 1 .69.694l.15 23.389a.72.72 0 0 1-.203.505.75.75 0 0 1-.436.196Zm-12.952-1.615 12.223.203-.14-21.978-11.531-.173-.552 21.948Z"/><path fill="#07040C" d="M258.93 342.334h.235a2.77 2.77 0 0 0 1.838-1.382v-.069l2.199-3.097a83.522 83.522 0 0 1 6.193-8.157.716.716 0 0 0 0-.995.703.703 0 0 0-.995 0 87.048 87.048 0 0 0-6.291 8.295l-2.184 3.083a.49.49 0 0 0-.083.124c-.138.208-.456.691-.829.747a1.38 1.38 0 0 1-.871-.429 5.075 5.075 0 0 1-.457-3c1.48-8.433 7.286-14.793 15.554-21.775a26.79 26.79 0 0 1 7.825-4.811 38.58 38.58 0 0 1 8.668-1.728c3.304-.415 6.692-.719 9.954-1.023 3.263-.304 6.678-.608 9.996-1.009a.706.706 0 0 0 .728-.789.705.705 0 0 0-.894-.594c-3.304.401-6.677.719-9.954 1.023-3.277.305-6.678.609-9.996 1.01a39.884 39.884 0 0 0-8.986 1.825 27.998 27.998 0 0 0-8.295 5.046c-8.503 7.175-14.475 13.756-16.024 22.604-.152.885-.124 3.373.885 4.286a2.614 2.614 0 0 0 1.784.815ZM271.827 413.353l-13.635.14a.72.72 0 0 1-.717-.694l-.292-10.987a.706.706 0 0 1 .68-.717l13.553-.496a.706.706 0 0 1 .731.679l.415 11.343a.675.675 0 0 1-.203.505.639.639 0 0 1-.532.227Zm-12.995-1.281 12.238-.13-.362-9.906-12.117.444.241 9.592ZM266.16 288.264a.703.703 0 0 0 .429-.152.704.704 0 0 0 .276-.462.686.686 0 0 0-.138-.52 974.072 974.072 0 0 1-15.65-21.069 3.845 3.845 0 0 1-.677-4.894l14.488-35.116a.716.716 0 0 0-.656-.981.692.692 0 0 0-.643.441l-14.503 35.103a5.169 5.169 0 0 0 .857 6.263 972.663 972.663 0 0 0 15.664 21.097.713.713 0 0 0 .553.29Z"/><path fill="#F35A05" d="m281.531 386.658.222 27.633 13.67.413.012-28.043-13.904-.003Z"/><path fill="#07040C" d="m295.449 415.408-13.67-.413a.72.72 0 0 1-.689-.694l-.224-27.661a.72.72 0 0 1 .203-.505.7.7 0 0 1 .505-.198l13.904.003a.691.691 0 0 1 .498.208.695.695 0 0 1 .205.499l-.053 28.031a.687.687 0 0 1-.217.506.704.704 0 0 1-.462.224Zm-12.988-1.807 12.258.381.008-26.617-12.451-.015.185 26.251ZM385.342 417.188a.613.613 0 0 1-.222.003.705.705 0 0 1-.47-.877l11.168-37.36a.682.682 0 0 1 .869-.481.722.722 0 0 1 .315.186 104.528 104.528 0 0 0 13.061 11.709 302.824 302.824 0 0 0 11.263-31.443.708.708 0 0 1 .559-.493.648.648 0 0 1 .682.265c6.118 8.199 12.345 17.1 19.543 27.977l14.03-41.706a.729.729 0 1 1 1.39.448l-14.519 43.097a.693.693 0 0 1-.957.419.733.733 0 0 1-.299-.247c-7.186-10.947-13.398-19.835-19.447-27.992a308.122 308.122 0 0 1-11.214 31.041.665.665 0 0 1-.449.408.738.738 0 0 1-.61-.1 101.499 101.499 0 0 1-13.128-11.543l-10.826 36.221a.696.696 0 0 1-.739.468Z"/><path fill="#07040C" d="M406.854 410.151a.663.663 0 0 1-.235.003 7.622 7.622 0 0 1-1.743-.94l-3.174-2.189a.671.671 0 0 1-.195-.195.678.678 0 0 1-.099-.531.682.682 0 0 1 .112-.252.706.706 0 0 1 .979-.182l3.174 2.189a6.1 6.1 0 0 0 1.395.752.72.72 0 0 1 .456.891.715.715 0 0 1-.67.454Zm4.028-3.176a.714.714 0 0 1-.598-.312.714.714 0 0 1 0-.785l3.091-4.723a.706.706 0 0 1 1.174.784l-3.091 4.709a.713.713 0 0 1-.576.327Zm-13.42-3.062a.724.724 0 0 1-.416-.118l-4.642-3.202a.7.7 0 0 1-.299-.451.694.694 0 0 1 .117-.528.705.705 0 0 1 .979-.182l4.642 3.203a.671.671 0 0 1 .195.195.676.676 0 0 1 .099.532.697.697 0 0 1-.112.252.682.682 0 0 1-.563.299Zm39.421-4.337a.747.747 0 0 1-.459-.159c-1.402-1.18-2.9-2.359-4.384-3.525a.706.706 0 0 1-.079-1.001.71.71 0 0 1 1.002-.078 196.546 196.546 0 0 1 4.412 3.538.707.707 0 0 1-.034 1.118.701.701 0 0 1-.402.133l-.056-.026Zm-19.805-2.034a.712.712 0 0 1-.598-.312.694.694 0 0 1-.106-.53.71.71 0 0 1 .105-.254l3.091-4.709a.719.719 0 0 1 .979-.21.71.71 0 0 1 .195.979l-3.091 4.723a.714.714 0 0 1-.575.313Zm-28.913-.02a.762.762 0 0 1-.417-.118l-4.572-3.176a.671.671 0 0 1-.195-.195.676.676 0 0 1-.099-.532.709.709 0 0 1 .564-.545.703.703 0 0 1 .527.112l4.642 3.202a.683.683 0 0 1 .299.451.694.694 0 0 1-.117.528.683.683 0 0 1-.632.273Zm39.854-4.911a.705.705 0 0 1-.431-.146 225.662 225.662 0 0 0-4.534-3.342.708.708 0 0 1-.154-.979.683.683 0 0 1 .454-.292.688.688 0 0 1 .525.124 292.45 292.45 0 0 1 4.548 3.356.71.71 0 0 1 .261.788.708.708 0 0 1-.669.491ZM278.683 348.651a95.537 95.537 0 0 1-29.84-2.712.732.732 0 0 1-.533-.877.727.727 0 0 1 .876-.534 93.993 93.993 0 0 0 29.394 2.675.702.702 0 0 1 .802.333.703.703 0 0 1-.13.859.71.71 0 0 1-.573.187l.004.069ZM265.932 358.582a95.915 95.915 0 0 1-15.722-1.43.72.72 0 0 1-.571-.819.703.703 0 0 1 .818-.571c5.114.9 10.294 1.37 15.485 1.406.162.02.311.096.423.215a.703.703 0 0 1-.324 1.164l-.109.035ZM261.795 369.483a50.172 50.172 0 0 1-12.536-2.308.697.697 0 0 1-.41-.347.697.697 0 0 1-.037-.536.705.705 0 0 1 .882-.461 48.048 48.048 0 0 0 12.146 2.24.706.706 0 0 1 .448 1.122.705.705 0 0 1-.398.259l-.095.031ZM126.208 267.927a.675.675 0 0 0 .29 0 49.077 49.077 0 0 1 21.111-4.548.709.709 0 0 0 .282-1.357.705.705 0 0 0-.268-.054 50.437 50.437 0 0 0-21.719 4.66.698.698 0 0 0-.447.305.708.708 0 0 0 .737 1.077l.014-.083ZM263.395 324.279a.705.705 0 0 0 0-1.383h-2.696c.787-6.66 1.078-13.37.871-20.074 0-6.443 0-13.106.553-20.143a.706.706 0 0 0-.649-.761.706.706 0 0 0-.515.158.683.683 0 0 0-.246.478c-.594 7.106-.58 13.825-.553 20.282 0 7.493 0 14.558-.981 20.627a.656.656 0 0 0 .152.567.692.692 0 0 0 .525.263l3.512.069.027-.083ZM134.655 275.421c.063.014.13.014.193 0a34.206 34.206 0 0 1 12.913-1.12.716.716 0 0 0 .52-.157.71.71 0 0 0 .254-.479.706.706 0 0 0-.622-.774 36.188 36.188 0 0 0-13.452 1.175.722.722 0 0 0-.484.871.704.704 0 0 0 .678.484ZM126.678 288.015a.639.639 0 0 0 .304-.083 35.259 35.259 0 0 1 19.355-3.442.702.702 0 0 0 .86-.904.712.712 0 0 0-.408-.43.697.697 0 0 0-.3-.049 36.603 36.603 0 0 0-20.074 3.581.704.704 0 0 0-.318.94.723.723 0 0 0 .581.387ZM123.695 378.799a.653.653 0 0 1-.273-.044.718.718 0 0 1-.234-.976l17.761-28.953a.702.702 0 0 1 1.004-.307.715.715 0 0 1 .328.473.694.694 0 0 1-.133.559l-17.75 28.969a.708.708 0 0 1-.703.279ZM166.4 365.546a.787.787 0 0 1-.387-.202l-16.966-17.327a.712.712 0 0 1-.142-.772.713.713 0 0 1 .387-.377.725.725 0 0 1 .541.007c.085.037.162.09.227.157l16.964 17.34a.72.72 0 0 1-.006.994.751.751 0 0 1-.618.18ZM174.496 365.801a.633.633 0 0 1-.374-.2.684.684 0 0 1-.215-.496.682.682 0 0 1 .207-.5l15.947-16.222a.717.717 0 0 1 .508-.277.716.716 0 0 1 .545.197.718.718 0 0 1 .213.538.694.694 0 0 1-.261.517l-15.949 16.235a.723.723 0 0 1-.621.208Z"/><path fill="#07040C" d="M317.3 333.376c34.328-1.162 60.471-1.383 84.79-.539 2.958.096 6.636.207 9.567-1.563a11.73 11.73 0 0 0 4.576-5.848c2.502-6.47.829-13.728-.525-19.562-3.374-14.655-12.36-53.559-20.434-72.044-4.148-9.484-8.198-16.023-13.176-21.235-11.751-12.291-28.41-16.991-47.379-21.443a.647.647 0 0 0-.553.097.75.75 0 0 0-.304.47c-.691 4.009-5.101 6.346-8.986 7.203a18.771 18.771 0 0 1-11.06-.609c-3.65-1.507-6.388-4.728-7.936-9.318a.693.693 0 0 0-.594-.47c-12.443-1.134-21.208-1.23-27.526-.304-9.595 1.383-17.697 9.235-20.738 12.553a210.613 210.613 0 0 0-15.125 18.941c-3.498 4.77-7.12 9.677-11.71 15.277-9.968-25.591-14.793-51.361-14.323-76.592a.72.72 0 0 0-.594-.705.705.705 0 0 0-.788.484c-.65 1.977-5.738 3.29-12.706 3.29h-.207c-9.927 0-21.028-2.696-22.425-7.078a.703.703 0 0 0-1.241-.242.703.703 0 0 0-.141.491c2.143 32.143 4.369 65.393 14.337 96.776 2.765 8.572 6.802 19.507 14.226 28.176 7.424 8.668 17.972 14.019 27.858 13.728 10.368-.29 17.627-3.124 24-16.756a.73.73 0 0 0-.346-.94.71.71 0 0 0-.778.121.722.722 0 0 0-.162.225c-6.083 13.037-12.691 15.664-22.756 15.94-9.401.263-19.355-4.687-26.752-13.231-7.396-8.544-11.115-19.3-13.88-27.733-9.678-30.319-12.001-62.504-14.088-93.735 4.147 4.078 14.959 5.655 22.217 5.682 2.489 0 9.678-.18 12.857-2.488a202.486 202.486 0 0 0 14.959 76.218.693.693 0 0 0 .539.429.707.707 0 0 0 .65-.235c4.991-6.001 8.821-11.213 12.54-16.273a210.76 210.76 0 0 1 15.014-18.816c2.931-3.207 10.742-10.783 19.881-12.111 6.138-.898 14.64-.802 26.751.277a15.659 15.659 0 0 0 8.572 9.677 19.932 19.932 0 0 0 11.848.678c4.148-.885 8.738-3.346 9.913-7.604 18.457 4.355 34.646 9.014 45.982 20.876 4.867 5.088 8.849 11.503 12.913 20.835 8.019 18.36 16.978 57.181 20.351 71.794 1.3 5.641 2.931 12.678.581 18.733a10.388 10.388 0 0 1-3.996 5.157c-2.571 1.548-5.876 1.452-8.779 1.383-24.097-.775-49.992-.623-83.822.497 1.23-4.009-.194-10.756-2.198-15.719l-.152-.387c-1.729-4.272-3.816-9.443-9.028-11.945 20.959-2.599 37.231-3.456 64.494-4.327a.652.652 0 0 0 .526-.263.68.68 0 0 0 .138-.581c-1.231-5.931-3.208-13.825-5.295-22.3-2.627-10.631-5.35-21.636-6.622-28.729a.71.71 0 0 0-.692-.566.704.704 0 0 0-.691.566c-.788 9.332-1.59 17.462-2.364 25.314-.774 7.853-1.562 15.996-2.35 25.342a.678.678 0 0 0 .069.373c-18.844.788-32.766 1.825-50.31 4.079a.707.707 0 0 0-.407 1.138.707.707 0 0 0 .407.244c6.65 1.632 8.903 7.203 10.894 12.125l.166.401c2.143 5.295 3.456 12.36 1.825 15.609a.697.697 0 0 0 .027.684.703.703 0 0 0 .595.339l-.124.069Zm53.282-35.213c-5.433.18-10.438.359-15.125.539a.452.452 0 0 0 0-.207c.788-9.318 1.59-17.448 2.364-25.314.636-6.443 1.286-13.051 1.922-20.365 1.383 6.788 3.595 15.471 5.682 23.918 2.033 8.032 3.913 15.678 5.157 21.429Z"/><path fill="#07040C" d="M302.244 307.619h.111a.704.704 0 0 0 .594-.788 3.07 3.07 0 0 1 .553-2.239c.221-.318.484-.47.608-.429a.71.71 0 0 0 .754-.254.704.704 0 0 0 .054-.794.712.712 0 0 0-.434-.334 2.044 2.044 0 0 0-2.129.967 4.489 4.489 0 0 0-.802 3.263.706.706 0 0 0 .691.608ZM315.571 334.012a2.762 2.762 0 0 0 2.627-1.549.696.696 0 0 0 .042-.573.7.7 0 0 0-.688-.465.705.705 0 0 0-.653.513 1.485 1.485 0 0 1-1.535.65 5.646 5.646 0 0 1-3.138-1.922 28.9 28.9 0 0 1-2.765-3.097.72.72 0 0 0-.996-.124.703.703 0 0 0-.124.981 30.214 30.214 0 0 0 2.848 3.249 7.128 7.128 0 0 0 3.981 2.323l.401.014ZM215.339 158.888a.705.705 0 0 0 .705-.622 2.286 2.286 0 0 0-.539-1.645 4.268 4.268 0 0 0-1.107-.927 12.102 12.102 0 0 0-5.253-1.797.705.705 0 0 0-.748.898.71.71 0 0 0 .344.419.694.694 0 0 0 .266.079 10.73 10.73 0 0 1 4.645 1.604c.285.16.542.366.76.608a.902.902 0 0 1 .222.609.692.692 0 0 0 .156.519.713.713 0 0 0 .479.255h.07ZM178.633 155.542a.712.712 0 0 0 .499-.221.697.697 0 0 0 .192-.512.545.545 0 0 1 .221-.373c.219-.158.462-.279.719-.359a7.352 7.352 0 0 1 2.447-.332.708.708 0 0 0 .566-.691.706.706 0 0 0-.566-.692 8.319 8.319 0 0 0-2.917.401c-.437.129-.845.34-1.203.622a1.93 1.93 0 0 0-.719 1.493.718.718 0 0 0 .761.664ZM323.466 207.608a17.431 17.431 0 0 0 15.014-8.876.708.708 0 0 0-1.244-.677 15.933 15.933 0 0 1-14.987 8.087.736.736 0 0 0-.76.65.687.687 0 0 0 .032.274.688.688 0 0 0 .352.412.7.7 0 0 0 .266.074c.47.042.912.056 1.327.056ZM337.968 208.479a.551.551 0 0 0 .249 0 8.943 8.943 0 0 0 5.53-6.553.708.708 0 0 0-.286-.76.71.71 0 0 0-1.004.226.704.704 0 0 0-.092.271 7.511 7.511 0 0 1-4.59 5.53.704.704 0 0 0-.401.912.725.725 0 0 0 .248.265.734.734 0 0 0 .346.109ZM374.992 83.264a.706.706 0 0 0 .277 0 .72.72 0 0 0 .373-.926 20.273 20.273 0 0 0-6.111-7.701 49.165 49.165 0 0 0-8.295-5.102.717.717 0 0 0-.954.305.705.705 0 0 0 .304.953 46.501 46.501 0 0 1 8.005 4.95 18.8 18.8 0 0 1 5.696 7.148.692.692 0 0 0 .705.373ZM234.1 243.623a.69.69 0 0 0 .442-.153.699.699 0 0 0 .263-.465.701.701 0 0 0-.138-.516 28.351 28.351 0 0 1-4.729-8.42.734.734 0 0 0-.933-.449.733.733 0 0 0-.449.933 30.03 30.03 0 0 0 4.949 8.793c.07.091.16.163.263.212.104.048.218.07.332.065ZM381.67 300.347a.702.702 0 0 0 .622-.651.705.705 0 0 0-.525-.731 68.29 68.29 0 0 0-13.355-.719.704.704 0 0 0-.692.733.7.7 0 0 0 .222.495.693.693 0 0 0 .511.182c4.381-.196 8.771.04 13.106.705l.111-.014ZM360.794 138.813a.722.722 0 0 0 .416-.133.723.723 0 0 0 .261-.35 21.061 21.061 0 0 0 .844-8.448.699.699 0 0 0-.5-.601.709.709 0 0 0-.897.753 19.42 19.42 0 0 1-.802 7.867.72.72 0 0 0 .47.885l.208.027Z"/><path fill="#07040C" d="M348.904 64.365a4.685 4.685 0 0 1 2.184.166c1.147.273 2.278.61 3.388 1.009a41.794 41.794 0 0 1 17.115 11.35c1.244 1.383 2.323 2.766 3.456 4.259a6.906 6.906 0 0 1 1.632 2.903 2.627 2.627 0 0 1-4.825 1.673 40.286 40.286 0 0 0-11.06-11.226 28.472 28.472 0 0 0-8.074-4.037 34.537 34.537 0 0 0-3.056-1.037 3.123 3.123 0 0 1-2.295-1.383 2.57 2.57 0 0 1 .544-3.129c.285-.254.624-.442.991-.548ZM303.696 97.38a2.002 2.002 0 0 1 2.143-.415c.248.069 1.548.553 1.838.691 2.005.746 3.996 1.604 6.056 2.212a111.53 111.53 0 0 0 11.959 3.138 78.877 78.877 0 0 0 15.207 1.604 47.67 47.67 0 0 0 14.876-2.502c.926-.208 1.977-.83 2.89-.318a1.551 1.551 0 0 1-.36 2.765c-6.097 1.783-12.318 3.58-18.747 3.387a91.553 91.553 0 0 1-11.171-.802c-2.93-.498-5.82-1.217-8.723-1.908-4.369-1.133-8.765-2.17-12.996-3.733a38.737 38.737 0 0 1-2.032-.815 2.408 2.408 0 0 1-1.051-.747 1.947 1.947 0 0 1 .111-2.558ZM308.438 181.285c.207-.761.428-1.521.649-2.295.523-1.421.93-2.882 1.217-4.369.373-1.383.747-2.765 1.134-4.148a.58.58 0 0 0 0-.414l.11-.318a.537.537 0 0 0-.207-.692c.954-.691 2.212.249 3.249.719 1.014.485 2.081.851 3.18 1.092 1.299.346 5.447.54 6.65.802a1.291 1.291 0 0 1 .871.692l2.156-.941c.47-.193.94-.401 1.383-.622 1.12 0 2.226 0 3.332-.124a3.831 3.831 0 0 0 0 .401 2.958 2.958 0 0 0 0 .498c.028.122.065.242.11.359.139.456.304.899.443 1.382-.098.09-.204.168-.318.236-4.148 2.087-8.378 3.967-12.443 6.207a369.763 369.763 0 0 1-6.111 3.318c-.876.484-1.803.869-2.765 1.148h-.663c-.188.034-.38.034-.567 0a1.885 1.885 0 0 1-1.383-1.383 1.301 1.301 0 0 1-.276-.456c.069-.36.152-.733.249-1.092ZM219.016 286.398c.871-.097.65.083 1.217.235 2.53.85 5.203 1.193 7.866 1.009a28.774 28.774 0 0 0 11.061-2.419c.179-.097 1.479-.733 1.728-.941.249-.207 1.631-1.133 1.977-1.382a16.64 16.64 0 0 0 2.765-2.585 53.592 53.592 0 0 0 4.272-8.13l.097-.235a8.37 8.37 0 0 1 .815-1.949c.197-.275.458-.498.761-.65l.705.747c.02.157.099.3.221.401l.816.774a71.68 71.68 0 0 1 4.078 5.378c-.03.22-.105.432-.221.622a30.23 30.23 0 0 1-2.364 3.332c-1.936 4.258-4.687 8.295-9.346 9.678a60.437 60.437 0 0 1-9.553 1.686 43.04 43.04 0 0 1-5.821-.276c-1.382 0-2.903-.097-4.341 0a8.817 8.817 0 0 1-2.641-.208 1.683 1.683 0 0 1-1.078-1.7 18.328 18.328 0 0 1-2.087-.65c-.484-.249-1.12-.332-1.452-.774a1.154 1.154 0 0 1-.325-.524 1.154 1.154 0 0 1 .307-1.147 1.15 1.15 0 0 1 .543-.292ZM178.66 154.505a1.566 1.566 0 0 1 1.079-1.078h.318a1.384 1.384 0 0 1 2.143-.526 17.492 17.492 0 0 0 1.838 2.074c.166.18.346.346.526.512a38.12 38.12 0 0 0 3.65 1.147 26.857 26.857 0 0 0 5.032 1.466c1.963.304 2.143.29 4.549.539 2.024.334 4.072.51 6.124.525a21.062 21.062 0 0 0 4.604-.567h.069a1.796 1.796 0 0 1 .429-1.493 1.71 1.71 0 0 1-.373-1.875 1.72 1.72 0 0 1 2.806-.558 8.95 8.95 0 0 0 1.576 1.106c.482.245.899.6 1.217 1.037v.111h.193a1.479 1.479 0 0 1 .553 2.765 23.747 23.747 0 0 1-10.438 2.765c-1.244 0-2.475-.194-3.719-.18-1.244.014-2.378 0-3.553-.083-2.475-.276-4.908-.747-7.341-1.23h-.111.291-.305a17.248 17.248 0 0 1-3.359-.678c-3.152-1.106-6.429-2.378-7.272-3.843a4 4 0 0 1-.401-.664 1.594 1.594 0 0 1-.125-1.272ZM182.849 127.048a1.388 1.388 0 0 1 1.097-1.11 1.39 1.39 0 0 1 .549.004c.843.235 1.023 1.189 1.465 1.839.194.332.401.664.622.982.221.318.249.235.692.525h.082c.509.436 1.05.834 1.618 1.189.254.162.517.31.788.442.78.238 1.59.359 2.406.36 1.783 0 2.308-.484 4.908-.526.58 0 1.175.125 1.769.125a5.325 5.325 0 0 0 1.839-.899c.608-.47.954-1.258 1.673-1.534a1.878 1.878 0 0 1 2.591 1.909 1.875 1.875 0 0 1-.531 1.146 8.449 8.449 0 0 1-5.378 3.304 4.5 4.5 0 0 1-.636 0 13.062 13.062 0 0 0-3.636.277c-1.244.179-.691.193-2.558.387a7.097 7.097 0 0 1-2.917-.733 10.953 10.953 0 0 1-3.042-2.087 1.553 1.553 0 0 1-.345-.263l-.318-.387a3.798 3.798 0 0 1-1.092-1.383 11.376 11.376 0 0 1-1.037-1.659c-.263-.691-.705-1.272-.609-1.908Z" opacity=".13"/><path fill="#07040C" d="M187.287 129.274c-.276-.193-.373-.276 0 0ZM200.684 109.642a1.491 1.491 0 0 1 2.184-.884c.83.566 1.037 1.852 1.742 2.613a89.508 89.508 0 0 1 6.996 7.382 1.42 1.42 0 0 1-.38 1.97 1.416 1.416 0 0 1-1.97-.38 73.513 73.513 0 0 0-6.18-6.277 9.673 9.673 0 0 1-2.102-3 1.848 1.848 0 0 1-.29-1.424ZM301.456 305.241a2.23 2.23 0 0 1 1.908-.884 20.702 20.702 0 0 1 3.581-.125 2.182 2.182 0 0 1 1.631.567 1.713 1.713 0 0 1 .456 1.783c.563.462 1.094.961 1.59 1.494a30.403 30.403 0 0 1 5.724 9.76c.557 1.73.977 3.5 1.258 5.295.65 3.374.857 6.387-.083 8.6-1.383 2.295-3.871 1.133-5.53-.249l-.747-.567c-.898-.636-1.59-1.576-.995-2.682a1.921 1.921 0 0 1 2.046-.788c.705 0 1.507 0 2.032.511.143.153.255.331.332.526a1.532 1.532 0 0 1 0-.166.264.264 0 0 1 0-.097 14.227 14.227 0 0 0-.567-4.867 27.136 27.136 0 0 0-3.138-8.571 21.345 21.345 0 0 0-4.023-5.53c-1.162-.968-.609-.664-1.825-1.175-.498-.208-1.065-.277-1.549-.498h-.815a1.54 1.54 0 0 1-1.322-.795 1.534 1.534 0 0 1 .036-1.542ZM364.112 261.72c1.258 0 1.383 1.382 1.687 2.378.553 1.921.995 3.871 1.576 5.792a94.15 94.15 0 0 0 4.825 13.107c.442 1.272 3.442 7.203 5.005 10.051.456.857.912 1.728 1.382 2.571.406.51.677 1.114.788 1.756a2.381 2.381 0 0 1-.373 1.783 29.718 29.718 0 0 0-5.751-.442 1.245 1.245 0 0 1-.332-.277c-2.378-1.977-3.277-5.101-3.968-8.004-.194-.775-.346-1.563-.512-2.351a1.736 1.736 0 0 1 .083-1.382c.122-.213.299-.39.512-.512-1.383-3.898-2.613-7.825-3.885-11.751a81.998 81.998 0 0 1-1.922-8.765 16.18 16.18 0 0 1-.456-2.765 1.296 1.296 0 0 1 1.341-1.189Z" opacity=".13"/><path fill="#07040C" d="M297.06 331.661c2.046-.801 4.562-2.543 8.06-2.861h-.291a6.762 6.762 0 0 1 1.065 0 4.537 4.537 0 0 1 2.571.705c1.563 1.216 3.291 3.373 3.761 3.456.218.133.444.253.677.359.449.169.912.299 1.383.388a47.555 47.555 0 0 0 7.272-.471c2.53-.262 5.088-.276 7.631-.442 2.876-.193 5.724-.511 8.586-.76 5.143-.595 10.3-.415 15.456-.664 4.079-.29 8.157-.069 12.25-.138 7.023 0 14.295.304 21.304.733 4.701.4 14.904.801 18.968-.498 1.106-.208 2.24-1.092 3.332-.512a1.53 1.53 0 0 1 .706 1.498 1.529 1.529 0 0 1-1.065 1.267 38.142 38.142 0 0 1-9.913 2.226 72.935 72.935 0 0 1-12.608.235c-3.968-.29-7.95-.235-11.918-.456a110.033 110.033 0 0 0-12.816 0c-2.557 0-5.115 0-7.673.097-3.608.18-7.23.083-10.839.193-4.977.318-9.926.871-14.917 1.12-2.406.111-4.811.138-7.203.429a20.008 20.008 0 0 1-9.678-.678c-2.046-.691-3.359-2.461-4.797-3.954h-.152a19.67 19.67 0 0 0-2.986.678 21.855 21.855 0 0 0-10.176 5.53 4.88 4.88 0 0 0-1.313 1.714 2.355 2.355 0 0 1-.788 1.134 2.035 2.035 0 0 1-2.11.198 2.041 2.041 0 0 1-1.139-1.788c.608-3.553 6.235-7.134 9.36-8.738ZM110.419 397.635l-3.816-3.871-3.774-3.857c-.567-.581-1.12-1.189-1.673-1.783v-.415l.069-.401v-.816c.083-3 .291-3.346.457-5.834.11-1.244.511-6.056.954-8.987.002-.268.063-.532.179-.774.194-3.415.346-6.829.332-10.258v-2.157c.293-3.794.385-7.601.277-11.406.152-2.613.221-5.225.276-7.838.111-5.655.152-11.337 0-16.992v-4.216c.111-4.452.332-8.904.138-13.369l-.166-3.277c0-4.396 0-8.793-.152-13.175-.096-2.765-.373-5.53-.456-8.295-.069-2.337 0-4.673.083-7.01a1.562 1.562 0 0 1 1.963.982 61.198 61.198 0 0 1 1.867 8.793 112.246 112.246 0 0 1 1.534 15.207c.083 2.959.304 5.904.47 8.848.166 2.945.125 6.056.249 9.084.332 10.631.885 21.263.678 31.894-.222 6.484-.512 12.968-.733 19.452v15.028a70.098 70.098 0 0 0 2.765 14.697c.207.636.29.857.788 2.198.214.41.355.855.415 1.313-.733-.912-1.715-1.852-2.724-2.765Z" opacity=".13"/></svg>