<svg xmlns="http://www.w3.org/2000/svg" width="30" height="30" fill="none"><circle cx="15" cy="15" r="15" fill="#F35A05"/><path fill="#fff" d="M10.64 14.546c.671.083 1.219.372 1.64.87.423.482.634 1.054.634 1.717 0 .938-.37 1.772-1.108 2.504-.725.73-1.53 1.096-2.413 1.096-.751 0-1.338-.276-1.76-.827C7.21 19.354 7 18.58 7 17.588c0-1.573.666-3.394 1.998-5.463C10.342 10.042 11.496 9 12.458 9c.317 0 .6.124.851.372.25.235.376.504.376.808 0 .4-.086.73-.257.993-.172.248-.534.58-1.088.993a4.845 4.845 0 0 0-1.7 2.38Zm9.314 0c.673.083 1.22.372 1.642.87.422.482.633 1.054.633 1.717 0 .938-.37 1.772-1.108 2.504-.725.73-1.53 1.096-2.413 1.096-.751 0-1.338-.276-1.76-.827-.422-.552-.633-1.325-.633-2.318 0-.842.25-1.89.752-3.146.514-1.269 1.252-2.49 2.215-3.662C20.258 9.593 21.088 9 21.774 9c.316 0 .6.124.85.372.25.235.376.504.376.808 0 .455-.105.813-.316 1.076-.211.248-.554.551-1.029.91a4.845 4.845 0 0 0-1.7 2.38Z"/></svg>